  0
SECTION
  2
HEADER
  9
$ACADVER
  1
AC1014
  9
$HANDSEED
  5
FFFF
  9
$MEASUREMENT
 70
     1
  0
ENDSEC
  0
SECTION
  2
TABLES
  0
TABLE
  2
VPORT
  5
8
330
0
100
AcDbSymbolTable
 70
     4
  0
VPORT
  5
2E
330
8
100
AcDbSymbolTableRecord
100
AcDbViewportTableRecord
  2
*ACTIVE
 70
     0
 10
0.0
 20
0.0
 11
1.0
 21
1.0
 12
210.0
 22
148.5
 13
0.0
 23
0.0
 14
10.0
 24
10.0
 15
10.0
 25
10.0
 16
0.0
 26
0.0
 36
1.0
 17
0.0
 27
0.0
 37
0.0
 40
341.0
 41
1.24
 42
50.0
 43
0.0
 44
0.0
 50
0.0
 51
0.0
 71
     0
 72
   100
 73
     1
 74
     3
 75
     0
 76
     0
 77
     0
 78
     0
  0
ENDTAB
  0
TABLE
  2
LTYPE
  5
5
330
0
100
AcDbSymbolTable
 70
     1
  0
LTYPE
  5
14
330
5
100
AcDbSymbolTableRecord
100
AcDbLinetypeTableRecord
  2
BYBLOCK
 70
     0
  3

 72
    65
 73
     0
 40
0.0
  0
LTYPE
  5
15
330
5
100
AcDbSymbolTableRecord
100
AcDbLinetypeTableRecord
  2
BYLAYER
 70
     0
  3

 72
    65
 73
     0
 40
0.0
  0
LTYPE
  5
16
330
5
100
AcDbSymbolTableRecord
100
AcDbLinetypeTableRecord
  2
CONTINUOUS
 70
     0
  3
Solid line
 72
    65
 73
     0
 40
0.0
  0
ENDTAB
  0
TABLE
  2
LAYER
  5
2
100
AcDbSymbolTable
 70
1
  0
LAYER
  5
50
100
AcDbSymbolTableRecord
100
AcDbLayerTableRecord
  2
0
 70
0
  6
CONTINUOUS
  0
ENDTAB
  0
TABLE
  2
STYLE
  5
3
330
0
100
AcDbSymbolTable
 70
     1
  0
STYLE
  5
11
330
3
100
AcDbSymbolTableRecord
100
AcDbTextStyleTableRecord
  2
STANDARD
 70
     0
 40
0.0
 41
1.0
 50
0.0
 71
     0
 42
2.5
  3
txt
  4

  0
ENDTAB
  0
TABLE
  2
VIEW
  5
6
330
0
100
AcDbSymbolTable
 70
     0
  0
ENDTAB
  0
TABLE
  2
UCS
  5
7
330
0
100
AcDbSymbolTable
 70
     0
  0
ENDTAB
  0
TABLE
  2
APPID
  5
9
330
0
100
AcDbSymbolTable
 70
     2
  0
APPID
  5
12
330
9
100
AcDbSymbolTableRecord
100
AcDbRegAppTableRecord
  2
ACAD
 70
     0
  0
ENDTAB
  0
TABLE
  2
DIMSTYLE
  5
A
330
0
100
AcDbSymbolTable
 70
     1
  0
DIMSTYLE
105
27
330
A
100
AcDbSymbolTableRecord
100
AcDbDimStyleTableRecord
  2
ISO-25
 70
     0
  3

  4

  5

  6

  7

 40
1.0
 41
2.5
 42
0.625
 43
3.75
 44
1.25
 45
0.0
 46
0.0
 47
0.0
 48
0.0
140
2.5
141
2.5
142
0.0
143
0.03937007874016
144
1.0
145
0.0
146
1.0
147
0.625
 71
     0
 72
     0
 73
     0
 74
     0
 75
     0
 76
     0
 77
     1
 78
     8
170
     0
171
     3
172
     1
173
     0
174
     0
175
     0
176
     0
177
     0
178
     0
270
     2
271
     2
272
     2
273
     2
274
     3
340
11
275
     0
280
     0
281
     0
282
     0
283
     0
284
     8
285
     0
286
     0
287
     3
288
     0
  0
ENDTAB
  0
TABLE
  2
BLOCK_RECORD
  5
1
330
0
100
AcDbSymbolTable
 70
     1
  0
BLOCK_RECORD
  5
1F
330
1
100
AcDbSymbolTableRecord
100
AcDbBlockTableRecord
  2
*MODEL_SPACE
  0
BLOCK_RECORD
  5
1B
330
1
100
AcDbSymbolTableRecord
100
AcDbBlockTableRecord
  2
*PAPER_SPACE
  0
ENDTAB
  0
ENDSEC
  0
SECTION
  2
BLOCKS
  0
BLOCK
  5
20
330
1F
100
AcDbEntity
  8
0
100
AcDbBlockBegin
  2
*MODEL_SPACE
 70
     0
 10
0.0
 20
0.0
 30
0.0
  3
*MODEL_SPACE
  1

  0
ENDBLK
  5
21
330
1F
100
AcDbEntity
  8
0
100
AcDbBlockEnd
  0
BLOCK
  5
1C
330
1B
100
AcDbEntity
 67
     1
  8
0
100
AcDbBlockBegin
  2
*PAPER_SPACE
  1

  0
ENDBLK
  5
1D
330
1B
100
AcDbEntity
 67
     1
  8
0
100
AcDbBlockEnd
  0
ENDSEC
  0
SECTION
  2
ENTITIES
  0
LWPOLYLINE
  5
100
100
AcDbEntity
  8
0
 62
7
100
AcDbPolyline
 90
4
 70
1
 10
18437.727179
 20
-17082.418569
 30
0.0
 10
29687.730873
 20
-17082.418569
 30
0.0
 10
29687.730873
 20
-20415.745235
 30
0.0
 10
18437.727179
 20
-20415.745235
 30
0.0
  0
LWPOLYLINE
  5
101
100
AcDbEntity
  8
0
 62
7
100
AcDbPolyline
 90
4
 70
1
 10
1041.667229
 20
-831.660229
 30
0.0
 10
29896.067229
 20
-831.660229
 30
0.0
 10
29896.067229
 20
-20624.081062
 30
0.0
 10
1041.667229
 20
-20624.081062
 30
0.0
  0
LWPOLYLINE
  5
102
100
AcDbEntity
  8
0
 62
7
100
AcDbPolyline
 90
4
 70
1
 10
1250.000199
 20
-1039.993199
 30
0.0
 10
29687.681449
 20
-1039.993199
 30
0.0
 10
29687.681449
 20
-20415.748992
 30
0.0
 10
1250.000199
 20
-20415.748992
 30
0.0
  0
LWPOLYLINE
  5
103
100
AcDbEntity
  8
0
 62
7
100
AcDbPolyline
 90
2
 70
0
 10
6249.987500
 20
-1039.884667
 30
0.0
 10
6249.987500
 20
-831.657583
 30
0.0
  0
LWPOLYLINE
  5
104
100
AcDbEntity
  8
0
 62
7
100
AcDbPolyline
 90
2
 70
0
 10
11458.310417
 20
-1039.884667
 30
0.0
 10
11458.310417
 20
-831.657583
 30
0.0
  0
LWPOLYLINE
  5
105
100
AcDbEntity
  8
0
 62
7
100
AcDbPolyline
 90
2
 70
0
 10
16666.633333
 20
-1039.884667
 30
0.0
 10
16666.633333
 20
-831.657583
 30
0.0
  0
LWPOLYLINE
  5
106
100
AcDbEntity
  8
0
 62
7
100
AcDbPolyline
 90
2
 70
0
 10
21874.956250
 20
-1039.884667
 30
0.0
 10
21874.956250
 20
-831.657583
 30
0.0
  0
LWPOLYLINE
  5
107
100
AcDbEntity
  8
0
 62
7
100
AcDbPolyline
 90
2
 70
0
 10
27083.279167
 20
-1039.884667
 30
0.0
 10
27083.279167
 20
-831.657583
 30
0.0
  0
LWPOLYLINE
  5
108
100
AcDbEntity
  8
0
 62
7
100
AcDbPolyline
 90
2
 70
0
 10
3748.881250
 20
-997.022167
 30
0.0
 10
3671.622917
 20
-997.022167
 30
0.0
  0
LWPOLYLINE
  5
109
100
AcDbEntity
  8
0
 62
7
100
AcDbPolyline
 90
5
 70
0
 10
3710.252083
 20
-997.022167
 30
0.0
 10
3710.252083
 20
-861.555500
 30
0.0
 10
3697.287500
 20
-880.870083
 30
0.0
 10
3684.322917
 20
-893.834667
 30
0.0
 10
3671.622917
 20
-900.184667
 30
0.0
  0
LWPOLYLINE
  5
10a
100
AcDbEntity
  8
0
 62
7
100
AcDbPolyline
 90
11
 70
0
 10
8879.945833
 20
-874.520083
 30
0.0
 10
8886.295833
 20
-867.905500
 30
0.0
 10
8899.260417
 20
-861.555500
 30
0.0
 10
8931.539583
 20
-861.555500
 30
0.0
 10
8944.239583
 20
-867.905500
 30
0.0
 10
8950.854167
 20
-874.520083
 30
0.0
 10
8957.204167
 20
-887.220083
 30
0.0
 10
8957.204167
 20
-900.184667
 30
0.0
 10
8950.854167
 20
-919.499250
 30
0.0
 10
8873.331250
 20
-997.022167
 30
0.0
 10
8957.204167
 20
-997.022167
 30
0.0
  0
LWPOLYLINE
  5
10b
100
AcDbEntity
  8
0
 62
7
100
AcDbPolyline
 90
14
 70
0
 10
14081.654167
 20
-861.555500
 30
0.0
 10
14165.527083
 20
-861.555500
 30
0.0
 10
14120.283333
 20
-913.149250
 30
0.0
 10
14139.862500
 20
-913.149250
 30
0.0
 10
14152.562500
 20
-919.499250
 30
0.0
 10
14159.177083
 20
-926.113833
 30
0.0
 10
14165.527083
 20
-938.813833
 30
0.0
 10
14165.527083
 20
-971.093000
 30
0.0
 10
14159.177083
 20
-984.057583
 30
0.0
 10
14152.562500
 20
-990.407583
 30
0.0
 10
14139.862500
 20
-997.022167
 30
0.0
 10
14100.968750
 20
-997.022167
 30
0.0
 10
14088.268750
 20
-990.407583
 30
0.0
 10
14081.654167
 20
-984.057583
 30
0.0
  0
LWPOLYLINE
  5
10c
100
AcDbEntity
  8
0
 62
7
100
AcDbPolyline
 90
2
 70
0
 10
19360.885417
 20
-906.799250
 30
0.0
 10
19360.885417
 20
-997.022167
 30
0.0
  0
LWPOLYLINE
  5
10d
100
AcDbEntity
  8
0
 62
7
100
AcDbPolyline
 90
3
 70
0
 10
19328.606250
 20
-855.205500
 30
0.0
 10
19296.591667
 20
-951.778417
 30
0.0
 10
19380.200000
 20
-951.778417
 30
0.0
  0
LWPOLYLINE
  5
10e
100
AcDbEntity
  8
0
 62
7
100
AcDbPolyline
 90
16
 70
0
 10
24575.822917
 20
-861.555500
 30
0.0
 10
24511.264583
 20
-861.555500
 30
0.0
 10
24504.914583
 20
-926.113833
 30
0.0
 10
24511.264583
 20
-919.499250
 30
0.0
 10
24524.229167
 20
-913.149250
 30
0.0
 10
24556.508333
 20
-913.149250
 30
0.0
 10
24569.208333
 20
-919.499250
 30
0.0
 10
24575.822917
 20
-926.113833
 30
0.0
 10
24582.172917
 20
-938.813833
 30
0.0
 10
24582.172917
 20
-971.093000
 30
0.0
 10
24575.822917
 20
-984.057583
 30
0.0
 10
24569.208333
 20
-990.407583
 30
0.0
 10
24556.508333
 20
-997.022167
 30
0.0
 10
24524.229167
 20
-997.022167
 30
0.0
 10
24511.264583
 20
-990.407583
 30
0.0
 10
24504.914583
 20
-984.057583
 30
0.0
  0
LWPOLYLINE
  5
10f
100
AcDbEntity
  8
0
 62
7
100
AcDbPolyline
 90
22
 70
0
 10
29777.531250
 20
-861.555500
 30
0.0
 10
29751.866667
 20
-861.555500
 30
0.0
 10
29738.902083
 20
-867.905500
 30
0.0
 10
29732.552083
 20
-874.520083
 30
0.0
 10
29719.587500
 20
-893.834667
 30
0.0
 10
29713.237500
 20
-919.499250
 30
0.0
 10
29713.237500
 20
-971.093000
 30
0.0
 10
29719.587500
 20
-984.057583
 30
0.0
 10
29725.937500
 20
-990.407583
 30
0.0
 10
29738.902083
 20
-997.022167
 30
0.0
 10
29764.831250
 20
-997.022167
 30
0.0
 10
29777.531250
 20
-990.407583
 30
0.0
 10
29784.145833
 20
-984.057583
 30
0.0
 10
29790.495833
 20
-971.093000
 30
0.0
 10
29790.495833
 20
-938.813833
 30
0.0
 10
29784.145833
 20
-926.113833
 30
0.0
 10
29777.531250
 20
-919.499250
 30
0.0
 10
29764.831250
 20
-913.149250
 30
0.0
 10
29738.902083
 20
-913.149250
 30
0.0
 10
29725.937500
 20
-919.499250
 30
0.0
 10
29719.587500
 20
-926.113833
 30
0.0
 10
29713.237500
 20
-938.813833
 30
0.0
  0
LWPOLYLINE
  5
110
100
AcDbEntity
  8
0
 62
7
100
AcDbPolyline
 90
2
 70
0
 10
6249.987500
 20
-20415.586750
 30
0.0
 10
6249.987500
 20
-20623.813833
 30
0.0
  0
LWPOLYLINE
  5
111
100
AcDbEntity
  8
0
 62
7
100
AcDbPolyline
 90
2
 70
0
 10
11458.310417
 20
-20415.586750
 30
0.0
 10
11458.310417
 20
-20623.813833
 30
0.0
  0
LWPOLYLINE
  5
112
100
AcDbEntity
  8
0
 62
7
100
AcDbPolyline
 90
2
 70
0
 10
16666.633333
 20
-20415.586750
 30
0.0
 10
16666.633333
 20
-20623.813833
 30
0.0
  0
LWPOLYLINE
  5
113
100
AcDbEntity
  8
0
 62
7
100
AcDbPolyline
 90
2
 70
0
 10
21874.956250
 20
-20415.586750
 30
0.0
 10
21874.956250
 20
-20623.813833
 30
0.0
  0
LWPOLYLINE
  5
114
100
AcDbEntity
  8
0
 62
7
100
AcDbPolyline
 90
2
 70
0
 10
27083.279167
 20
-20415.586750
 30
0.0
 10
27083.279167
 20
-20623.813833
 30
0.0
  0
LWPOLYLINE
  5
115
100
AcDbEntity
  8
0
 62
7
100
AcDbPolyline
 90
2
 70
0
 10
3748.881250
 20
-20580.951333
 30
0.0
 10
3671.622917
 20
-20580.951333
 30
0.0
  0
LWPOLYLINE
  5
116
100
AcDbEntity
  8
0
 62
7
100
AcDbPolyline
 90
5
 70
0
 10
3710.252083
 20
-20580.951333
 30
0.0
 10
3710.252083
 20
-20445.749250
 30
0.0
 10
3697.287500
 20
-20465.063833
 30
0.0
 10
3684.322917
 20
-20477.763833
 30
0.0
 10
3671.622917
 20
-20484.378417
 30
0.0
  0
LWPOLYLINE
  5
117
100
AcDbEntity
  8
0
 62
7
100
AcDbPolyline
 90
11
 70
0
 10
8879.945833
 20
-20458.449250
 30
0.0
 10
8886.295833
 20
-20452.099250
 30
0.0
 10
8899.260417
 20
-20445.749250
 30
0.0
 10
8931.539583
 20
-20445.749250
 30
0.0
 10
8944.239583
 20
-20452.099250
 30
0.0
 10
8950.854167
 20
-20458.449250
 30
0.0
 10
8957.204167
 20
-20471.413833
 30
0.0
 10
8957.204167
 20
-20484.378417
 30
0.0
 10
8950.854167
 20
-20503.693000
 30
0.0
 10
8873.331250
 20
-20580.951333
 30
0.0
 10
8957.204167
 20
-20580.951333
 30
0.0
  0
LWPOLYLINE
  5
118
100
AcDbEntity
  8
0
 62
7
100
AcDbPolyline
 90
14
 70
0
 10
14081.654167
 20
-20445.749250
 30
0.0
 10
14165.527083
 20
-20445.749250
 30
0.0
 10
14120.283333
 20
-20497.078417
 30
0.0
 10
14139.862500
 20
-20497.078417
 30
0.0
 10
14152.562500
 20
-20503.693000
 30
0.0
 10
14159.177083
 20
-20510.043000
 30
0.0
 10
14165.527083
 20
-20523.007583
 30
0.0
 10
14165.527083
 20
-20555.286750
 30
0.0
 10
14159.177083
 20
-20568.251333
 30
0.0
 10
14152.562500
 20
-20574.601333
 30
0.0
 10
14139.862500
 20
-20580.951333
 30
0.0
 10
14100.968750
 20
-20580.951333
 30
0.0
 10
14088.268750
 20
-20574.601333
 30
0.0
 10
14081.654167
 20
-20568.251333
 30
0.0
  0
LWPOLYLINE
  5
119
100
AcDbEntity
  8
0
 62
7
100
AcDbPolyline
 90
2
 70
0
 10
19360.885417
 20
-20490.728417
 30
0.0
 10
19360.885417
 20
-20580.951333
 30
0.0
  0
LWPOLYLINE
  5
11a
100
AcDbEntity
  8
0
 62
7
100
AcDbPolyline
 90
3
 70
0
 10
19328.606250
 20
-20439.134667
 30
0.0
 10
19296.591667
 20
-20535.972167
 30
0.0
 10
19380.200000
 20
-20535.972167
 30
0.0
  0
LWPOLYLINE
  5
11b
100
AcDbEntity
  8
0
 62
7
100
AcDbPolyline
 90
16
 70
0
 10
24575.822917
 20
-20445.749250
 30
0.0
 10
24511.264583
 20
-20445.749250
 30
0.0
 10
24504.914583
 20
-20510.043000
 30
0.0
 10
24511.264583
 20
-20503.693000
 30
0.0
 10
24524.229167
 20
-20497.078417
 30
0.0
 10
24556.508333
 20
-20497.078417
 30
0.0
 10
24569.208333
 20
-20503.693000
 30
0.0
 10
24575.822917
 20
-20510.043000
 30
0.0
 10
24582.172917
 20
-20523.007583
 30
0.0
 10
24582.172917
 20
-20555.286750
 30
0.0
 10
24575.822917
 20
-20568.251333
 30
0.0
 10
24569.208333
 20
-20574.601333
 30
0.0
 10
24556.508333
 20
-20580.951333
 30
0.0
 10
24524.229167
 20
-20580.951333
 30
0.0
 10
24511.264583
 20
-20574.601333
 30
0.0
 10
24504.914583
 20
-20568.251333
 30
0.0
  0
LWPOLYLINE
  5
11c
100
AcDbEntity
  8
0
 62
7
100
AcDbPolyline
 90
22
 70
0
 10
29777.531250
 20
-20445.749250
 30
0.0
 10
29751.866667
 20
-20445.749250
 30
0.0
 10
29738.902083
 20
-20452.099250
 30
0.0
 10
29732.552083
 20
-20458.449250
 30
0.0
 10
29719.587500
 20
-20477.763833
 30
0.0
 10
29713.237500
 20
-20503.693000
 30
0.0
 10
29713.237500
 20
-20555.286750
 30
0.0
 10
29719.587500
 20
-20568.251333
 30
0.0
 10
29725.937500
 20
-20574.601333
 30
0.0
 10
29738.902083
 20
-20580.951333
 30
0.0
 10
29764.831250
 20
-20580.951333
 30
0.0
 10
29777.531250
 20
-20574.601333
 30
0.0
 10
29784.145833
 20
-20568.251333
 30
0.0
 10
29790.495833
 20
-20555.286750
 30
0.0
 10
29790.495833
 20
-20523.007583
 30
0.0
 10
29784.145833
 20
-20510.043000
 30
0.0
 10
29777.531250
 20
-20503.693000
 30
0.0
 10
29764.831250
 20
-20497.078417
 30
0.0
 10
29738.902083
 20
-20497.078417
 30
0.0
 10
29725.937500
 20
-20503.693000
 30
0.0
 10
29719.587500
 20
-20510.043000
 30
0.0
 10
29713.237500
 20
-20523.007583
 30
0.0
  0
LWPOLYLINE
  5
11d
100
AcDbEntity
  8
0
 62
7
100
AcDbPolyline
 90
2
 70
0
 10
1041.664583
 20
-6039.980500
 30
0.0
 10
1249.891667
 20
-6039.980500
 30
0.0
  0
LWPOLYLINE
  5
11e
100
AcDbEntity
  8
0
 62
7
100
AcDbPolyline
 90
2
 70
0
 10
1041.664583
 20
-11248.303417
 30
0.0
 10
1249.891667
 20
-11248.303417
 30
0.0
  0
LWPOLYLINE
  5
11f
100
AcDbEntity
  8
0
 62
7
100
AcDbPolyline
 90
2
 70
0
 10
1041.664583
 20
-16456.626333
 30
0.0
 10
1249.891667
 20
-16456.626333
 30
0.0
  0
LWPOLYLINE
  5
120
100
AcDbEntity
  8
0
 62
7
100
AcDbPolyline
 90
2
 70
0
 10
1113.366667
 20
-3458.176333
 30
0.0
 10
1177.925000
 20
-3458.176333
 30
0.0
  0
LWPOLYLINE
  5
121
100
AcDbEntity
  8
0
 62
7
100
AcDbPolyline
 90
3
 70
0
 10
1100.666667
 20
-3497.070083
 30
0.0
 10
1145.645833
 20
-3361.603417
 30
0.0
 10
1190.889583
 20
-3497.070083
 30
0.0
  0
LWPOLYLINE
  5
122
100
AcDbEntity
  8
0
 62
7
100
AcDbPolyline
 90
19
 70
0
 10
1155.435417
 20
-8634.484667
 30
0.0
 10
1174.750000
 20
-8640.834667
 30
0.0
 10
1181.100000
 20
-8647.184667
 30
0.0
 10
1187.714583
 20
-8660.149250
 30
0.0
 10
1187.714583
 20
-8679.463833
 30
0.0
 10
1181.100000
 20
-8692.428417
 30
0.0
 10
1174.750000
 20
-8698.778417
 30
0.0
 10
1161.785417
 20
-8705.393000
 30
0.0
 10
1110.191667
 20
-8705.393000
 30
0.0
 10
1110.191667
 20
-8569.926333
 30
0.0
 10
1155.435417
 20
-8569.926333
 30
0.0
 10
1168.400000
 20
-8576.276333
 30
0.0
 10
1174.750000
 20
-8582.890917
 30
0.0
 10
1181.100000
 20
-8595.590917
 30
0.0
 10
1181.100000
 20
-8608.555500
 30
0.0
 10
1174.750000
 20
-8621.520083
 30
0.0
 10
1168.400000
 20
-8627.870083
 30
0.0
 10
1155.435417
 20
-8634.484667
 30
0.0
 10
1110.191667
 20
-8634.484667
 30
0.0
  0
LWPOLYLINE
  5
123
100
AcDbEntity
  8
0
 62
7
100
AcDbPolyline
 90
16
 70
0
 10
1187.714583
 20
-13900.751333
 30
0.0
 10
1181.100000
 20
-13907.101333
 30
0.0
 10
1161.785417
 20
-13913.715917
 30
0.0
 10
1148.820833
 20
-13913.715917
 30
0.0
 10
1129.506250
 20
-13907.101333
 30
0.0
 10
1116.806250
 20
-13894.401333
 30
0.0
 10
1110.191667
 20
-13881.436750
 30
0.0
 10
1103.841667
 20
-13855.507583
 30
0.0
 10
1103.841667
 20
-13836.193000
 30
0.0
 10
1110.191667
 20
-13810.528417
 30
0.0
 10
1116.806250
 20
-13797.563833
 30
0.0
 10
1129.506250
 20
-13784.599250
 30
0.0
 10
1148.820833
 20
-13778.249250
 30
0.0
 10
1161.785417
 20
-13778.249250
 30
0.0
 10
1181.100000
 20
-13784.599250
 30
0.0
 10
1187.714583
 20
-13791.213833
 30
0.0
  0
LWPOLYLINE
  5
124
100
AcDbEntity
  8
0
 62
7
100
AcDbPolyline
 90
12
 70
1
 10
1110.191667
 20
-19122.038833
 30
0.0
 10
1110.191667
 20
-18986.572167
 30
0.0
 10
1142.470833
 20
-18986.572167
 30
0.0
 10
1161.785417
 20
-18992.922167
 30
0.0
 10
1174.750000
 20
-19005.886750
 30
0.0
 10
1181.100000
 20
-19018.851333
 30
0.0
 10
1187.714583
 20
-19044.515917
 30
0.0
 10
1187.714583
 20
-19063.830500
 30
0.0
 10
1181.100000
 20
-19089.759667
 30
0.0
 10
1174.750000
 20
-19102.724250
 30
0.0
 10
1161.785417
 20
-19115.424250
 30
0.0
 10
1142.470833
 20
-19122.038833
 30
0.0
  0
LWPOLYLINE
  5
125
100
AcDbEntity
  8
0
 62
7
100
AcDbPolyline
 90
2
 70
0
 10
29895.800000
 20
-6039.980500
 30
0.0
 10
29687.572917
 20
-6039.980500
 30
0.0
  0
LWPOLYLINE
  5
126
100
AcDbEntity
  8
0
 62
7
100
AcDbPolyline
 90
2
 70
0
 10
29895.800000
 20
-11248.303417
 30
0.0
 10
29687.572917
 20
-11248.303417
 30
0.0
  0
LWPOLYLINE
  5
127
100
AcDbEntity
  8
0
 62
7
100
AcDbPolyline
 90
2
 70
0
 10
29895.800000
 20
-16456.626333
 30
0.0
 10
29687.572917
 20
-16456.626333
 30
0.0
  0
LWPOLYLINE
  5
128
100
AcDbEntity
  8
0
 62
7
100
AcDbPolyline
 90
2
 70
0
 10
29759.539583
 20
-3458.176333
 30
0.0
 10
29824.097917
 20
-3458.176333
 30
0.0
  0
LWPOLYLINE
  5
129
100
AcDbEntity
  8
0
 62
7
100
AcDbPolyline
 90
3
 70
0
 10
29746.575000
 20
-3497.070083
 30
0.0
 10
29791.818750
 20
-3361.603417
 30
0.0
 10
29836.797917
 20
-3497.070083
 30
0.0
  0
LWPOLYLINE
  5
12a
100
AcDbEntity
  8
0
 62
7
100
AcDbPolyline
 90
19
 70
0
 10
29801.343750
 20
-8634.484667
 30
0.0
 10
29820.658333
 20
-8640.834667
 30
0.0
 10
29827.272917
 20
-8647.184667
 30
0.0
 10
29833.622917
 20
-8660.149250
 30
0.0
 10
29833.622917
 20
-8679.463833
 30
0.0
 10
29827.272917
 20
-8692.428417
 30
0.0
 10
29820.658333
 20
-8698.778417
 30
0.0
 10
29807.958333
 20
-8705.393000
 30
0.0
 10
29756.364583
 20
-8705.393000
 30
0.0
 10
29756.364583
 20
-8569.926333
 30
0.0
 10
29801.343750
 20
-8569.926333
 30
0.0
 10
29814.308333
 20
-8576.276333
 30
0.0
 10
29820.658333
 20
-8582.890917
 30
0.0
 10
29827.272917
 20
-8595.590917
 30
0.0
 10
29827.272917
 20
-8608.555500
 30
0.0
 10
29820.658333
 20
-8621.520083
 30
0.0
 10
29814.308333
 20
-8627.870083
 30
0.0
 10
29801.343750
 20
-8634.484667
 30
0.0
 10
29756.364583
 20
-8634.484667
 30
0.0
  0
LWPOLYLINE
  5
12b
100
AcDbEntity
  8
0
 62
7
100
AcDbPolyline
 90
16
 70
0
 10
29833.622917
 20
-13900.751333
 30
0.0
 10
29827.272917
 20
-13907.101333
 30
0.0
 10
29807.958333
 20
-13913.715917
 30
0.0
 10
29794.993750
 20
-13913.715917
 30
0.0
 10
29775.679167
 20
-13907.101333
 30
0.0
 10
29762.714583
 20
-13894.401333
 30
0.0
 10
29756.364583
 20
-13881.436750
 30
0.0
 10
29749.750000
 20
-13855.507583
 30
0.0
 10
29749.750000
 20
-13836.193000
 30
0.0
 10
29756.364583
 20
-13810.528417
 30
0.0
 10
29762.714583
 20
-13797.563833
 30
0.0
 10
29775.679167
 20
-13784.599250
 30
0.0
 10
29794.993750
 20
-13778.249250
 30
0.0
 10
29807.958333
 20
-13778.249250
 30
0.0
 10
29827.272917
 20
-13784.599250
 30
0.0
 10
29833.622917
 20
-13791.213833
 30
0.0
  0
LWPOLYLINE
  5
12c
100
AcDbEntity
  8
0
 62
7
100
AcDbPolyline
 90
12
 70
1
 10
29756.364583
 20
-19122.038833
 30
0.0
 10
29756.364583
 20
-18986.572167
 30
0.0
 10
29788.643750
 20
-18986.572167
 30
0.0
 10
29807.958333
 20
-18992.922167
 30
0.0
 10
29820.658333
 20
-19005.886750
 30
0.0
 10
29827.272917
 20
-19018.851333
 30
0.0
 10
29833.622917
 20
-19044.515917
 30
0.0
 10
29833.622917
 20
-19063.830500
 30
0.0
 10
29827.272917
 20
-19089.759667
 30
0.0
 10
29820.658333
 20
-19102.724250
 30
0.0
 10
29807.958333
 20
-19115.424250
 30
0.0
 10
29788.643750
 20
-19122.038833
 30
0.0
  0
LWPOLYLINE
  5
12d
100
AcDbEntity
  8
0
 62
7
100
AcDbPolyline
 90
12
 70
1
 10
20870.597917
 20
-19975.849250
 30
0.0
 10
20870.597917
 20
-19819.745083
 30
0.0
 10
20907.904167
 20
-19819.745083
 30
0.0
 10
20930.129167
 20
-19827.153417
 30
0.0
 10
20944.945833
 20
-19841.970083
 30
0.0
 10
20952.354167
 20
-19856.786750
 30
0.0
 10
20960.027083
 20
-19886.684667
 30
0.0
 10
20960.027083
 20
-19908.909667
 30
0.0
 10
20952.354167
 20
-19938.807583
 30
0.0
 10
20944.945833
 20
-19953.624250
 30
0.0
 10
20930.129167
 20
-19968.440917
 30
0.0
 10
20907.904167
 20
-19975.849250
 30
0.0
  0
LWPOLYLINE
  5
12e
100
AcDbEntity
  8
0
 62
7
100
AcDbPolyline
 90
6
 70
0
 10
21093.906250
 20
-19975.849250
 30
0.0
 10
21093.906250
 20
-19894.093000
 30
0.0
 10
21086.497917
 20
-19879.276333
 30
0.0
 10
21071.416667
 20
-19871.603417
 30
0.0
 10
21041.783333
 20
-19871.603417
 30
0.0
 10
21026.966667
 20
-19879.276333
 30
0.0
  0
LWPOLYLINE
  5
12f
100
AcDbEntity
  8
0
 62
7
100
AcDbPolyline
 90
10
 70
0
 10
21093.906250
 20
-19968.440917
 30
0.0
 10
21079.089583
 20
-19975.849250
 30
0.0
 10
21041.783333
 20
-19975.849250
 30
0.0
 10
21026.966667
 20
-19968.440917
 30
0.0
 10
21019.558333
 20
-19953.624250
 30
0.0
 10
21019.558333
 20
-19938.807583
 30
0.0
 10
21026.966667
 20
-19923.726333
 30
0.0
 10
21041.783333
 20
-19916.318000
 30
0.0
 10
21079.089583
 20
-19916.318000
 30
0.0
 10
21093.906250
 20
-19908.909667
 30
0.0
  0
LWPOLYLINE
  5
130
100
AcDbEntity
  8
0
 62
7
100
AcDbPolyline
 90
2
 70
0
 10
21146.029167
 20
-19871.603417
 30
0.0
 10
21205.560417
 20
-19871.603417
 30
0.0
  0
LWPOLYLINE
  5
131
100
AcDbEntity
  8
0
 62
7
100
AcDbPolyline
 90
5
 70
0
 10
21168.254167
 20
-19819.745083
 30
0.0
 10
21168.254167
 20
-19953.624250
 30
0.0
 10
21175.662500
 20
-19968.440917
 30
0.0
 10
21190.479167
 20
-19975.849250
 30
0.0
 10
21205.560417
 20
-19975.849250
 30
0.0
  0
LWPOLYLINE
  5
132
100
AcDbEntity
  8
0
 62
7
100
AcDbPolyline
 90
13
 70
0
 10
21316.950000
 20
-19968.440917
 30
0.0
 10
21302.133333
 20
-19975.849250
 30
0.0
 10
21272.500000
 20
-19975.849250
 30
0.0
 10
21257.418750
 20
-19968.440917
 30
0.0
 10
21250.010417
 20
-19953.624250
 30
0.0
 10
21250.010417
 20
-19894.093000
 30
0.0
 10
21257.418750
 20
-19879.276333
 30
0.0
 10
21272.500000
 20
-19871.603417
 30
0.0
 10
21302.133333
 20
-19871.603417
 30
0.0
 10
21316.950000
 20
-19879.276333
 30
0.0
 10
21324.622917
 20
-19894.093000
 30
0.0
 10
21324.622917
 20
-19908.909667
 30
0.0
 10
21250.010417
 20
-19923.726333
 30
0.0
  0
LWPOLYLINE
  5
133
100
AcDbEntity
  8
0
 62
7
100
AcDbPolyline
 90
6
 70
0
 10
21391.562500
 20
-19961.032583
 30
0.0
 10
21398.970833
 20
-19968.440917
 30
0.0
 10
21391.562500
 20
-19975.849250
 30
0.0
 10
21384.154167
 20
-19968.440917
 30
0.0
 10
21391.562500
 20
-19961.032583
 30
0.0
 10
21391.562500
 20
-19975.849250
 30
0.0
  0
LWPOLYLINE
  5
134
100
AcDbEntity
  8
0
 62
7
100
AcDbPolyline
 90
6
 70
0
 10
21391.562500
 20
-19879.276333
 30
0.0
 10
21398.970833
 20
-19886.684667
 30
0.0
 10
21391.562500
 20
-19894.093000
 30
0.0
 10
21384.154167
 20
-19886.684667
 30
0.0
 10
21391.562500
 20
-19879.276333
 30
0.0
 10
21391.562500
 20
-19894.093000
 30
0.0
  0
LWPOLYLINE
  5
135
100
AcDbEntity
  8
0
 62
7
100
AcDbPolyline
 90
2
 70
0
 10
18437.489583
 20
-20050.990917
 30
0.0
 10
29687.572917
 20
-20050.990917
 30
0.0
  0
LWPOLYLINE
  5
136
100
AcDbEntity
  8
0
 62
7
100
AcDbPolyline
 90
2
 70
0
 10
18579.041667
 20
-20267.420083
 30
0.0
 10
18579.041667
 20
-20111.315917
 30
0.0
  0
LWPOLYLINE
  5
137
100
AcDbEntity
  8
0
 62
7
100
AcDbPolyline
 90
2
 70
0
 10
18668.206250
 20
-20267.420083
 30
0.0
 10
18601.266667
 20
-20178.255500
 30
0.0
  0
LWPOLYLINE
  5
138
100
AcDbEntity
  8
0
 62
7
100
AcDbPolyline
 90
2
 70
0
 10
18668.206250
 20
-20111.315917
 30
0.0
 10
18579.041667
 20
-20200.480500
 30
0.0
  0
LWPOLYLINE
  5
139
100
AcDbEntity
  8
0
 62
7
100
AcDbPolyline
 90
2
 70
0
 10
18735.145833
 20
-20267.420083
 30
0.0
 10
18735.145833
 20
-20163.438833
 30
0.0
  0
LWPOLYLINE
  5
13a
100
AcDbEntity
  8
0
 62
7
100
AcDbPolyline
 90
6
 70
0
 10
18735.145833
 20
-20111.315917
 30
0.0
 10
18727.737500
 20
-20118.724250
 30
0.0
 10
18735.145833
 20
-20126.132583
 30
0.0
 10
18742.554167
 20
-20118.724250
 30
0.0
 10
18735.145833
 20
-20111.315917
 30
0.0
 10
18735.145833
 20
-20126.132583
 30
0.0
  0
LWPOLYLINE
  5
13b
100
AcDbEntity
  8
0
 62
7
100
AcDbPolyline
 90
16
 70
0
 10
18898.922917
 20
-20252.603417
 30
0.0
 10
18891.514583
 20
-20260.011750
 30
0.0
 10
18869.025000
 20
-20267.420083
 30
0.0
 10
18854.208333
 20
-20267.420083
 30
0.0
 10
18831.983333
 20
-20260.011750
 30
0.0
 10
18817.166667
 20
-20245.195083
 30
0.0
 10
18809.493750
 20
-20230.378417
 30
0.0
 10
18802.085417
 20
-20200.480500
 30
0.0
 10
18802.085417
 20
-20178.255500
 30
0.0
 10
18809.493750
 20
-20148.622167
 30
0.0
 10
18817.166667
 20
-20133.540917
 30
0.0
 10
18831.983333
 20
-20118.724250
 30
0.0
 10
18854.208333
 20
-20111.315917
 30
0.0
 10
18869.025000
 20
-20111.315917
 30
0.0
 10
18891.514583
 20
-20118.724250
 30
0.0
 10
18898.922917
 20
-20126.132583
 30
0.0
  0
LWPOLYLINE
  5
13c
100
AcDbEntity
  8
0
 62
7
100
AcDbPolyline
 90
6
 70
0
 10
19032.802083
 20
-20267.420083
 30
0.0
 10
19032.802083
 20
-20185.663833
 30
0.0
 10
19025.393750
 20
-20170.847167
 30
0.0
 10
19010.577083
 20
-20163.438833
 30
0.0
 10
18980.679167
 20
-20163.438833
 30
0.0
 10
18965.862500
 20
-20170.847167
 30
0.0
  0
LWPOLYLINE
  5
13d
100
AcDbEntity
  8
0
 62
7
100
AcDbPolyline
 90
10
 70
0
 10
19032.802083
 20
-20260.011750
 30
0.0
 10
19017.985417
 20
-20267.420083
 30
0.0
 10
18980.679167
 20
-20267.420083
 30
0.0
 10
18965.862500
 20
-20260.011750
 30
0.0
 10
18958.454167
 20
-20245.195083
 30
0.0
 10
18958.454167
 20
-20230.378417
 30
0.0
 10
18965.862500
 20
-20215.561750
 30
0.0
 10
18980.679167
 20
-20208.153417
 30
0.0
 10
19017.985417
 20
-20208.153417
 30
0.0
 10
19032.802083
 20
-20200.480500
 30
0.0
  0
LWPOLYLINE
  5
13e
100
AcDbEntity
  8
0
 62
7
100
AcDbPolyline
 90
2
 70
0
 10
19174.089583
 20
-20267.420083
 30
0.0
 10
19174.089583
 20
-20111.315917
 30
0.0
  0
LWPOLYLINE
  5
13f
100
AcDbEntity
  8
0
 62
7
100
AcDbPolyline
 90
12
 70
0
 10
19174.089583
 20
-20260.011750
 30
0.0
 10
19159.272917
 20
-20267.420083
 30
0.0
 10
19129.639583
 20
-20267.420083
 30
0.0
 10
19114.558333
 20
-20260.011750
 30
0.0
 10
19107.150000
 20
-20252.603417
 30
0.0
 10
19099.741667
 20
-20237.786750
 30
0.0
 10
19099.741667
 20
-20193.072167
 30
0.0
 10
19107.150000
 20
-20178.255500
 30
0.0
 10
19114.558333
 20
-20170.847167
 30
0.0
 10
19129.639583
 20
-20163.438833
 30
0.0
 10
19159.272917
 20
-20163.438833
 30
0.0
 10
19174.089583
 20
-20170.847167
 30
0.0
  0
LWPOLYLINE
  5
140
100
AcDbEntity
  8
0
 62
7
100
AcDbPolyline
 90
2
 70
0
 10
19367.764583
 20
-20185.663833
 30
0.0
 10
19419.622917
 20
-20185.663833
 30
0.0
  0
LWPOLYLINE
  5
141
100
AcDbEntity
  8
0
 62
7
100
AcDbPolyline
 90
4
 70
0
 10
19442.112500
 20
-20267.420083
 30
0.0
 10
19367.764583
 20
-20267.420083
 30
0.0
 10
19367.764583
 20
-20111.315917
 30
0.0
 10
19442.112500
 20
-20111.315917
 30
0.0
  0
LWPOLYLINE
  5
142
100
AcDbEntity
  8
0
 62
7
100
AcDbPolyline
 90
6
 70
0
 10
19509.052083
 20
-20252.603417
 30
0.0
 10
19516.460417
 20
-20260.011750
 30
0.0
 10
19509.052083
 20
-20267.420083
 30
0.0
 10
19501.643750
 20
-20260.011750
 30
0.0
 10
19509.052083
 20
-20252.603417
 30
0.0
 10
19509.052083
 20
-20267.420083
 30
0.0
  0
LWPOLYLINE
  5
143
100
AcDbEntity
  8
0
 62
7
100
AcDbPolyline
 90
12
 70
1
 10
19583.400000
 20
-20267.420083
 30
0.0
 10
19583.400000
 20
-20111.315917
 30
0.0
 10
19620.706250
 20
-20111.315917
 30
0.0
 10
19642.931250
 20
-20118.724250
 30
0.0
 10
19657.747917
 20
-20133.540917
 30
0.0
 10
19665.156250
 20
-20148.622167
 30
0.0
 10
19672.829167
 20
-20178.255500
 30
0.0
 10
19672.829167
 20
-20200.480500
 30
0.0
 10
19665.156250
 20
-20230.378417
 30
0.0
 10
19657.747917
 20
-20245.195083
 30
0.0
 10
19642.931250
 20
-20260.011750
 30
0.0
 10
19620.706250
 20
-20267.420083
 30
0.0
  0
LWPOLYLINE
  5
144
100
AcDbEntity
  8
0
 62
7
100
AcDbPolyline
 90
6
 70
0
 10
19739.768750
 20
-20252.603417
 30
0.0
 10
19747.177083
 20
-20260.011750
 30
0.0
 10
19739.768750
 20
-20267.420083
 30
0.0
 10
19732.360417
 20
-20260.011750
 30
0.0
 10
19739.768750
 20
-20252.603417
 30
0.0
 10
19739.768750
 20
-20267.420083
 30
0.0
  0
LWPOLYLINE
  5
145
100
AcDbEntity
  8
0
 62
7
100
AcDbPolyline
 90
2
 70
0
 10
19806.708333
 20
-20222.970083
 30
0.0
 10
19881.056250
 20
-20222.970083
 30
0.0
  0
LWPOLYLINE
  5
146
100
AcDbEntity
  8
0
 62
7
100
AcDbPolyline
 90
3
 70
0
 10
19791.891667
 20
-20267.420083
 30
0.0
 10
19843.750000
 20
-20111.315917
 30
0.0
 10
19895.872917
 20
-20267.420083
 30
0.0
  0
LWPOLYLINE
  5
147
100
AcDbEntity
  8
0
 62
7
100
AcDbPolyline
 90
6
 70
0
 10
19947.995833
 20
-20252.603417
 30
0.0
 10
19955.404167
 20
-20260.011750
 30
0.0
 10
19947.995833
 20
-20267.420083
 30
0.0
 10
19940.587500
 20
-20260.011750
 30
0.0
 10
19947.995833
 20
-20252.603417
 30
0.0
 10
19947.995833
 20
-20267.420083
 30
0.0
  0
LWPOLYLINE
  5
148
100
AcDbEntity
  8
0
 62
7
100
AcDbPolyline
 90
2
 70
0
 10
20260.468750
 20
-20267.420083
 30
0.0
 10
20260.468750
 20
-20111.315917
 30
0.0
  0
LWPOLYLINE
  5
149
100
AcDbEntity
  8
0
 62
7
100
AcDbPolyline
 90
2
 70
0
 10
20275.285417
 20
-20208.153417
 30
0.0
 10
20320.000000
 20
-20267.420083
 30
0.0
  0
LWPOLYLINE
  5
14a
100
AcDbEntity
  8
0
 62
7
100
AcDbPolyline
 90
2
 70
0
 10
20320.000000
 20
-20163.438833
 30
0.0
 10
20260.468750
 20
-20222.970083
 30
0.0
  0
LWPOLYLINE
  5
14b
100
AcDbEntity
  8
0
 62
7
100
AcDbPolyline
 90
2
 70
0
 10
20386.939583
 20
-20267.420083
 30
0.0
 10
20386.939583
 20
-20163.438833
 30
0.0
  0
LWPOLYLINE
  5
14c
100
AcDbEntity
  8
0
 62
7
100
AcDbPolyline
 90
6
 70
0
 10
20386.939583
 20
-20111.315917
 30
0.0
 10
20379.531250
 20
-20118.724250
 30
0.0
 10
20386.939583
 20
-20126.132583
 30
0.0
 10
20394.347917
 20
-20118.724250
 30
0.0
 10
20386.939583
 20
-20111.315917
 30
0.0
 10
20386.939583
 20
-20126.132583
 30
0.0
  0
LWPOLYLINE
  5
14d
100
AcDbEntity
  8
0
 62
7
100
AcDbPolyline
 90
12
 70
0
 10
20528.491667
 20
-20260.011750
 30
0.0
 10
20513.410417
 20
-20267.420083
 30
0.0
 10
20483.777083
 20
-20267.420083
 30
0.0
 10
20468.960417
 20
-20260.011750
 30
0.0
 10
20461.287500
 20
-20252.603417
 30
0.0
 10
20453.879167
 20
-20237.786750
 30
0.0
 10
20453.879167
 20
-20193.072167
 30
0.0
 10
20461.287500
 20
-20178.255500
 30
0.0
 10
20468.960417
 20
-20170.847167
 30
0.0
 10
20483.777083
 20
-20163.438833
 30
0.0
 10
20513.410417
 20
-20163.438833
 30
0.0
 10
20528.491667
 20
-20170.847167
 30
0.0
  0
LWPOLYLINE
  5
14e
100
AcDbEntity
  8
0
 62
7
100
AcDbPolyline
 90
6
 70
0
 10
20662.370833
 20
-20267.420083
 30
0.0
 10
20662.370833
 20
-20185.663833
 30
0.0
 10
20654.962500
 20
-20170.847167
 30
0.0
 10
20639.881250
 20
-20163.438833
 30
0.0
 10
20610.247917
 20
-20163.438833
 30
0.0
 10
20595.431250
 20
-20170.847167
 30
0.0
  0
LWPOLYLINE
  5
14f
100
AcDbEntity
  8
0
 62
7
100
AcDbPolyline
 90
10
 70
0
 10
20662.370833
 20
-20260.011750
 30
0.0
 10
20647.289583
 20
-20267.420083
 30
0.0
 10
20610.247917
 20
-20267.420083
 30
0.0
 10
20595.431250
 20
-20260.011750
 30
0.0
 10
20588.022917
 20
-20245.195083
 30
0.0
 10
20588.022917
 20
-20230.378417
 30
0.0
 10
20595.431250
 20
-20215.561750
 30
0.0
 10
20610.247917
 20
-20208.153417
 30
0.0
 10
20647.289583
 20
-20208.153417
 30
0.0
 10
20662.370833
 20
-20200.480500
 30
0.0
  0
LWPOLYLINE
  5
150
100
AcDbEntity
  8
0
 62
7
100
AcDbPolyline
 90
2
 70
0
 10
20803.658333
 20
-20267.420083
 30
0.0
 10
20803.658333
 20
-20111.315917
 30
0.0
  0
LWPOLYLINE
  5
151
100
AcDbEntity
  8
0
 62
7
100
AcDbPolyline
 90
12
 70
0
 10
20803.658333
 20
-20260.011750
 30
0.0
 10
20788.841667
 20
-20267.420083
 30
0.0
 10
20758.943750
 20
-20267.420083
 30
0.0
 10
20744.127083
 20
-20260.011750
 30
0.0
 10
20736.718750
 20
-20252.603417
 30
0.0
 10
20729.310417
 20
-20237.786750
 30
0.0
 10
20729.310417
 20
-20193.072167
 30
0.0
 10
20736.718750
 20
-20178.255500
 30
0.0
 10
20744.127083
 20
-20170.847167
 30
0.0
 10
20758.943750
 20
-20163.438833
 30
0.0
 10
20788.841667
 20
-20163.438833
 30
0.0
 10
20803.658333
 20
-20170.847167
 30
0.0
  0
LWPOLYLINE
  5
152
100
AcDbEntity
  8
0
 62
7
100
AcDbPolyline
 90
2
 70
0
 10
21064.008333
 20
-20163.438833
 30
0.0
 10
21064.008333
 20
-20267.420083
 30
0.0
  0
LWPOLYLINE
  5
153
100
AcDbEntity
  8
0
 62
7
100
AcDbPolyline
 90
3
 70
0
 10
21026.966667
 20
-20103.907583
 30
0.0
 10
20989.660417
 20
-20215.561750
 30
0.0
 10
21086.497917
 20
-20215.561750
 30
0.0
  0
LWPOLYLINE
  5
154
100
AcDbEntity
  8
0
 62
7
100
AcDbPolyline
 90
6
 70
0
 10
21146.029167
 20
-20252.603417
 30
0.0
 10
21153.437500
 20
-20260.011750
 30
0.0
 10
21146.029167
 20
-20267.420083
 30
0.0
 10
21138.620833
 20
-20260.011750
 30
0.0
 10
21146.029167
 20
-20252.603417
 30
0.0
 10
21146.029167
 20
-20267.420083
 30
0.0
  0
LWPOLYLINE
  5
155
100
AcDbEntity
  8
0
 62
7
100
AcDbPolyline
 90
20
 70
1
 10
21250.010417
 20
-20111.315917
 30
0.0
 10
21265.091667
 20
-20111.315917
 30
0.0
 10
21279.908333
 20
-20118.724250
 30
0.0
 10
21287.316667
 20
-20126.132583
 30
0.0
 10
21294.725000
 20
-20140.949250
 30
0.0
 10
21302.133333
 20
-20170.847167
 30
0.0
 10
21302.133333
 20
-20208.153417
 30
0.0
 10
21294.725000
 20
-20237.786750
 30
0.0
 10
21287.316667
 20
-20252.603417
 30
0.0
 10
21279.908333
 20
-20260.011750
 30
0.0
 10
21265.091667
 20
-20267.420083
 30
0.0
 10
21250.010417
 20
-20267.420083
 30
0.0
 10
21235.193750
 20
-20260.011750
 30
0.0
 10
21227.785417
 20
-20252.603417
 30
0.0
 10
21220.377083
 20
-20237.786750
 30
0.0
 10
21212.968750
 20
-20208.153417
 30
0.0
 10
21212.968750
 20
-20170.847167
 30
0.0
 10
21220.377083
 20
-20140.949250
 30
0.0
 10
21227.785417
 20
-20126.132583
 30
0.0
 10
21235.193750
 20
-20118.724250
 30
0.0
  0
LWPOLYLINE
  5
156
100
AcDbEntity
  8
0
 62
7
100
AcDbPolyline
 90
6
 70
0
 10
21369.072917
 20
-20252.603417
 30
0.0
 10
21376.481250
 20
-20260.011750
 30
0.0
 10
21369.072917
 20
-20267.420083
 30
0.0
 10
21361.664583
 20
-20260.011750
 30
0.0
 10
21369.072917
 20
-20252.603417
 30
0.0
 10
21369.072917
 20
-20267.420083
 30
0.0
  0
LWPOLYLINE
  5
157
100
AcDbEntity
  8
0
 62
7
100
AcDbPolyline
 90
22
 70
0
 10
21510.625000
 20
-20111.315917
 30
0.0
 10
21480.727083
 20
-20111.315917
 30
0.0
 10
21465.910417
 20
-20118.724250
 30
0.0
 10
21458.502083
 20
-20126.132583
 30
0.0
 10
21443.420833
 20
-20148.622167
 30
0.0
 10
21436.012500
 20
-20178.255500
 30
0.0
 10
21436.012500
 20
-20237.786750
 30
0.0
 10
21443.420833
 20
-20252.603417
 30
0.0
 10
21451.093750
 20
-20260.011750
 30
0.0
 10
21465.910417
 20
-20267.420083
 30
0.0
 10
21495.543750
 20
-20267.420083
 30
0.0
 10
21510.625000
 20
-20260.011750
 30
0.0
 10
21518.033333
 20
-20252.603417
 30
0.0
 10
21525.441667
 20
-20237.786750
 30
0.0
 10
21525.441667
 20
-20200.480500
 30
0.0
 10
21518.033333
 20
-20185.663833
 30
0.0
 10
21510.625000
 20
-20178.255500
 30
0.0
 10
21495.543750
 20
-20170.847167
 30
0.0
 10
21465.910417
 20
-20170.847167
 30
0.0
 10
21451.093750
 20
-20178.255500
 30
0.0
 10
21443.420833
 20
-20185.663833
 30
0.0
 10
21436.012500
 20
-20200.480500
 30
0.0
  0
LWPOLYLINE
  5
158
100
AcDbEntity
  8
0
 62
7
100
AcDbPolyline
 90
2
 70
0
 10
18437.489583
 20
-19738.518000
 30
0.0
 10
29687.572917
 20
-19738.518000
 30
0.0
  0
LWPOLYLINE
  5
159
100
AcDbEntity
  8
0
 62
7
100
AcDbPolyline
 90
2
 70
0
 10
27522.487500
 20
-19975.849250
 30
0.0
 10
27470.364583
 20
-19901.501333
 30
0.0
  0
LWPOLYLINE
  5
15a
100
AcDbEntity
  8
0
 62
7
100
AcDbPolyline
 90
11
 70
0
 10
27433.058333
 20
-19975.849250
 30
0.0
 10
27433.058333
 20
-19819.745083
 30
0.0
 10
27492.589583
 20
-19819.745083
 30
0.0
 10
27507.406250
 20
-19827.153417
 30
0.0
 10
27515.079167
 20
-19834.561750
 30
0.0
 10
27522.487500
 20
-19849.378417
 30
0.0
 10
27522.487500
 20
-19871.603417
 30
0.0
 10
27515.079167
 20
-19886.684667
 30
0.0
 10
27507.406250
 20
-19894.093000
 30
0.0
 10
27492.589583
 20
-19901.501333
 30
0.0
 10
27433.058333
 20
-19901.501333
 30
0.0
  0
LWPOLYLINE
  5
15b
100
AcDbEntity
  8
0
 62
7
100
AcDbPolyline
 90
13
 70
0
 10
27648.958333
 20
-19968.440917
 30
0.0
 10
27634.141667
 20
-19975.849250
 30
0.0
 10
27604.243750
 20
-19975.849250
 30
0.0
 10
27589.427083
 20
-19968.440917
 30
0.0
 10
27582.018750
 20
-19953.624250
 30
0.0
 10
27582.018750
 20
-19894.093000
 30
0.0
 10
27589.427083
 20
-19879.276333
 30
0.0
 10
27604.243750
 20
-19871.603417
 30
0.0
 10
27634.141667
 20
-19871.603417
 30
0.0
 10
27648.958333
 20
-19879.276333
 30
0.0
 10
27656.366667
 20
-19894.093000
 30
0.0
 10
27656.366667
 20
-19908.909667
 30
0.0
 10
27582.018750
 20
-19923.726333
 30
0.0
  0
LWPOLYLINE
  5
15c
100
AcDbEntity
  8
0
 62
7
100
AcDbPolyline
 90
3
 70
0
 10
27708.489583
 20
-19871.603417
 30
0.0
 10
27745.531250
 20
-19975.849250
 30
0.0
 10
27782.837500
 20
-19871.603417
 30
0.0
  0
LWPOLYLINE
  5
15d
100
AcDbEntity
  8
0
 62
7
100
AcDbPolyline
 90
6
 70
0
 10
27842.368750
 20
-19961.032583
 30
0.0
 10
27849.777083
 20
-19968.440917
 30
0.0
 10
27842.368750
 20
-19975.849250
 30
0.0
 10
27834.960417
 20
-19968.440917
 30
0.0
 10
27842.368750
 20
-19961.032583
 30
0.0
 10
27842.368750
 20
-19975.849250
 30
0.0
  0
LWPOLYLINE
  5
15e
100
AcDbEntity
  8
0
 62
7
100
AcDbPolyline
 90
6
 70
0
 10
27842.368750
 20
-19879.276333
 30
0.0
 10
27849.777083
 20
-19886.684667
 30
0.0
 10
27842.368750
 20
-19894.093000
 30
0.0
 10
27834.960417
 20
-19886.684667
 30
0.0
 10
27842.368750
 20
-19879.276333
 30
0.0
 10
27842.368750
 20
-19894.093000
 30
0.0
  0
LWPOLYLINE
  5
15f
100
AcDbEntity
  8
0
 62
7
100
AcDbPolyline
 90
20
 70
0
 10
18571.633333
 20
-19968.440917
 30
0.0
 10
18593.858333
 20
-19975.849250
 30
0.0
 10
18631.164583
 20
-19975.849250
 30
0.0
 10
18645.981250
 20
-19968.440917
 30
0.0
 10
18653.389583
 20
-19961.032583
 30
0.0
 10
18660.797917
 20
-19946.215917
 30
0.0
 10
18660.797917
 20
-19931.134667
 30
0.0
 10
18653.389583
 20
-19916.318000
 30
0.0
 10
18645.981250
 20
-19908.909667
 30
0.0
 10
18631.164583
 20
-19901.501333
 30
0.0
 10
18601.266667
 20
-19894.093000
 30
0.0
 10
18586.450000
 20
-19886.684667
 30
0.0
 10
18579.041667
 20
-19879.276333
 30
0.0
 10
18571.633333
 20
-19864.195083
 30
0.0
 10
18571.633333
 20
-19849.378417
 30
0.0
 10
18579.041667
 20
-19834.561750
 30
0.0
 10
18586.450000
 20
-19827.153417
 30
0.0
 10
18601.266667
 20
-19819.745083
 30
0.0
 10
18638.572917
 20
-19819.745083
 30
0.0
 10
18660.797917
 20
-19827.153417
 30
0.0
  0
LWPOLYLINE
  5
160
100
AcDbEntity
  8
0
 62
7
100
AcDbPolyline
 90
2
 70
0
 10
18727.737500
 20
-19975.849250
 30
0.0
 10
18727.737500
 20
-19871.603417
 30
0.0
  0
LWPOLYLINE
  5
161
100
AcDbEntity
  8
0
 62
7
100
AcDbPolyline
 90
6
 70
0
 10
18727.737500
 20
-19819.745083
 30
0.0
 10
18720.329167
 20
-19827.153417
 30
0.0
 10
18727.737500
 20
-19834.561750
 30
0.0
 10
18735.145833
 20
-19827.153417
 30
0.0
 10
18727.737500
 20
-19819.745083
 30
0.0
 10
18727.737500
 20
-19834.561750
 30
0.0
  0
LWPOLYLINE
  5
162
100
AcDbEntity
  8
0
 62
7
100
AcDbPolyline
 90
4
 70
0
 10
18787.268750
 20
-19871.603417
 30
0.0
 10
18869.025000
 20
-19871.603417
 30
0.0
 10
18787.268750
 20
-19975.849250
 30
0.0
 10
18869.025000
 20
-19975.849250
 30
0.0
  0
LWPOLYLINE
  5
163
100
AcDbEntity
  8
0
 62
7
100
AcDbPolyline
 90
13
 70
0
 10
18988.087500
 20
-19968.440917
 30
0.0
 10
18973.270833
 20
-19975.849250
 30
0.0
 10
18943.637500
 20
-19975.849250
 30
0.0
 10
18928.556250
 20
-19968.440917
 30
0.0
 10
18921.147917
 20
-19953.624250
 30
0.0
 10
18921.147917
 20
-19894.093000
 30
0.0
 10
18928.556250
 20
-19879.276333
 30
0.0
 10
18943.637500
 20
-19871.603417
 30
0.0
 10
18973.270833
 20
-19871.603417
 30
0.0
 10
18988.087500
 20
-19879.276333
 30
0.0
 10
18995.760417
 20
-19894.093000
 30
0.0
 10
18995.760417
 20
-19908.909667
 30
0.0
 10
18921.147917
 20
-19923.726333
 30
0.0
  0
LWPOLYLINE
  5
164
100
AcDbEntity
  8
0
 62
7
100
AcDbPolyline
 90
6
 70
0
 10
19062.700000
 20
-19961.032583
 30
0.0
 10
19070.108333
 20
-19968.440917
 30
0.0
 10
19062.700000
 20
-19975.849250
 30
0.0
 10
19055.027083
 20
-19968.440917
 30
0.0
 10
19062.700000
 20
-19961.032583
 30
0.0
 10
19062.700000
 20
-19975.849250
 30
0.0
  0
LWPOLYLINE
  5
165
100
AcDbEntity
  8
0
 62
7
100
AcDbPolyline
 90
6
 70
0
 10
19062.700000
 20
-19879.276333
 30
0.0
 10
19070.108333
 20
-19886.684667
 30
0.0
 10
19062.700000
 20
-19894.093000
 30
0.0
 10
19055.027083
 20
-19886.684667
 30
0.0
 10
19062.700000
 20
-19879.276333
 30
0.0
 10
19062.700000
 20
-19894.093000
 30
0.0
  0
LWPOLYLINE
  5
166
100
AcDbEntity
  8
0
 62
7
100
AcDbPolyline
 90
2
 70
0
 10
19248.702083
 20
-19931.134667
 30
0.0
 10
19323.050000
 20
-19931.134667
 30
0.0
  0
LWPOLYLINE
  5
167
100
AcDbEntity
  8
0
 62
7
100
AcDbPolyline
 90
3
 70
0
 10
19233.620833
 20
-19975.849250
 30
0.0
 10
19285.743750
 20
-19819.745083
 30
0.0
 10
19337.866667
 20
-19975.849250
 30
0.0
  0
LWPOLYLINE
  5
168
100
AcDbEntity
  8
0
 62
7
100
AcDbPolyline
 90
2
 70
0
 10
19456.929167
 20
-19871.603417
 30
0.0
 10
19456.929167
 20
-19975.849250
 30
0.0
  0
LWPOLYLINE
  5
169
100
AcDbEntity
  8
0
 62
7
100
AcDbPolyline
 90
3
 70
0
 10
19419.622917
 20
-19812.072167
 30
0.0
 10
19382.581250
 20
-19923.726333
 30
0.0
 10
19479.154167
 20
-19923.726333
 30
0.0
  0
LWPOLYLINE
  5
16a
100
AcDbEntity
  8
0
 62
7
100
AcDbPolyline
 90
2
 70
0
 10
27433.058333
 20
-20267.420083
 30
0.0
 10
27433.058333
 20
-20111.315917
 30
0.0
  0
LWPOLYLINE
  5
16b
100
AcDbEntity
  8
0
 62
7
100
AcDbPolyline
 90
2
 70
0
 10
27574.610417
 20
-20267.420083
 30
0.0
 10
27574.610417
 20
-20111.315917
 30
0.0
  0
LWPOLYLINE
  5
16c
100
AcDbEntity
  8
0
 62
7
100
AcDbPolyline
 90
12
 70
0
 10
27574.610417
 20
-20260.011750
 30
0.0
 10
27559.529167
 20
-20267.420083
 30
0.0
 10
27529.895833
 20
-20267.420083
 30
0.0
 10
27515.079167
 20
-20260.011750
 30
0.0
 10
27507.406250
 20
-20252.603417
 30
0.0
 10
27499.997917
 20
-20237.786750
 30
0.0
 10
27499.997917
 20
-20193.072167
 30
0.0
 10
27507.406250
 20
-20178.255500
 30
0.0
 10
27515.079167
 20
-20170.847167
 30
0.0
 10
27529.895833
 20
-20163.438833
 30
0.0
 10
27559.529167
 20
-20163.438833
 30
0.0
 10
27574.610417
 20
-20170.847167
 30
0.0
  0
LWPOLYLINE
  5
16d
100
AcDbEntity
  8
0
 62
7
100
AcDbPolyline
 90
6
 70
0
 10
27648.958333
 20
-20252.603417
 30
0.0
 10
27656.366667
 20
-20260.011750
 30
0.0
 10
27648.958333
 20
-20267.420083
 30
0.0
 10
27641.550000
 20
-20260.011750
 30
0.0
 10
27648.958333
 20
-20252.603417
 30
0.0
 10
27648.958333
 20
-20267.420083
 30
0.0
  0
LWPOLYLINE
  5
16e
100
AcDbEntity
  8
0
 62
7
100
AcDbPolyline
 90
6
 70
0
 10
27648.958333
 20
-20170.847167
 30
0.0
 10
27656.366667
 20
-20178.255500
 30
0.0
 10
27648.958333
 20
-20185.663833
 30
0.0
 10
27641.550000
 20
-20178.255500
 30
0.0
 10
27648.958333
 20
-20170.847167
 30
0.0
 10
27648.958333
 20
-20185.663833
 30
0.0
  0
LWPOLYLINE
  5
16f
100
AcDbEntity
  8
0
 62
7
100
AcDbPolyline
 90
2
 70
0
 10
27924.125000
 20
-20267.420083
 30
0.0
 10
27834.960417
 20
-20267.420083
 30
0.0
  0
LWPOLYLINE
  5
170
100
AcDbEntity
  8
0
 62
7
100
AcDbPolyline
 90
5
 70
0
 10
27879.675000
 20
-20267.420083
 30
0.0
 10
27879.675000
 20
-20111.315917
 30
0.0
 10
27864.593750
 20
-20133.540917
 30
0.0
 10
27849.777083
 20
-20148.622167
 30
0.0
 10
27834.960417
 20
-20156.030500
 30
0.0
  0
LWPOLYLINE
  5
171
100
AcDbEntity
  8
0
 62
7
100
AcDbPolyline
 90
2
 70
0
 10
28102.718750
 20
-20103.907583
 30
0.0
 10
27968.839583
 20
-20304.726333
 30
0.0
  0
LWPOLYLINE
  5
172
100
AcDbEntity
  8
0
 62
7
100
AcDbPolyline
 90
2
 70
0
 10
28236.597917
 20
-20267.420083
 30
0.0
 10
28147.433333
 20
-20267.420083
 30
0.0
  0
LWPOLYLINE
  5
173
100
AcDbEntity
  8
0
 62
7
100
AcDbPolyline
 90
5
 70
0
 10
28192.147917
 20
-20267.420083
 30
0.0
 10
28192.147917
 20
-20111.315917
 30
0.0
 10
28177.066667
 20
-20133.540917
 30
0.0
 10
28162.250000
 20
-20148.622167
 30
0.0
 10
28147.433333
 20
-20156.030500
 30
0.0
  0
LWPOLYLINE
  5
174
100
AcDbEntity
  8
0
 62
7
100
AcDbPolyline
 90
2
 70
0
 10
18437.489583
 20
-19321.799250
 30
0.0
 10
29687.572917
 20
-19321.799250
 30
0.0
  0
LWPOLYLINE
  5
175
100
AcDbEntity
  8
0
 62
7
100
AcDbPolyline
 90
2
 70
0
 10
18588.831250
 20
-19395.353417
 30
0.0
 10
18707.893750
 20
-19395.353417
 30
0.0
  0
LWPOLYLINE
  5
176
100
AcDbEntity
  8
0
 62
7
100
AcDbPolyline
 90
2
 70
0
 10
18622.433333
 20
-19603.580500
 30
0.0
 10
18648.362500
 20
-19395.353417
 30
0.0
  0
LWPOLYLINE
  5
177
100
AcDbEntity
  8
0
 62
7
100
AcDbPolyline
 90
2
 70
0
 10
18751.285417
 20
-19603.580500
 30
0.0
 10
18768.747917
 20
-19464.674250
 30
0.0
  0
LWPOLYLINE
  5
178
100
AcDbEntity
  8
0
 62
7
100
AcDbPolyline
 90
6
 70
0
 10
18777.479167
 20
-19395.353417
 30
0.0
 10
18766.102083
 20
-19405.143000
 30
0.0
 10
18774.833333
 20
-19415.197167
 30
0.0
 10
18785.945833
 20
-19405.143000
 30
0.0
 10
18777.479167
 20
-19395.353417
 30
0.0
 10
18774.833333
 20
-19415.197167
 30
0.0
  0
LWPOLYLINE
  5
179
100
AcDbEntity
  8
0
 62
7
100
AcDbPolyline
 90
2
 70
0
 10
18838.068750
 20
-19464.674250
 30
0.0
 10
18917.443750
 20
-19464.674250
 30
0.0
  0
LWPOLYLINE
  5
17a
100
AcDbEntity
  8
0
 62
7
100
AcDbPolyline
 90
5
 70
0
 10
18876.697917
 20
-19395.353417
 30
0.0
 10
18854.208333
 20
-19573.947167
 30
0.0
 10
18861.616667
 20
-19593.790917
 30
0.0
 10
18880.402083
 20
-19603.580500
 30
0.0
 10
18900.245833
 20
-19603.580500
 30
0.0
  0
LWPOLYLINE
  5
17b
100
AcDbEntity
  8
0
 62
7
100
AcDbPolyline
 90
4
 70
0
 10
18999.464583
 20
-19603.580500
 30
0.0
 10
18980.679167
 20
-19593.790917
 30
0.0
 10
18973.270833
 20
-19573.947167
 30
0.0
 10
18995.760417
 20
-19395.353417
 30
0.0
  0
LWPOLYLINE
  5
17c
100
AcDbEntity
  8
0
 62
7
100
AcDbPolyline
 90
13
 70
0
 10
19159.272917
 20
-19593.790917
 30
0.0
 10
19138.370833
 20
-19603.580500
 30
0.0
 10
19098.683333
 20
-19603.580500
 30
0.0
 10
19079.897917
 20
-19593.790917
 30
0.0
 10
19072.489583
 20
-19573.947167
 30
0.0
 10
19082.543750
 20
-19494.572167
 30
0.0
 10
19094.714583
 20
-19474.728417
 30
0.0
 10
19115.881250
 20
-19464.674250
 30
0.0
 10
19155.568750
 20
-19464.674250
 30
0.0
 10
19174.089583
 20
-19474.728417
 30
0.0
 10
19181.762500
 20
-19494.572167
 30
0.0
 10
19179.116667
 20
-19514.415917
 30
0.0
 10
19077.516667
 20
-19534.259667
 30
0.0
  0
LWPOLYLINE
  5
17d
100
AcDbEntity
  8
0
 62
7
100
AcDbPolyline
 90
6
 70
0
 10
19259.814583
 20
-19583.736750
 30
0.0
 10
19268.545833
 20
-19593.790917
 30
0.0
 10
19257.168750
 20
-19603.580500
 30
0.0
 10
19248.702083
 20
-19593.790917
 30
0.0
 10
19259.814583
 20
-19583.736750
 30
0.0
 10
19257.168750
 20
-19603.580500
 30
0.0
  0
LWPOLYLINE
  5
17e
100
AcDbEntity
  8
0
 62
7
100
AcDbPolyline
 90
6
 70
0
 10
19273.308333
 20
-19474.728417
 30
0.0
 10
19282.039583
 20
-19484.518000
 30
0.0
 10
19270.927083
 20
-19494.572167
 30
0.0
 10
19262.195833
 20
-19484.518000
 30
0.0
 10
19273.308333
 20
-19474.728417
 30
0.0
 10
19270.927083
 20
-19494.572167
 30
0.0
  0
LWPOLYLINE
  5
17f
100
AcDbEntity
  8
0
 62
7
100
AcDbPolyline
 90
2
 70
0
 10
18631.164583
 20
-19123.097167
 30
0.0
 10
18579.041667
 20
-19123.097167
 30
0.0
  0
LWPOLYLINE
  5
180
100
AcDbEntity
  8
0
 62
7
100
AcDbPolyline
 90
3
 70
0
 10
18579.041667
 20
-19205.118000
 30
0.0
 10
18579.041667
 20
-19048.749250
 30
0.0
 10
18653.389583
 20
-19048.749250
 30
0.0
  0
LWPOLYLINE
  5
181
100
AcDbEntity
  8
0
 62
7
100
AcDbPolyline
 90
2
 70
0
 10
18712.920833
 20
-19205.118000
 30
0.0
 10
18712.920833
 20
-19100.872167
 30
0.0
  0
LWPOLYLINE
  5
182
100
AcDbEntity
  8
0
 62
7
100
AcDbPolyline
 90
6
 70
0
 10
18712.920833
 20
-19048.749250
 30
0.0
 10
18705.512500
 20
-19056.157583
 30
0.0
 10
18712.920833
 20
-19063.565917
 30
0.0
 10
18720.329167
 20
-19056.157583
 30
0.0
 10
18712.920833
 20
-19048.749250
 30
0.0
 10
18712.920833
 20
-19063.565917
 30
0.0
  0
LWPOLYLINE
  5
183
100
AcDbEntity
  8
0
 62
7
100
AcDbPolyline
 90
4
 70
0
 10
18809.493750
 20
-19205.118000
 30
0.0
 10
18794.677083
 20
-19197.709667
 30
0.0
 10
18787.268750
 20
-19182.628417
 30
0.0
 10
18787.268750
 20
-19048.749250
 30
0.0
  0
LWPOLYLINE
  5
184
100
AcDbEntity
  8
0
 62
7
100
AcDbPolyline
 90
13
 70
0
 10
18928.556250
 20
-19197.709667
 30
0.0
 10
18913.739583
 20
-19205.118000
 30
0.0
 10
18884.106250
 20
-19205.118000
 30
0.0
 10
18869.025000
 20
-19197.709667
 30
0.0
 10
18861.616667
 20
-19182.628417
 30
0.0
 10
18861.616667
 20
-19123.097167
 30
0.0
 10
18869.025000
 20
-19108.280500
 30
0.0
 10
18884.106250
 20
-19100.872167
 30
0.0
 10
18913.739583
 20
-19100.872167
 30
0.0
 10
18928.556250
 20
-19108.280500
 30
0.0
 10
18936.229167
 20
-19123.097167
 30
0.0
 10
18936.229167
 20
-19138.178417
 30
0.0
 10
18861.616667
 20
-19152.995083
 30
0.0
  0
LWPOLYLINE
  5
185
100
AcDbEntity
  8
0
 62
7
100
AcDbPolyline
 90
6
 70
0
 10
19003.168750
 20
-19190.036750
 30
0.0
 10
19010.577083
 20
-19197.709667
 30
0.0
 10
19003.168750
 20
-19205.118000
 30
0.0
 10
18995.760417
 20
-19197.709667
 30
0.0
 10
19003.168750
 20
-19190.036750
 30
0.0
 10
19003.168750
 20
-19205.118000
 30
0.0
  0
LWPOLYLINE
  5
186
100
AcDbEntity
  8
0
 62
7
100
AcDbPolyline
 90
6
 70
0
 10
19003.168750
 20
-19108.280500
 30
0.0
 10
19010.577083
 20
-19115.688833
 30
0.0
 10
19003.168750
 20
-19123.097167
 30
0.0
 10
18995.760417
 20
-19115.688833
 30
0.0
 10
19003.168750
 20
-19108.280500
 30
0.0
 10
19003.168750
 20
-19123.097167
 30
0.0
  0
LWPOLYLINE
  5
187
100
AcDbEntity
  8
0
 62
7
100
AcDbPolyline
 90
5
 70
0
 10
19196.579167
 20
-19205.118000
 30
0.0
 10
19196.579167
 20
-19048.749250
 30
0.0
 10
19248.702083
 20
-19160.403417
 30
0.0
 10
19300.560417
 20
-19048.749250
 30
0.0
 10
19300.560417
 20
-19205.118000
 30
0.0
  0
LWPOLYLINE
  5
188
100
AcDbEntity
  8
0
 62
7
100
AcDbPolyline
 90
2
 70
0
 10
19375.172917
 20
-19205.118000
 30
0.0
 10
19375.172917
 20
-19100.872167
 30
0.0
  0
LWPOLYLINE
  5
189
100
AcDbEntity
  8
0
 62
7
100
AcDbPolyline
 90
6
 70
0
 10
19375.172917
 20
-19048.749250
 30
0.0
 10
19367.764583
 20
-19056.157583
 30
0.0
 10
19375.172917
 20
-19063.565917
 30
0.0
 10
19382.581250
 20
-19056.157583
 30
0.0
 10
19375.172917
 20
-19048.749250
 30
0.0
 10
19375.172917
 20
-19063.565917
 30
0.0
  0
LWPOLYLINE
  5
18a
100
AcDbEntity
  8
0
 62
7
100
AcDbPolyline
 90
2
 70
0
 10
19516.460417
 20
-19205.118000
 30
0.0
 10
19516.460417
 20
-19048.749250
 30
0.0
  0
LWPOLYLINE
  5
18b
100
AcDbEntity
  8
0
 62
7
100
AcDbPolyline
 90
12
 70
0
 10
19516.460417
 20
-19197.709667
 30
0.0
 10
19501.643750
 20
-19205.118000
 30
0.0
 10
19471.745833
 20
-19205.118000
 30
0.0
 10
19456.929167
 20
-19197.709667
 30
0.0
 10
19449.520833
 20
-19190.036750
 30
0.0
 10
19442.112500
 20
-19175.220083
 30
0.0
 10
19442.112500
 20
-19130.770083
 30
0.0
 10
19449.520833
 20
-19115.688833
 30
0.0
 10
19456.929167
 20
-19108.280500
 30
0.0
 10
19471.745833
 20
-19100.872167
 30
0.0
 10
19501.643750
 20
-19100.872167
 30
0.0
 10
19516.460417
 20
-19108.280500
 30
0.0
  0
LWPOLYLINE
  5
18c
100
AcDbEntity
  8
0
 62
7
100
AcDbPolyline
 90
2
 70
0
 10
19568.583333
 20
-19100.872167
 30
0.0
 10
19628.114583
 20
-19100.872167
 30
0.0
  0
LWPOLYLINE
  5
18d
100
AcDbEntity
  8
0
 62
7
100
AcDbPolyline
 90
5
 70
0
 10
19590.808333
 20
-19048.749250
 30
0.0
 10
19590.808333
 20
-19182.628417
 30
0.0
 10
19598.216667
 20
-19197.709667
 30
0.0
 10
19613.297917
 20
-19205.118000
 30
0.0
 10
19628.114583
 20
-19205.118000
 30
0.0
  0
LWPOLYLINE
  5
18e
100
AcDbEntity
  8
0
 62
7
100
AcDbPolyline
 90
16
 70
1
 10
19702.462500
 20
-19205.118000
 30
0.0
 10
19687.645833
 20
-19197.709667
 30
0.0
 10
19680.237500
 20
-19190.036750
 30
0.0
 10
19672.829167
 20
-19175.220083
 30
0.0
 10
19672.829167
 20
-19130.770083
 30
0.0
 10
19680.237500
 20
-19115.688833
 30
0.0
 10
19687.645833
 20
-19108.280500
 30
0.0
 10
19702.462500
 20
-19100.872167
 30
0.0
 10
19724.687500
 20
-19100.872167
 30
0.0
 10
19739.768750
 20
-19108.280500
 30
0.0
 10
19747.177083
 20
-19115.688833
 30
0.0
 10
19754.585417
 20
-19130.770083
 30
0.0
 10
19754.585417
 20
-19175.220083
 30
0.0
 10
19747.177083
 20
-19190.036750
 30
0.0
 10
19739.768750
 20
-19197.709667
 30
0.0
 10
19724.687500
 20
-19205.118000
 30
0.0
  0
LWPOLYLINE
  5
18f
100
AcDbEntity
  8
0
 62
7
100
AcDbPolyline
 90
5
 70
0
 10
19806.708333
 20
-19100.872167
 30
0.0
 10
19836.341667
 20
-19205.118000
 30
0.0
 10
19866.239583
 20
-19130.770083
 30
0.0
 10
19895.872917
 20
-19205.118000
 30
0.0
 10
19925.770833
 20
-19100.872167
 30
0.0
  0
LWPOLYLINE
  5
190
100
AcDbEntity
  8
0
 62
7
100
AcDbPolyline
 90
2
 70
0
 10
19985.302083
 20
-19100.872167
 30
0.0
 10
19985.302083
 20
-19205.118000
 30
0.0
  0
LWPOLYLINE
  5
191
100
AcDbEntity
  8
0
 62
7
100
AcDbPolyline
 90
7
 70
0
 10
19985.302083
 20
-19115.688833
 30
0.0
 10
19992.710417
 20
-19108.280500
 30
0.0
 10
20007.527083
 20
-19100.872167
 30
0.0
 10
20029.752083
 20
-19100.872167
 30
0.0
 10
20044.833333
 20
-19108.280500
 30
0.0
 10
20052.241667
 20
-19123.097167
 30
0.0
 10
20052.241667
 20
-19205.118000
 30
0.0
  0
LWPOLYLINE
  5
192
100
AcDbEntity
  8
0
 62
7
100
AcDbPolyline
 90
12
 70
1
 10
20126.589583
 20
-19205.118000
 30
0.0
 10
20126.589583
 20
-19048.749250
 30
0.0
 10
20163.895833
 20
-19048.749250
 30
0.0
 10
20186.120833
 20
-19056.157583
 30
0.0
 10
20200.937500
 20
-19071.238833
 30
0.0
 10
20208.345833
 20
-19086.055500
 30
0.0
 10
20215.754167
 20
-19115.688833
 30
0.0
 10
20215.754167
 20
-19138.178417
 30
0.0
 10
20208.345833
 20
-19167.811750
 30
0.0
 10
20200.937500
 20
-19182.628417
 30
0.0
 10
20186.120833
 20
-19197.709667
 30
0.0
 10
20163.895833
 20
-19205.118000
 30
0.0
  0
LWPOLYLINE
  5
193
100
AcDbEntity
  8
0
 62
7
100
AcDbPolyline
 90
16
 70
1
 10
20305.183333
 20
-19205.118000
 30
0.0
 10
20290.366667
 20
-19197.709667
 30
0.0
 10
20282.958333
 20
-19190.036750
 30
0.0
 10
20275.285417
 20
-19175.220083
 30
0.0
 10
20275.285417
 20
-19130.770083
 30
0.0
 10
20282.958333
 20
-19115.688833
 30
0.0
 10
20290.366667
 20
-19108.280500
 30
0.0
 10
20305.183333
 20
-19100.872167
 30
0.0
 10
20327.408333
 20
-19100.872167
 30
0.0
 10
20342.489583
 20
-19108.280500
 30
0.0
 10
20349.897917
 20
-19115.688833
 30
0.0
 10
20357.306250
 20
-19130.770083
 30
0.0
 10
20357.306250
 20
-19175.220083
 30
0.0
 10
20349.897917
 20
-19190.036750
 30
0.0
 10
20342.489583
 20
-19197.709667
 30
0.0
 10
20327.408333
 20
-19205.118000
 30
0.0
  0
LWPOLYLINE
  5
194
100
AcDbEntity
  8
0
 62
7
100
AcDbPolyline
 90
16
 70
1
 10
20446.470833
 20
-19205.118000
 30
0.0
 10
20431.654167
 20
-19197.709667
 30
0.0
 10
20424.245833
 20
-19190.036750
 30
0.0
 10
20416.837500
 20
-19175.220083
 30
0.0
 10
20416.837500
 20
-19130.770083
 30
0.0
 10
20424.245833
 20
-19115.688833
 30
0.0
 10
20431.654167
 20
-19108.280500
 30
0.0
 10
20446.470833
 20
-19100.872167
 30
0.0
 10
20468.960417
 20
-19100.872167
 30
0.0
 10
20483.777083
 20
-19108.280500
 30
0.0
 10
20491.185417
 20
-19115.688833
 30
0.0
 10
20498.593750
 20
-19130.770083
 30
0.0
 10
20498.593750
 20
-19175.220083
 30
0.0
 10
20491.185417
 20
-19190.036750
 30
0.0
 10
20483.777083
 20
-19197.709667
 30
0.0
 10
20468.960417
 20
-19205.118000
 30
0.0
  0
LWPOLYLINE
  5
195
100
AcDbEntity
  8
0
 62
7
100
AcDbPolyline
 90
2
 70
0
 10
20565.533333
 20
-19205.118000
 30
0.0
 10
20565.533333
 20
-19100.872167
 30
0.0
  0
LWPOLYLINE
  5
196
100
AcDbEntity
  8
0
 62
7
100
AcDbPolyline
 90
5
 70
0
 10
20565.533333
 20
-19130.770083
 30
0.0
 10
20572.941667
 20
-19115.688833
 30
0.0
 10
20580.350000
 20
-19108.280500
 30
0.0
 10
20595.431250
 20
-19100.872167
 30
0.0
 10
20610.247917
 20
-19100.872167
 30
0.0
  0
LWPOLYLINE
  5
197
100
AcDbEntity
  8
0
 62
7
100
AcDbPolyline
 90
4
 70
0
 10
20662.370833
 20
-19205.118000
 30
0.0
 10
20662.370833
 20
-19048.749250
 30
0.0
 10
20751.535417
 20
-19205.118000
 30
0.0
 10
20751.535417
 20
-19048.749250
 30
0.0
  0
LWPOLYLINE
  5
198
100
AcDbEntity
  8
0
 62
7
100
AcDbPolyline
 90
2
 70
0
 10
20892.822917
 20
-19100.872167
 30
0.0
 10
20892.822917
 20
-19205.118000
 30
0.0
  0
LWPOLYLINE
  5
199
100
AcDbEntity
  8
0
 62
7
100
AcDbPolyline
 90
7
 70
0
 10
20825.883333
 20
-19100.872167
 30
0.0
 10
20825.883333
 20
-19182.628417
 30
0.0
 10
20833.556250
 20
-19197.709667
 30
0.0
 10
20848.372917
 20
-19205.118000
 30
0.0
 10
20870.597917
 20
-19205.118000
 30
0.0
 10
20885.414583
 20
-19197.709667
 30
0.0
 10
20892.822917
 20
-19190.036750
 30
0.0
  0
LWPOLYLINE
  5
19a
100
AcDbEntity
  8
0
 62
7
100
AcDbPolyline
 90
2
 70
0
 10
20967.435417
 20
-19205.118000
 30
0.0
 10
20967.435417
 20
-19100.872167
 30
0.0
  0
LWPOLYLINE
  5
19b
100
AcDbEntity
  8
0
 62
7
100
AcDbPolyline
 90
7
 70
0
 10
20967.435417
 20
-19115.688833
 30
0.0
 10
20974.843750
 20
-19108.280500
 30
0.0
 10
20989.660417
 20
-19100.872167
 30
0.0
 10
21011.885417
 20
-19100.872167
 30
0.0
 10
21026.966667
 20
-19108.280500
 30
0.0
 10
21034.375000
 20
-19123.097167
 30
0.0
 10
21034.375000
 20
-19205.118000
 30
0.0
  0
LWPOLYLINE
  5
19c
100
AcDbEntity
  8
0
 62
7
100
AcDbPolyline
 90
7
 70
0
 10
21034.375000
 20
-19123.097167
 30
0.0
 10
21041.783333
 20
-19108.280500
 30
0.0
 10
21056.600000
 20
-19100.872167
 30
0.0
 10
21079.089583
 20
-19100.872167
 30
0.0
 10
21093.906250
 20
-19108.280500
 30
0.0
 10
21101.314583
 20
-19123.097167
 30
0.0
 10
21101.314583
 20
-19205.118000
 30
0.0
  0
LWPOLYLINE
  5
19d
100
AcDbEntity
  8
0
 62
7
100
AcDbPolyline
 90
2
 70
0
 10
21175.662500
 20
-19205.118000
 30
0.0
 10
21175.662500
 20
-19048.749250
 30
0.0
  0
LWPOLYLINE
  5
19e
100
AcDbEntity
  8
0
 62
7
100
AcDbPolyline
 90
12
 70
0
 10
21175.662500
 20
-19108.280500
 30
0.0
 10
21190.479167
 20
-19100.872167
 30
0.0
 10
21220.377083
 20
-19100.872167
 30
0.0
 10
21235.193750
 20
-19108.280500
 30
0.0
 10
21242.602083
 20
-19115.688833
 30
0.0
 10
21250.010417
 20
-19130.770083
 30
0.0
 10
21250.010417
 20
-19175.220083
 30
0.0
 10
21242.602083
 20
-19190.036750
 30
0.0
 10
21235.193750
 20
-19197.709667
 30
0.0
 10
21220.377083
 20
-19205.118000
 30
0.0
 10
21190.479167
 20
-19205.118000
 30
0.0
 10
21175.662500
 20
-19197.709667
 30
0.0
  0
LWPOLYLINE
  5
19f
100
AcDbEntity
  8
0
 62
7
100
AcDbPolyline
 90
13
 70
0
 10
21376.481250
 20
-19197.709667
 30
0.0
 10
21361.664583
 20
-19205.118000
 30
0.0
 10
21332.031250
 20
-19205.118000
 30
0.0
 10
21316.950000
 20
-19197.709667
 30
0.0
 10
21309.541667
 20
-19182.628417
 30
0.0
 10
21309.541667
 20
-19123.097167
 30
0.0
 10
21316.950000
 20
-19108.280500
 30
0.0
 10
21332.031250
 20
-19100.872167
 30
0.0
 10
21361.664583
 20
-19100.872167
 30
0.0
 10
21376.481250
 20
-19108.280500
 30
0.0
 10
21384.154167
 20
-19123.097167
 30
0.0
 10
21384.154167
 20
-19138.178417
 30
0.0
 10
21309.541667
 20
-19152.995083
 30
0.0
  0
LWPOLYLINE
  5
1a0
100
AcDbEntity
  8
0
 62
7
100
AcDbPolyline
 90
2
 70
0
 10
21451.093750
 20
-19205.118000
 30
0.0
 10
21451.093750
 20
-19100.872167
 30
0.0
  0
LWPOLYLINE
  5
1a1
100
AcDbEntity
  8
0
 62
7
100
AcDbPolyline
 90
5
 70
0
 10
21451.093750
 20
-19130.770083
 30
0.0
 10
21458.502083
 20
-19115.688833
 30
0.0
 10
21465.910417
 20
-19108.280500
 30
0.0
 10
21480.727083
 20
-19100.872167
 30
0.0
 10
21495.543750
 20
-19100.872167
 30
0.0
  0
LWPOLYLINE
  5
1a2
100
AcDbEntity
  8
0
 62
7
100
AcDbPolyline
 90
16
 70
0
 10
21540.258333
 20
-19197.709667
 30
0.0
 10
21555.075000
 20
-19205.118000
 30
0.0
 10
21584.972917
 20
-19205.118000
 30
0.0
 10
21599.789583
 20
-19197.709667
 30
0.0
 10
21607.197917
 20
-19182.628417
 30
0.0
 10
21607.197917
 20
-19175.220083
 30
0.0
 10
21599.789583
 20
-19160.403417
 30
0.0
 10
21584.972917
 20
-19152.995083
 30
0.0
 10
21562.483333
 20
-19152.995083
 30
0.0
 10
21547.666667
 20
-19145.586750
 30
0.0
 10
21540.258333
 20
-19130.770083
 30
0.0
 10
21540.258333
 20
-19123.097167
 30
0.0
 10
21547.666667
 20
-19108.280500
 30
0.0
 10
21562.483333
 20
-19100.872167
 30
0.0
 10
21584.972917
 20
-19100.872167
 30
0.0
 10
21599.789583
 20
-19108.280500
 30
0.0
  0
LWPOLYLINE
  5
1a3
100
AcDbEntity
  8
0
 62
7
100
AcDbPolyline
 90
2
 70
0
 10
21674.137500
 20
-19145.586750
 30
0.0
 10
21793.200000
 20
-19145.586750
 30
0.0
  0
LWPOLYLINE
  5
1a4
100
AcDbEntity
  8
0
 62
7
100
AcDbPolyline
 90
3
 70
0
 10
21942.160417
 20
-19205.118000
 30
0.0
 10
21867.547917
 20
-19205.118000
 30
0.0
 10
21867.547917
 20
-19048.749250
 30
0.0
  0
LWPOLYLINE
  5
1a5
100
AcDbEntity
  8
0
 62
7
100
AcDbPolyline
 90
2
 70
0
 10
21994.018750
 20
-19123.097167
 30
0.0
 10
22046.141667
 20
-19123.097167
 30
0.0
  0
LWPOLYLINE
  5
1a6
100
AcDbEntity
  8
0
 62
7
100
AcDbPolyline
 90
4
 70
0
 10
22068.631250
 20
-19205.118000
 30
0.0
 10
21994.018750
 20
-19205.118000
 30
0.0
 10
21994.018750
 20
-19048.749250
 30
0.0
 10
22068.631250
 20
-19048.749250
 30
0.0
  0
LWPOLYLINE
  5
1a7
100
AcDbEntity
  8
0
 62
7
100
AcDbPolyline
 90
12
 70
1
 10
22135.570833
 20
-19205.118000
 30
0.0
 10
22135.570833
 20
-19048.749250
 30
0.0
 10
22172.612500
 20
-19048.749250
 30
0.0
 10
22195.102083
 20
-19056.157583
 30
0.0
 10
22209.918750
 20
-19071.238833
 30
0.0
 10
22217.327083
 20
-19086.055500
 30
0.0
 10
22224.735417
 20
-19115.688833
 30
0.0
 10
22224.735417
 20
-19138.178417
 30
0.0
 10
22217.327083
 20
-19167.811750
 30
0.0
 10
22209.918750
 20
-19182.628417
 30
0.0
 10
22195.102083
 20
-19197.709667
 30
0.0
 10
22172.612500
 20
-19205.118000
 30
0.0
  0
LWPOLYLINE
  5
1a8
100
AcDbEntity
  8
0
 62
7
100
AcDbPolyline
 90
20
 70
0
 10
22284.266667
 20
-19197.709667
 30
0.0
 10
22306.756250
 20
-19205.118000
 30
0.0
 10
22343.797917
 20
-19205.118000
 30
0.0
 10
22358.614583
 20
-19197.709667
 30
0.0
 10
22366.287500
 20
-19190.036750
 30
0.0
 10
22373.695833
 20
-19175.220083
 30
0.0
 10
22373.695833
 20
-19160.403417
 30
0.0
 10
22366.287500
 20
-19145.586750
 30
0.0
 10
22358.614583
 20
-19138.178417
 30
0.0
 10
22343.797917
 20
-19130.770083
 30
0.0
 10
22314.164583
 20
-19123.097167
 30
0.0
 10
22299.083333
 20
-19115.688833
 30
0.0
 10
22291.675000
 20
-19108.280500
 30
0.0
 10
22284.266667
 20
-19093.463833
 30
0.0
 10
22284.266667
 20
-19078.647167
 30
0.0
 10
22291.675000
 20
-19063.565917
 30
0.0
 10
22299.083333
 20
-19056.157583
 30
0.0
 10
22314.164583
 20
-19048.749250
 30
0.0
 10
22351.206250
 20
-19048.749250
 30
0.0
 10
22373.695833
 20
-19056.157583
 30
0.0
  0
LWPOLYLINE
  5
1a9
100
AcDbEntity
  8
0
 62
7
100
AcDbPolyline
 90
2
 70
0
 10
22418.145833
 20
-19100.872167
 30
0.0
 10
22477.677083
 20
-19100.872167
 30
0.0
  0
LWPOLYLINE
  5
1aa
100
AcDbEntity
  8
0
 62
7
100
AcDbPolyline
 90
5
 70
0
 10
22440.635417
 20
-19048.749250
 30
0.0
 10
22440.635417
 20
-19182.628417
 30
0.0
 10
22448.043750
 20
-19197.709667
 30
0.0
 10
22462.860417
 20
-19205.118000
 30
0.0
 10
22477.677083
 20
-19205.118000
 30
0.0
  0
LWPOLYLINE
  5
1ab
100
AcDbEntity
  8
0
 62
7
100
AcDbPolyline
 90
2
 70
0
 10
22529.800000
 20
-19205.118000
 30
0.0
 10
22529.800000
 20
-19100.872167
 30
0.0
  0
LWPOLYLINE
  5
1ac
100
AcDbEntity
  8
0
 62
7
100
AcDbPolyline
 90
5
 70
0
 10
22529.800000
 20
-19130.770083
 30
0.0
 10
22537.208333
 20
-19115.688833
 30
0.0
 10
22544.616667
 20
-19108.280500
 30
0.0
 10
22559.697917
 20
-19100.872167
 30
0.0
 10
22574.514583
 20
-19100.872167
 30
0.0
  0
LWPOLYLINE
  5
1ad
100
AcDbEntity
  8
0
 62
7
100
AcDbPolyline
 90
2
 70
0
 10
22626.637500
 20
-19205.118000
 30
0.0
 10
22626.637500
 20
-19100.872167
 30
0.0
  0
LWPOLYLINE
  5
1ae
100
AcDbEntity
  8
0
 62
7
100
AcDbPolyline
 90
6
 70
0
 10
22626.637500
 20
-19048.749250
 30
0.0
 10
22619.229167
 20
-19056.157583
 30
0.0
 10
22626.637500
 20
-19063.565917
 30
0.0
 10
22634.045833
 20
-19056.157583
 30
0.0
 10
22626.637500
 20
-19048.749250
 30
0.0
 10
22626.637500
 20
-19063.565917
 30
0.0
  0
LWPOLYLINE
  5
1af
100
AcDbEntity
  8
0
 62
7
100
AcDbPolyline
 90
2
 70
0
 10
22700.985417
 20
-19100.872167
 30
0.0
 10
22700.985417
 20
-19257.240917
 30
0.0
  0
LWPOLYLINE
  5
1b0
100
AcDbEntity
  8
0
 62
7
100
AcDbPolyline
 90
12
 70
0
 10
22700.985417
 20
-19108.280500
 30
0.0
 10
22715.802083
 20
-19100.872167
 30
0.0
 10
22745.700000
 20
-19100.872167
 30
0.0
 10
22760.516667
 20
-19108.280500
 30
0.0
 10
22767.925000
 20
-19115.688833
 30
0.0
 10
22775.333333
 20
-19130.770083
 30
0.0
 10
22775.333333
 20
-19175.220083
 30
0.0
 10
22767.925000
 20
-19190.036750
 30
0.0
 10
22760.516667
 20
-19197.709667
 30
0.0
 10
22745.700000
 20
-19205.118000
 30
0.0
 10
22715.802083
 20
-19205.118000
 30
0.0
 10
22700.985417
 20
-19197.709667
 30
0.0
  0
LWPOLYLINE
  5
1b1
100
AcDbEntity
  8
0
 62
7
100
AcDbPolyline
 90
6
 70
0
 10
22842.272917
 20
-19190.036750
 30
0.0
 10
22849.681250
 20
-19197.709667
 30
0.0
 10
22842.272917
 20
-19205.118000
 30
0.0
 10
22834.864583
 20
-19197.709667
 30
0.0
 10
22842.272917
 20
-19190.036750
 30
0.0
 10
22842.272917
 20
-19205.118000
 30
0.0
  0
LWPOLYLINE
  5
1b2
100
AcDbEntity
  8
0
 62
7
100
AcDbPolyline
 90
2
 70
0
 10
22916.885417
 20
-19205.118000
 30
0.0
 10
22916.885417
 20
-19048.749250
 30
0.0
  0
LWPOLYLINE
  5
1b3
100
AcDbEntity
  8
0
 62
7
100
AcDbPolyline
 90
2
 70
0
 10
22931.702083
 20
-19145.586750
 30
0.0
 10
22976.416667
 20
-19205.118000
 30
0.0
  0
LWPOLYLINE
  5
1b4
100
AcDbEntity
  8
0
 62
7
100
AcDbPolyline
 90
2
 70
0
 10
22976.416667
 20
-19100.872167
 30
0.0
 10
22916.885417
 20
-19160.403417
 30
0.0
  0
LWPOLYLINE
  5
1b5
100
AcDbEntity
  8
0
 62
7
100
AcDbPolyline
 90
2
 70
0
 10
23043.356250
 20
-19205.118000
 30
0.0
 10
23043.356250
 20
-19100.872167
 30
0.0
  0
LWPOLYLINE
  5
1b6
100
AcDbEntity
  8
0
 62
7
100
AcDbPolyline
 90
6
 70
0
 10
23043.356250
 20
-19048.749250
 30
0.0
 10
23035.683333
 20
-19056.157583
 30
0.0
 10
23043.356250
 20
-19063.565917
 30
0.0
 10
23050.764583
 20
-19056.157583
 30
0.0
 10
23043.356250
 20
-19048.749250
 30
0.0
 10
23043.356250
 20
-19063.565917
 30
0.0
  0
LWPOLYLINE
  5
1b7
100
AcDbEntity
  8
0
 62
7
100
AcDbPolyline
 90
12
 70
0
 10
23184.643750
 20
-19197.709667
 30
0.0
 10
23169.827083
 20
-19205.118000
 30
0.0
 10
23139.929167
 20
-19205.118000
 30
0.0
 10
23125.112500
 20
-19197.709667
 30
0.0
 10
23117.704167
 20
-19190.036750
 30
0.0
 10
23110.295833
 20
-19175.220083
 30
0.0
 10
23110.295833
 20
-19130.770083
 30
0.0
 10
23117.704167
 20
-19115.688833
 30
0.0
 10
23125.112500
 20
-19108.280500
 30
0.0
 10
23139.929167
 20
-19100.872167
 30
0.0
 10
23169.827083
 20
-19100.872167
 30
0.0
 10
23184.643750
 20
-19108.280500
 30
0.0
  0
LWPOLYLINE
  5
1b8
100
AcDbEntity
  8
0
 62
7
100
AcDbPolyline
 90
6
 70
0
 10
23318.522917
 20
-19205.118000
 30
0.0
 10
23318.522917
 20
-19123.097167
 30
0.0
 10
23311.114583
 20
-19108.280500
 30
0.0
 10
23296.297917
 20
-19100.872167
 30
0.0
 10
23266.400000
 20
-19100.872167
 30
0.0
 10
23251.583333
 20
-19108.280500
 30
0.0
  0
LWPOLYLINE
  5
1b9
100
AcDbEntity
  8
0
 62
7
100
AcDbPolyline
 90
10
 70
0
 10
23318.522917
 20
-19197.709667
 30
0.0
 10
23303.706250
 20
-19205.118000
 30
0.0
 10
23266.400000
 20
-19205.118000
 30
0.0
 10
23251.583333
 20
-19197.709667
 30
0.0
 10
23244.175000
 20
-19182.628417
 30
0.0
 10
23244.175000
 20
-19167.811750
 30
0.0
 10
23251.583333
 20
-19152.995083
 30
0.0
 10
23266.400000
 20
-19145.586750
 30
0.0
 10
23303.706250
 20
-19145.586750
 30
0.0
 10
23318.522917
 20
-19138.178417
 30
0.0
  0
LWPOLYLINE
  5
1ba
100
AcDbEntity
  8
0
 62
7
100
AcDbPolyline
 90
2
 70
0
 10
23459.810417
 20
-19205.118000
 30
0.0
 10
23459.810417
 20
-19048.749250
 30
0.0
  0
LWPOLYLINE
  5
1bb
100
AcDbEntity
  8
0
 62
7
100
AcDbPolyline
 90
12
 70
0
 10
23459.810417
 20
-19197.709667
 30
0.0
 10
23444.993750
 20
-19205.118000
 30
0.0
 10
23415.360417
 20
-19205.118000
 30
0.0
 10
23400.279167
 20
-19197.709667
 30
0.0
 10
23392.870833
 20
-19190.036750
 30
0.0
 10
23385.462500
 20
-19175.220083
 30
0.0
 10
23385.462500
 20
-19130.770083
 30
0.0
 10
23392.870833
 20
-19115.688833
 30
0.0
 10
23400.279167
 20
-19108.280500
 30
0.0
 10
23415.360417
 20
-19100.872167
 30
0.0
 10
23444.993750
 20
-19100.872167
 30
0.0
 10
23459.810417
 20
-19108.280500
 30
0.0
  0
LWPOLYLINE
  5
1bc
100
AcDbEntity
  8
0
 62
7
100
AcDbPolyline
 90
2
 70
0
 10
23497.116667
 20
-19219.934667
 30
0.0
 10
23616.179167
 20
-19219.934667
 30
0.0
  0
LWPOLYLINE
  5
1bd
100
AcDbEntity
  8
0
 62
7
100
AcDbPolyline
 90
2
 70
0
 10
23653.485417
 20
-19100.872167
 30
0.0
 10
23653.485417
 20
-19257.240917
 30
0.0
  0
LWPOLYLINE
  5
1be
100
AcDbEntity
  8
0
 62
7
100
AcDbPolyline
 90
12
 70
0
 10
23653.485417
 20
-19108.280500
 30
0.0
 10
23668.302083
 20
-19100.872167
 30
0.0
 10
23697.935417
 20
-19100.872167
 30
0.0
 10
23713.016667
 20
-19108.280500
 30
0.0
 10
23720.425000
 20
-19115.688833
 30
0.0
 10
23727.833333
 20
-19130.770083
 30
0.0
 10
23727.833333
 20
-19175.220083
 30
0.0
 10
23720.425000
 20
-19190.036750
 30
0.0
 10
23713.016667
 20
-19197.709667
 30
0.0
 10
23697.935417
 20
-19205.118000
 30
0.0
 10
23668.302083
 20
-19205.118000
 30
0.0
 10
23653.485417
 20
-19197.709667
 30
0.0
  0
LWPOLYLINE
  5
1bf
100
AcDbEntity
  8
0
 62
7
100
AcDbPolyline
 90
12
 70
0
 10
23861.712500
 20
-19197.709667
 30
0.0
 10
23846.895833
 20
-19205.118000
 30
0.0
 10
23816.997917
 20
-19205.118000
 30
0.0
 10
23802.181250
 20
-19197.709667
 30
0.0
 10
23794.772917
 20
-19190.036750
 30
0.0
 10
23787.364583
 20
-19175.220083
 30
0.0
 10
23787.364583
 20
-19130.770083
 30
0.0
 10
23794.772917
 20
-19115.688833
 30
0.0
 10
23802.181250
 20
-19108.280500
 30
0.0
 10
23816.997917
 20
-19100.872167
 30
0.0
 10
23846.895833
 20
-19100.872167
 30
0.0
 10
23861.712500
 20
-19108.280500
 30
0.0
  0
LWPOLYLINE
  5
1c0
100
AcDbEntity
  8
0
 62
7
100
AcDbPolyline
 90
2
 70
0
 10
23928.652083
 20
-19205.118000
 30
0.0
 10
23928.652083
 20
-19048.749250
 30
0.0
  0
LWPOLYLINE
  5
1c1
100
AcDbEntity
  8
0
 62
7
100
AcDbPolyline
 90
12
 70
0
 10
23928.652083
 20
-19108.280500
 30
0.0
 10
23943.468750
 20
-19100.872167
 30
0.0
 10
23973.366667
 20
-19100.872167
 30
0.0
 10
23988.183333
 20
-19108.280500
 30
0.0
 10
23995.591667
 20
-19115.688833
 30
0.0
 10
24003.000000
 20
-19130.770083
 30
0.0
 10
24003.000000
 20
-19175.220083
 30
0.0
 10
23995.591667
 20
-19190.036750
 30
0.0
 10
23988.183333
 20
-19197.709667
 30
0.0
 10
23973.366667
 20
-19205.118000
 30
0.0
 10
23943.468750
 20
-19205.118000
 30
0.0
 10
23928.652083
 20
-19197.709667
 30
0.0
  0
LWPOLYLINE
  5
1c2
100
AcDbEntity
  8
0
 62
7
100
AcDbPolyline
 90
2
 70
0
 10
18437.489583
 20
-18696.853417
 30
0.0
 10
29687.572917
 20
-18696.853417
 30
0.0
  0
LWPOLYLINE
  5
1c3
100
AcDbEntity
  8
0
 62
7
100
AcDbPolyline
 90
20
 70
0
 10
18571.633333
 20
-18916.457583
 30
0.0
 10
18593.858333
 20
-18923.865917
 30
0.0
 10
18631.164583
 20
-18923.865917
 30
0.0
 10
18645.981250
 20
-18916.457583
 30
0.0
 10
18653.389583
 20
-18908.784667
 30
0.0
 10
18660.797917
 20
-18893.968000
 30
0.0
 10
18660.797917
 20
-18879.151333
 30
0.0
 10
18653.389583
 20
-18864.334667
 30
0.0
 10
18645.981250
 20
-18856.926333
 30
0.0
 10
18631.164583
 20
-18849.518000
 30
0.0
 10
18601.266667
 20
-18841.845083
 30
0.0
 10
18586.450000
 20
-18834.436750
 30
0.0
 10
18579.041667
 20
-18827.028417
 30
0.0
 10
18571.633333
 20
-18812.211750
 30
0.0
 10
18571.633333
 20
-18797.395083
 30
0.0
 10
18579.041667
 20
-18782.313833
 30
0.0
 10
18586.450000
 20
-18774.905500
 30
0.0
 10
18601.266667
 20
-18767.497167
 30
0.0
 10
18638.572917
 20
-18767.497167
 30
0.0
 10
18660.797917
 20
-18774.905500
 30
0.0
  0
LWPOLYLINE
  5
1c4
100
AcDbEntity
  8
0
 62
7
100
AcDbPolyline
 90
2
 70
0
 10
18727.737500
 20
-18923.865917
 30
0.0
 10
18727.737500
 20
-18767.497167
 30
0.0
  0
LWPOLYLINE
  5
1c5
100
AcDbEntity
  8
0
 62
7
100
AcDbPolyline
 90
7
 70
0
 10
18794.677083
 20
-18923.865917
 30
0.0
 10
18794.677083
 20
-18841.845083
 30
0.0
 10
18787.268750
 20
-18827.028417
 30
0.0
 10
18772.452083
 20
-18819.620083
 30
0.0
 10
18750.227083
 20
-18819.620083
 30
0.0
 10
18735.145833
 20
-18827.028417
 30
0.0
 10
18727.737500
 20
-18834.436750
 30
0.0
  0
LWPOLYLINE
  5
1c6
100
AcDbEntity
  8
0
 62
7
100
AcDbPolyline
 90
13
 70
0
 10
18928.556250
 20
-18916.457583
 30
0.0
 10
18913.739583
 20
-18923.865917
 30
0.0
 10
18884.106250
 20
-18923.865917
 30
0.0
 10
18869.025000
 20
-18916.457583
 30
0.0
 10
18861.616667
 20
-18901.376333
 30
0.0
 10
18861.616667
 20
-18841.845083
 30
0.0
 10
18869.025000
 20
-18827.028417
 30
0.0
 10
18884.106250
 20
-18819.620083
 30
0.0
 10
18913.739583
 20
-18819.620083
 30
0.0
 10
18928.556250
 20
-18827.028417
 30
0.0
 10
18936.229167
 20
-18841.845083
 30
0.0
 10
18936.229167
 20
-18856.926333
 30
0.0
 10
18861.616667
 20
-18871.743000
 30
0.0
  0
LWPOLYLINE
  5
1c7
100
AcDbEntity
  8
0
 62
7
100
AcDbPolyline
 90
13
 70
0
 10
19062.700000
 20
-18916.457583
 30
0.0
 10
19047.618750
 20
-18923.865917
 30
0.0
 10
19017.985417
 20
-18923.865917
 30
0.0
 10
19003.168750
 20
-18916.457583
 30
0.0
 10
18995.760417
 20
-18901.376333
 30
0.0
 10
18995.760417
 20
-18841.845083
 30
0.0
 10
19003.168750
 20
-18827.028417
 30
0.0
 10
19017.985417
 20
-18819.620083
 30
0.0
 10
19047.618750
 20
-18819.620083
 30
0.0
 10
19062.700000
 20
-18827.028417
 30
0.0
 10
19070.108333
 20
-18841.845083
 30
0.0
 10
19070.108333
 20
-18856.926333
 30
0.0
 10
18995.760417
 20
-18871.743000
 30
0.0
  0
LWPOLYLINE
  5
1c8
100
AcDbEntity
  8
0
 62
7
100
AcDbPolyline
 90
2
 70
0
 10
19114.558333
 20
-18819.620083
 30
0.0
 10
19174.089583
 20
-18819.620083
 30
0.0
  0
LWPOLYLINE
  5
1c9
100
AcDbEntity
  8
0
 62
7
100
AcDbPolyline
 90
5
 70
0
 10
19137.047917
 20
-18767.497167
 30
0.0
 10
19137.047917
 20
-18901.376333
 30
0.0
 10
19144.456250
 20
-18916.457583
 30
0.0
 10
19159.272917
 20
-18923.865917
 30
0.0
 10
19174.089583
 20
-18923.865917
 30
0.0
  0
LWPOLYLINE
  5
1ca
100
AcDbEntity
  8
0
 62
7
100
AcDbPolyline
 90
6
 70
0
 10
19226.212500
 20
-18908.784667
 30
0.0
 10
19233.620833
 20
-18916.457583
 30
0.0
 10
19226.212500
 20
-18923.865917
 30
0.0
 10
19218.804167
 20
-18916.457583
 30
0.0
 10
19226.212500
 20
-18908.784667
 30
0.0
 10
19226.212500
 20
-18923.865917
 30
0.0
  0
LWPOLYLINE
  5
1cb
100
AcDbEntity
  8
0
 62
7
100
AcDbPolyline
 90
6
 70
0
 10
19226.212500
 20
-18827.028417
 30
0.0
 10
19233.620833
 20
-18834.436750
 30
0.0
 10
19226.212500
 20
-18841.845083
 30
0.0
 10
19218.804167
 20
-18834.436750
 30
0.0
 10
19226.212500
 20
-18827.028417
 30
0.0
 10
19226.212500
 20
-18841.845083
 30
0.0
  0
LWPOLYLINE
  5
1cc
100
AcDbEntity
  8
0
 62
7
100
AcDbPolyline
 90
2
 70
0
 10
20520.818750
 20
-19738.518000
 30
0.0
 10
20520.818750
 20
-20050.990917
 30
0.0
  0
LWPOLYLINE
  5
1cd
100
AcDbEntity
  8
0
 62
7
100
AcDbPolyline
 90
2
 70
0
 10
27187.525000
 20
-19738.518000
 30
0.0
 10
27187.525000
 20
-20415.586750
 30
0.0
  0
LWPOLYLINE
  5
1ce
100
AcDbEntity
  8
0
 62
7
100
AcDbPolyline
 90
2
 70
0
 10
16666.633333
 20
-11873.249250
 30
0.0
 10
16666.633333
 20
-10206.638833
 30
0.0
  0
LWPOLYLINE
  5
1cf
100
AcDbEntity
  8
0
 62
7
100
AcDbPolyline
 90
2
 70
0
 10
10416.645833
 20
-11873.249250
 30
0.0
 10
16666.633333
 20
-11873.249250
 30
0.0
  0
LWPOLYLINE
  5
1d0
100
AcDbEntity
  8
0
 62
7
100
AcDbPolyline
 90
2
 70
0
 10
10416.645833
 20
-10206.638833
 30
0.0
 10
10416.645833
 20
-11873.249250
 30
0.0
  0
LWPOLYLINE
  5
1d1
100
AcDbEntity
  8
0
 62
7
100
AcDbPolyline
 90
2
 70
0
 10
10416.645833
 20
-10206.638833
 30
0.0
 10
16666.633333
 20
-10206.638833
 30
0.0
  0
ENDSEC
  0
SECTION
  2
OBJECTS
  0
DICTIONARY
  5
C
330
0
100
AcDbDictionary
  3
ACAD_GROUP
350
D
  3
ACAD_MLINESTYLE
350
17
  0
DICTIONARY
  5
D
330
C
100
AcDbDictionary
  0
DICTIONARY
  5
1A
330
C
100
AcDbDictionary
  0
DICTIONARY
  5
17
330
C
100
AcDbDictionary
  3
STANDARD
350
18
  0
DICTIONARY
  5
19
330
C
100
AcDbDictionary
  0
ENDSEC
  0
EOF
