G04 #@! TF.FileFunction,Copper,L2,Bot,Signal*
%FSLAX46Y46*%
G04 Gerber Fmt 4.6, Leading zero omitted, Abs format (unit mm)*
G04 Created by KiCad (PCBNEW 4.0.6) date Thu Jun 20 17:11:49 2019*
%MOMM*%
%LPD*%
G01*
G04 APERTURE LIST*
%ADD10C,0.100000*%
%ADD11R,1.700000X1.700000*%
%ADD12O,1.700000X1.700000*%
%ADD13C,0.685800*%
%ADD14C,0.508000*%
%ADD15C,0.254000*%
G04 APERTURE END LIST*
D10*
D11*
X110000000Y-104250000D03*
D12*
X107460000Y-104250000D03*
X104920000Y-104250000D03*
X102380000Y-104250000D03*
D11*
X149630000Y-104250000D03*
D12*
X152170000Y-104250000D03*
X154710000Y-104250000D03*
X157250000Y-104250000D03*
D13*
X120013900Y-112346400D03*
X108921800Y-114564900D03*
X115494700Y-114572300D03*
X132847500Y-107820500D03*
X126058000Y-106050000D03*
D14*
X115494700Y-114564900D02*
X115494700Y-114572300D01*
X108921800Y-114564900D02*
X115494700Y-114564900D01*
X117795400Y-114564900D02*
X120013900Y-112346400D01*
X115494700Y-114564900D02*
X117795400Y-114564900D01*
X148599500Y-107820500D02*
X152170000Y-104250000D01*
X132847500Y-107820500D02*
X148599500Y-107820500D01*
X129141700Y-102966300D02*
X126058000Y-106050000D01*
X155966300Y-102966300D02*
X129141700Y-102966300D01*
X157250000Y-104250000D02*
X155966300Y-102966300D01*
D15*
G36*
X159290000Y-115290000D02*
X118279623Y-115290000D01*
X118424018Y-115193518D01*
X120353273Y-113264263D01*
X120567112Y-113175907D01*
X120842440Y-112901059D01*
X120991630Y-112541770D01*
X120991969Y-112152737D01*
X120843407Y-111793188D01*
X120568559Y-111517860D01*
X120209270Y-111368670D01*
X119820237Y-111368331D01*
X119460688Y-111516893D01*
X119185360Y-111791741D01*
X119095914Y-112007150D01*
X117427164Y-113675900D01*
X115885934Y-113675900D01*
X115690070Y-113594570D01*
X115301037Y-113594231D01*
X115103382Y-113675900D01*
X109330855Y-113675900D01*
X109117170Y-113587170D01*
X108728137Y-113586831D01*
X108368588Y-113735393D01*
X108093260Y-114010241D01*
X107944070Y-114369530D01*
X107943731Y-114758563D01*
X108092293Y-115118112D01*
X108263881Y-115290000D01*
X100710000Y-115290000D01*
X100710000Y-106243663D01*
X125079931Y-106243663D01*
X125228493Y-106603212D01*
X125503341Y-106878540D01*
X125862630Y-107027730D01*
X126251663Y-107028069D01*
X126611212Y-106879507D01*
X126886540Y-106604659D01*
X126975986Y-106389250D01*
X129509936Y-103855300D01*
X148132560Y-103855300D01*
X148132560Y-105100000D01*
X148176838Y-105335317D01*
X148315910Y-105551441D01*
X148528110Y-105696431D01*
X148780000Y-105747440D01*
X149415324Y-105747440D01*
X148231264Y-106931500D01*
X133256555Y-106931500D01*
X133042870Y-106842770D01*
X132653837Y-106842431D01*
X132294288Y-106990993D01*
X132018960Y-107265841D01*
X131869770Y-107625130D01*
X131869431Y-108014163D01*
X132017993Y-108373712D01*
X132292841Y-108649040D01*
X132652130Y-108798230D01*
X133041163Y-108798569D01*
X133256727Y-108709500D01*
X148599500Y-108709500D01*
X148939706Y-108641829D01*
X149228118Y-108449118D01*
X151955758Y-105721478D01*
X152170000Y-105764093D01*
X152738285Y-105651054D01*
X153220054Y-105329147D01*
X153440000Y-104999974D01*
X153659946Y-105329147D01*
X154141715Y-105651054D01*
X154710000Y-105764093D01*
X155278285Y-105651054D01*
X155760054Y-105329147D01*
X155980000Y-104999974D01*
X156199946Y-105329147D01*
X156681715Y-105651054D01*
X157250000Y-105764093D01*
X157818285Y-105651054D01*
X158300054Y-105329147D01*
X158621961Y-104847378D01*
X158735000Y-104279093D01*
X158735000Y-104220907D01*
X158621961Y-103652622D01*
X158300054Y-103170853D01*
X157818285Y-102848946D01*
X157250000Y-102735907D01*
X157035758Y-102778522D01*
X156594918Y-102337682D01*
X156306506Y-102144971D01*
X155966300Y-102077300D01*
X129141700Y-102077300D01*
X128801494Y-102144971D01*
X128513082Y-102337682D01*
X125718627Y-105132137D01*
X125504788Y-105220493D01*
X125229460Y-105495341D01*
X125080270Y-105854630D01*
X125079931Y-106243663D01*
X100710000Y-106243663D01*
X100710000Y-104220907D01*
X100895000Y-104220907D01*
X100895000Y-104279093D01*
X101008039Y-104847378D01*
X101329946Y-105329147D01*
X101811715Y-105651054D01*
X102380000Y-105764093D01*
X102948285Y-105651054D01*
X103430054Y-105329147D01*
X103650000Y-104999974D01*
X103869946Y-105329147D01*
X104351715Y-105651054D01*
X104920000Y-105764093D01*
X105488285Y-105651054D01*
X105970054Y-105329147D01*
X106197702Y-104988447D01*
X106264817Y-105131358D01*
X106693076Y-105521645D01*
X107103110Y-105691476D01*
X107333000Y-105570155D01*
X107333000Y-104377000D01*
X107313000Y-104377000D01*
X107313000Y-104123000D01*
X107333000Y-104123000D01*
X107333000Y-102929845D01*
X107587000Y-102929845D01*
X107587000Y-104123000D01*
X107607000Y-104123000D01*
X107607000Y-104377000D01*
X107587000Y-104377000D01*
X107587000Y-105570155D01*
X107816890Y-105691476D01*
X108226924Y-105521645D01*
X108529937Y-105245499D01*
X108546838Y-105335317D01*
X108685910Y-105551441D01*
X108898110Y-105696431D01*
X109150000Y-105747440D01*
X110850000Y-105747440D01*
X111085317Y-105703162D01*
X111301441Y-105564090D01*
X111446431Y-105351890D01*
X111497440Y-105100000D01*
X111497440Y-103400000D01*
X111453162Y-103164683D01*
X111314090Y-102948559D01*
X111101890Y-102803569D01*
X110850000Y-102752560D01*
X109150000Y-102752560D01*
X108914683Y-102796838D01*
X108698559Y-102935910D01*
X108553569Y-103148110D01*
X108531699Y-103256107D01*
X108226924Y-102978355D01*
X107816890Y-102808524D01*
X107587000Y-102929845D01*
X107333000Y-102929845D01*
X107103110Y-102808524D01*
X106693076Y-102978355D01*
X106264817Y-103368642D01*
X106197702Y-103511553D01*
X105970054Y-103170853D01*
X105488285Y-102848946D01*
X104920000Y-102735907D01*
X104351715Y-102848946D01*
X103869946Y-103170853D01*
X103650000Y-103500026D01*
X103430054Y-103170853D01*
X102948285Y-102848946D01*
X102380000Y-102735907D01*
X101811715Y-102848946D01*
X101329946Y-103170853D01*
X101008039Y-103652622D01*
X100895000Y-104220907D01*
X100710000Y-104220907D01*
X100710000Y-100710000D01*
X159290000Y-100710000D01*
X159290000Y-115290000D01*
X159290000Y-115290000D01*
G37*
X159290000Y-115290000D02*
X118279623Y-115290000D01*
X118424018Y-115193518D01*
X120353273Y-113264263D01*
X120567112Y-113175907D01*
X120842440Y-112901059D01*
X120991630Y-112541770D01*
X120991969Y-112152737D01*
X120843407Y-111793188D01*
X120568559Y-111517860D01*
X120209270Y-111368670D01*
X119820237Y-111368331D01*
X119460688Y-111516893D01*
X119185360Y-111791741D01*
X119095914Y-112007150D01*
X117427164Y-113675900D01*
X115885934Y-113675900D01*
X115690070Y-113594570D01*
X115301037Y-113594231D01*
X115103382Y-113675900D01*
X109330855Y-113675900D01*
X109117170Y-113587170D01*
X108728137Y-113586831D01*
X108368588Y-113735393D01*
X108093260Y-114010241D01*
X107944070Y-114369530D01*
X107943731Y-114758563D01*
X108092293Y-115118112D01*
X108263881Y-115290000D01*
X100710000Y-115290000D01*
X100710000Y-106243663D01*
X125079931Y-106243663D01*
X125228493Y-106603212D01*
X125503341Y-106878540D01*
X125862630Y-107027730D01*
X126251663Y-107028069D01*
X126611212Y-106879507D01*
X126886540Y-106604659D01*
X126975986Y-106389250D01*
X129509936Y-103855300D01*
X148132560Y-103855300D01*
X148132560Y-105100000D01*
X148176838Y-105335317D01*
X148315910Y-105551441D01*
X148528110Y-105696431D01*
X148780000Y-105747440D01*
X149415324Y-105747440D01*
X148231264Y-106931500D01*
X133256555Y-106931500D01*
X133042870Y-106842770D01*
X132653837Y-106842431D01*
X132294288Y-106990993D01*
X132018960Y-107265841D01*
X131869770Y-107625130D01*
X131869431Y-108014163D01*
X132017993Y-108373712D01*
X132292841Y-108649040D01*
X132652130Y-108798230D01*
X133041163Y-108798569D01*
X133256727Y-108709500D01*
X148599500Y-108709500D01*
X148939706Y-108641829D01*
X149228118Y-108449118D01*
X151955758Y-105721478D01*
X152170000Y-105764093D01*
X152738285Y-105651054D01*
X153220054Y-105329147D01*
X153440000Y-104999974D01*
X153659946Y-105329147D01*
X154141715Y-105651054D01*
X154710000Y-105764093D01*
X155278285Y-105651054D01*
X155760054Y-105329147D01*
X155980000Y-104999974D01*
X156199946Y-105329147D01*
X156681715Y-105651054D01*
X157250000Y-105764093D01*
X157818285Y-105651054D01*
X158300054Y-105329147D01*
X158621961Y-104847378D01*
X158735000Y-104279093D01*
X158735000Y-104220907D01*
X158621961Y-103652622D01*
X158300054Y-103170853D01*
X157818285Y-102848946D01*
X157250000Y-102735907D01*
X157035758Y-102778522D01*
X156594918Y-102337682D01*
X156306506Y-102144971D01*
X155966300Y-102077300D01*
X129141700Y-102077300D01*
X128801494Y-102144971D01*
X128513082Y-102337682D01*
X125718627Y-105132137D01*
X125504788Y-105220493D01*
X125229460Y-105495341D01*
X125080270Y-105854630D01*
X125079931Y-106243663D01*
X100710000Y-106243663D01*
X100710000Y-104220907D01*
X100895000Y-104220907D01*
X100895000Y-104279093D01*
X101008039Y-104847378D01*
X101329946Y-105329147D01*
X101811715Y-105651054D01*
X102380000Y-105764093D01*
X102948285Y-105651054D01*
X103430054Y-105329147D01*
X103650000Y-104999974D01*
X103869946Y-105329147D01*
X104351715Y-105651054D01*
X104920000Y-105764093D01*
X105488285Y-105651054D01*
X105970054Y-105329147D01*
X106197702Y-104988447D01*
X106264817Y-105131358D01*
X106693076Y-105521645D01*
X107103110Y-105691476D01*
X107333000Y-105570155D01*
X107333000Y-104377000D01*
X107313000Y-104377000D01*
X107313000Y-104123000D01*
X107333000Y-104123000D01*
X107333000Y-102929845D01*
X107587000Y-102929845D01*
X107587000Y-104123000D01*
X107607000Y-104123000D01*
X107607000Y-104377000D01*
X107587000Y-104377000D01*
X107587000Y-105570155D01*
X107816890Y-105691476D01*
X108226924Y-105521645D01*
X108529937Y-105245499D01*
X108546838Y-105335317D01*
X108685910Y-105551441D01*
X108898110Y-105696431D01*
X109150000Y-105747440D01*
X110850000Y-105747440D01*
X111085317Y-105703162D01*
X111301441Y-105564090D01*
X111446431Y-105351890D01*
X111497440Y-105100000D01*
X111497440Y-103400000D01*
X111453162Y-103164683D01*
X111314090Y-102948559D01*
X111101890Y-102803569D01*
X110850000Y-102752560D01*
X109150000Y-102752560D01*
X108914683Y-102796838D01*
X108698559Y-102935910D01*
X108553569Y-103148110D01*
X108531699Y-103256107D01*
X108226924Y-102978355D01*
X107816890Y-102808524D01*
X107587000Y-102929845D01*
X107333000Y-102929845D01*
X107103110Y-102808524D01*
X106693076Y-102978355D01*
X106264817Y-103368642D01*
X106197702Y-103511553D01*
X105970054Y-103170853D01*
X105488285Y-102848946D01*
X104920000Y-102735907D01*
X104351715Y-102848946D01*
X103869946Y-103170853D01*
X103650000Y-103500026D01*
X103430054Y-103170853D01*
X102948285Y-102848946D01*
X102380000Y-102735907D01*
X101811715Y-102848946D01*
X101329946Y-103170853D01*
X101008039Y-103652622D01*
X100895000Y-104220907D01*
X100710000Y-104220907D01*
X100710000Y-100710000D01*
X159290000Y-100710000D01*
X159290000Y-115290000D01*
M02*
