  0
SECTION
  2
HEADER
  9
$ACADVER
  1
AC1014
  9
$HANDSEED
  5
FFFF
  9
$MEASUREMENT
 70
     1
  0
ENDSEC
  0
SECTION
  2
TABLES
  0
TABLE
  2
VPORT
  5
8
330
0
100
AcDbSymbolTable
 70
     4
  0
VPORT
  5
2E
330
8
100
AcDbSymbolTableRecord
100
AcDbViewportTableRecord
  2
*ACTIVE
 70
     0
 10
0.0
 20
0.0
 11
1.0
 21
1.0
 12
210.0
 22
148.5
 13
0.0
 23
0.0
 14
10.0
 24
10.0
 15
10.0
 25
10.0
 16
0.0
 26
0.0
 36
1.0
 17
0.0
 27
0.0
 37
0.0
 40
341.0
 41
1.24
 42
50.0
 43
0.0
 44
0.0
 50
0.0
 51
0.0
 71
     0
 72
   100
 73
     1
 74
     3
 75
     0
 76
     0
 77
     0
 78
     0
  0
ENDTAB
  0
TABLE
  2
LTYPE
  5
5
330
0
100
AcDbSymbolTable
 70
     1
  0
LTYPE
  5
14
330
5
100
AcDbSymbolTableRecord
100
AcDbLinetypeTableRecord
  2
BYBLOCK
 70
     0
  3

 72
    65
 73
     0
 40
0.0
  0
LTYPE
  5
15
330
5
100
AcDbSymbolTableRecord
100
AcDbLinetypeTableRecord
  2
BYLAYER
 70
     0
  3

 72
    65
 73
     0
 40
0.0
  0
LTYPE
  5
16
330
5
100
AcDbSymbolTableRecord
100
AcDbLinetypeTableRecord
  2
CONTINUOUS
 70
     0
  3
Solid line
 72
    65
 73
     0
 40
0.0
  0
ENDTAB
  0
TABLE
  2
LAYER
  5
2
100
AcDbSymbolTable
 70
1
  0
LAYER
  5
50
100
AcDbSymbolTableRecord
100
AcDbLayerTableRecord
  2
0
 70
0
  6
CONTINUOUS
  0
ENDTAB
  0
TABLE
  2
STYLE
  5
3
330
0
100
AcDbSymbolTable
 70
     1
  0
STYLE
  5
11
330
3
100
AcDbSymbolTableRecord
100
AcDbTextStyleTableRecord
  2
STANDARD
 70
     0
 40
0.0
 41
1.0
 50
0.0
 71
     0
 42
2.5
  3
txt
  4

  0
ENDTAB
  0
TABLE
  2
VIEW
  5
6
330
0
100
AcDbSymbolTable
 70
     0
  0
ENDTAB
  0
TABLE
  2
UCS
  5
7
330
0
100
AcDbSymbolTable
 70
     0
  0
ENDTAB
  0
TABLE
  2
APPID
  5
9
330
0
100
AcDbSymbolTable
 70
     2
  0
APPID
  5
12
330
9
100
AcDbSymbolTableRecord
100
AcDbRegAppTableRecord
  2
ACAD
 70
     0
  0
ENDTAB
  0
TABLE
  2
DIMSTYLE
  5
A
330
0
100
AcDbSymbolTable
 70
     1
  0
DIMSTYLE
105
27
330
A
100
AcDbSymbolTableRecord
100
AcDbDimStyleTableRecord
  2
ISO-25
 70
     0
  3

  4

  5

  6

  7

 40
1.0
 41
2.5
 42
0.625
 43
3.75
 44
1.25
 45
0.0
 46
0.0
 47
0.0
 48
0.0
140
2.5
141
2.5
142
0.0
143
0.03937007874016
144
1.0
145
0.0
146
1.0
147
0.625
 71
     0
 72
     0
 73
     0
 74
     0
 75
     0
 76
     0
 77
     1
 78
     8
170
     0
171
     3
172
     1
173
     0
174
     0
175
     0
176
     0
177
     0
178
     0
270
     2
271
     2
272
     2
273
     2
274
     3
340
11
275
     0
280
     0
281
     0
282
     0
283
     0
284
     8
285
     0
286
     0
287
     3
288
     0
  0
ENDTAB
  0
TABLE
  2
BLOCK_RECORD
  5
1
330
0
100
AcDbSymbolTable
 70
     1
  0
BLOCK_RECORD
  5
1F
330
1
100
AcDbSymbolTableRecord
100
AcDbBlockTableRecord
  2
*MODEL_SPACE
  0
BLOCK_RECORD
  5
1B
330
1
100
AcDbSymbolTableRecord
100
AcDbBlockTableRecord
  2
*PAPER_SPACE
  0
ENDTAB
  0
ENDSEC
  0
SECTION
  2
BLOCKS
  0
BLOCK
  5
20
330
1F
100
AcDbEntity
  8
0
100
AcDbBlockBegin
  2
*MODEL_SPACE
 70
     0
 10
0.0
 20
0.0
 30
0.0
  3
*MODEL_SPACE
  1

  0
ENDBLK
  5
21
330
1F
100
AcDbEntity
  8
0
100
AcDbBlockEnd
  0
BLOCK
  5
1C
330
1B
100
AcDbEntity
 67
     1
  8
0
100
AcDbBlockBegin
  2
*PAPER_SPACE
  1

  0
ENDBLK
  5
1D
330
1B
100
AcDbEntity
 67
     1
  8
0
100
AcDbBlockEnd
  0
ENDSEC
  0
SECTION
  2
ENTITIES
  0
LWPOLYLINE
  5
100
100
AcDbEntity
  8
0
 62
7
100
AcDbPolyline
 90
4
 70
1
 10
1843.772771
 20
-1708.241883
 30
0.0
 10
2968.773167
 20
-1708.241883
 30
0.0
 10
2968.773167
 20
-2041.574550
 30
0.0
 10
1843.772771
 20
-2041.574550
 30
0.0
  0
LWPOLYLINE
  5
101
100
AcDbEntity
  8
0
 62
7
100
AcDbPolyline
 90
4
 70
1
 10
104.166723
 20
-83.166023
 30
0.0
 10
2989.606723
 20
-83.166023
 30
0.0
 10
2989.606723
 20
-2062.408106
 30
0.0
 10
104.166723
 20
-2062.408106
 30
0.0
  0
LWPOLYLINE
  5
102
100
AcDbEntity
  8
0
 62
7
100
AcDbPolyline
 90
4
 70
1
 10
125.000015
 20
-103.999315
 30
0.0
 10
2968.768140
 20
-103.999315
 30
0.0
 10
2968.768140
 20
-2041.574815
 30
0.0
 10
125.000015
 20
-2041.574815
 30
0.0
  0
LWPOLYLINE
  5
103
100
AcDbEntity
  8
0
 62
7
100
AcDbPolyline
 90
2
 70
0
 10
624.998750
 20
-103.988467
 30
0.0
 10
624.998750
 20
-83.165758
 30
0.0
  0
LWPOLYLINE
  5
104
100
AcDbEntity
  8
0
 62
7
100
AcDbPolyline
 90
2
 70
0
 10
1145.831042
 20
-103.988467
 30
0.0
 10
1145.831042
 20
-83.165758
 30
0.0
  0
LWPOLYLINE
  5
105
100
AcDbEntity
  8
0
 62
7
100
AcDbPolyline
 90
2
 70
0
 10
1666.663333
 20
-103.988467
 30
0.0
 10
1666.663333
 20
-83.165758
 30
0.0
  0
LWPOLYLINE
  5
106
100
AcDbEntity
  8
0
 62
7
100
AcDbPolyline
 90
2
 70
0
 10
2187.495625
 20
-103.988467
 30
0.0
 10
2187.495625
 20
-83.165758
 30
0.0
  0
LWPOLYLINE
  5
107
100
AcDbEntity
  8
0
 62
7
100
AcDbPolyline
 90
2
 70
0
 10
2708.327917
 20
-103.988467
 30
0.0
 10
2708.327917
 20
-83.165758
 30
0.0
  0
LWPOLYLINE
  5
108
100
AcDbEntity
  8
0
 62
7
100
AcDbPolyline
 90
2
 70
0
 10
374.888125
 20
-99.702217
 30
0.0
 10
367.162292
 20
-99.702217
 30
0.0
  0
LWPOLYLINE
  5
109
100
AcDbEntity
  8
0
 62
7
100
AcDbPolyline
 90
5
 70
0
 10
371.025208
 20
-99.702217
 30
0.0
 10
371.025208
 20
-86.155550
 30
0.0
 10
369.728750
 20
-88.087008
 30
0.0
 10
368.432292
 20
-89.383467
 30
0.0
 10
367.162292
 20
-90.018467
 30
0.0
  0
LWPOLYLINE
  5
10a
100
AcDbEntity
  8
0
 62
7
100
AcDbPolyline
 90
11
 70
0
 10
887.994583
 20
-87.452008
 30
0.0
 10
888.629583
 20
-86.790550
 30
0.0
 10
889.926042
 20
-86.155550
 30
0.0
 10
893.153958
 20
-86.155550
 30
0.0
 10
894.423958
 20
-86.790550
 30
0.0
 10
895.085417
 20
-87.452008
 30
0.0
 10
895.720417
 20
-88.722008
 30
0.0
 10
895.720417
 20
-90.018467
 30
0.0
 10
895.085417
 20
-91.949925
 30
0.0
 10
887.333125
 20
-99.702217
 30
0.0
 10
895.720417
 20
-99.702217
 30
0.0
  0
LWPOLYLINE
  5
10b
100
AcDbEntity
  8
0
 62
7
100
AcDbPolyline
 90
14
 70
0
 10
1408.165417
 20
-86.155550
 30
0.0
 10
1416.552708
 20
-86.155550
 30
0.0
 10
1412.028333
 20
-91.314925
 30
0.0
 10
1413.986250
 20
-91.314925
 30
0.0
 10
1415.256250
 20
-91.949925
 30
0.0
 10
1415.917708
 20
-92.611383
 30
0.0
 10
1416.552708
 20
-93.881383
 30
0.0
 10
1416.552708
 20
-97.109300
 30
0.0
 10
1415.917708
 20
-98.405758
 30
0.0
 10
1415.256250
 20
-99.040758
 30
0.0
 10
1413.986250
 20
-99.702217
 30
0.0
 10
1410.096875
 20
-99.702217
 30
0.0
 10
1408.826875
 20
-99.040758
 30
0.0
 10
1408.165417
 20
-98.405758
 30
0.0
  0
LWPOLYLINE
  5
10c
100
AcDbEntity
  8
0
 62
7
100
AcDbPolyline
 90
2
 70
0
 10
1936.088542
 20
-90.679925
 30
0.0
 10
1936.088542
 20
-99.702217
 30
0.0
  0
LWPOLYLINE
  5
10d
100
AcDbEntity
  8
0
 62
7
100
AcDbPolyline
 90
3
 70
0
 10
1932.860625
 20
-85.520550
 30
0.0
 10
1929.659167
 20
-95.177842
 30
0.0
 10
1938.020000
 20
-95.177842
 30
0.0
  0
LWPOLYLINE
  5
10e
100
AcDbEntity
  8
0
 62
7
100
AcDbPolyline
 90
16
 70
0
 10
2457.582292
 20
-86.155550
 30
0.0
 10
2451.126458
 20
-86.155550
 30
0.0
 10
2450.491458
 20
-92.611383
 30
0.0
 10
2451.126458
 20
-91.949925
 30
0.0
 10
2452.422917
 20
-91.314925
 30
0.0
 10
2455.650833
 20
-91.314925
 30
0.0
 10
2456.920833
 20
-91.949925
 30
0.0
 10
2457.582292
 20
-92.611383
 30
0.0
 10
2458.217292
 20
-93.881383
 30
0.0
 10
2458.217292
 20
-97.109300
 30
0.0
 10
2457.582292
 20
-98.405758
 30
0.0
 10
2456.920833
 20
-99.040758
 30
0.0
 10
2455.650833
 20
-99.702217
 30
0.0
 10
2452.422917
 20
-99.702217
 30
0.0
 10
2451.126458
 20
-99.040758
 30
0.0
 10
2450.491458
 20
-98.405758
 30
0.0
  0
LWPOLYLINE
  5
10f
100
AcDbEntity
  8
0
 62
7
100
AcDbPolyline
 90
22
 70
0
 10
2977.753125
 20
-86.155550
 30
0.0
 10
2975.186667
 20
-86.155550
 30
0.0
 10
2973.890208
 20
-86.790550
 30
0.0
 10
2973.255208
 20
-87.452008
 30
0.0
 10
2971.958750
 20
-89.383467
 30
0.0
 10
2971.323750
 20
-91.949925
 30
0.0
 10
2971.323750
 20
-97.109300
 30
0.0
 10
2971.958750
 20
-98.405758
 30
0.0
 10
2972.593750
 20
-99.040758
 30
0.0
 10
2973.890208
 20
-99.702217
 30
0.0
 10
2976.483125
 20
-99.702217
 30
0.0
 10
2977.753125
 20
-99.040758
 30
0.0
 10
2978.414583
 20
-98.405758
 30
0.0
 10
2979.049583
 20
-97.109300
 30
0.0
 10
2979.049583
 20
-93.881383
 30
0.0
 10
2978.414583
 20
-92.611383
 30
0.0
 10
2977.753125
 20
-91.949925
 30
0.0
 10
2976.483125
 20
-91.314925
 30
0.0
 10
2973.890208
 20
-91.314925
 30
0.0
 10
2972.593750
 20
-91.949925
 30
0.0
 10
2971.958750
 20
-92.611383
 30
0.0
 10
2971.323750
 20
-93.881383
 30
0.0
  0
LWPOLYLINE
  5
110
100
AcDbEntity
  8
0
 62
7
100
AcDbPolyline
 90
2
 70
0
 10
624.998750
 20
-2041.558675
 30
0.0
 10
624.998750
 20
-2062.381383
 30
0.0
  0
LWPOLYLINE
  5
111
100
AcDbEntity
  8
0
 62
7
100
AcDbPolyline
 90
2
 70
0
 10
1145.831042
 20
-2041.558675
 30
0.0
 10
1145.831042
 20
-2062.381383
 30
0.0
  0
LWPOLYLINE
  5
112
100
AcDbEntity
  8
0
 62
7
100
AcDbPolyline
 90
2
 70
0
 10
1666.663333
 20
-2041.558675
 30
0.0
 10
1666.663333
 20
-2062.381383
 30
0.0
  0
LWPOLYLINE
  5
113
100
AcDbEntity
  8
0
 62
7
100
AcDbPolyline
 90
2
 70
0
 10
2187.495625
 20
-2041.558675
 30
0.0
 10
2187.495625
 20
-2062.381383
 30
0.0
  0
LWPOLYLINE
  5
114
100
AcDbEntity
  8
0
 62
7
100
AcDbPolyline
 90
2
 70
0
 10
2708.327917
 20
-2041.558675
 30
0.0
 10
2708.327917
 20
-2062.381383
 30
0.0
  0
LWPOLYLINE
  5
115
100
AcDbEntity
  8
0
 62
7
100
AcDbPolyline
 90
2
 70
0
 10
374.888125
 20
-2058.095133
 30
0.0
 10
367.162292
 20
-2058.095133
 30
0.0
  0
LWPOLYLINE
  5
116
100
AcDbEntity
  8
0
 62
7
100
AcDbPolyline
 90
5
 70
0
 10
371.025208
 20
-2058.095133
 30
0.0
 10
371.025208
 20
-2044.574925
 30
0.0
 10
369.728750
 20
-2046.506383
 30
0.0
 10
368.432292
 20
-2047.776383
 30
0.0
 10
367.162292
 20
-2048.437842
 30
0.0
  0
LWPOLYLINE
  5
117
100
AcDbEntity
  8
0
 62
7
100
AcDbPolyline
 90
11
 70
0
 10
887.994583
 20
-2045.844925
 30
0.0
 10
888.629583
 20
-2045.209925
 30
0.0
 10
889.926042
 20
-2044.574925
 30
0.0
 10
893.153958
 20
-2044.574925
 30
0.0
 10
894.423958
 20
-2045.209925
 30
0.0
 10
895.085417
 20
-2045.844925
 30
0.0
 10
895.720417
 20
-2047.141383
 30
0.0
 10
895.720417
 20
-2048.437842
 30
0.0
 10
895.085417
 20
-2050.369300
 30
0.0
 10
887.333125
 20
-2058.095133
 30
0.0
 10
895.720417
 20
-2058.095133
 30
0.0
  0
LWPOLYLINE
  5
118
100
AcDbEntity
  8
0
 62
7
100
AcDbPolyline
 90
14
 70
0
 10
1408.165417
 20
-2044.574925
 30
0.0
 10
1416.552708
 20
-2044.574925
 30
0.0
 10
1412.028333
 20
-2049.707842
 30
0.0
 10
1413.986250
 20
-2049.707842
 30
0.0
 10
1415.256250
 20
-2050.369300
 30
0.0
 10
1415.917708
 20
-2051.004300
 30
0.0
 10
1416.552708
 20
-2052.300758
 30
0.0
 10
1416.552708
 20
-2055.528675
 30
0.0
 10
1415.917708
 20
-2056.825133
 30
0.0
 10
1415.256250
 20
-2057.460133
 30
0.0
 10
1413.986250
 20
-2058.095133
 30
0.0
 10
1410.096875
 20
-2058.095133
 30
0.0
 10
1408.826875
 20
-2057.460133
 30
0.0
 10
1408.165417
 20
-2056.825133
 30
0.0
  0
LWPOLYLINE
  5
119
100
AcDbEntity
  8
0
 62
7
100
AcDbPolyline
 90
2
 70
0
 10
1936.088542
 20
-2049.072842
 30
0.0
 10
1936.088542
 20
-2058.095133
 30
0.0
  0
LWPOLYLINE
  5
11a
100
AcDbEntity
  8
0
 62
7
100
AcDbPolyline
 90
3
 70
0
 10
1932.860625
 20
-2043.913467
 30
0.0
 10
1929.659167
 20
-2053.597217
 30
0.0
 10
1938.020000
 20
-2053.597217
 30
0.0
  0
LWPOLYLINE
  5
11b
100
AcDbEntity
  8
0
 62
7
100
AcDbPolyline
 90
16
 70
0
 10
2457.582292
 20
-2044.574925
 30
0.0
 10
2451.126458
 20
-2044.574925
 30
0.0
 10
2450.491458
 20
-2051.004300
 30
0.0
 10
2451.126458
 20
-2050.369300
 30
0.0
 10
2452.422917
 20
-2049.707842
 30
0.0
 10
2455.650833
 20
-2049.707842
 30
0.0
 10
2456.920833
 20
-2050.369300
 30
0.0
 10
2457.582292
 20
-2051.004300
 30
0.0
 10
2458.217292
 20
-2052.300758
 30
0.0
 10
2458.217292
 20
-2055.528675
 30
0.0
 10
2457.582292
 20
-2056.825133
 30
0.0
 10
2456.920833
 20
-2057.460133
 30
0.0
 10
2455.650833
 20
-2058.095133
 30
0.0
 10
2452.422917
 20
-2058.095133
 30
0.0
 10
2451.126458
 20
-2057.460133
 30
0.0
 10
2450.491458
 20
-2056.825133
 30
0.0
  0
LWPOLYLINE
  5
11c
100
AcDbEntity
  8
0
 62
7
100
AcDbPolyline
 90
22
 70
0
 10
2977.753125
 20
-2044.574925
 30
0.0
 10
2975.186667
 20
-2044.574925
 30
0.0
 10
2973.890208
 20
-2045.209925
 30
0.0
 10
2973.255208
 20
-2045.844925
 30
0.0
 10
2971.958750
 20
-2047.776383
 30
0.0
 10
2971.323750
 20
-2050.369300
 30
0.0
 10
2971.323750
 20
-2055.528675
 30
0.0
 10
2971.958750
 20
-2056.825133
 30
0.0
 10
2972.593750
 20
-2057.460133
 30
0.0
 10
2973.890208
 20
-2058.095133
 30
0.0
 10
2976.483125
 20
-2058.095133
 30
0.0
 10
2977.753125
 20
-2057.460133
 30
0.0
 10
2978.414583
 20
-2056.825133
 30
0.0
 10
2979.049583
 20
-2055.528675
 30
0.0
 10
2979.049583
 20
-2052.300758
 30
0.0
 10
2978.414583
 20
-2051.004300
 30
0.0
 10
2977.753125
 20
-2050.369300
 30
0.0
 10
2976.483125
 20
-2049.707842
 30
0.0
 10
2973.890208
 20
-2049.707842
 30
0.0
 10
2972.593750
 20
-2050.369300
 30
0.0
 10
2971.958750
 20
-2051.004300
 30
0.0
 10
2971.323750
 20
-2052.300758
 30
0.0
  0
LWPOLYLINE
  5
11d
100
AcDbEntity
  8
0
 62
7
100
AcDbPolyline
 90
2
 70
0
 10
104.166458
 20
-603.998050
 30
0.0
 10
124.989167
 20
-603.998050
 30
0.0
  0
LWPOLYLINE
  5
11e
100
AcDbEntity
  8
0
 62
7
100
AcDbPolyline
 90
2
 70
0
 10
104.166458
 20
-1124.830342
 30
0.0
 10
124.989167
 20
-1124.830342
 30
0.0
  0
LWPOLYLINE
  5
11f
100
AcDbEntity
  8
0
 62
7
100
AcDbPolyline
 90
2
 70
0
 10
104.166458
 20
-1645.662633
 30
0.0
 10
124.989167
 20
-1645.662633
 30
0.0
  0
LWPOLYLINE
  5
120
100
AcDbEntity
  8
0
 62
7
100
AcDbPolyline
 90
2
 70
0
 10
111.336667
 20
-345.817633
 30
0.0
 10
117.792500
 20
-345.817633
 30
0.0
  0
LWPOLYLINE
  5
121
100
AcDbEntity
  8
0
 62
7
100
AcDbPolyline
 90
3
 70
0
 10
110.066667
 20
-349.707008
 30
0.0
 10
114.564583
 20
-336.160342
 30
0.0
 10
119.088958
 20
-349.707008
 30
0.0
  0
LWPOLYLINE
  5
122
100
AcDbEntity
  8
0
 62
7
100
AcDbPolyline
 90
19
 70
0
 10
115.543542
 20
-863.448467
 30
0.0
 10
117.475000
 20
-864.083467
 30
0.0
 10
118.110000
 20
-864.718467
 30
0.0
 10
118.771458
 20
-866.014925
 30
0.0
 10
118.771458
 20
-867.946383
 30
0.0
 10
118.110000
 20
-869.242842
 30
0.0
 10
117.475000
 20
-869.877842
 30
0.0
 10
116.178542
 20
-870.539300
 30
0.0
 10
111.019167
 20
-870.539300
 30
0.0
 10
111.019167
 20
-856.992633
 30
0.0
 10
115.543542
 20
-856.992633
 30
0.0
 10
116.840000
 20
-857.627633
 30
0.0
 10
117.475000
 20
-858.289092
 30
0.0
 10
118.110000
 20
-859.559092
 30
0.0
 10
118.110000
 20
-860.855550
 30
0.0
 10
117.475000
 20
-862.152008
 30
0.0
 10
116.840000
 20
-862.787008
 30
0.0
 10
115.543542
 20
-863.448467
 30
0.0
 10
111.019167
 20
-863.448467
 30
0.0
  0
LWPOLYLINE
  5
123
100
AcDbEntity
  8
0
 62
7
100
AcDbPolyline
 90
16
 70
0
 10
118.771458
 20
-1390.075133
 30
0.0
 10
118.110000
 20
-1390.710133
 30
0.0
 10
116.178542
 20
-1391.371592
 30
0.0
 10
114.882083
 20
-1391.371592
 30
0.0
 10
112.950625
 20
-1390.710133
 30
0.0
 10
111.680625
 20
-1389.440133
 30
0.0
 10
111.019167
 20
-1388.143675
 30
0.0
 10
110.384167
 20
-1385.550758
 30
0.0
 10
110.384167
 20
-1383.619300
 30
0.0
 10
111.019167
 20
-1381.052842
 30
0.0
 10
111.680625
 20
-1379.756383
 30
0.0
 10
112.950625
 20
-1378.459925
 30
0.0
 10
114.882083
 20
-1377.824925
 30
0.0
 10
116.178542
 20
-1377.824925
 30
0.0
 10
118.110000
 20
-1378.459925
 30
0.0
 10
118.771458
 20
-1379.121383
 30
0.0
  0
LWPOLYLINE
  5
124
100
AcDbEntity
  8
0
 62
7
100
AcDbPolyline
 90
12
 70
1
 10
111.019167
 20
-1912.203883
 30
0.0
 10
111.019167
 20
-1898.657217
 30
0.0
 10
114.247083
 20
-1898.657217
 30
0.0
 10
116.178542
 20
-1899.292217
 30
0.0
 10
117.475000
 20
-1900.588675
 30
0.0
 10
118.110000
 20
-1901.885133
 30
0.0
 10
118.771458
 20
-1904.451592
 30
0.0
 10
118.771458
 20
-1906.383050
 30
0.0
 10
118.110000
 20
-1908.975967
 30
0.0
 10
117.475000
 20
-1910.272425
 30
0.0
 10
116.178542
 20
-1911.542425
 30
0.0
 10
114.247083
 20
-1912.203883
 30
0.0
  0
LWPOLYLINE
  5
125
100
AcDbEntity
  8
0
 62
7
100
AcDbPolyline
 90
2
 70
0
 10
2989.580000
 20
-603.998050
 30
0.0
 10
2968.757292
 20
-603.998050
 30
0.0
  0
LWPOLYLINE
  5
126
100
AcDbEntity
  8
0
 62
7
100
AcDbPolyline
 90
2
 70
0
 10
2989.580000
 20
-1124.830342
 30
0.0
 10
2968.757292
 20
-1124.830342
 30
0.0
  0
LWPOLYLINE
  5
127
100
AcDbEntity
  8
0
 62
7
100
AcDbPolyline
 90
2
 70
0
 10
2989.580000
 20
-1645.662633
 30
0.0
 10
2968.757292
 20
-1645.662633
 30
0.0
  0
LWPOLYLINE
  5
128
100
AcDbEntity
  8
0
 62
7
100
AcDbPolyline
 90
2
 70
0
 10
2975.953958
 20
-345.817633
 30
0.0
 10
2982.409792
 20
-345.817633
 30
0.0
  0
LWPOLYLINE
  5
129
100
AcDbEntity
  8
0
 62
7
100
AcDbPolyline
 90
3
 70
0
 10
2974.657500
 20
-349.707008
 30
0.0
 10
2979.181875
 20
-336.160342
 30
0.0
 10
2983.679792
 20
-349.707008
 30
0.0
  0
LWPOLYLINE
  5
12a
100
AcDbEntity
  8
0
 62
7
100
AcDbPolyline
 90
19
 70
0
 10
2980.134375
 20
-863.448467
 30
0.0
 10
2982.065833
 20
-864.083467
 30
0.0
 10
2982.727292
 20
-864.718467
 30
0.0
 10
2983.362292
 20
-866.014925
 30
0.0
 10
2983.362292
 20
-867.946383
 30
0.0
 10
2982.727292
 20
-869.242842
 30
0.0
 10
2982.065833
 20
-869.877842
 30
0.0
 10
2980.795833
 20
-870.539300
 30
0.0
 10
2975.636458
 20
-870.539300
 30
0.0
 10
2975.636458
 20
-856.992633
 30
0.0
 10
2980.134375
 20
-856.992633
 30
0.0
 10
2981.430833
 20
-857.627633
 30
0.0
 10
2982.065833
 20
-858.289092
 30
0.0
 10
2982.727292
 20
-859.559092
 30
0.0
 10
2982.727292
 20
-860.855550
 30
0.0
 10
2982.065833
 20
-862.152008
 30
0.0
 10
2981.430833
 20
-862.787008
 30
0.0
 10
2980.134375
 20
-863.448467
 30
0.0
 10
2975.636458
 20
-863.448467
 30
0.0
  0
LWPOLYLINE
  5
12b
100
AcDbEntity
  8
0
 62
7
100
AcDbPolyline
 90
16
 70
0
 10
2983.362292
 20
-1390.075133
 30
0.0
 10
2982.727292
 20
-1390.710133
 30
0.0
 10
2980.795833
 20
-1391.371592
 30
0.0
 10
2979.499375
 20
-1391.371592
 30
0.0
 10
2977.567917
 20
-1390.710133
 30
0.0
 10
2976.271458
 20
-1389.440133
 30
0.0
 10
2975.636458
 20
-1388.143675
 30
0.0
 10
2974.975000
 20
-1385.550758
 30
0.0
 10
2974.975000
 20
-1383.619300
 30
0.0
 10
2975.636458
 20
-1381.052842
 30
0.0
 10
2976.271458
 20
-1379.756383
 30
0.0
 10
2977.567917
 20
-1378.459925
 30
0.0
 10
2979.499375
 20
-1377.824925
 30
0.0
 10
2980.795833
 20
-1377.824925
 30
0.0
 10
2982.727292
 20
-1378.459925
 30
0.0
 10
2983.362292
 20
-1379.121383
 30
0.0
  0
LWPOLYLINE
  5
12c
100
AcDbEntity
  8
0
 62
7
100
AcDbPolyline
 90
12
 70
1
 10
2975.636458
 20
-1912.203883
 30
0.0
 10
2975.636458
 20
-1898.657217
 30
0.0
 10
2978.864375
 20
-1898.657217
 30
0.0
 10
2980.795833
 20
-1899.292217
 30
0.0
 10
2982.065833
 20
-1900.588675
 30
0.0
 10
2982.727292
 20
-1901.885133
 30
0.0
 10
2983.362292
 20
-1904.451592
 30
0.0
 10
2983.362292
 20
-1906.383050
 30
0.0
 10
2982.727292
 20
-1908.975967
 30
0.0
 10
2982.065833
 20
-1910.272425
 30
0.0
 10
2980.795833
 20
-1911.542425
 30
0.0
 10
2978.864375
 20
-1912.203883
 30
0.0
  0
LWPOLYLINE
  5
12d
100
AcDbEntity
  8
0
 62
7
100
AcDbPolyline
 90
12
 70
1
 10
2087.059792
 20
-1997.584925
 30
0.0
 10
2087.059792
 20
-1981.974508
 30
0.0
 10
2090.790417
 20
-1981.974508
 30
0.0
 10
2093.012917
 20
-1982.715342
 30
0.0
 10
2094.494583
 20
-1984.197008
 30
0.0
 10
2095.235417
 20
-1985.678675
 30
0.0
 10
2096.002708
 20
-1988.668467
 30
0.0
 10
2096.002708
 20
-1990.890967
 30
0.0
 10
2095.235417
 20
-1993.880758
 30
0.0
 10
2094.494583
 20
-1995.362425
 30
0.0
 10
2093.012917
 20
-1996.844092
 30
0.0
 10
2090.790417
 20
-1997.584925
 30
0.0
  0
LWPOLYLINE
  5
12e
100
AcDbEntity
  8
0
 62
7
100
AcDbPolyline
 90
6
 70
0
 10
2109.390625
 20
-1997.584925
 30
0.0
 10
2109.390625
 20
-1989.409300
 30
0.0
 10
2108.649792
 20
-1987.927633
 30
0.0
 10
2107.141667
 20
-1987.160342
 30
0.0
 10
2104.178333
 20
-1987.160342
 30
0.0
 10
2102.696667
 20
-1987.927633
 30
0.0
  0
LWPOLYLINE
  5
12f
100
AcDbEntity
  8
0
 62
7
100
AcDbPolyline
 90
10
 70
0
 10
2109.390625
 20
-1996.844092
 30
0.0
 10
2107.908958
 20
-1997.584925
 30
0.0
 10
2104.178333
 20
-1997.584925
 30
0.0
 10
2102.696667
 20
-1996.844092
 30
0.0
 10
2101.955833
 20
-1995.362425
 30
0.0
 10
2101.955833
 20
-1993.880758
 30
0.0
 10
2102.696667
 20
-1992.372633
 30
0.0
 10
2104.178333
 20
-1991.631800
 30
0.0
 10
2107.908958
 20
-1991.631800
 30
0.0
 10
2109.390625
 20
-1990.890967
 30
0.0
  0
LWPOLYLINE
  5
130
100
AcDbEntity
  8
0
 62
7
100
AcDbPolyline
 90
2
 70
0
 10
2114.602917
 20
-1987.160342
 30
0.0
 10
2120.556042
 20
-1987.160342
 30
0.0
  0
LWPOLYLINE
  5
131
100
AcDbEntity
  8
0
 62
7
100
AcDbPolyline
 90
5
 70
0
 10
2116.825417
 20
-1981.974508
 30
0.0
 10
2116.825417
 20
-1995.362425
 30
0.0
 10
2117.566250
 20
-1996.844092
 30
0.0
 10
2119.047917
 20
-1997.584925
 30
0.0
 10
2120.556042
 20
-1997.584925
 30
0.0
  0
LWPOLYLINE
  5
132
100
AcDbEntity
  8
0
 62
7
100
AcDbPolyline
 90
13
 70
0
 10
2131.695000
 20
-1996.844092
 30
0.0
 10
2130.213333
 20
-1997.584925
 30
0.0
 10
2127.250000
 20
-1997.584925
 30
0.0
 10
2125.741875
 20
-1996.844092
 30
0.0
 10
2125.001042
 20
-1995.362425
 30
0.0
 10
2125.001042
 20
-1989.409300
 30
0.0
 10
2125.741875
 20
-1987.927633
 30
0.0
 10
2127.250000
 20
-1987.160342
 30
0.0
 10
2130.213333
 20
-1987.160342
 30
0.0
 10
2131.695000
 20
-1987.927633
 30
0.0
 10
2132.462292
 20
-1989.409300
 30
0.0
 10
2132.462292
 20
-1990.890967
 30
0.0
 10
2125.001042
 20
-1992.372633
 30
0.0
  0
LWPOLYLINE
  5
133
100
AcDbEntity
  8
0
 62
7
100
AcDbPolyline
 90
6
 70
0
 10
2139.156250
 20
-1996.103258
 30
0.0
 10
2139.897083
 20
-1996.844092
 30
0.0
 10
2139.156250
 20
-1997.584925
 30
0.0
 10
2138.415417
 20
-1996.844092
 30
0.0
 10
2139.156250
 20
-1996.103258
 30
0.0
 10
2139.156250
 20
-1997.584925
 30
0.0
  0
LWPOLYLINE
  5
134
100
AcDbEntity
  8
0
 62
7
100
AcDbPolyline
 90
6
 70
0
 10
2139.156250
 20
-1987.927633
 30
0.0
 10
2139.897083
 20
-1988.668467
 30
0.0
 10
2139.156250
 20
-1989.409300
 30
0.0
 10
2138.415417
 20
-1988.668467
 30
0.0
 10
2139.156250
 20
-1987.927633
 30
0.0
 10
2139.156250
 20
-1989.409300
 30
0.0
  0
LWPOLYLINE
  5
135
100
AcDbEntity
  8
0
 62
7
100
AcDbPolyline
 90
2
 70
0
 10
1843.748958
 20
-2005.099092
 30
0.0
 10
2968.757292
 20
-2005.099092
 30
0.0
  0
LWPOLYLINE
  5
136
100
AcDbEntity
  8
0
 62
7
100
AcDbPolyline
 90
2
 70
0
 10
1857.904167
 20
-2026.742008
 30
0.0
 10
1857.904167
 20
-2011.131592
 30
0.0
  0
LWPOLYLINE
  5
137
100
AcDbEntity
  8
0
 62
7
100
AcDbPolyline
 90
2
 70
0
 10
1866.820625
 20
-2026.742008
 30
0.0
 10
1860.126667
 20
-2017.825550
 30
0.0
  0
LWPOLYLINE
  5
138
100
AcDbEntity
  8
0
 62
7
100
AcDbPolyline
 90
2
 70
0
 10
1866.820625
 20
-2011.131592
 30
0.0
 10
1857.904167
 20
-2020.048050
 30
0.0
  0
LWPOLYLINE
  5
139
100
AcDbEntity
  8
0
 62
7
100
AcDbPolyline
 90
2
 70
0
 10
1873.514583
 20
-2026.742008
 30
0.0
 10
1873.514583
 20
-2016.343883
 30
0.0
  0
LWPOLYLINE
  5
13a
100
AcDbEntity
  8
0
 62
7
100
AcDbPolyline
 90
6
 70
0
 10
1873.514583
 20
-2011.131592
 30
0.0
 10
1872.773750
 20
-2011.872425
 30
0.0
 10
1873.514583
 20
-2012.613258
 30
0.0
 10
1874.255417
 20
-2011.872425
 30
0.0
 10
1873.514583
 20
-2011.131592
 30
0.0
 10
1873.514583
 20
-2012.613258
 30
0.0
  0
LWPOLYLINE
  5
13b
100
AcDbEntity
  8
0
 62
7
100
AcDbPolyline
 90
16
 70
0
 10
1889.892292
 20
-2025.260342
 30
0.0
 10
1889.151458
 20
-2026.001175
 30
0.0
 10
1886.902500
 20
-2026.742008
 30
0.0
 10
1885.420833
 20
-2026.742008
 30
0.0
 10
1883.198333
 20
-2026.001175
 30
0.0
 10
1881.716667
 20
-2024.519508
 30
0.0
 10
1880.949375
 20
-2023.037842
 30
0.0
 10
1880.208542
 20
-2020.048050
 30
0.0
 10
1880.208542
 20
-2017.825550
 30
0.0
 10
1880.949375
 20
-2014.862217
 30
0.0
 10
1881.716667
 20
-2013.354092
 30
0.0
 10
1883.198333
 20
-2011.872425
 30
0.0
 10
1885.420833
 20
-2011.131592
 30
0.0
 10
1886.902500
 20
-2011.131592
 30
0.0
 10
1889.151458
 20
-2011.872425
 30
0.0
 10
1889.892292
 20
-2012.613258
 30
0.0
  0
LWPOLYLINE
  5
13c
100
AcDbEntity
  8
0
 62
7
100
AcDbPolyline
 90
6
 70
0
 10
1903.280208
 20
-2026.742008
 30
0.0
 10
1903.280208
 20
-2018.566383
 30
0.0
 10
1902.539375
 20
-2017.084717
 30
0.0
 10
1901.057708
 20
-2016.343883
 30
0.0
 10
1898.067917
 20
-2016.343883
 30
0.0
 10
1896.586250
 20
-2017.084717
 30
0.0
  0
LWPOLYLINE
  5
13d
100
AcDbEntity
  8
0
 62
7
100
AcDbPolyline
 90
10
 70
0
 10
1903.280208
 20
-2026.001175
 30
0.0
 10
1901.798542
 20
-2026.742008
 30
0.0
 10
1898.067917
 20
-2026.742008
 30
0.0
 10
1896.586250
 20
-2026.001175
 30
0.0
 10
1895.845417
 20
-2024.519508
 30
0.0
 10
1895.845417
 20
-2023.037842
 30
0.0
 10
1896.586250
 20
-2021.556175
 30
0.0
 10
1898.067917
 20
-2020.815342
 30
0.0
 10
1901.798542
 20
-2020.815342
 30
0.0
 10
1903.280208
 20
-2020.048050
 30
0.0
  0
LWPOLYLINE
  5
13e
100
AcDbEntity
  8
0
 62
7
100
AcDbPolyline
 90
2
 70
0
 10
1917.408958
 20
-2026.742008
 30
0.0
 10
1917.408958
 20
-2011.131592
 30
0.0
  0
LWPOLYLINE
  5
13f
100
AcDbEntity
  8
0
 62
7
100
AcDbPolyline
 90
12
 70
0
 10
1917.408958
 20
-2026.001175
 30
0.0
 10
1915.927292
 20
-2026.742008
 30
0.0
 10
1912.963958
 20
-2026.742008
 30
0.0
 10
1911.455833
 20
-2026.001175
 30
0.0
 10
1910.715000
 20
-2025.260342
 30
0.0
 10
1909.974167
 20
-2023.778675
 30
0.0
 10
1909.974167
 20
-2019.307217
 30
0.0
 10
1910.715000
 20
-2017.825550
 30
0.0
 10
1911.455833
 20
-2017.084717
 30
0.0
 10
1912.963958
 20
-2016.343883
 30
0.0
 10
1915.927292
 20
-2016.343883
 30
0.0
 10
1917.408958
 20
-2017.084717
 30
0.0
  0
LWPOLYLINE
  5
140
100
AcDbEntity
  8
0
 62
7
100
AcDbPolyline
 90
2
 70
0
 10
1936.776458
 20
-2018.566383
 30
0.0
 10
1941.962292
 20
-2018.566383
 30
0.0
  0
LWPOLYLINE
  5
141
100
AcDbEntity
  8
0
 62
7
100
AcDbPolyline
 90
4
 70
0
 10
1944.211250
 20
-2026.742008
 30
0.0
 10
1936.776458
 20
-2026.742008
 30
0.0
 10
1936.776458
 20
-2011.131592
 30
0.0
 10
1944.211250
 20
-2011.131592
 30
0.0
  0
LWPOLYLINE
  5
142
100
AcDbEntity
  8
0
 62
7
100
AcDbPolyline
 90
6
 70
0
 10
1950.905208
 20
-2025.260342
 30
0.0
 10
1951.646042
 20
-2026.001175
 30
0.0
 10
1950.905208
 20
-2026.742008
 30
0.0
 10
1950.164375
 20
-2026.001175
 30
0.0
 10
1950.905208
 20
-2025.260342
 30
0.0
 10
1950.905208
 20
-2026.742008
 30
0.0
  0
LWPOLYLINE
  5
143
100
AcDbEntity
  8
0
 62
7
100
AcDbPolyline
 90
12
 70
1
 10
1958.340000
 20
-2026.742008
 30
0.0
 10
1958.340000
 20
-2011.131592
 30
0.0
 10
1962.070625
 20
-2011.131592
 30
0.0
 10
1964.293125
 20
-2011.872425
 30
0.0
 10
1965.774792
 20
-2013.354092
 30
0.0
 10
1966.515625
 20
-2014.862217
 30
0.0
 10
1967.282917
 20
-2017.825550
 30
0.0
 10
1967.282917
 20
-2020.048050
 30
0.0
 10
1966.515625
 20
-2023.037842
 30
0.0
 10
1965.774792
 20
-2024.519508
 30
0.0
 10
1964.293125
 20
-2026.001175
 30
0.0
 10
1962.070625
 20
-2026.742008
 30
0.0
  0
LWPOLYLINE
  5
144
100
AcDbEntity
  8
0
 62
7
100
AcDbPolyline
 90
6
 70
0
 10
1973.976875
 20
-2025.260342
 30
0.0
 10
1974.717708
 20
-2026.001175
 30
0.0
 10
1973.976875
 20
-2026.742008
 30
0.0
 10
1973.236042
 20
-2026.001175
 30
0.0
 10
1973.976875
 20
-2025.260342
 30
0.0
 10
1973.976875
 20
-2026.742008
 30
0.0
  0
LWPOLYLINE
  5
145
100
AcDbEntity
  8
0
 62
7
100
AcDbPolyline
 90
2
 70
0
 10
1980.670833
 20
-2022.297008
 30
0.0
 10
1988.105625
 20
-2022.297008
 30
0.0
  0
LWPOLYLINE
  5
146
100
AcDbEntity
  8
0
 62
7
100
AcDbPolyline
 90
3
 70
0
 10
1979.189167
 20
-2026.742008
 30
0.0
 10
1984.375000
 20
-2011.131592
 30
0.0
 10
1989.587292
 20
-2026.742008
 30
0.0
  0
LWPOLYLINE
  5
147
100
AcDbEntity
  8
0
 62
7
100
AcDbPolyline
 90
6
 70
0
 10
1994.799583
 20
-2025.260342
 30
0.0
 10
1995.540417
 20
-2026.001175
 30
0.0
 10
1994.799583
 20
-2026.742008
 30
0.0
 10
1994.058750
 20
-2026.001175
 30
0.0
 10
1994.799583
 20
-2025.260342
 30
0.0
 10
1994.799583
 20
-2026.742008
 30
0.0
  0
LWPOLYLINE
  5
148
100
AcDbEntity
  8
0
 62
7
100
AcDbPolyline
 90
2
 70
0
 10
2026.046875
 20
-2026.742008
 30
0.0
 10
2026.046875
 20
-2011.131592
 30
0.0
  0
LWPOLYLINE
  5
149
100
AcDbEntity
  8
0
 62
7
100
AcDbPolyline
 90
2
 70
0
 10
2027.528542
 20
-2020.815342
 30
0.0
 10
2032.000000
 20
-2026.742008
 30
0.0
  0
LWPOLYLINE
  5
14a
100
AcDbEntity
  8
0
 62
7
100
AcDbPolyline
 90
2
 70
0
 10
2032.000000
 20
-2016.343883
 30
0.0
 10
2026.046875
 20
-2022.297008
 30
0.0
  0
LWPOLYLINE
  5
14b
100
AcDbEntity
  8
0
 62
7
100
AcDbPolyline
 90
2
 70
0
 10
2038.693958
 20
-2026.742008
 30
0.0
 10
2038.693958
 20
-2016.343883
 30
0.0
  0
LWPOLYLINE
  5
14c
100
AcDbEntity
  8
0
 62
7
100
AcDbPolyline
 90
6
 70
0
 10
2038.693958
 20
-2011.131592
 30
0.0
 10
2037.953125
 20
-2011.872425
 30
0.0
 10
2038.693958
 20
-2012.613258
 30
0.0
 10
2039.434792
 20
-2011.872425
 30
0.0
 10
2038.693958
 20
-2011.131592
 30
0.0
 10
2038.693958
 20
-2012.613258
 30
0.0
  0
LWPOLYLINE
  5
14d
100
AcDbEntity
  8
0
 62
7
100
AcDbPolyline
 90
12
 70
0
 10
2052.849167
 20
-2026.001175
 30
0.0
 10
2051.341042
 20
-2026.742008
 30
0.0
 10
2048.377708
 20
-2026.742008
 30
0.0
 10
2046.896042
 20
-2026.001175
 30
0.0
 10
2046.128750
 20
-2025.260342
 30
0.0
 10
2045.387917
 20
-2023.778675
 30
0.0
 10
2045.387917
 20
-2019.307217
 30
0.0
 10
2046.128750
 20
-2017.825550
 30
0.0
 10
2046.896042
 20
-2017.084717
 30
0.0
 10
2048.377708
 20
-2016.343883
 30
0.0
 10
2051.341042
 20
-2016.343883
 30
0.0
 10
2052.849167
 20
-2017.084717
 30
0.0
  0
LWPOLYLINE
  5
14e
100
AcDbEntity
  8
0
 62
7
100
AcDbPolyline
 90
6
 70
0
 10
2066.237083
 20
-2026.742008
 30
0.0
 10
2066.237083
 20
-2018.566383
 30
0.0
 10
2065.496250
 20
-2017.084717
 30
0.0
 10
2063.988125
 20
-2016.343883
 30
0.0
 10
2061.024792
 20
-2016.343883
 30
0.0
 10
2059.543125
 20
-2017.084717
 30
0.0
  0
LWPOLYLINE
  5
14f
100
AcDbEntity
  8
0
 62
7
100
AcDbPolyline
 90
10
 70
0
 10
2066.237083
 20
-2026.001175
 30
0.0
 10
2064.728958
 20
-2026.742008
 30
0.0
 10
2061.024792
 20
-2026.742008
 30
0.0
 10
2059.543125
 20
-2026.001175
 30
0.0
 10
2058.802292
 20
-2024.519508
 30
0.0
 10
2058.802292
 20
-2023.037842
 30
0.0
 10
2059.543125
 20
-2021.556175
 30
0.0
 10
2061.024792
 20
-2020.815342
 30
0.0
 10
2064.728958
 20
-2020.815342
 30
0.0
 10
2066.237083
 20
-2020.048050
 30
0.0
  0
LWPOLYLINE
  5
150
100
AcDbEntity
  8
0
 62
7
100
AcDbPolyline
 90
2
 70
0
 10
2080.365833
 20
-2026.742008
 30
0.0
 10
2080.365833
 20
-2011.131592
 30
0.0
  0
LWPOLYLINE
  5
151
100
AcDbEntity
  8
0
 62
7
100
AcDbPolyline
 90
12
 70
0
 10
2080.365833
 20
-2026.001175
 30
0.0
 10
2078.884167
 20
-2026.742008
 30
0.0
 10
2075.894375
 20
-2026.742008
 30
0.0
 10
2074.412708
 20
-2026.001175
 30
0.0
 10
2073.671875
 20
-2025.260342
 30
0.0
 10
2072.931042
 20
-2023.778675
 30
0.0
 10
2072.931042
 20
-2019.307217
 30
0.0
 10
2073.671875
 20
-2017.825550
 30
0.0
 10
2074.412708
 20
-2017.084717
 30
0.0
 10
2075.894375
 20
-2016.343883
 30
0.0
 10
2078.884167
 20
-2016.343883
 30
0.0
 10
2080.365833
 20
-2017.084717
 30
0.0
  0
LWPOLYLINE
  5
152
100
AcDbEntity
  8
0
 62
7
100
AcDbPolyline
 90
2
 70
0
 10
2106.400833
 20
-2016.343883
 30
0.0
 10
2106.400833
 20
-2026.742008
 30
0.0
  0
LWPOLYLINE
  5
153
100
AcDbEntity
  8
0
 62
7
100
AcDbPolyline
 90
3
 70
0
 10
2102.696667
 20
-2010.390758
 30
0.0
 10
2098.966042
 20
-2021.556175
 30
0.0
 10
2108.649792
 20
-2021.556175
 30
0.0
  0
LWPOLYLINE
  5
154
100
AcDbEntity
  8
0
 62
7
100
AcDbPolyline
 90
6
 70
0
 10
2114.602917
 20
-2025.260342
 30
0.0
 10
2115.343750
 20
-2026.001175
 30
0.0
 10
2114.602917
 20
-2026.742008
 30
0.0
 10
2113.862083
 20
-2026.001175
 30
0.0
 10
2114.602917
 20
-2025.260342
 30
0.0
 10
2114.602917
 20
-2026.742008
 30
0.0
  0
LWPOLYLINE
  5
155
100
AcDbEntity
  8
0
 62
7
100
AcDbPolyline
 90
20
 70
1
 10
2125.001042
 20
-2011.131592
 30
0.0
 10
2126.509167
 20
-2011.131592
 30
0.0
 10
2127.990833
 20
-2011.872425
 30
0.0
 10
2128.731667
 20
-2012.613258
 30
0.0
 10
2129.472500
 20
-2014.094925
 30
0.0
 10
2130.213333
 20
-2017.084717
 30
0.0
 10
2130.213333
 20
-2020.815342
 30
0.0
 10
2129.472500
 20
-2023.778675
 30
0.0
 10
2128.731667
 20
-2025.260342
 30
0.0
 10
2127.990833
 20
-2026.001175
 30
0.0
 10
2126.509167
 20
-2026.742008
 30
0.0
 10
2125.001042
 20
-2026.742008
 30
0.0
 10
2123.519375
 20
-2026.001175
 30
0.0
 10
2122.778542
 20
-2025.260342
 30
0.0
 10
2122.037708
 20
-2023.778675
 30
0.0
 10
2121.296875
 20
-2020.815342
 30
0.0
 10
2121.296875
 20
-2017.084717
 30
0.0
 10
2122.037708
 20
-2014.094925
 30
0.0
 10
2122.778542
 20
-2012.613258
 30
0.0
 10
2123.519375
 20
-2011.872425
 30
0.0
  0
LWPOLYLINE
  5
156
100
AcDbEntity
  8
0
 62
7
100
AcDbPolyline
 90
6
 70
0
 10
2136.907292
 20
-2025.260342
 30
0.0
 10
2137.648125
 20
-2026.001175
 30
0.0
 10
2136.907292
 20
-2026.742008
 30
0.0
 10
2136.166458
 20
-2026.001175
 30
0.0
 10
2136.907292
 20
-2025.260342
 30
0.0
 10
2136.907292
 20
-2026.742008
 30
0.0
  0
LWPOLYLINE
  5
157
100
AcDbEntity
  8
0
 62
7
100
AcDbPolyline
 90
22
 70
0
 10
2151.062500
 20
-2011.131592
 30
0.0
 10
2148.072708
 20
-2011.131592
 30
0.0
 10
2146.591042
 20
-2011.872425
 30
0.0
 10
2145.850208
 20
-2012.613258
 30
0.0
 10
2144.342083
 20
-2014.862217
 30
0.0
 10
2143.601250
 20
-2017.825550
 30
0.0
 10
2143.601250
 20
-2023.778675
 30
0.0
 10
2144.342083
 20
-2025.260342
 30
0.0
 10
2145.109375
 20
-2026.001175
 30
0.0
 10
2146.591042
 20
-2026.742008
 30
0.0
 10
2149.554375
 20
-2026.742008
 30
0.0
 10
2151.062500
 20
-2026.001175
 30
0.0
 10
2151.803333
 20
-2025.260342
 30
0.0
 10
2152.544167
 20
-2023.778675
 30
0.0
 10
2152.544167
 20
-2020.048050
 30
0.0
 10
2151.803333
 20
-2018.566383
 30
0.0
 10
2151.062500
 20
-2017.825550
 30
0.0
 10
2149.554375
 20
-2017.084717
 30
0.0
 10
2146.591042
 20
-2017.084717
 30
0.0
 10
2145.109375
 20
-2017.825550
 30
0.0
 10
2144.342083
 20
-2018.566383
 30
0.0
 10
2143.601250
 20
-2020.048050
 30
0.0
  0
LWPOLYLINE
  5
158
100
AcDbEntity
  8
0
 62
7
100
AcDbPolyline
 90
2
 70
0
 10
1843.748958
 20
-1973.851800
 30
0.0
 10
2968.757292
 20
-1973.851800
 30
0.0
  0
LWPOLYLINE
  5
159
100
AcDbEntity
  8
0
 62
7
100
AcDbPolyline
 90
2
 70
0
 10
2752.248750
 20
-1997.584925
 30
0.0
 10
2747.036458
 20
-1990.150133
 30
0.0
  0
LWPOLYLINE
  5
15a
100
AcDbEntity
  8
0
 62
7
100
AcDbPolyline
 90
11
 70
0
 10
2743.305833
 20
-1997.584925
 30
0.0
 10
2743.305833
 20
-1981.974508
 30
0.0
 10
2749.258958
 20
-1981.974508
 30
0.0
 10
2750.740625
 20
-1982.715342
 30
0.0
 10
2751.507917
 20
-1983.456175
 30
0.0
 10
2752.248750
 20
-1984.937842
 30
0.0
 10
2752.248750
 20
-1987.160342
 30
0.0
 10
2751.507917
 20
-1988.668467
 30
0.0
 10
2750.740625
 20
-1989.409300
 30
0.0
 10
2749.258958
 20
-1990.150133
 30
0.0
 10
2743.305833
 20
-1990.150133
 30
0.0
  0
LWPOLYLINE
  5
15b
100
AcDbEntity
  8
0
 62
7
100
AcDbPolyline
 90
13
 70
0
 10
2764.895833
 20
-1996.844092
 30
0.0
 10
2763.414167
 20
-1997.584925
 30
0.0
 10
2760.424375
 20
-1997.584925
 30
0.0
 10
2758.942708
 20
-1996.844092
 30
0.0
 10
2758.201875
 20
-1995.362425
 30
0.0
 10
2758.201875
 20
-1989.409300
 30
0.0
 10
2758.942708
 20
-1987.927633
 30
0.0
 10
2760.424375
 20
-1987.160342
 30
0.0
 10
2763.414167
 20
-1987.160342
 30
0.0
 10
2764.895833
 20
-1987.927633
 30
0.0
 10
2765.636667
 20
-1989.409300
 30
0.0
 10
2765.636667
 20
-1990.890967
 30
0.0
 10
2758.201875
 20
-1992.372633
 30
0.0
  0
LWPOLYLINE
  5
15c
100
AcDbEntity
  8
0
 62
7
100
AcDbPolyline
 90
3
 70
0
 10
2770.848958
 20
-1987.160342
 30
0.0
 10
2774.553125
 20
-1997.584925
 30
0.0
 10
2778.283750
 20
-1987.160342
 30
0.0
  0
LWPOLYLINE
  5
15d
100
AcDbEntity
  8
0
 62
7
100
AcDbPolyline
 90
6
 70
0
 10
2784.236875
 20
-1996.103258
 30
0.0
 10
2784.977708
 20
-1996.844092
 30
0.0
 10
2784.236875
 20
-1997.584925
 30
0.0
 10
2783.496042
 20
-1996.844092
 30
0.0
 10
2784.236875
 20
-1996.103258
 30
0.0
 10
2784.236875
 20
-1997.584925
 30
0.0
  0
LWPOLYLINE
  5
15e
100
AcDbEntity
  8
0
 62
7
100
AcDbPolyline
 90
6
 70
0
 10
2784.236875
 20
-1987.927633
 30
0.0
 10
2784.977708
 20
-1988.668467
 30
0.0
 10
2784.236875
 20
-1989.409300
 30
0.0
 10
2783.496042
 20
-1988.668467
 30
0.0
 10
2784.236875
 20
-1987.927633
 30
0.0
 10
2784.236875
 20
-1989.409300
 30
0.0
  0
LWPOLYLINE
  5
15f
100
AcDbEntity
  8
0
 62
7
100
AcDbPolyline
 90
20
 70
0
 10
1857.163333
 20
-1996.844092
 30
0.0
 10
1859.385833
 20
-1997.584925
 30
0.0
 10
1863.116458
 20
-1997.584925
 30
0.0
 10
1864.598125
 20
-1996.844092
 30
0.0
 10
1865.338958
 20
-1996.103258
 30
0.0
 10
1866.079792
 20
-1994.621592
 30
0.0
 10
1866.079792
 20
-1993.113467
 30
0.0
 10
1865.338958
 20
-1991.631800
 30
0.0
 10
1864.598125
 20
-1990.890967
 30
0.0
 10
1863.116458
 20
-1990.150133
 30
0.0
 10
1860.126667
 20
-1989.409300
 30
0.0
 10
1858.645000
 20
-1988.668467
 30
0.0
 10
1857.904167
 20
-1987.927633
 30
0.0
 10
1857.163333
 20
-1986.419508
 30
0.0
 10
1857.163333
 20
-1984.937842
 30
0.0
 10
1857.904167
 20
-1983.456175
 30
0.0
 10
1858.645000
 20
-1982.715342
 30
0.0
 10
1860.126667
 20
-1981.974508
 30
0.0
 10
1863.857292
 20
-1981.974508
 30
0.0
 10
1866.079792
 20
-1982.715342
 30
0.0
  0
LWPOLYLINE
  5
160
100
AcDbEntity
  8
0
 62
7
100
AcDbPolyline
 90
2
 70
0
 10
1872.773750
 20
-1997.584925
 30
0.0
 10
1872.773750
 20
-1987.160342
 30
0.0
  0
LWPOLYLINE
  5
161
100
AcDbEntity
  8
0
 62
7
100
AcDbPolyline
 90
6
 70
0
 10
1872.773750
 20
-1981.974508
 30
0.0
 10
1872.032917
 20
-1982.715342
 30
0.0
 10
1872.773750
 20
-1983.456175
 30
0.0
 10
1873.514583
 20
-1982.715342
 30
0.0
 10
1872.773750
 20
-1981.974508
 30
0.0
 10
1872.773750
 20
-1983.456175
 30
0.0
  0
LWPOLYLINE
  5
162
100
AcDbEntity
  8
0
 62
7
100
AcDbPolyline
 90
4
 70
0
 10
1878.726875
 20
-1987.160342
 30
0.0
 10
1886.902500
 20
-1987.160342
 30
0.0
 10
1878.726875
 20
-1997.584925
 30
0.0
 10
1886.902500
 20
-1997.584925
 30
0.0
  0
LWPOLYLINE
  5
163
100
AcDbEntity
  8
0
 62
7
100
AcDbPolyline
 90
13
 70
0
 10
1898.808750
 20
-1996.844092
 30
0.0
 10
1897.327083
 20
-1997.584925
 30
0.0
 10
1894.363750
 20
-1997.584925
 30
0.0
 10
1892.855625
 20
-1996.844092
 30
0.0
 10
1892.114792
 20
-1995.362425
 30
0.0
 10
1892.114792
 20
-1989.409300
 30
0.0
 10
1892.855625
 20
-1987.927633
 30
0.0
 10
1894.363750
 20
-1987.160342
 30
0.0
 10
1897.327083
 20
-1987.160342
 30
0.0
 10
1898.808750
 20
-1987.927633
 30
0.0
 10
1899.576042
 20
-1989.409300
 30
0.0
 10
1899.576042
 20
-1990.890967
 30
0.0
 10
1892.114792
 20
-1992.372633
 30
0.0
  0
LWPOLYLINE
  5
164
100
AcDbEntity
  8
0
 62
7
100
AcDbPolyline
 90
6
 70
0
 10
1906.270000
 20
-1996.103258
 30
0.0
 10
1907.010833
 20
-1996.844092
 30
0.0
 10
1906.270000
 20
-1997.584925
 30
0.0
 10
1905.502708
 20
-1996.844092
 30
0.0
 10
1906.270000
 20
-1996.103258
 30
0.0
 10
1906.270000
 20
-1997.584925
 30
0.0
  0
LWPOLYLINE
  5
165
100
AcDbEntity
  8
0
 62
7
100
AcDbPolyline
 90
6
 70
0
 10
1906.270000
 20
-1987.927633
 30
0.0
 10
1907.010833
 20
-1988.668467
 30
0.0
 10
1906.270000
 20
-1989.409300
 30
0.0
 10
1905.502708
 20
-1988.668467
 30
0.0
 10
1906.270000
 20
-1987.927633
 30
0.0
 10
1906.270000
 20
-1989.409300
 30
0.0
  0
LWPOLYLINE
  5
166
100
AcDbEntity
  8
0
 62
7
100
AcDbPolyline
 90
2
 70
0
 10
1924.870208
 20
-1993.113467
 30
0.0
 10
1932.305000
 20
-1993.113467
 30
0.0
  0
LWPOLYLINE
  5
167
100
AcDbEntity
  8
0
 62
7
100
AcDbPolyline
 90
3
 70
0
 10
1923.362083
 20
-1997.584925
 30
0.0
 10
1928.574375
 20
-1981.974508
 30
0.0
 10
1933.786667
 20
-1997.584925
 30
0.0
  0
LWPOLYLINE
  5
168
100
AcDbEntity
  8
0
 62
7
100
AcDbPolyline
 90
2
 70
0
 10
1945.692917
 20
-1987.160342
 30
0.0
 10
1945.692917
 20
-1997.584925
 30
0.0
  0
LWPOLYLINE
  5
169
100
AcDbEntity
  8
0
 62
7
100
AcDbPolyline
 90
3
 70
0
 10
1941.962292
 20
-1981.207217
 30
0.0
 10
1938.258125
 20
-1992.372633
 30
0.0
 10
1947.915417
 20
-1992.372633
 30
0.0
  0
LWPOLYLINE
  5
16a
100
AcDbEntity
  8
0
 62
7
100
AcDbPolyline
 90
2
 70
0
 10
2743.305833
 20
-2026.742008
 30
0.0
 10
2743.305833
 20
-2011.131592
 30
0.0
  0
LWPOLYLINE
  5
16b
100
AcDbEntity
  8
0
 62
7
100
AcDbPolyline
 90
2
 70
0
 10
2757.461042
 20
-2026.742008
 30
0.0
 10
2757.461042
 20
-2011.131592
 30
0.0
  0
LWPOLYLINE
  5
16c
100
AcDbEntity
  8
0
 62
7
100
AcDbPolyline
 90
12
 70
0
 10
2757.461042
 20
-2026.001175
 30
0.0
 10
2755.952917
 20
-2026.742008
 30
0.0
 10
2752.989583
 20
-2026.742008
 30
0.0
 10
2751.507917
 20
-2026.001175
 30
0.0
 10
2750.740625
 20
-2025.260342
 30
0.0
 10
2749.999792
 20
-2023.778675
 30
0.0
 10
2749.999792
 20
-2019.307217
 30
0.0
 10
2750.740625
 20
-2017.825550
 30
0.0
 10
2751.507917
 20
-2017.084717
 30
0.0
 10
2752.989583
 20
-2016.343883
 30
0.0
 10
2755.952917
 20
-2016.343883
 30
0.0
 10
2757.461042
 20
-2017.084717
 30
0.0
  0
LWPOLYLINE
  5
16d
100
AcDbEntity
  8
0
 62
7
100
AcDbPolyline
 90
6
 70
0
 10
2764.895833
 20
-2025.260342
 30
0.0
 10
2765.636667
 20
-2026.001175
 30
0.0
 10
2764.895833
 20
-2026.742008
 30
0.0
 10
2764.155000
 20
-2026.001175
 30
0.0
 10
2764.895833
 20
-2025.260342
 30
0.0
 10
2764.895833
 20
-2026.742008
 30
0.0
  0
LWPOLYLINE
  5
16e
100
AcDbEntity
  8
0
 62
7
100
AcDbPolyline
 90
6
 70
0
 10
2764.895833
 20
-2017.084717
 30
0.0
 10
2765.636667
 20
-2017.825550
 30
0.0
 10
2764.895833
 20
-2018.566383
 30
0.0
 10
2764.155000
 20
-2017.825550
 30
0.0
 10
2764.895833
 20
-2017.084717
 30
0.0
 10
2764.895833
 20
-2018.566383
 30
0.0
  0
LWPOLYLINE
  5
16f
100
AcDbEntity
  8
0
 62
7
100
AcDbPolyline
 90
2
 70
0
 10
2792.412500
 20
-2026.742008
 30
0.0
 10
2783.496042
 20
-2026.742008
 30
0.0
  0
LWPOLYLINE
  5
170
100
AcDbEntity
  8
0
 62
7
100
AcDbPolyline
 90
5
 70
0
 10
2787.967500
 20
-2026.742008
 30
0.0
 10
2787.967500
 20
-2011.131592
 30
0.0
 10
2786.459375
 20
-2013.354092
 30
0.0
 10
2784.977708
 20
-2014.862217
 30
0.0
 10
2783.496042
 20
-2015.603050
 30
0.0
  0
LWPOLYLINE
  5
171
100
AcDbEntity
  8
0
 62
7
100
AcDbPolyline
 90
2
 70
0
 10
2810.271875
 20
-2010.390758
 30
0.0
 10
2796.883958
 20
-2030.472633
 30
0.0
  0
LWPOLYLINE
  5
172
100
AcDbEntity
  8
0
 62
7
100
AcDbPolyline
 90
2
 70
0
 10
2823.659792
 20
-2026.742008
 30
0.0
 10
2814.743333
 20
-2026.742008
 30
0.0
  0
LWPOLYLINE
  5
173
100
AcDbEntity
  8
0
 62
7
100
AcDbPolyline
 90
5
 70
0
 10
2819.214792
 20
-2026.742008
 30
0.0
 10
2819.214792
 20
-2011.131592
 30
0.0
 10
2817.706667
 20
-2013.354092
 30
0.0
 10
2816.225000
 20
-2014.862217
 30
0.0
 10
2814.743333
 20
-2015.603050
 30
0.0
  0
LWPOLYLINE
  5
174
100
AcDbEntity
  8
0
 62
7
100
AcDbPolyline
 90
2
 70
0
 10
1843.748958
 20
-1932.179925
 30
0.0
 10
2968.757292
 20
-1932.179925
 30
0.0
  0
LWPOLYLINE
  5
175
100
AcDbEntity
  8
0
 62
7
100
AcDbPolyline
 90
2
 70
0
 10
1858.883125
 20
-1939.535342
 30
0.0
 10
1870.789375
 20
-1939.535342
 30
0.0
  0
LWPOLYLINE
  5
176
100
AcDbEntity
  8
0
 62
7
100
AcDbPolyline
 90
2
 70
0
 10
1862.243333
 20
-1960.358050
 30
0.0
 10
1864.836250
 20
-1939.535342
 30
0.0
  0
LWPOLYLINE
  5
177
100
AcDbEntity
  8
0
 62
7
100
AcDbPolyline
 90
2
 70
0
 10
1875.128542
 20
-1960.358050
 30
0.0
 10
1876.874792
 20
-1946.467425
 30
0.0
  0
LWPOLYLINE
  5
178
100
AcDbEntity
  8
0
 62
7
100
AcDbPolyline
 90
6
 70
0
 10
1877.747917
 20
-1939.535342
 30
0.0
 10
1876.610208
 20
-1940.514300
 30
0.0
 10
1877.483333
 20
-1941.519717
 30
0.0
 10
1878.594583
 20
-1940.514300
 30
0.0
 10
1877.747917
 20
-1939.535342
 30
0.0
 10
1877.483333
 20
-1941.519717
 30
0.0
  0
LWPOLYLINE
  5
179
100
AcDbEntity
  8
0
 62
7
100
AcDbPolyline
 90
2
 70
0
 10
1883.806875
 20
-1946.467425
 30
0.0
 10
1891.744375
 20
-1946.467425
 30
0.0
  0
LWPOLYLINE
  5
17a
100
AcDbEntity
  8
0
 62
7
100
AcDbPolyline
 90
5
 70
0
 10
1887.669792
 20
-1939.535342
 30
0.0
 10
1885.420833
 20
-1957.394717
 30
0.0
 10
1886.161667
 20
-1959.379092
 30
0.0
 10
1888.040208
 20
-1960.358050
 30
0.0
 10
1890.024583
 20
-1960.358050
 30
0.0
  0
LWPOLYLINE
  5
17b
100
AcDbEntity
  8
0
 62
7
100
AcDbPolyline
 90
4
 70
0
 10
1899.946458
 20
-1960.358050
 30
0.0
 10
1898.067917
 20
-1959.379092
 30
0.0
 10
1897.327083
 20
-1957.394717
 30
0.0
 10
1899.576042
 20
-1939.535342
 30
0.0
  0
LWPOLYLINE
  5
17c
100
AcDbEntity
  8
0
 62
7
100
AcDbPolyline
 90
13
 70
0
 10
1915.927292
 20
-1959.379092
 30
0.0
 10
1913.837083
 20
-1960.358050
 30
0.0
 10
1909.868333
 20
-1960.358050
 30
0.0
 10
1907.989792
 20
-1959.379092
 30
0.0
 10
1907.248958
 20
-1957.394717
 30
0.0
 10
1908.254375
 20
-1949.457217
 30
0.0
 10
1909.471458
 20
-1947.472842
 30
0.0
 10
1911.588125
 20
-1946.467425
 30
0.0
 10
1915.556875
 20
-1946.467425
 30
0.0
 10
1917.408958
 20
-1947.472842
 30
0.0
 10
1918.176250
 20
-1949.457217
 30
0.0
 10
1917.911667
 20
-1951.441592
 30
0.0
 10
1907.751667
 20
-1953.425967
 30
0.0
  0
LWPOLYLINE
  5
17d
100
AcDbEntity
  8
0
 62
7
100
AcDbPolyline
 90
6
 70
0
 10
1925.981458
 20
-1958.373675
 30
0.0
 10
1926.854583
 20
-1959.379092
 30
0.0
 10
1925.716875
 20
-1960.358050
 30
0.0
 10
1924.870208
 20
-1959.379092
 30
0.0
 10
1925.981458
 20
-1958.373675
 30
0.0
 10
1925.716875
 20
-1960.358050
 30
0.0
  0
LWPOLYLINE
  5
17e
100
AcDbEntity
  8
0
 62
7
100
AcDbPolyline
 90
6
 70
0
 10
1927.330833
 20
-1947.472842
 30
0.0
 10
1928.203958
 20
-1948.451800
 30
0.0
 10
1927.092708
 20
-1949.457217
 30
0.0
 10
1926.219583
 20
-1948.451800
 30
0.0
 10
1927.330833
 20
-1947.472842
 30
0.0
 10
1927.092708
 20
-1949.457217
 30
0.0
  0
LWPOLYLINE
  5
17f
100
AcDbEntity
  8
0
 62
7
100
AcDbPolyline
 90
2
 70
0
 10
1863.116458
 20
-1912.309717
 30
0.0
 10
1857.904167
 20
-1912.309717
 30
0.0
  0
LWPOLYLINE
  5
180
100
AcDbEntity
  8
0
 62
7
100
AcDbPolyline
 90
3
 70
0
 10
1857.904167
 20
-1920.511800
 30
0.0
 10
1857.904167
 20
-1904.874925
 30
0.0
 10
1865.338958
 20
-1904.874925
 30
0.0
  0
LWPOLYLINE
  5
181
100
AcDbEntity
  8
0
 62
7
100
AcDbPolyline
 90
2
 70
0
 10
1871.292083
 20
-1920.511800
 30
0.0
 10
1871.292083
 20
-1910.087217
 30
0.0
  0
LWPOLYLINE
  5
182
100
AcDbEntity
  8
0
 62
7
100
AcDbPolyline
 90
6
 70
0
 10
1871.292083
 20
-1904.874925
 30
0.0
 10
1870.551250
 20
-1905.615758
 30
0.0
 10
1871.292083
 20
-1906.356592
 30
0.0
 10
1872.032917
 20
-1905.615758
 30
0.0
 10
1871.292083
 20
-1904.874925
 30
0.0
 10
1871.292083
 20
-1906.356592
 30
0.0
  0
LWPOLYLINE
  5
183
100
AcDbEntity
  8
0
 62
7
100
AcDbPolyline
 90
4
 70
0
 10
1880.949375
 20
-1920.511800
 30
0.0
 10
1879.467708
 20
-1919.770967
 30
0.0
 10
1878.726875
 20
-1918.262842
 30
0.0
 10
1878.726875
 20
-1904.874925
 30
0.0
  0
LWPOLYLINE
  5
184
100
AcDbEntity
  8
0
 62
7
100
AcDbPolyline
 90
13
 70
0
 10
1892.855625
 20
-1919.770967
 30
0.0
 10
1891.373958
 20
-1920.511800
 30
0.0
 10
1888.410625
 20
-1920.511800
 30
0.0
 10
1886.902500
 20
-1919.770967
 30
0.0
 10
1886.161667
 20
-1918.262842
 30
0.0
 10
1886.161667
 20
-1912.309717
 30
0.0
 10
1886.902500
 20
-1910.828050
 30
0.0
 10
1888.410625
 20
-1910.087217
 30
0.0
 10
1891.373958
 20
-1910.087217
 30
0.0
 10
1892.855625
 20
-1910.828050
 30
0.0
 10
1893.622917
 20
-1912.309717
 30
0.0
 10
1893.622917
 20
-1913.817842
 30
0.0
 10
1886.161667
 20
-1915.299508
 30
0.0
  0
LWPOLYLINE
  5
185
100
AcDbEntity
  8
0
 62
7
100
AcDbPolyline
 90
6
 70
0
 10
1900.316875
 20
-1919.003675
 30
0.0
 10
1901.057708
 20
-1919.770967
 30
0.0
 10
1900.316875
 20
-1920.511800
 30
0.0
 10
1899.576042
 20
-1919.770967
 30
0.0
 10
1900.316875
 20
-1919.003675
 30
0.0
 10
1900.316875
 20
-1920.511800
 30
0.0
  0
LWPOLYLINE
  5
186
100
AcDbEntity
  8
0
 62
7
100
AcDbPolyline
 90
6
 70
0
 10
1900.316875
 20
-1910.828050
 30
0.0
 10
1901.057708
 20
-1911.568883
 30
0.0
 10
1900.316875
 20
-1912.309717
 30
0.0
 10
1899.576042
 20
-1911.568883
 30
0.0
 10
1900.316875
 20
-1910.828050
 30
0.0
 10
1900.316875
 20
-1912.309717
 30
0.0
  0
LWPOLYLINE
  5
187
100
AcDbEntity
  8
0
 62
7
100
AcDbPolyline
 90
5
 70
0
 10
1919.657917
 20
-1920.511800
 30
0.0
 10
1919.657917
 20
-1904.874925
 30
0.0
 10
1924.870208
 20
-1916.040342
 30
0.0
 10
1930.056042
 20
-1904.874925
 30
0.0
 10
1930.056042
 20
-1920.511800
 30
0.0
  0
LWPOLYLINE
  5
188
100
AcDbEntity
  8
0
 62
7
100
AcDbPolyline
 90
2
 70
0
 10
1937.517292
 20
-1920.511800
 30
0.0
 10
1937.517292
 20
-1910.087217
 30
0.0
  0
LWPOLYLINE
  5
189
100
AcDbEntity
  8
0
 62
7
100
AcDbPolyline
 90
6
 70
0
 10
1937.517292
 20
-1904.874925
 30
0.0
 10
1936.776458
 20
-1905.615758
 30
0.0
 10
1937.517292
 20
-1906.356592
 30
0.0
 10
1938.258125
 20
-1905.615758
 30
0.0
 10
1937.517292
 20
-1904.874925
 30
0.0
 10
1937.517292
 20
-1906.356592
 30
0.0
  0
LWPOLYLINE
  5
18a
100
AcDbEntity
  8
0
 62
7
100
AcDbPolyline
 90
2
 70
0
 10
1951.646042
 20
-1920.511800
 30
0.0
 10
1951.646042
 20
-1904.874925
 30
0.0
  0
LWPOLYLINE
  5
18b
100
AcDbEntity
  8
0
 62
7
100
AcDbPolyline
 90
12
 70
0
 10
1951.646042
 20
-1919.770967
 30
0.0
 10
1950.164375
 20
-1920.511800
 30
0.0
 10
1947.174583
 20
-1920.511800
 30
0.0
 10
1945.692917
 20
-1919.770967
 30
0.0
 10
1944.952083
 20
-1919.003675
 30
0.0
 10
1944.211250
 20
-1917.522008
 30
0.0
 10
1944.211250
 20
-1913.077008
 30
0.0
 10
1944.952083
 20
-1911.568883
 30
0.0
 10
1945.692917
 20
-1910.828050
 30
0.0
 10
1947.174583
 20
-1910.087217
 30
0.0
 10
1950.164375
 20
-1910.087217
 30
0.0
 10
1951.646042
 20
-1910.828050
 30
0.0
  0
LWPOLYLINE
  5
18c
100
AcDbEntity
  8
0
 62
7
100
AcDbPolyline
 90
2
 70
0
 10
1956.858333
 20
-1910.087217
 30
0.0
 10
1962.811458
 20
-1910.087217
 30
0.0
  0
LWPOLYLINE
  5
18d
100
AcDbEntity
  8
0
 62
7
100
AcDbPolyline
 90
5
 70
0
 10
1959.080833
 20
-1904.874925
 30
0.0
 10
1959.080833
 20
-1918.262842
 30
0.0
 10
1959.821667
 20
-1919.770967
 30
0.0
 10
1961.329792
 20
-1920.511800
 30
0.0
 10
1962.811458
 20
-1920.511800
 30
0.0
  0
LWPOLYLINE
  5
18e
100
AcDbEntity
  8
0
 62
7
100
AcDbPolyline
 90
16
 70
1
 10
1970.246250
 20
-1920.511800
 30
0.0
 10
1968.764583
 20
-1919.770967
 30
0.0
 10
1968.023750
 20
-1919.003675
 30
0.0
 10
1967.282917
 20
-1917.522008
 30
0.0
 10
1967.282917
 20
-1913.077008
 30
0.0
 10
1968.023750
 20
-1911.568883
 30
0.0
 10
1968.764583
 20
-1910.828050
 30
0.0
 10
1970.246250
 20
-1910.087217
 30
0.0
 10
1972.468750
 20
-1910.087217
 30
0.0
 10
1973.976875
 20
-1910.828050
 30
0.0
 10
1974.717708
 20
-1911.568883
 30
0.0
 10
1975.458542
 20
-1913.077008
 30
0.0
 10
1975.458542
 20
-1917.522008
 30
0.0
 10
1974.717708
 20
-1919.003675
 30
0.0
 10
1973.976875
 20
-1919.770967
 30
0.0
 10
1972.468750
 20
-1920.511800
 30
0.0
  0
LWPOLYLINE
  5
18f
100
AcDbEntity
  8
0
 62
7
100
AcDbPolyline
 90
5
 70
0
 10
1980.670833
 20
-1910.087217
 30
0.0
 10
1983.634167
 20
-1920.511800
 30
0.0
 10
1986.623958
 20
-1913.077008
 30
0.0
 10
1989.587292
 20
-1920.511800
 30
0.0
 10
1992.577083
 20
-1910.087217
 30
0.0
  0
LWPOLYLINE
  5
190
100
AcDbEntity
  8
0
 62
7
100
AcDbPolyline
 90
2
 70
0
 10
1998.530208
 20
-1910.087217
 30
0.0
 10
1998.530208
 20
-1920.511800
 30
0.0
  0
LWPOLYLINE
  5
191
100
AcDbEntity
  8
0
 62
7
100
AcDbPolyline
 90
7
 70
0
 10
1998.530208
 20
-1911.568883
 30
0.0
 10
1999.271042
 20
-1910.828050
 30
0.0
 10
2000.752708
 20
-1910.087217
 30
0.0
 10
2002.975208
 20
-1910.087217
 30
0.0
 10
2004.483333
 20
-1910.828050
 30
0.0
 10
2005.224167
 20
-1912.309717
 30
0.0
 10
2005.224167
 20
-1920.511800
 30
0.0
  0
LWPOLYLINE
  5
192
100
AcDbEntity
  8
0
 62
7
100
AcDbPolyline
 90
12
 70
1
 10
2012.658958
 20
-1920.511800
 30
0.0
 10
2012.658958
 20
-1904.874925
 30
0.0
 10
2016.389583
 20
-1904.874925
 30
0.0
 10
2018.612083
 20
-1905.615758
 30
0.0
 10
2020.093750
 20
-1907.123883
 30
0.0
 10
2020.834583
 20
-1908.605550
 30
0.0
 10
2021.575417
 20
-1911.568883
 30
0.0
 10
2021.575417
 20
-1913.817842
 30
0.0
 10
2020.834583
 20
-1916.781175
 30
0.0
 10
2020.093750
 20
-1918.262842
 30
0.0
 10
2018.612083
 20
-1919.770967
 30
0.0
 10
2016.389583
 20
-1920.511800
 30
0.0
  0
LWPOLYLINE
  5
193
100
AcDbEntity
  8
0
 62
7
100
AcDbPolyline
 90
16
 70
1
 10
2030.518333
 20
-1920.511800
 30
0.0
 10
2029.036667
 20
-1919.770967
 30
0.0
 10
2028.295833
 20
-1919.003675
 30
0.0
 10
2027.528542
 20
-1917.522008
 30
0.0
 10
2027.528542
 20
-1913.077008
 30
0.0
 10
2028.295833
 20
-1911.568883
 30
0.0
 10
2029.036667
 20
-1910.828050
 30
0.0
 10
2030.518333
 20
-1910.087217
 30
0.0
 10
2032.740833
 20
-1910.087217
 30
0.0
 10
2034.248958
 20
-1910.828050
 30
0.0
 10
2034.989792
 20
-1911.568883
 30
0.0
 10
2035.730625
 20
-1913.077008
 30
0.0
 10
2035.730625
 20
-1917.522008
 30
0.0
 10
2034.989792
 20
-1919.003675
 30
0.0
 10
2034.248958
 20
-1919.770967
 30
0.0
 10
2032.740833
 20
-1920.511800
 30
0.0
  0
LWPOLYLINE
  5
194
100
AcDbEntity
  8
0
 62
7
100
AcDbPolyline
 90
16
 70
1
 10
2044.647083
 20
-1920.511800
 30
0.0
 10
2043.165417
 20
-1919.770967
 30
0.0
 10
2042.424583
 20
-1919.003675
 30
0.0
 10
2041.683750
 20
-1917.522008
 30
0.0
 10
2041.683750
 20
-1913.077008
 30
0.0
 10
2042.424583
 20
-1911.568883
 30
0.0
 10
2043.165417
 20
-1910.828050
 30
0.0
 10
2044.647083
 20
-1910.087217
 30
0.0
 10
2046.896042
 20
-1910.087217
 30
0.0
 10
2048.377708
 20
-1910.828050
 30
0.0
 10
2049.118542
 20
-1911.568883
 30
0.0
 10
2049.859375
 20
-1913.077008
 30
0.0
 10
2049.859375
 20
-1917.522008
 30
0.0
 10
2049.118542
 20
-1919.003675
 30
0.0
 10
2048.377708
 20
-1919.770967
 30
0.0
 10
2046.896042
 20
-1920.511800
 30
0.0
  0
LWPOLYLINE
  5
195
100
AcDbEntity
  8
0
 62
7
100
AcDbPolyline
 90
2
 70
0
 10
2056.553333
 20
-1920.511800
 30
0.0
 10
2056.553333
 20
-1910.087217
 30
0.0
  0
LWPOLYLINE
  5
196
100
AcDbEntity
  8
0
 62
7
100
AcDbPolyline
 90
5
 70
0
 10
2056.553333
 20
-1913.077008
 30
0.0
 10
2057.294167
 20
-1911.568883
 30
0.0
 10
2058.035000
 20
-1910.828050
 30
0.0
 10
2059.543125
 20
-1910.087217
 30
0.0
 10
2061.024792
 20
-1910.087217
 30
0.0
  0
LWPOLYLINE
  5
197
100
AcDbEntity
  8
0
 62
7
100
AcDbPolyline
 90
4
 70
0
 10
2066.237083
 20
-1920.511800
 30
0.0
 10
2066.237083
 20
-1904.874925
 30
0.0
 10
2075.153542
 20
-1920.511800
 30
0.0
 10
2075.153542
 20
-1904.874925
 30
0.0
  0
LWPOLYLINE
  5
198
100
AcDbEntity
  8
0
 62
7
100
AcDbPolyline
 90
2
 70
0
 10
2089.282292
 20
-1910.087217
 30
0.0
 10
2089.282292
 20
-1920.511800
 30
0.0
  0
LWPOLYLINE
  5
199
100
AcDbEntity
  8
0
 62
7
100
AcDbPolyline
 90
7
 70
0
 10
2082.588333
 20
-1910.087217
 30
0.0
 10
2082.588333
 20
-1918.262842
 30
0.0
 10
2083.355625
 20
-1919.770967
 30
0.0
 10
2084.837292
 20
-1920.511800
 30
0.0
 10
2087.059792
 20
-1920.511800
 30
0.0
 10
2088.541458
 20
-1919.770967
 30
0.0
 10
2089.282292
 20
-1919.003675
 30
0.0
  0
LWPOLYLINE
  5
19a
100
AcDbEntity
  8
0
 62
7
100
AcDbPolyline
 90
2
 70
0
 10
2096.743542
 20
-1920.511800
 30
0.0
 10
2096.743542
 20
-1910.087217
 30
0.0
  0
LWPOLYLINE
  5
19b
100
AcDbEntity
  8
0
 62
7
100
AcDbPolyline
 90
7
 70
0
 10
2096.743542
 20
-1911.568883
 30
0.0
 10
2097.484375
 20
-1910.828050
 30
0.0
 10
2098.966042
 20
-1910.087217
 30
0.0
 10
2101.188542
 20
-1910.087217
 30
0.0
 10
2102.696667
 20
-1910.828050
 30
0.0
 10
2103.437500
 20
-1912.309717
 30
0.0
 10
2103.437500
 20
-1920.511800
 30
0.0
  0
LWPOLYLINE
  5
19c
100
AcDbEntity
  8
0
 62
7
100
AcDbPolyline
 90
7
 70
0
 10
2103.437500
 20
-1912.309717
 30
0.0
 10
2104.178333
 20
-1910.828050
 30
0.0
 10
2105.660000
 20
-1910.087217
 30
0.0
 10
2107.908958
 20
-1910.087217
 30
0.0
 10
2109.390625
 20
-1910.828050
 30
0.0
 10
2110.131458
 20
-1912.309717
 30
0.0
 10
2110.131458
 20
-1920.511800
 30
0.0
  0
LWPOLYLINE
  5
19d
100
AcDbEntity
  8
0
 62
7
100
AcDbPolyline
 90
2
 70
0
 10
2117.566250
 20
-1920.511800
 30
0.0
 10
2117.566250
 20
-1904.874925
 30
0.0
  0
LWPOLYLINE
  5
19e
100
AcDbEntity
  8
0
 62
7
100
AcDbPolyline
 90
12
 70
0
 10
2117.566250
 20
-1910.828050
 30
0.0
 10
2119.047917
 20
-1910.087217
 30
0.0
 10
2122.037708
 20
-1910.087217
 30
0.0
 10
2123.519375
 20
-1910.828050
 30
0.0
 10
2124.260208
 20
-1911.568883
 30
0.0
 10
2125.001042
 20
-1913.077008
 30
0.0
 10
2125.001042
 20
-1917.522008
 30
0.0
 10
2124.260208
 20
-1919.003675
 30
0.0
 10
2123.519375
 20
-1919.770967
 30
0.0
 10
2122.037708
 20
-1920.511800
 30
0.0
 10
2119.047917
 20
-1920.511800
 30
0.0
 10
2117.566250
 20
-1919.770967
 30
0.0
  0
LWPOLYLINE
  5
19f
100
AcDbEntity
  8
0
 62
7
100
AcDbPolyline
 90
13
 70
0
 10
2137.648125
 20
-1919.770967
 30
0.0
 10
2136.166458
 20
-1920.511800
 30
0.0
 10
2133.203125
 20
-1920.511800
 30
0.0
 10
2131.695000
 20
-1919.770967
 30
0.0
 10
2130.954167
 20
-1918.262842
 30
0.0
 10
2130.954167
 20
-1912.309717
 30
0.0
 10
2131.695000
 20
-1910.828050
 30
0.0
 10
2133.203125
 20
-1910.087217
 30
0.0
 10
2136.166458
 20
-1910.087217
 30
0.0
 10
2137.648125
 20
-1910.828050
 30
0.0
 10
2138.415417
 20
-1912.309717
 30
0.0
 10
2138.415417
 20
-1913.817842
 30
0.0
 10
2130.954167
 20
-1915.299508
 30
0.0
  0
LWPOLYLINE
  5
1a0
100
AcDbEntity
  8
0
 62
7
100
AcDbPolyline
 90
2
 70
0
 10
2145.109375
 20
-1920.511800
 30
0.0
 10
2145.109375
 20
-1910.087217
 30
0.0
  0
LWPOLYLINE
  5
1a1
100
AcDbEntity
  8
0
 62
7
100
AcDbPolyline
 90
5
 70
0
 10
2145.109375
 20
-1913.077008
 30
0.0
 10
2145.850208
 20
-1911.568883
 30
0.0
 10
2146.591042
 20
-1910.828050
 30
0.0
 10
2148.072708
 20
-1910.087217
 30
0.0
 10
2149.554375
 20
-1910.087217
 30
0.0
  0
LWPOLYLINE
  5
1a2
100
AcDbEntity
  8
0
 62
7
100
AcDbPolyline
 90
16
 70
0
 10
2154.025833
 20
-1919.770967
 30
0.0
 10
2155.507500
 20
-1920.511800
 30
0.0
 10
2158.497292
 20
-1920.511800
 30
0.0
 10
2159.978958
 20
-1919.770967
 30
0.0
 10
2160.719792
 20
-1918.262842
 30
0.0
 10
2160.719792
 20
-1917.522008
 30
0.0
 10
2159.978958
 20
-1916.040342
 30
0.0
 10
2158.497292
 20
-1915.299508
 30
0.0
 10
2156.248333
 20
-1915.299508
 30
0.0
 10
2154.766667
 20
-1914.558675
 30
0.0
 10
2154.025833
 20
-1913.077008
 30
0.0
 10
2154.025833
 20
-1912.309717
 30
0.0
 10
2154.766667
 20
-1910.828050
 30
0.0
 10
2156.248333
 20
-1910.087217
 30
0.0
 10
2158.497292
 20
-1910.087217
 30
0.0
 10
2159.978958
 20
-1910.828050
 30
0.0
  0
LWPOLYLINE
  5
1a3
100
AcDbEntity
  8
0
 62
7
100
AcDbPolyline
 90
2
 70
0
 10
2167.413750
 20
-1914.558675
 30
0.0
 10
2179.320000
 20
-1914.558675
 30
0.0
  0
LWPOLYLINE
  5
1a4
100
AcDbEntity
  8
0
 62
7
100
AcDbPolyline
 90
3
 70
0
 10
2194.216042
 20
-1920.511800
 30
0.0
 10
2186.754792
 20
-1920.511800
 30
0.0
 10
2186.754792
 20
-1904.874925
 30
0.0
  0
LWPOLYLINE
  5
1a5
100
AcDbEntity
  8
0
 62
7
100
AcDbPolyline
 90
2
 70
0
 10
2199.401875
 20
-1912.309717
 30
0.0
 10
2204.614167
 20
-1912.309717
 30
0.0
  0
LWPOLYLINE
  5
1a6
100
AcDbEntity
  8
0
 62
7
100
AcDbPolyline
 90
4
 70
0
 10
2206.863125
 20
-1920.511800
 30
0.0
 10
2199.401875
 20
-1920.511800
 30
0.0
 10
2199.401875
 20
-1904.874925
 30
0.0
 10
2206.863125
 20
-1904.874925
 30
0.0
  0
LWPOLYLINE
  5
1a7
100
AcDbEntity
  8
0
 62
7
100
AcDbPolyline
 90
12
 70
1
 10
2213.557083
 20
-1920.511800
 30
0.0
 10
2213.557083
 20
-1904.874925
 30
0.0
 10
2217.261250
 20
-1904.874925
 30
0.0
 10
2219.510208
 20
-1905.615758
 30
0.0
 10
2220.991875
 20
-1907.123883
 30
0.0
 10
2221.732708
 20
-1908.605550
 30
0.0
 10
2222.473542
 20
-1911.568883
 30
0.0
 10
2222.473542
 20
-1913.817842
 30
0.0
 10
2221.732708
 20
-1916.781175
 30
0.0
 10
2220.991875
 20
-1918.262842
 30
0.0
 10
2219.510208
 20
-1919.770967
 30
0.0
 10
2217.261250
 20
-1920.511800
 30
0.0
  0
LWPOLYLINE
  5
1a8
100
AcDbEntity
  8
0
 62
7
100
AcDbPolyline
 90
20
 70
0
 10
2228.426667
 20
-1919.770967
 30
0.0
 10
2230.675625
 20
-1920.511800
 30
0.0
 10
2234.379792
 20
-1920.511800
 30
0.0
 10
2235.861458
 20
-1919.770967
 30
0.0
 10
2236.628750
 20
-1919.003675
 30
0.0
 10
2237.369583
 20
-1917.522008
 30
0.0
 10
2237.369583
 20
-1916.040342
 30
0.0
 10
2236.628750
 20
-1914.558675
 30
0.0
 10
2235.861458
 20
-1913.817842
 30
0.0
 10
2234.379792
 20
-1913.077008
 30
0.0
 10
2231.416458
 20
-1912.309717
 30
0.0
 10
2229.908333
 20
-1911.568883
 30
0.0
 10
2229.167500
 20
-1910.828050
 30
0.0
 10
2228.426667
 20
-1909.346383
 30
0.0
 10
2228.426667
 20
-1907.864717
 30
0.0
 10
2229.167500
 20
-1906.356592
 30
0.0
 10
2229.908333
 20
-1905.615758
 30
0.0
 10
2231.416458
 20
-1904.874925
 30
0.0
 10
2235.120625
 20
-1904.874925
 30
0.0
 10
2237.369583
 20
-1905.615758
 30
0.0
  0
LWPOLYLINE
  5
1a9
100
AcDbEntity
  8
0
 62
7
100
AcDbPolyline
 90
2
 70
0
 10
2241.814583
 20
-1910.087217
 30
0.0
 10
2247.767708
 20
-1910.087217
 30
0.0
  0
LWPOLYLINE
  5
1aa
100
AcDbEntity
  8
0
 62
7
100
AcDbPolyline
 90
5
 70
0
 10
2244.063542
 20
-1904.874925
 30
0.0
 10
2244.063542
 20
-1918.262842
 30
0.0
 10
2244.804375
 20
-1919.770967
 30
0.0
 10
2246.286042
 20
-1920.511800
 30
0.0
 10
2247.767708
 20
-1920.511800
 30
0.0
  0
LWPOLYLINE
  5
1ab
100
AcDbEntity
  8
0
 62
7
100
AcDbPolyline
 90
2
 70
0
 10
2252.980000
 20
-1920.511800
 30
0.0
 10
2252.980000
 20
-1910.087217
 30
0.0
  0
LWPOLYLINE
  5
1ac
100
AcDbEntity
  8
0
 62
7
100
AcDbPolyline
 90
5
 70
0
 10
2252.980000
 20
-1913.077008
 30
0.0
 10
2253.720833
 20
-1911.568883
 30
0.0
 10
2254.461667
 20
-1910.828050
 30
0.0
 10
2255.969792
 20
-1910.087217
 30
0.0
 10
2257.451458
 20
-1910.087217
 30
0.0
  0
LWPOLYLINE
  5
1ad
100
AcDbEntity
  8
0
 62
7
100
AcDbPolyline
 90
2
 70
0
 10
2262.663750
 20
-1920.511800
 30
0.0
 10
2262.663750
 20
-1910.087217
 30
0.0
  0
LWPOLYLINE
  5
1ae
100
AcDbEntity
  8
0
 62
7
100
AcDbPolyline
 90
6
 70
0
 10
2262.663750
 20
-1904.874925
 30
0.0
 10
2261.922917
 20
-1905.615758
 30
0.0
 10
2262.663750
 20
-1906.356592
 30
0.0
 10
2263.404583
 20
-1905.615758
 30
0.0
 10
2262.663750
 20
-1904.874925
 30
0.0
 10
2262.663750
 20
-1906.356592
 30
0.0
  0
LWPOLYLINE
  5
1af
100
AcDbEntity
  8
0
 62
7
100
AcDbPolyline
 90
2
 70
0
 10
2270.098542
 20
-1910.087217
 30
0.0
 10
2270.098542
 20
-1925.724092
 30
0.0
  0
LWPOLYLINE
  5
1b0
100
AcDbEntity
  8
0
 62
7
100
AcDbPolyline
 90
12
 70
0
 10
2270.098542
 20
-1910.828050
 30
0.0
 10
2271.580208
 20
-1910.087217
 30
0.0
 10
2274.570000
 20
-1910.087217
 30
0.0
 10
2276.051667
 20
-1910.828050
 30
0.0
 10
2276.792500
 20
-1911.568883
 30
0.0
 10
2277.533333
 20
-1913.077008
 30
0.0
 10
2277.533333
 20
-1917.522008
 30
0.0
 10
2276.792500
 20
-1919.003675
 30
0.0
 10
2276.051667
 20
-1919.770967
 30
0.0
 10
2274.570000
 20
-1920.511800
 30
0.0
 10
2271.580208
 20
-1920.511800
 30
0.0
 10
2270.098542
 20
-1919.770967
 30
0.0
  0
LWPOLYLINE
  5
1b1
100
AcDbEntity
  8
0
 62
7
100
AcDbPolyline
 90
6
 70
0
 10
2284.227292
 20
-1919.003675
 30
0.0
 10
2284.968125
 20
-1919.770967
 30
0.0
 10
2284.227292
 20
-1920.511800
 30
0.0
 10
2283.486458
 20
-1919.770967
 30
0.0
 10
2284.227292
 20
-1919.003675
 30
0.0
 10
2284.227292
 20
-1920.511800
 30
0.0
  0
LWPOLYLINE
  5
1b2
100
AcDbEntity
  8
0
 62
7
100
AcDbPolyline
 90
2
 70
0
 10
2291.688542
 20
-1920.511800
 30
0.0
 10
2291.688542
 20
-1904.874925
 30
0.0
  0
LWPOLYLINE
  5
1b3
100
AcDbEntity
  8
0
 62
7
100
AcDbPolyline
 90
2
 70
0
 10
2293.170208
 20
-1914.558675
 30
0.0
 10
2297.641667
 20
-1920.511800
 30
0.0
  0
LWPOLYLINE
  5
1b4
100
AcDbEntity
  8
0
 62
7
100
AcDbPolyline
 90
2
 70
0
 10
2297.641667
 20
-1910.087217
 30
0.0
 10
2291.688542
 20
-1916.040342
 30
0.0
  0
LWPOLYLINE
  5
1b5
100
AcDbEntity
  8
0
 62
7
100
AcDbPolyline
 90
2
 70
0
 10
2304.335625
 20
-1920.511800
 30
0.0
 10
2304.335625
 20
-1910.087217
 30
0.0
  0
LWPOLYLINE
  5
1b6
100
AcDbEntity
  8
0
 62
7
100
AcDbPolyline
 90
6
 70
0
 10
2304.335625
 20
-1904.874925
 30
0.0
 10
2303.568333
 20
-1905.615758
 30
0.0
 10
2304.335625
 20
-1906.356592
 30
0.0
 10
2305.076458
 20
-1905.615758
 30
0.0
 10
2304.335625
 20
-1904.874925
 30
0.0
 10
2304.335625
 20
-1906.356592
 30
0.0
  0
LWPOLYLINE
  5
1b7
100
AcDbEntity
  8
0
 62
7
100
AcDbPolyline
 90
12
 70
0
 10
2318.464375
 20
-1919.770967
 30
0.0
 10
2316.982708
 20
-1920.511800
 30
0.0
 10
2313.992917
 20
-1920.511800
 30
0.0
 10
2312.511250
 20
-1919.770967
 30
0.0
 10
2311.770417
 20
-1919.003675
 30
0.0
 10
2311.029583
 20
-1917.522008
 30
0.0
 10
2311.029583
 20
-1913.077008
 30
0.0
 10
2311.770417
 20
-1911.568883
 30
0.0
 10
2312.511250
 20
-1910.828050
 30
0.0
 10
2313.992917
 20
-1910.087217
 30
0.0
 10
2316.982708
 20
-1910.087217
 30
0.0
 10
2318.464375
 20
-1910.828050
 30
0.0
  0
LWPOLYLINE
  5
1b8
100
AcDbEntity
  8
0
 62
7
100
AcDbPolyline
 90
6
 70
0
 10
2331.852292
 20
-1920.511800
 30
0.0
 10
2331.852292
 20
-1912.309717
 30
0.0
 10
2331.111458
 20
-1910.828050
 30
0.0
 10
2329.629792
 20
-1910.087217
 30
0.0
 10
2326.640000
 20
-1910.087217
 30
0.0
 10
2325.158333
 20
-1910.828050
 30
0.0
  0
LWPOLYLINE
  5
1b9
100
AcDbEntity
  8
0
 62
7
100
AcDbPolyline
 90
10
 70
0
 10
2331.852292
 20
-1919.770967
 30
0.0
 10
2330.370625
 20
-1920.511800
 30
0.0
 10
2326.640000
 20
-1920.511800
 30
0.0
 10
2325.158333
 20
-1919.770967
 30
0.0
 10
2324.417500
 20
-1918.262842
 30
0.0
 10
2324.417500
 20
-1916.781175
 30
0.0
 10
2325.158333
 20
-1915.299508
 30
0.0
 10
2326.640000
 20
-1914.558675
 30
0.0
 10
2330.370625
 20
-1914.558675
 30
0.0
 10
2331.852292
 20
-1913.817842
 30
0.0
  0
LWPOLYLINE
  5
1ba
100
AcDbEntity
  8
0
 62
7
100
AcDbPolyline
 90
2
 70
0
 10
2345.981042
 20
-1920.511800
 30
0.0
 10
2345.981042
 20
-1904.874925
 30
0.0
  0
LWPOLYLINE
  5
1bb
100
AcDbEntity
  8
0
 62
7
100
AcDbPolyline
 90
12
 70
0
 10
2345.981042
 20
-1919.770967
 30
0.0
 10
2344.499375
 20
-1920.511800
 30
0.0
 10
2341.536042
 20
-1920.511800
 30
0.0
 10
2340.027917
 20
-1919.770967
 30
0.0
 10
2339.287083
 20
-1919.003675
 30
0.0
 10
2338.546250
 20
-1917.522008
 30
0.0
 10
2338.546250
 20
-1913.077008
 30
0.0
 10
2339.287083
 20
-1911.568883
 30
0.0
 10
2340.027917
 20
-1910.828050
 30
0.0
 10
2341.536042
 20
-1910.087217
 30
0.0
 10
2344.499375
 20
-1910.087217
 30
0.0
 10
2345.981042
 20
-1910.828050
 30
0.0
  0
LWPOLYLINE
  5
1bc
100
AcDbEntity
  8
0
 62
7
100
AcDbPolyline
 90
2
 70
0
 10
2349.711667
 20
-1921.993467
 30
0.0
 10
2361.617917
 20
-1921.993467
 30
0.0
  0
LWPOLYLINE
  5
1bd
100
AcDbEntity
  8
0
 62
7
100
AcDbPolyline
 90
2
 70
0
 10
2365.348542
 20
-1910.087217
 30
0.0
 10
2365.348542
 20
-1925.724092
 30
0.0
  0
LWPOLYLINE
  5
1be
100
AcDbEntity
  8
0
 62
7
100
AcDbPolyline
 90
12
 70
0
 10
2365.348542
 20
-1910.828050
 30
0.0
 10
2366.830208
 20
-1910.087217
 30
0.0
 10
2369.793542
 20
-1910.087217
 30
0.0
 10
2371.301667
 20
-1910.828050
 30
0.0
 10
2372.042500
 20
-1911.568883
 30
0.0
 10
2372.783333
 20
-1913.077008
 30
0.0
 10
2372.783333
 20
-1917.522008
 30
0.0
 10
2372.042500
 20
-1919.003675
 30
0.0
 10
2371.301667
 20
-1919.770967
 30
0.0
 10
2369.793542
 20
-1920.511800
 30
0.0
 10
2366.830208
 20
-1920.511800
 30
0.0
 10
2365.348542
 20
-1919.770967
 30
0.0
  0
LWPOLYLINE
  5
1bf
100
AcDbEntity
  8
0
 62
7
100
AcDbPolyline
 90
12
 70
0
 10
2386.171250
 20
-1919.770967
 30
0.0
 10
2384.689583
 20
-1920.511800
 30
0.0
 10
2381.699792
 20
-1920.511800
 30
0.0
 10
2380.218125
 20
-1919.770967
 30
0.0
 10
2379.477292
 20
-1919.003675
 30
0.0
 10
2378.736458
 20
-1917.522008
 30
0.0
 10
2378.736458
 20
-1913.077008
 30
0.0
 10
2379.477292
 20
-1911.568883
 30
0.0
 10
2380.218125
 20
-1910.828050
 30
0.0
 10
2381.699792
 20
-1910.087217
 30
0.0
 10
2384.689583
 20
-1910.087217
 30
0.0
 10
2386.171250
 20
-1910.828050
 30
0.0
  0
LWPOLYLINE
  5
1c0
100
AcDbEntity
  8
0
 62
7
100
AcDbPolyline
 90
2
 70
0
 10
2392.865208
 20
-1920.511800
 30
0.0
 10
2392.865208
 20
-1904.874925
 30
0.0
  0
LWPOLYLINE
  5
1c1
100
AcDbEntity
  8
0
 62
7
100
AcDbPolyline
 90
12
 70
0
 10
2392.865208
 20
-1910.828050
 30
0.0
 10
2394.346875
 20
-1910.087217
 30
0.0
 10
2397.336667
 20
-1910.087217
 30
0.0
 10
2398.818333
 20
-1910.828050
 30
0.0
 10
2399.559167
 20
-1911.568883
 30
0.0
 10
2400.300000
 20
-1913.077008
 30
0.0
 10
2400.300000
 20
-1917.522008
 30
0.0
 10
2399.559167
 20
-1919.003675
 30
0.0
 10
2398.818333
 20
-1919.770967
 30
0.0
 10
2397.336667
 20
-1920.511800
 30
0.0
 10
2394.346875
 20
-1920.511800
 30
0.0
 10
2392.865208
 20
-1919.770967
 30
0.0
  0
LWPOLYLINE
  5
1c2
100
AcDbEntity
  8
0
 62
7
100
AcDbPolyline
 90
2
 70
0
 10
1843.748958
 20
-1869.685342
 30
0.0
 10
2968.757292
 20
-1869.685342
 30
0.0
  0
LWPOLYLINE
  5
1c3
100
AcDbEntity
  8
0
 62
7
100
AcDbPolyline
 90
20
 70
0
 10
1857.163333
 20
-1891.645758
 30
0.0
 10
1859.385833
 20
-1892.386592
 30
0.0
 10
1863.116458
 20
-1892.386592
 30
0.0
 10
1864.598125
 20
-1891.645758
 30
0.0
 10
1865.338958
 20
-1890.878467
 30
0.0
 10
1866.079792
 20
-1889.396800
 30
0.0
 10
1866.079792
 20
-1887.915133
 30
0.0
 10
1865.338958
 20
-1886.433467
 30
0.0
 10
1864.598125
 20
-1885.692633
 30
0.0
 10
1863.116458
 20
-1884.951800
 30
0.0
 10
1860.126667
 20
-1884.184508
 30
0.0
 10
1858.645000
 20
-1883.443675
 30
0.0
 10
1857.904167
 20
-1882.702842
 30
0.0
 10
1857.163333
 20
-1881.221175
 30
0.0
 10
1857.163333
 20
-1879.739508
 30
0.0
 10
1857.904167
 20
-1878.231383
 30
0.0
 10
1858.645000
 20
-1877.490550
 30
0.0
 10
1860.126667
 20
-1876.749717
 30
0.0
 10
1863.857292
 20
-1876.749717
 30
0.0
 10
1866.079792
 20
-1877.490550
 30
0.0
  0
LWPOLYLINE
  5
1c4
100
AcDbEntity
  8
0
 62
7
100
AcDbPolyline
 90
2
 70
0
 10
1872.773750
 20
-1892.386592
 30
0.0
 10
1872.773750
 20
-1876.749717
 30
0.0
  0
LWPOLYLINE
  5
1c5
100
AcDbEntity
  8
0
 62
7
100
AcDbPolyline
 90
7
 70
0
 10
1879.467708
 20
-1892.386592
 30
0.0
 10
1879.467708
 20
-1884.184508
 30
0.0
 10
1878.726875
 20
-1882.702842
 30
0.0
 10
1877.245208
 20
-1881.962008
 30
0.0
 10
1875.022708
 20
-1881.962008
 30
0.0
 10
1873.514583
 20
-1882.702842
 30
0.0
 10
1872.773750
 20
-1883.443675
 30
0.0
  0
LWPOLYLINE
  5
1c6
100
AcDbEntity
  8
0
 62
7
100
AcDbPolyline
 90
13
 70
0
 10
1892.855625
 20
-1891.645758
 30
0.0
 10
1891.373958
 20
-1892.386592
 30
0.0
 10
1888.410625
 20
-1892.386592
 30
0.0
 10
1886.902500
 20
-1891.645758
 30
0.0
 10
1886.161667
 20
-1890.137633
 30
0.0
 10
1886.161667
 20
-1884.184508
 30
0.0
 10
1886.902500
 20
-1882.702842
 30
0.0
 10
1888.410625
 20
-1881.962008
 30
0.0
 10
1891.373958
 20
-1881.962008
 30
0.0
 10
1892.855625
 20
-1882.702842
 30
0.0
 10
1893.622917
 20
-1884.184508
 30
0.0
 10
1893.622917
 20
-1885.692633
 30
0.0
 10
1886.161667
 20
-1887.174300
 30
0.0
  0
LWPOLYLINE
  5
1c7
100
AcDbEntity
  8
0
 62
7
100
AcDbPolyline
 90
13
 70
0
 10
1906.270000
 20
-1891.645758
 30
0.0
 10
1904.761875
 20
-1892.386592
 30
0.0
 10
1901.798542
 20
-1892.386592
 30
0.0
 10
1900.316875
 20
-1891.645758
 30
0.0
 10
1899.576042
 20
-1890.137633
 30
0.0
 10
1899.576042
 20
-1884.184508
 30
0.0
 10
1900.316875
 20
-1882.702842
 30
0.0
 10
1901.798542
 20
-1881.962008
 30
0.0
 10
1904.761875
 20
-1881.962008
 30
0.0
 10
1906.270000
 20
-1882.702842
 30
0.0
 10
1907.010833
 20
-1884.184508
 30
0.0
 10
1907.010833
 20
-1885.692633
 30
0.0
 10
1899.576042
 20
-1887.174300
 30
0.0
  0
LWPOLYLINE
  5
1c8
100
AcDbEntity
  8
0
 62
7
100
AcDbPolyline
 90
2
 70
0
 10
1911.455833
 20
-1881.962008
 30
0.0
 10
1917.408958
 20
-1881.962008
 30
0.0
  0
LWPOLYLINE
  5
1c9
100
AcDbEntity
  8
0
 62
7
100
AcDbPolyline
 90
5
 70
0
 10
1913.704792
 20
-1876.749717
 30
0.0
 10
1913.704792
 20
-1890.137633
 30
0.0
 10
1914.445625
 20
-1891.645758
 30
0.0
 10
1915.927292
 20
-1892.386592
 30
0.0
 10
1917.408958
 20
-1892.386592
 30
0.0
  0
LWPOLYLINE
  5
1ca
100
AcDbEntity
  8
0
 62
7
100
AcDbPolyline
 90
6
 70
0
 10
1922.621250
 20
-1890.878467
 30
0.0
 10
1923.362083
 20
-1891.645758
 30
0.0
 10
1922.621250
 20
-1892.386592
 30
0.0
 10
1921.880417
 20
-1891.645758
 30
0.0
 10
1922.621250
 20
-1890.878467
 30
0.0
 10
1922.621250
 20
-1892.386592
 30
0.0
  0
LWPOLYLINE
  5
1cb
100
AcDbEntity
  8
0
 62
7
100
AcDbPolyline
 90
6
 70
0
 10
1922.621250
 20
-1882.702842
 30
0.0
 10
1923.362083
 20
-1883.443675
 30
0.0
 10
1922.621250
 20
-1884.184508
 30
0.0
 10
1921.880417
 20
-1883.443675
 30
0.0
 10
1922.621250
 20
-1882.702842
 30
0.0
 10
1922.621250
 20
-1884.184508
 30
0.0
  0
LWPOLYLINE
  5
1cc
100
AcDbEntity
  8
0
 62
7
100
AcDbPolyline
 90
2
 70
0
 10
2052.081875
 20
-1973.851800
 30
0.0
 10
2052.081875
 20
-2005.099092
 30
0.0
  0
LWPOLYLINE
  5
1cd
100
AcDbEntity
  8
0
 62
7
100
AcDbPolyline
 90
2
 70
0
 10
2718.752500
 20
-1973.851800
 30
0.0
 10
2718.752500
 20
-2041.558675
 30
0.0
  0
LWPOLYLINE
  5
1ce
100
AcDbEntity
  8
0
 62
7
100
AcDbPolyline
 90
2
 70
0
 10
1666.663333
 20
-1187.324925
 30
0.0
 10
1666.663333
 20
-1020.663883
 30
0.0
  0
LWPOLYLINE
  5
1cf
100
AcDbEntity
  8
0
 62
7
100
AcDbPolyline
 90
2
 70
0
 10
1041.664583
 20
-1187.324925
 30
0.0
 10
1666.663333
 20
-1187.324925
 30
0.0
  0
LWPOLYLINE
  5
1d0
100
AcDbEntity
  8
0
 62
7
100
AcDbPolyline
 90
2
 70
0
 10
1041.664583
 20
-1020.663883
 30
0.0
 10
1041.664583
 20
-1187.324925
 30
0.0
  0
LWPOLYLINE
  5
1d1
100
AcDbEntity
  8
0
 62
7
100
AcDbPolyline
 90
2
 70
0
 10
1041.664583
 20
-1020.663883
 30
0.0
 10
1666.663333
 20
-1020.663883
 30
0.0
  0
ENDSEC
  0
SECTION
  2
OBJECTS
  0
DICTIONARY
  5
C
330
0
100
AcDbDictionary
  3
ACAD_GROUP
350
D
  3
ACAD_MLINESTYLE
350
17
  0
DICTIONARY
  5
D
330
C
100
AcDbDictionary
  0
DICTIONARY
  5
1A
330
C
100
AcDbDictionary
  0
DICTIONARY
  5
17
330
C
100
AcDbDictionary
  3
STANDARD
350
18
  0
DICTIONARY
  5
19
330
C
100
AcDbDictionary
  0
ENDSEC
  0
EOF
