<?xml version="1.0" standalone="no"?>
 <!DOCTYPE svg PUBLIC "-//W3C//DTD SVG 1.1//EN" 
 "http://www.w3.org/Graphics/SVG/1.1/DTD/svg11.dtd"> 
<svg xmlns="http://www.w3.org/2000/svg" version="1.1" 
    width="29.7002cm" height="21.0007cm" viewBox="0 0 116930 82680 ">
<title>SVG Picture created as MidtownDoorNumbers-LEDStrip-F.Cu.svg date 2019/06/28 11:11:05 </title>
  <desc>Picture generated by PCBNEW </desc>
<g style="fill:#000000; fill-opacity:1;stroke:#000000; stroke-opacity:1;
stroke-linecap:round; stroke-linejoin:round; "
 transform="translate(0 0) scale(1 1)">
</g>
<g style="fill:#000000; fill-opacity:0.0; 
stroke:#000000; stroke-width:-0.000393701; stroke-opacity:1; 
stroke-linecap:round; stroke-linejoin:round;">
</g>
<g style="fill:#000000; fill-opacity:0.0; 
stroke:#000000; stroke-width:39.3701; stroke-opacity:1; 
stroke-linecap:round; stroke-linejoin:round;">
</g>
<g style="fill:#000000; fill-opacity:0.0; 
stroke:#000000; stroke-width:59.0551; stroke-opacity:1; 
stroke-linecap:round; stroke-linejoin:round;">
<rect x="69685.9" y="65357.2" width="42519.7" height="12598.4" rx="0" />
</g>
<g style="fill:#000000; fill-opacity:0.0; 
stroke:#000000; stroke-width:39.3701; stroke-opacity:1; 
stroke-linecap:round; stroke-linejoin:round;">
</g>
<g style="fill:#000000; fill-opacity:0.0; 
stroke:#000000; stroke-width:59.0551; stroke-opacity:1; 
stroke-linecap:round; stroke-linejoin:round;">
<rect x="3937.01" y="3937.01" width="109056" height="74806" rx="0" />
</g>
<g style="fill:#000000; fill-opacity:0.0; 
stroke:#000000; stroke-width:39.3701; stroke-opacity:1; 
stroke-linecap:round; stroke-linejoin:round;">
</g>
<g style="fill:#000000; fill-opacity:0.0; 
stroke:#000000; stroke-width:59.0551; stroke-opacity:1; 
stroke-linecap:round; stroke-linejoin:round;">
<rect x="4724.41" y="4724.41" width="107481" height="73231.2" rx="0" />
</g>
<g style="fill:#000000; fill-opacity:0.0; 
stroke:#000000; stroke-width:39.3701; stroke-opacity:1; 
stroke-linecap:round; stroke-linejoin:round;">
</g>
<g style="fill:#000000; fill-opacity:0.0; 
stroke:#000000; stroke-width:59.0551; stroke-opacity:1; 
stroke-linecap:round; stroke-linejoin:round;">
<path d="M23622 4724
L23622 3937
" />
</g>
<g style="fill:#000000; fill-opacity:0.0; 
stroke:#000000; stroke-width:39.3701; stroke-opacity:1; 
stroke-linecap:round; stroke-linejoin:round;">
</g>
<g style="fill:#000000; fill-opacity:0.0; 
stroke:#000000; stroke-width:59.0551; stroke-opacity:1; 
stroke-linecap:round; stroke-linejoin:round;">
<path d="M43307 4724
L43307 3937
" />
</g>
<g style="fill:#000000; fill-opacity:0.0; 
stroke:#000000; stroke-width:39.3701; stroke-opacity:1; 
stroke-linecap:round; stroke-linejoin:round;">
</g>
<g style="fill:#000000; fill-opacity:0.0; 
stroke:#000000; stroke-width:59.0551; stroke-opacity:1; 
stroke-linecap:round; stroke-linejoin:round;">
<path d="M62992 4724
L62992 3937
" />
</g>
<g style="fill:#000000; fill-opacity:0.0; 
stroke:#000000; stroke-width:39.3701; stroke-opacity:1; 
stroke-linecap:round; stroke-linejoin:round;">
</g>
<g style="fill:#000000; fill-opacity:0.0; 
stroke:#000000; stroke-width:59.0551; stroke-opacity:1; 
stroke-linecap:round; stroke-linejoin:round;">
<path d="M82677 4724
L82677 3937
" />
</g>
<g style="fill:#000000; fill-opacity:0.0; 
stroke:#000000; stroke-width:39.3701; stroke-opacity:1; 
stroke-linecap:round; stroke-linejoin:round;">
</g>
<g style="fill:#000000; fill-opacity:0.0; 
stroke:#000000; stroke-width:59.0551; stroke-opacity:1; 
stroke-linecap:round; stroke-linejoin:round;">
<path d="M102362 4724
L102362 3937
" />
</g>
<g style="fill:#000000; fill-opacity:0.0; 
stroke:#000000; stroke-width:39.3701; stroke-opacity:1; 
stroke-linecap:round; stroke-linejoin:round;">
</g>
<g style="fill:#000000; fill-opacity:0.0; 
stroke:#000000; stroke-width:59.0551; stroke-opacity:1; 
stroke-linecap:round; stroke-linejoin:round;">
<path d="M14169 4562
L13877 4562
" />
<path d="M14023 4562
L14023 4050
L13974 4123
L13925 4172
L13877 4196
" />
</g>
<g style="fill:#000000; fill-opacity:0.0; 
stroke:#000000; stroke-width:39.3701; stroke-opacity:1; 
stroke-linecap:round; stroke-linejoin:round;">
</g>
<g style="fill:#000000; fill-opacity:0.0; 
stroke:#000000; stroke-width:59.0551; stroke-opacity:1; 
stroke-linecap:round; stroke-linejoin:round;">
<path d="M33562 4099
L33586 4074
L33635 4050
L33757 4050
L33805 4074
L33830 4099
L33854 4147
L33854 4196
L33830 4269
L33537 4562
L33854 4562
" />
</g>
<g style="fill:#000000; fill-opacity:0.0; 
stroke:#000000; stroke-width:39.3701; stroke-opacity:1; 
stroke-linecap:round; stroke-linejoin:round;">
</g>
<g style="fill:#000000; fill-opacity:0.0; 
stroke:#000000; stroke-width:59.0551; stroke-opacity:1; 
stroke-linecap:round; stroke-linejoin:round;">
<path d="M53222 4050
L53539 4050
L53368 4245
L53442 4245
L53490 4269
L53515 4294
L53539 4342
L53539 4464
L53515 4513
L53490 4537
L53442 4562
L53295 4562
L53247 4537
L53222 4513
" />
</g>
<g style="fill:#000000; fill-opacity:0.0; 
stroke:#000000; stroke-width:39.3701; stroke-opacity:1; 
stroke-linecap:round; stroke-linejoin:round;">
</g>
<g style="fill:#000000; fill-opacity:0.0; 
stroke:#000000; stroke-width:59.0551; stroke-opacity:1; 
stroke-linecap:round; stroke-linejoin:round;">
<path d="M73175 4221
L73175 4562
" />
<path d="M73053 4026
L72932 4391
L73248 4391
" />
</g>
<g style="fill:#000000; fill-opacity:0.0; 
stroke:#000000; stroke-width:39.3701; stroke-opacity:1; 
stroke-linecap:round; stroke-linejoin:round;">
</g>
<g style="fill:#000000; fill-opacity:0.0; 
stroke:#000000; stroke-width:59.0551; stroke-opacity:1; 
stroke-linecap:round; stroke-linejoin:round;">
<path d="M92885 4050
L92641 4050
L92617 4294
L92641 4269
L92690 4245
L92812 4245
L92860 4269
L92885 4294
L92909 4342
L92909 4464
L92885 4513
L92860 4537
L92812 4562
L92690 4562
L92641 4537
L92617 4513
" />
</g>
<g style="fill:#000000; fill-opacity:0.0; 
stroke:#000000; stroke-width:39.3701; stroke-opacity:1; 
stroke-linecap:round; stroke-linejoin:round;">
</g>
<g style="fill:#000000; fill-opacity:0.0; 
stroke:#000000; stroke-width:59.0551; stroke-opacity:1; 
stroke-linecap:round; stroke-linejoin:round;">
<path d="M112545 4050
L112448 4050
L112399 4074
L112375 4099
L112326 4172
L112302 4269
L112302 4464
L112326 4513
L112350 4537
L112399 4562
L112497 4562
L112545 4537
L112570 4513
L112594 4464
L112594 4342
L112570 4294
L112545 4269
L112497 4245
L112399 4245
L112350 4269
L112326 4294
L112302 4342
" />
</g>
<g style="fill:#000000; fill-opacity:0.0; 
stroke:#000000; stroke-width:39.3701; stroke-opacity:1; 
stroke-linecap:round; stroke-linejoin:round;">
</g>
<g style="fill:#000000; fill-opacity:0.0; 
stroke:#000000; stroke-width:59.0551; stroke-opacity:1; 
stroke-linecap:round; stroke-linejoin:round;">
<path d="M23622 77955
L23622 78742
" />
</g>
<g style="fill:#000000; fill-opacity:0.0; 
stroke:#000000; stroke-width:39.3701; stroke-opacity:1; 
stroke-linecap:round; stroke-linejoin:round;">
</g>
<g style="fill:#000000; fill-opacity:0.0; 
stroke:#000000; stroke-width:59.0551; stroke-opacity:1; 
stroke-linecap:round; stroke-linejoin:round;">
<path d="M43307 77955
L43307 78742
" />
</g>
<g style="fill:#000000; fill-opacity:0.0; 
stroke:#000000; stroke-width:39.3701; stroke-opacity:1; 
stroke-linecap:round; stroke-linejoin:round;">
</g>
<g style="fill:#000000; fill-opacity:0.0; 
stroke:#000000; stroke-width:59.0551; stroke-opacity:1; 
stroke-linecap:round; stroke-linejoin:round;">
<path d="M62992 77955
L62992 78742
" />
</g>
<g style="fill:#000000; fill-opacity:0.0; 
stroke:#000000; stroke-width:39.3701; stroke-opacity:1; 
stroke-linecap:round; stroke-linejoin:round;">
</g>
<g style="fill:#000000; fill-opacity:0.0; 
stroke:#000000; stroke-width:59.0551; stroke-opacity:1; 
stroke-linecap:round; stroke-linejoin:round;">
<path d="M82677 77955
L82677 78742
" />
</g>
<g style="fill:#000000; fill-opacity:0.0; 
stroke:#000000; stroke-width:39.3701; stroke-opacity:1; 
stroke-linecap:round; stroke-linejoin:round;">
</g>
<g style="fill:#000000; fill-opacity:0.0; 
stroke:#000000; stroke-width:59.0551; stroke-opacity:1; 
stroke-linecap:round; stroke-linejoin:round;">
<path d="M102362 77955
L102362 78742
" />
</g>
<g style="fill:#000000; fill-opacity:0.0; 
stroke:#000000; stroke-width:39.3701; stroke-opacity:1; 
stroke-linecap:round; stroke-linejoin:round;">
</g>
<g style="fill:#000000; fill-opacity:0.0; 
stroke:#000000; stroke-width:59.0551; stroke-opacity:1; 
stroke-linecap:round; stroke-linejoin:round;">
<path d="M14169 78580
L13877 78580
" />
<path d="M14023 78580
L14023 78069
L13974 78142
L13925 78190
L13877 78215
" />
</g>
<g style="fill:#000000; fill-opacity:0.0; 
stroke:#000000; stroke-width:39.3701; stroke-opacity:1; 
stroke-linecap:round; stroke-linejoin:round;">
</g>
<g style="fill:#000000; fill-opacity:0.0; 
stroke:#000000; stroke-width:59.0551; stroke-opacity:1; 
stroke-linecap:round; stroke-linejoin:round;">
<path d="M33562 78117
L33586 78093
L33635 78069
L33757 78069
L33805 78093
L33830 78117
L33854 78166
L33854 78215
L33830 78288
L33537 78580
L33854 78580
" />
</g>
<g style="fill:#000000; fill-opacity:0.0; 
stroke:#000000; stroke-width:39.3701; stroke-opacity:1; 
stroke-linecap:round; stroke-linejoin:round;">
</g>
<g style="fill:#000000; fill-opacity:0.0; 
stroke:#000000; stroke-width:59.0551; stroke-opacity:1; 
stroke-linecap:round; stroke-linejoin:round;">
<path d="M53222 78069
L53539 78069
L53368 78263
L53442 78263
L53490 78288
L53515 78312
L53539 78361
L53539 78483
L53515 78532
L53490 78556
L53442 78580
L53295 78580
L53247 78556
L53222 78532
" />
</g>
<g style="fill:#000000; fill-opacity:0.0; 
stroke:#000000; stroke-width:39.3701; stroke-opacity:1; 
stroke-linecap:round; stroke-linejoin:round;">
</g>
<g style="fill:#000000; fill-opacity:0.0; 
stroke:#000000; stroke-width:59.0551; stroke-opacity:1; 
stroke-linecap:round; stroke-linejoin:round;">
<path d="M73175 78239
L73175 78580
" />
<path d="M73053 78044
L72932 78410
L73248 78410
" />
</g>
<g style="fill:#000000; fill-opacity:0.0; 
stroke:#000000; stroke-width:39.3701; stroke-opacity:1; 
stroke-linecap:round; stroke-linejoin:round;">
</g>
<g style="fill:#000000; fill-opacity:0.0; 
stroke:#000000; stroke-width:59.0551; stroke-opacity:1; 
stroke-linecap:round; stroke-linejoin:round;">
<path d="M92885 78069
L92641 78069
L92617 78312
L92641 78288
L92690 78263
L92812 78263
L92860 78288
L92885 78312
L92909 78361
L92909 78483
L92885 78532
L92860 78556
L92812 78580
L92690 78580
L92641 78556
L92617 78532
" />
</g>
<g style="fill:#000000; fill-opacity:0.0; 
stroke:#000000; stroke-width:39.3701; stroke-opacity:1; 
stroke-linecap:round; stroke-linejoin:round;">
</g>
<g style="fill:#000000; fill-opacity:0.0; 
stroke:#000000; stroke-width:59.0551; stroke-opacity:1; 
stroke-linecap:round; stroke-linejoin:round;">
<path d="M112545 78069
L112448 78069
L112399 78093
L112375 78117
L112326 78190
L112302 78288
L112302 78483
L112326 78532
L112350 78556
L112399 78580
L112497 78580
L112545 78556
L112570 78532
L112594 78483
L112594 78361
L112570 78312
L112545 78288
L112497 78263
L112399 78263
L112350 78288
L112326 78312
L112302 78361
" />
</g>
<g style="fill:#000000; fill-opacity:0.0; 
stroke:#000000; stroke-width:39.3701; stroke-opacity:1; 
stroke-linecap:round; stroke-linejoin:round;">
</g>
<g style="fill:#000000; fill-opacity:0.0; 
stroke:#000000; stroke-width:59.0551; stroke-opacity:1; 
stroke-linecap:round; stroke-linejoin:round;">
<path d="M3937 23622
L4724 23622
" />
</g>
<g style="fill:#000000; fill-opacity:0.0; 
stroke:#000000; stroke-width:39.3701; stroke-opacity:1; 
stroke-linecap:round; stroke-linejoin:round;">
</g>
<g style="fill:#000000; fill-opacity:0.0; 
stroke:#000000; stroke-width:59.0551; stroke-opacity:1; 
stroke-linecap:round; stroke-linejoin:round;">
<path d="M3937 43307
L4724 43307
" />
</g>
<g style="fill:#000000; fill-opacity:0.0; 
stroke:#000000; stroke-width:39.3701; stroke-opacity:1; 
stroke-linecap:round; stroke-linejoin:round;">
</g>
<g style="fill:#000000; fill-opacity:0.0; 
stroke:#000000; stroke-width:59.0551; stroke-opacity:1; 
stroke-linecap:round; stroke-linejoin:round;">
<path d="M3937 62992
L4724 62992
" />
</g>
<g style="fill:#000000; fill-opacity:0.0; 
stroke:#000000; stroke-width:39.3701; stroke-opacity:1; 
stroke-linecap:round; stroke-linejoin:round;">
</g>
<g style="fill:#000000; fill-opacity:0.0; 
stroke:#000000; stroke-width:59.0551; stroke-opacity:1; 
stroke-linecap:round; stroke-linejoin:round;">
<path d="M4208 13864
L4452 13864
" />
<path d="M4160 14011
L4330 13499
L4501 14011
" />
</g>
<g style="fill:#000000; fill-opacity:0.0; 
stroke:#000000; stroke-width:39.3701; stroke-opacity:1; 
stroke-linecap:round; stroke-linejoin:round;">
</g>
<g style="fill:#000000; fill-opacity:0.0; 
stroke:#000000; stroke-width:59.0551; stroke-opacity:1; 
stroke-linecap:round; stroke-linejoin:round;">
<path d="M4367 33428
L4440 33452
L4464 33476
L4489 33525
L4489 33598
L4464 33647
L4440 33671
L4391 33696
L4196 33696
L4196 33184
L4367 33184
L4416 33208
L4440 33233
L4464 33281
L4464 33330
L4440 33379
L4416 33403
L4367 33428
L4196 33428
" />
</g>
<g style="fill:#000000; fill-opacity:0.0; 
stroke:#000000; stroke-width:39.3701; stroke-opacity:1; 
stroke-linecap:round; stroke-linejoin:round;">
</g>
<g style="fill:#000000; fill-opacity:0.0; 
stroke:#000000; stroke-width:59.0551; stroke-opacity:1; 
stroke-linecap:round; stroke-linejoin:round;">
<path d="M4489 53332
L4464 53356
L4391 53381
L4342 53381
L4269 53356
L4221 53308
L4196 53259
L4172 53161
L4172 53088
L4196 52991
L4221 52942
L4269 52893
L4342 52869
L4391 52869
L4464 52893
L4489 52918
" />
</g>
<g style="fill:#000000; fill-opacity:0.0; 
stroke:#000000; stroke-width:39.3701; stroke-opacity:1; 
stroke-linecap:round; stroke-linejoin:round;">
</g>
<g style="fill:#000000; fill-opacity:0.0; 
stroke:#000000; stroke-width:59.0551; stroke-opacity:1; 
stroke-linecap:round; stroke-linejoin:round;">
<path d="M4196 73066
L4196 72554
L4318 72554
L4391 72578
L4440 72627
L4464 72676
L4489 72773
L4489 72846
L4464 72944
L4440 72993
L4391 73041
L4318 73066
L4196 73066
" />
</g>
<g style="fill:#000000; fill-opacity:0.0; 
stroke:#000000; stroke-width:39.3701; stroke-opacity:1; 
stroke-linecap:round; stroke-linejoin:round;">
</g>
<g style="fill:#000000; fill-opacity:0.0; 
stroke:#000000; stroke-width:59.0551; stroke-opacity:1; 
stroke-linecap:round; stroke-linejoin:round;">
<path d="M112992 23622
L112205 23622
" />
</g>
<g style="fill:#000000; fill-opacity:0.0; 
stroke:#000000; stroke-width:39.3701; stroke-opacity:1; 
stroke-linecap:round; stroke-linejoin:round;">
</g>
<g style="fill:#000000; fill-opacity:0.0; 
stroke:#000000; stroke-width:59.0551; stroke-opacity:1; 
stroke-linecap:round; stroke-linejoin:round;">
<path d="M112992 43307
L112205 43307
" />
</g>
<g style="fill:#000000; fill-opacity:0.0; 
stroke:#000000; stroke-width:39.3701; stroke-opacity:1; 
stroke-linecap:round; stroke-linejoin:round;">
</g>
<g style="fill:#000000; fill-opacity:0.0; 
stroke:#000000; stroke-width:59.0551; stroke-opacity:1; 
stroke-linecap:round; stroke-linejoin:round;">
<path d="M112992 62992
L112205 62992
" />
</g>
<g style="fill:#000000; fill-opacity:0.0; 
stroke:#000000; stroke-width:39.3701; stroke-opacity:1; 
stroke-linecap:round; stroke-linejoin:round;">
</g>
<g style="fill:#000000; fill-opacity:0.0; 
stroke:#000000; stroke-width:59.0551; stroke-opacity:1; 
stroke-linecap:round; stroke-linejoin:round;">
<path d="M112477 13864
L112721 13864
" />
<path d="M112428 14011
L112599 13499
L112769 14011
" />
</g>
<g style="fill:#000000; fill-opacity:0.0; 
stroke:#000000; stroke-width:39.3701; stroke-opacity:1; 
stroke-linecap:round; stroke-linejoin:round;">
</g>
<g style="fill:#000000; fill-opacity:0.0; 
stroke:#000000; stroke-width:59.0551; stroke-opacity:1; 
stroke-linecap:round; stroke-linejoin:round;">
<path d="M112635 33428
L112708 33452
L112733 33476
L112757 33525
L112757 33598
L112733 33647
L112708 33671
L112660 33696
L112465 33696
L112465 33184
L112635 33184
L112684 33208
L112708 33233
L112733 33281
L112733 33330
L112708 33379
L112684 33403
L112635 33428
L112465 33428
" />
</g>
<g style="fill:#000000; fill-opacity:0.0; 
stroke:#000000; stroke-width:39.3701; stroke-opacity:1; 
stroke-linecap:round; stroke-linejoin:round;">
</g>
<g style="fill:#000000; fill-opacity:0.0; 
stroke:#000000; stroke-width:59.0551; stroke-opacity:1; 
stroke-linecap:round; stroke-linejoin:round;">
<path d="M112757 53332
L112733 53356
L112660 53381
L112611 53381
L112538 53356
L112489 53308
L112465 53259
L112440 53161
L112440 53088
L112465 52991
L112489 52942
L112538 52893
L112611 52869
L112660 52869
L112733 52893
L112757 52918
" />
</g>
<g style="fill:#000000; fill-opacity:0.0; 
stroke:#000000; stroke-width:39.3701; stroke-opacity:1; 
stroke-linecap:round; stroke-linejoin:round;">
</g>
<g style="fill:#000000; fill-opacity:0.0; 
stroke:#000000; stroke-width:59.0551; stroke-opacity:1; 
stroke-linecap:round; stroke-linejoin:round;">
<path d="M112465 73066
L112465 72554
L112587 72554
L112660 72578
L112708 72627
L112733 72676
L112757 72773
L112757 72846
L112733 72944
L112708 72993
L112660 73041
L112587 73066
L112465 73066
" />
</g>
<g style="fill:#000000; fill-opacity:0.0; 
stroke:#000000; stroke-width:39.3701; stroke-opacity:1; 
stroke-linecap:round; stroke-linejoin:round;">
</g>
<g style="fill:#000000; fill-opacity:0.0; 
stroke:#000000; stroke-width:59.0551; stroke-opacity:1; 
stroke-linecap:round; stroke-linejoin:round;">
<path d="M78881 76293
L78881 75703
L79022 75703
L79106 75731
L79162 75787
L79190 75843
L79219 75956
L79219 76040
L79190 76153
L79162 76209
L79106 76265
L79022 76293
L78881 76293
" />
<path d="M79725 76293
L79725 75984
L79697 75928
L79640 75899
L79528 75899
L79472 75928
" />
<path d="M79725 76265
L79669 76293
L79528 76293
L79472 76265
L79444 76209
L79444 76153
L79472 76096
L79528 76068
L79669 76068
L79725 76040
" />
<path d="M79922 75899
L80147 75899
" />
<path d="M80006 75703
L80006 76209
L80034 76265
L80090 76293
L80147 76293
" />
<path d="M80568 76265
L80512 76293
L80400 76293
L80343 76265
L80315 76209
L80315 75984
L80343 75928
L80400 75899
L80512 75899
L80568 75928
L80597 75984
L80597 76040
L80315 76096
" />
<path d="M80850 76237
L80878 76265
L80850 76293
L80822 76265
L80850 76237
L80850 76293
" />
<path d="M80850 75928
L80878 75956
L80850 75984
L80822 75956
L80850 75928
L80850 75984
" />
</g>
<g style="fill:#000000; fill-opacity:0.0; 
stroke:#000000; stroke-width:39.3701; stroke-opacity:1; 
stroke-linecap:round; stroke-linejoin:round;">
</g>
<g style="fill:#000000; fill-opacity:0.0; 
stroke:#000000; stroke-width:59.0551; stroke-opacity:1; 
stroke-linecap:round; stroke-linejoin:round;">
<path d="M69685 76577
L112205 76577
" />
</g>
<g style="fill:#000000; fill-opacity:0.0; 
stroke:#000000; stroke-width:39.3701; stroke-opacity:1; 
stroke-linecap:round; stroke-linejoin:round;">
</g>
<g style="fill:#000000; fill-opacity:0.0; 
stroke:#000000; stroke-width:59.0551; stroke-opacity:1; 
stroke-linecap:round; stroke-linejoin:round;">
<path d="M70220 77395
L70220 76805
" />
<path d="M70557 77395
L70304 77058
" />
<path d="M70557 76805
L70220 77142
" />
<path d="M70810 77395
L70810 77002
" />
<path d="M70810 76805
L70782 76833
L70810 76861
L70838 76833
L70810 76805
L70810 76861
" />
<path d="M71429 77339
L71401 77367
L71316 77395
L71260 77395
L71176 77367
L71120 77311
L71091 77255
L71063 77142
L71063 77058
L71091 76946
L71120 76889
L71176 76833
L71260 76805
L71316 76805
L71401 76833
L71429 76861
" />
<path d="M71935 77395
L71935 77086
L71907 77030
L71851 77002
L71738 77002
L71682 77030
" />
<path d="M71935 77367
L71879 77395
L71738 77395
L71682 77367
L71654 77311
L71654 77255
L71682 77199
L71738 77171
L71879 77171
L71935 77142
" />
<path d="M72469 77395
L72469 76805
" />
<path d="M72469 77367
L72413 77395
L72301 77395
L72244 77367
L72216 77339
L72188 77283
L72188 77114
L72216 77058
L72244 77030
L72301 77002
L72413 77002
L72469 77030
" />
<path d="M73201 77086
L73397 77086
" />
<path d="M73482 77395
L73201 77395
L73201 76805
L73482 76805
" />
<path d="M73735 77339
L73763 77367
L73735 77395
L73707 77367
L73735 77339
L73735 77395
" />
<path d="M74016 77395
L74016 76805
L74157 76805
L74241 76833
L74297 76889
L74325 76946
L74354 77058
L74354 77142
L74325 77255
L74297 77311
L74241 77367
L74157 77395
L74016 77395
" />
<path d="M74607 77339
L74635 77367
L74607 77395
L74579 77367
L74607 77339
L74607 77395
" />
<path d="M74860 77227
L75141 77227
" />
<path d="M74804 77395
L75000 76805
L75197 77395
" />
<path d="M75394 77339
L75422 77367
L75394 77395
L75366 77367
L75394 77339
L75394 77395
" />
<path d="M76575 77395
L76575 76805
" />
<path d="M76631 77171
L76800 77395
" />
<path d="M76800 77002
L76575 77227
" />
<path d="M77053 77395
L77053 77002
" />
<path d="M77053 76805
L77025 76833
L77053 76861
L77081 76833
L77053 76805
L77053 76861
" />
<path d="M77588 77367
L77531 77395
L77419 77395
L77363 77367
L77334 77339
L77306 77283
L77306 77114
L77334 77058
L77363 77030
L77419 77002
L77531 77002
L77588 77030
" />
<path d="M78094 77395
L78094 77086
L78066 77030
L78009 77002
L77897 77002
L77841 77030
" />
<path d="M78094 77367
L78037 77395
L77897 77395
L77841 77367
L77813 77311
L77813 77255
L77841 77199
L77897 77171
L78037 77171
L78094 77142
" />
<path d="M78628 77395
L78628 76805
" />
<path d="M78628 77367
L78572 77395
L78459 77395
L78403 77367
L78375 77339
L78347 77283
L78347 77114
L78375 77058
L78403 77030
L78459 77002
L78572 77002
L78628 77030
" />
<path d="M79612 77002
L79612 77395
" />
<path d="M79472 76777
L79331 77199
L79697 77199
" />
<path d="M79922 77339
L79950 77367
L79922 77395
L79894 77367
L79922 77339
L79922 77395
" />
<path d="M80315 76805
L80372 76805
L80428 76833
L80456 76861
L80484 76917
L80512 77030
L80512 77171
L80484 77283
L80456 77339
L80428 77367
L80372 77395
L80315 77395
L80259 77367
L80231 77339
L80203 77283
L80175 77171
L80175 77030
L80203 76917
L80231 76861
L80259 76833
L80315 76805
" />
<path d="M80765 77339
L80793 77367
L80765 77395
L80737 77367
L80765 77339
L80765 77395
" />
<path d="M81300 76805
L81187 76805
L81131 76833
L81103 76861
L81046 76946
L81018 77058
L81018 77283
L81046 77339
L81075 77367
L81131 77395
L81243 77395
L81300 77367
L81328 77339
L81356 77283
L81356 77142
L81328 77086
L81300 77058
L81243 77030
L81131 77030
L81075 77058
L81046 77086
L81018 77142
" />
</g>
<g style="fill:#000000; fill-opacity:0.0; 
stroke:#000000; stroke-width:39.3701; stroke-opacity:1; 
stroke-linecap:round; stroke-linejoin:round;">
</g>
<g style="fill:#000000; fill-opacity:0.0; 
stroke:#000000; stroke-width:59.0551; stroke-opacity:1; 
stroke-linecap:round; stroke-linejoin:round;">
<path d="M69685 75396
L112205 75396
" />
</g>
<g style="fill:#000000; fill-opacity:0.0; 
stroke:#000000; stroke-width:39.3701; stroke-opacity:1; 
stroke-linecap:round; stroke-linejoin:round;">
</g>
<g style="fill:#000000; fill-opacity:0.0; 
stroke:#000000; stroke-width:118.11; stroke-opacity:1; 
stroke-linecap:round; stroke-linejoin:round;">
<path d="M104022 76293
L103825 76012
" />
<path d="M103684 76293
L103684 75703
L103909 75703
L103965 75731
L103994 75759
L104022 75815
L104022 75899
L103994 75956
L103965 75984
L103909 76012
L103684 76012
" />
<path d="M104500 76265
L104444 76293
L104331 76293
L104275 76265
L104247 76209
L104247 75984
L104275 75928
L104331 75899
L104444 75899
L104500 75928
L104528 75984
L104528 76040
L104247 76096
" />
<path d="M104725 75899
L104865 76293
L105006 75899
" />
<path d="M105231 76237
L105259 76265
L105231 76293
L105203 76265
L105231 76237
L105231 76293
" />
<path d="M105231 75928
L105259 75956
L105231 75984
L105203 75956
L105231 75928
L105231 75984
" />
</g>
<g style="fill:#000000; fill-opacity:0.0; 
stroke:#000000; stroke-width:39.3701; stroke-opacity:1; 
stroke-linecap:round; stroke-linejoin:round;">
</g>
<g style="fill:#000000; fill-opacity:0.0; 
stroke:#000000; stroke-width:59.0551; stroke-opacity:1; 
stroke-linecap:round; stroke-linejoin:round;">
<path d="M70192 76265
L70276 76293
L70417 76293
L70473 76265
L70501 76237
L70529 76181
L70529 76124
L70501 76068
L70473 76040
L70417 76012
L70304 75984
L70248 75956
L70220 75928
L70192 75871
L70192 75815
L70220 75759
L70248 75731
L70304 75703
L70445 75703
L70529 75731
" />
<path d="M70782 76293
L70782 75899
" />
<path d="M70782 75703
L70754 75731
L70782 75759
L70810 75731
L70782 75703
L70782 75759
" />
<path d="M71007 75899
L71316 75899
L71007 76293
L71316 76293
" />
<path d="M71766 76265
L71710 76293
L71598 76293
L71541 76265
L71513 76209
L71513 75984
L71541 75928
L71598 75899
L71710 75899
L71766 75928
L71795 75984
L71795 76040
L71513 76096
" />
<path d="M72048 76237
L72076 76265
L72048 76293
L72019 76265
L72048 76237
L72048 76293
" />
<path d="M72048 75928
L72076 75956
L72048 75984
L72019 75956
L72048 75928
L72048 75984
" />
<path d="M72751 76124
L73032 76124
" />
<path d="M72694 76293
L72891 75703
L73088 76293
" />
<path d="M73538 75899
L73538 76293
" />
<path d="M73397 75674
L73257 76096
L73622 76096
" />
</g>
<g style="fill:#000000; fill-opacity:0.0; 
stroke:#000000; stroke-width:39.3701; stroke-opacity:1; 
stroke-linecap:round; stroke-linejoin:round;">
</g>
<g style="fill:#000000; fill-opacity:0.0; 
stroke:#000000; stroke-width:59.0551; stroke-opacity:1; 
stroke-linecap:round; stroke-linejoin:round;">
<path d="M103684 77395
L103684 76805
" />
<path d="M104219 77395
L104219 76805
" />
<path d="M104219 77367
L104162 77395
L104050 77395
L103994 77367
L103965 77339
L103937 77283
L103937 77114
L103965 77058
L103994 77030
L104050 77002
L104162 77002
L104219 77030
" />
<path d="M104500 77339
L104528 77367
L104500 77395
L104472 77367
L104500 77339
L104500 77395
" />
<path d="M104500 77030
L104528 77058
L104500 77086
L104472 77058
L104500 77030
L104500 77086
" />
<path d="M105540 77395
L105203 77395
" />
<path d="M105372 77395
L105372 76805
L105315 76889
L105259 76946
L105203 76974
" />
<path d="M106215 76777
L105709 77536
" />
<path d="M106721 77395
L106384 77395
" />
<path d="M106553 77395
L106553 76805
L106496 76889
L106440 76946
L106384 76974
" />
</g>
<g style="fill:#000000; fill-opacity:0.0; 
stroke:#000000; stroke-width:39.3701; stroke-opacity:1; 
stroke-linecap:round; stroke-linejoin:round;">
</g>
<g style="fill:#000000; fill-opacity:0.0; 
stroke:#000000; stroke-width:59.0551; stroke-opacity:1; 
stroke-linecap:round; stroke-linejoin:round;">
<path d="M69685 73821
L112205 73821
" />
</g>
<g style="fill:#000000; fill-opacity:0.0; 
stroke:#000000; stroke-width:39.3701; stroke-opacity:1; 
stroke-linecap:round; stroke-linejoin:round;">
</g>
<g style="fill:#000000; fill-opacity:0.0; 
stroke:#000000; stroke-width:157.48; stroke-opacity:1; 
stroke-linecap:round; stroke-linejoin:round;">
<path d="M70257 74099
L70707 74099
" />
<path d="M70384 74886
L70482 74099
" />
<path d="M70871 74886
L70937 74361
" />
<path d="M70970 74099
L70927 74136
L70960 74174
L71002 74136
L70970 74099
L70960 74174
" />
<path d="M71199 74361
L71499 74361
" />
<path d="M71345 74099
L71260 74774
L71288 74849
L71359 74886
L71434 74886
" />
<path d="M71809 74886
L71738 74849
L71710 74774
L71795 74099
" />
<path d="M72413 74849
L72334 74886
L72184 74886
L72113 74849
L72085 74774
L72123 74474
L72169 74399
L72249 74361
L72399 74361
L72469 74399
L72498 74474
L72488 74549
L72104 74624
" />
<path d="M72793 74811
L72826 74849
L72783 74886
L72751 74849
L72793 74811
L72783 74886
" />
<path d="M72844 74399
L72877 74436
L72835 74474
L72802 74436
L72844 74399
L72835 74474
" />
</g>
<g style="fill:#000000; fill-opacity:0.0; 
stroke:#000000; stroke-width:39.3701; stroke-opacity:1; 
stroke-linecap:round; stroke-linejoin:round;">
</g>
<g style="fill:#000000; fill-opacity:0.0; 
stroke:#000000; stroke-width:59.0551; stroke-opacity:1; 
stroke-linecap:round; stroke-linejoin:round;">
<path d="M70417 73070
L70220 73070
" />
<path d="M70220 73380
L70220 72789
L70501 72789
" />
<path d="M70726 73380
L70726 72986
" />
<path d="M70726 72789
L70698 72817
L70726 72845
L70754 72817
L70726 72789
L70726 72845
" />
<path d="M71091 73380
L71035 73352
L71007 73295
L71007 72789
" />
<path d="M71541 73352
L71485 73380
L71373 73380
L71316 73352
L71288 73295
L71288 73070
L71316 73014
L71373 72986
L71485 72986
L71541 73014
L71570 73070
L71570 73127
L71288 73183
" />
<path d="M71823 73323
L71851 73352
L71823 73380
L71795 73352
L71823 73323
L71823 73380
" />
<path d="M71823 73014
L71851 73042
L71823 73070
L71795 73042
L71823 73014
L71823 73070
" />
<path d="M72554 73380
L72554 72789
L72751 73211
L72947 72789
L72947 73380
" />
<path d="M73229 73380
L73229 72986
" />
<path d="M73229 72789
L73201 72817
L73229 72845
L73257 72817
L73229 72789
L73229 72845
" />
<path d="M73763 73380
L73763 72789
" />
<path d="M73763 73352
L73707 73380
L73594 73380
L73538 73352
L73510 73323
L73482 73267
L73482 73099
L73510 73042
L73538 73014
L73594 72986
L73707 72986
L73763 73014
" />
<path d="M73960 72986
L74185 72986
" />
<path d="M74044 72789
L74044 73295
L74072 73352
L74129 73380
L74185 73380
" />
<path d="M74466 73380
L74410 73352
L74382 73323
L74354 73267
L74354 73099
L74382 73042
L74410 73014
L74466 72986
L74550 72986
L74607 73014
L74635 73042
L74663 73099
L74663 73267
L74635 73323
L74607 73352
L74550 73380
L74466 73380
" />
<path d="M74860 72986
L74972 73380
L75085 73099
L75197 73380
L75310 72986
" />
<path d="M75535 72986
L75535 73380
" />
<path d="M75535 73042
L75563 73014
L75619 72986
L75703 72986
L75760 73014
L75788 73070
L75788 73380
" />
<path d="M76069 73380
L76069 72789
L76210 72789
L76294 72817
L76350 72874
L76378 72930
L76406 73042
L76406 73127
L76378 73239
L76350 73295
L76294 73352
L76210 73380
L76069 73380
" />
<path d="M76744 73380
L76688 73352
L76660 73323
L76631 73267
L76631 73099
L76660 73042
L76688 73014
L76744 72986
L76828 72986
L76885 73014
L76913 73042
L76941 73099
L76941 73267
L76913 73323
L76885 73352
L76828 73380
L76744 73380
" />
<path d="M77278 73380
L77222 73352
L77194 73323
L77166 73267
L77166 73099
L77194 73042
L77222 73014
L77278 72986
L77363 72986
L77419 73014
L77447 73042
L77475 73099
L77475 73267
L77447 73323
L77419 73352
L77363 73380
L77278 73380
" />
<path d="M77728 73380
L77728 72986
" />
<path d="M77728 73099
L77756 73042
L77784 73014
L77841 72986
L77897 72986
" />
<path d="M78094 73380
L78094 72789
L78431 73380
L78431 72789
" />
<path d="M78965 72986
L78965 73380
" />
<path d="M78712 72986
L78712 73295
L78741 73352
L78797 73380
L78881 73380
L78937 73352
L78965 73323
" />
<path d="M79247 73380
L79247 72986
" />
<path d="M79247 73042
L79275 73014
L79331 72986
L79415 72986
L79472 73014
L79500 73070
L79500 73380
" />
<path d="M79500 73070
L79528 73014
L79584 72986
L79669 72986
L79725 73014
L79753 73070
L79753 73380
" />
<path d="M80034 73380
L80034 72789
" />
<path d="M80034 73014
L80090 72986
L80203 72986
L80259 73014
L80287 73042
L80315 73099
L80315 73267
L80287 73323
L80259 73352
L80203 73380
L80090 73380
L80034 73352
" />
<path d="M80793 73352
L80737 73380
L80625 73380
L80568 73352
L80540 73295
L80540 73070
L80568 73014
L80625 72986
L80737 72986
L80793 73014
L80822 73070
L80822 73127
L80540 73183
" />
<path d="M81075 73380
L81075 72986
" />
<path d="M81075 73099
L81103 73042
L81131 73014
L81187 72986
L81243 72986
" />
<path d="M81412 73352
L81468 73380
L81581 73380
L81637 73352
L81665 73295
L81665 73267
L81637 73211
L81581 73183
L81496 73183
L81440 73155
L81412 73099
L81412 73070
L81440 73014
L81496 72986
L81581 72986
L81637 73014
" />
<path d="M81918 73155
L82368 73155
" />
<path d="M82931 73380
L82649 73380
L82649 72789
" />
<path d="M83127 73070
L83324 73070
" />
<path d="M83409 73380
L83127 73380
L83127 72789
L83409 72789
" />
<path d="M83662 73380
L83662 72789
L83802 72789
L83887 72817
L83943 72874
L83971 72930
L83999 73042
L83999 73127
L83971 73239
L83943 73295
L83887 73352
L83802 73380
L83662 73380
" />
<path d="M84224 73352
L84309 73380
L84449 73380
L84505 73352
L84534 73323
L84562 73267
L84562 73211
L84534 73155
L84505 73127
L84449 73099
L84337 73070
L84280 73042
L84252 73014
L84224 72958
L84224 72902
L84252 72845
L84280 72817
L84337 72789
L84477 72789
L84562 72817
" />
<path d="M84730 72986
L84955 72986
" />
<path d="M84815 72789
L84815 73295
L84843 73352
L84899 73380
L84955 73380
" />
<path d="M85152 73380
L85152 72986
" />
<path d="M85152 73099
L85180 73042
L85208 73014
L85265 72986
L85321 72986
" />
<path d="M85518 73380
L85518 72986
" />
<path d="M85518 72789
L85490 72817
L85518 72845
L85546 72817
L85518 72789
L85518 72845
" />
<path d="M85799 72986
L85799 73577
" />
<path d="M85799 73014
L85855 72986
L85968 72986
L86024 73014
L86052 73042
L86080 73099
L86080 73267
L86052 73323
L86024 73352
L85968 73380
L85855 73380
L85799 73352
" />
<path d="M86333 73323
L86361 73352
L86333 73380
L86305 73352
L86333 73323
L86333 73380
" />
<path d="M86615 73380
L86615 72789
" />
<path d="M86671 73155
L86840 73380
" />
<path d="M86840 72986
L86615 73211
" />
<path d="M87093 73380
L87093 72986
" />
<path d="M87093 72789
L87064 72817
L87093 72845
L87121 72817
L87093 72789
L87093 72845
" />
<path d="M87627 73352
L87571 73380
L87458 73380
L87402 73352
L87374 73323
L87346 73267
L87346 73099
L87374 73042
L87402 73014
L87458 72986
L87571 72986
L87627 73014
" />
<path d="M88133 73380
L88133 73070
L88105 73014
L88049 72986
L87936 72986
L87880 73014
" />
<path d="M88133 73352
L88077 73380
L87936 73380
L87880 73352
L87852 73295
L87852 73239
L87880 73183
L87936 73155
L88077 73155
L88133 73127
" />
<path d="M88667 73380
L88667 72789
" />
<path d="M88667 73352
L88611 73380
L88499 73380
L88442 73352
L88414 73323
L88386 73267
L88386 73099
L88414 73042
L88442 73014
L88499 72986
L88611 72986
L88667 73014
" />
<path d="M88808 73436
L89258 73436
" />
<path d="M89399 72986
L89399 73577
" />
<path d="M89399 73014
L89455 72986
L89567 72986
L89624 73014
L89652 73042
L89680 73099
L89680 73267
L89652 73323
L89624 73352
L89567 73380
L89455 73380
L89399 73352
" />
<path d="M90186 73352
L90130 73380
L90017 73380
L89961 73352
L89933 73323
L89905 73267
L89905 73099
L89933 73042
L89961 73014
L90017 72986
L90130 72986
L90186 73014
" />
<path d="M90439 73380
L90439 72789
" />
<path d="M90439 73014
L90495 72986
L90608 72986
L90664 73014
L90692 73042
L90720 73099
L90720 73267
L90692 73323
L90664 73352
L90608 73380
L90495 73380
L90439 73352
" />
</g>
<g style="fill:#000000; fill-opacity:0.0; 
stroke:#000000; stroke-width:39.3701; stroke-opacity:1; 
stroke-linecap:round; stroke-linejoin:round;">
</g>
<g style="fill:#000000; fill-opacity:0.0; 
stroke:#000000; stroke-width:59.0551; stroke-opacity:1; 
stroke-linecap:round; stroke-linejoin:round;">
<path d="M69685 71459
L112205 71459
" />
</g>
<g style="fill:#000000; fill-opacity:0.0; 
stroke:#000000; stroke-width:39.3701; stroke-opacity:1; 
stroke-linecap:round; stroke-linejoin:round;">
</g>
<g style="fill:#000000; fill-opacity:0.0; 
stroke:#000000; stroke-width:59.0551; stroke-opacity:1; 
stroke-linecap:round; stroke-linejoin:round;">
<path d="M70192 72289
L70276 72317
L70417 72317
L70473 72289
L70501 72260
L70529 72204
L70529 72148
L70501 72092
L70473 72064
L70417 72036
L70304 72007
L70248 71979
L70220 71951
L70192 71895
L70192 71839
L70220 71782
L70248 71754
L70304 71726
L70445 71726
L70529 71754
" />
<path d="M70782 72317
L70782 71726
" />
<path d="M71035 72317
L71035 72007
L71007 71951
L70951 71923
L70867 71923
L70810 71951
L70782 71979
" />
<path d="M71541 72289
L71485 72317
L71373 72317
L71316 72289
L71288 72232
L71288 72007
L71316 71951
L71373 71923
L71485 71923
L71541 71951
L71570 72007
L71570 72064
L71288 72120
" />
<path d="M72048 72289
L71991 72317
L71879 72317
L71823 72289
L71795 72232
L71795 72007
L71823 71951
L71879 71923
L71991 71923
L72048 71951
L72076 72007
L72076 72064
L71795 72120
" />
<path d="M72244 71923
L72469 71923
" />
<path d="M72329 71726
L72329 72232
L72357 72289
L72413 72317
L72469 72317
" />
<path d="M72666 72260
L72694 72289
L72666 72317
L72638 72289
L72666 72260
L72666 72317
" />
<path d="M72666 71951
L72694 71979
L72666 72007
L72638 71979
L72666 71951
L72666 72007
" />
</g>
<g style="fill:#000000; fill-opacity:0.0; 
stroke:#000000; stroke-width:39.3701; stroke-opacity:1; 
stroke-linecap:round; stroke-linejoin:round;">
</g>
<g style="fill:#000000; fill-opacity:0.0; 
stroke:#000000; stroke-width:59.0551; stroke-opacity:1; 
stroke-linecap:round; stroke-linejoin:round;">
<path d="M77559 75396
L77559 76577
" />
</g>
<g style="fill:#000000; fill-opacity:0.0; 
stroke:#000000; stroke-width:39.3701; stroke-opacity:1; 
stroke-linecap:round; stroke-linejoin:round;">
</g>
<g style="fill:#000000; fill-opacity:0.0; 
stroke:#000000; stroke-width:59.0551; stroke-opacity:1; 
stroke-linecap:round; stroke-linejoin:round;">
<path d="M102756 75396
L102756 77955
" />
</g>
<g style="fill:#C2C200; fill-opacity:0.0; 
stroke:#C2C200; stroke-width:59.0551; stroke-opacity:1; 
stroke-linecap:round; stroke-linejoin:round;">
<path d="M62992 45669
L62992 39370
" />
<path d="M39370 45669
L62992 45669
" />
<path d="M39370 39370
L39370 45669
" />
<path d="M39370 39370
L62992 39370
" />
</g>
<g style="fill:#840000; fill-opacity:0.0; 
stroke:#840000; stroke-width:59.0551; stroke-opacity:1; 
stroke-linecap:round; stroke-linejoin:round;">
</g>
<g style="fill:#840000; fill-opacity:0.0; 
stroke:#840000; stroke-width:0; stroke-opacity:1; 
stroke-linecap:round; stroke-linejoin:round;">
</g>
<g style="fill:#840000; fill-opacity:1.0; 
stroke:#840000; stroke-width:0; stroke-opacity:1; 
stroke-linecap:round; stroke-linejoin:round;">
<polyline style="fill-rule:evenodd;"
points="41500,44535
41500,44338
41814,44338
41814,44535
41500,44535
" /> 
<polyline style="fill-rule:evenodd;"
points="41500,44850
41500,44732
41814,44732
41814,44850
41500,44850
" /> 
<polyline style="fill-rule:evenodd;"
points="41500,45244
41500,45047
41814,45047
41814,45244
41500,45244
" /> 
<polyline style="fill-rule:evenodd;"
points="42169,45244
42169,45047
42484,45047
42484,45244
42169,45244
" /> 
<polyline style="fill-rule:evenodd;"
points="42169,44850
42169,44732
42484,44732
42484,44850
42169,44850
" /> 
<polyline style="fill-rule:evenodd;"
points="42169,44535
42169,44338
42484,44338
42484,44535
42169,44535
" /> 
<polyline style="fill-rule:evenodd;"
points="44125,44535
44125,44338
44440,44338
44440,44535
44125,44535
" /> 
<polyline style="fill-rule:evenodd;"
points="44125,44850
44125,44732
44440,44732
44440,44850
44125,44850
" /> 
<polyline style="fill-rule:evenodd;"
points="44125,45244
44125,45047
44440,45047
44440,45244
44125,45244
" /> 
<polyline style="fill-rule:evenodd;"
points="44795,45244
44795,45047
45110,45047
45110,45244
44795,45244
" /> 
<polyline style="fill-rule:evenodd;"
points="44795,44850
44795,44732
45110,44732
45110,44850
44795,44850
" /> 
<polyline style="fill-rule:evenodd;"
points="44795,44535
44795,44338
45110,44338
45110,44535
44795,44535
" /> 
<polyline style="fill-rule:evenodd;"
points="46751,44535
46751,44338
47066,44338
47066,44535
46751,44535
" /> 
<polyline style="fill-rule:evenodd;"
points="46751,44850
46751,44732
47066,44732
47066,44850
46751,44850
" /> 
<polyline style="fill-rule:evenodd;"
points="46751,45244
46751,45047
47066,45047
47066,45244
46751,45244
" /> 
<polyline style="fill-rule:evenodd;"
points="47421,45244
47421,45047
47736,45047
47736,45244
47421,45244
" /> 
<polyline style="fill-rule:evenodd;"
points="47421,44850
47421,44732
47736,44732
47736,44850
47421,44850
" /> 
<polyline style="fill-rule:evenodd;"
points="47421,44535
47421,44338
47736,44338
47736,44535
47421,44535
" /> 
<polyline style="fill-rule:evenodd;"
points="49374,44535
49374,44338
49688,44338
49688,44535
49374,44535
" /> 
<polyline style="fill-rule:evenodd;"
points="49374,44850
49374,44732
49688,44732
49688,44850
49374,44850
" /> 
<polyline style="fill-rule:evenodd;"
points="49374,45244
49374,45047
49688,45047
49688,45244
49374,45244
" /> 
<polyline style="fill-rule:evenodd;"
points="50043,45244
50043,45047
50358,45047
50358,45244
50043,45244
" /> 
<polyline style="fill-rule:evenodd;"
points="50043,44850
50043,44732
50358,44732
50358,44850
50043,44850
" /> 
<polyline style="fill-rule:evenodd;"
points="50043,44535
50043,44338
50358,44338
50358,44535
50043,44535
" /> 
<polyline style="fill-rule:evenodd;"
points="52000,44535
52000,44338
52314,44338
52314,44535
52000,44535
" /> 
<polyline style="fill-rule:evenodd;"
points="52000,44850
52000,44732
52314,44732
52314,44850
52000,44850
" /> 
<polyline style="fill-rule:evenodd;"
points="52000,45244
52000,45047
52314,45047
52314,45244
52000,45244
" /> 
<polyline style="fill-rule:evenodd;"
points="52669,45244
52669,45047
52984,45047
52984,45244
52669,45244
" /> 
<polyline style="fill-rule:evenodd;"
points="52669,44850
52669,44732
52984,44732
52984,44850
52669,44850
" /> 
<polyline style="fill-rule:evenodd;"
points="52669,44535
52669,44338
52984,44338
52984,44535
52669,44535
" /> 
<polyline style="fill-rule:evenodd;"
points="54625,44535
54625,44338
54940,44338
54940,44535
54625,44535
" /> 
<polyline style="fill-rule:evenodd;"
points="54625,44850
54625,44732
54940,44732
54940,44850
54625,44850
" /> 
<polyline style="fill-rule:evenodd;"
points="54625,45244
54625,45047
54940,45047
54940,45244
54625,45244
" /> 
<polyline style="fill-rule:evenodd;"
points="55295,45244
55295,45047
55610,45047
55610,45244
55295,45244
" /> 
<polyline style="fill-rule:evenodd;"
points="55295,44850
55295,44732
55610,44732
55610,44850
55295,44850
" /> 
<polyline style="fill-rule:evenodd;"
points="55295,44535
55295,44338
55610,44338
55610,44535
55295,44535
" /> 
<polyline style="fill-rule:evenodd;"
points="57248,44535
57248,44338
57562,44338
57562,44535
57248,44535
" /> 
<polyline style="fill-rule:evenodd;"
points="57248,44850
57248,44732
57562,44732
57562,44850
57248,44850
" /> 
<polyline style="fill-rule:evenodd;"
points="57248,45244
57248,45047
57562,45047
57562,45244
57248,45244
" /> 
<polyline style="fill-rule:evenodd;"
points="57917,45244
57917,45047
58232,45047
58232,45244
57917,45244
" /> 
<polyline style="fill-rule:evenodd;"
points="57917,44850
57917,44732
58232,44732
58232,44850
57917,44850
" /> 
<polyline style="fill-rule:evenodd;"
points="57917,44535
57917,44338
58232,44338
58232,44535
57917,44535
" /> 
<polyline style="fill-rule:evenodd;"
points="59874,44535
59874,44338
60188,44338
60188,44535
59874,44535
" /> 
<polyline style="fill-rule:evenodd;"
points="59874,44850
59874,44732
60188,44732
60188,44850
59874,44850
" /> 
<polyline style="fill-rule:evenodd;"
points="59874,45244
59874,45047
60188,45047
60188,45244
59874,45244
" /> 
<polyline style="fill-rule:evenodd;"
points="60543,45244
60543,45047
60858,45047
60858,45244
60543,45244
" /> 
<polyline style="fill-rule:evenodd;"
points="60543,44850
60543,44732
60858,44732
60858,44850
60543,44850
" /> 
<polyline style="fill-rule:evenodd;"
points="60543,44535
60543,44338
60858,44338
60858,44535
60543,44535
" /> 
<polyline style="fill-rule:evenodd;"
points="43641,41377
42972,41377
42972,40708
43641,40708
43641,41377
" /> 
</g>
<g style="fill:#840000; fill-opacity:1.0; 
stroke:#840000; stroke-width:669.291; stroke-opacity:1; 
stroke-linecap:round; stroke-linejoin:round;">
</g>
<g style="fill:#840000; fill-opacity:0.0; 
stroke:#840000; stroke-width:669.291; stroke-opacity:1; 
stroke-linecap:round; stroke-linejoin:round;">
<path d="M42307 41043
L42307 41043
" />
<path d="M41307 41043
L41307 41043
" />
<path d="M40307 41043
L40307 41043
" />
</g>
<g style="fill:#840000; fill-opacity:0.0; 
stroke:#840000; stroke-width:0; stroke-opacity:1; 
stroke-linecap:round; stroke-linejoin:round;">
</g>
<g style="fill:#840000; fill-opacity:1.0; 
stroke:#840000; stroke-width:0; stroke-opacity:1; 
stroke-linecap:round; stroke-linejoin:round;">
<polyline style="fill-rule:evenodd;"
points="59244,41377
58574,41377
58574,40708
59244,40708
59244,41377
" /> 
</g>
<g style="fill:#840000; fill-opacity:1.0; 
stroke:#840000; stroke-width:669.291; stroke-opacity:1; 
stroke-linecap:round; stroke-linejoin:round;">
</g>
<g style="fill:#840000; fill-opacity:0.0; 
stroke:#840000; stroke-width:669.291; stroke-opacity:1; 
stroke-linecap:round; stroke-linejoin:round;">
<path d="M59909 41043
L59909 41043
" />
<path d="M60909 41043
L60909 41043
" />
<path d="M61909 41043
L61909 41043
" />
</g>
<g style="fill:#840000; fill-opacity:0.0; 
stroke:#840000; stroke-width:0; stroke-opacity:1; 
stroke-linecap:round; stroke-linejoin:round;">
</g>
<g style="fill:#840000; fill-opacity:1.0; 
stroke:#840000; stroke-width:0; stroke-opacity:1; 
stroke-linecap:round; stroke-linejoin:round;">
<polyline style="fill-rule:evenodd;"
points="49429,41062
48917,41062
48917,40787
49429,40787
49429,41062
" /> 
<polyline style="fill-rule:evenodd;"
points="49429,40314
48917,40314
48917,40039
49429,40039
49429,40314
" /> 
<polyline style="fill-rule:evenodd;"
points="50767,41062
50255,41062
50255,40787
50767,40787
50767,41062
" /> 
<polyline style="fill-rule:evenodd;"
points="50767,40314
50255,40314
50255,40039
50767,40039
50767,40314
" /> 
<polyline style="fill-rule:evenodd;"
points="52106,41062
51594,41062
51594,40787
52106,40787
52106,41062
" /> 
<polyline style="fill-rule:evenodd;"
points="52106,40314
51594,40314
51594,40039
52106,40039
52106,40314
" /> 
<polyline style="fill-rule:evenodd;"
points="53444,41062
52933,41062
52933,40787
53444,40787
53444,41062
" /> 
<polyline style="fill-rule:evenodd;"
points="53444,40314
52933,40314
52933,40039
53444,40039
53444,40314
" /> 
<polyline style="fill-rule:evenodd;"
points="48917,41614
49429,41614
49429,41889
48917,41889
48917,41614
" /> 
<polyline style="fill-rule:evenodd;"
points="48917,42362
49429,42362
49429,42637
48917,42637
48917,42362
" /> 
<polyline style="fill-rule:evenodd;"
points="50255,41614
50767,41614
50767,41889
50255,41889
50255,41614
" /> 
<polyline style="fill-rule:evenodd;"
points="50255,42362
50767,42362
50767,42637
50255,42637
50255,42362
" /> 
<polyline style="fill-rule:evenodd;"
points="52106,42637
51594,42637
51594,42362
52106,42362
52106,42637
" /> 
<polyline style="fill-rule:evenodd;"
points="52106,41889
51594,41889
51594,41614
52106,41614
52106,41889
" /> 
<polyline style="fill-rule:evenodd;"
points="52933,41614
53444,41614
53444,41889
52933,41889
52933,41614
" /> 
<polyline style="fill-rule:evenodd;"
points="52933,42362
53444,42362
53444,42637
52933,42637
52933,42362
" /> 
</g>
<g style="fill:#C2C2C2; fill-opacity:1.0; 
stroke:#C2C2C2; stroke-width:0; stroke-opacity:1; 
stroke-linecap:round; stroke-linejoin:round;">
<circle cx="47249.6" cy="44230.9" r="135" /> 
</g>
<g style="fill:#C2C2C2; fill-opacity:1.0; 
stroke:#C2C2C2; stroke-width:39.3701; stroke-opacity:1; 
stroke-linecap:round; stroke-linejoin:round;">
</g>
<g style="fill:#C2C2C2; fill-opacity:1.0; 
stroke:#C2C2C2; stroke-width:0; stroke-opacity:1; 
stroke-linecap:round; stroke-linejoin:round;">
<circle cx="42882.6" cy="45104.3" r="135" /> 
</g>
<g style="fill:#C2C2C2; fill-opacity:1.0; 
stroke:#C2C2C2; stroke-width:39.3701; stroke-opacity:1; 
stroke-linecap:round; stroke-linejoin:round;">
</g>
<g style="fill:#C2C2C2; fill-opacity:1.0; 
stroke:#C2C2C2; stroke-width:0; stroke-opacity:1; 
stroke-linecap:round; stroke-linejoin:round;">
<circle cx="45470.4" cy="45107.2" r="135" /> 
</g>
<g style="fill:#C2C2C2; fill-opacity:1.0; 
stroke:#C2C2C2; stroke-width:39.3701; stroke-opacity:1; 
stroke-linecap:round; stroke-linejoin:round;">
</g>
<g style="fill:#C2C2C2; fill-opacity:1.0; 
stroke:#C2C2C2; stroke-width:0; stroke-opacity:1; 
stroke-linecap:round; stroke-linejoin:round;">
<circle cx="52302.2" cy="42449" r="135" /> 
</g>
<g style="fill:#C2C2C2; fill-opacity:1.0; 
stroke:#C2C2C2; stroke-width:39.3701; stroke-opacity:1; 
stroke-linecap:round; stroke-linejoin:round;">
</g>
<g style="fill:#C2C2C2; fill-opacity:1.0; 
stroke:#C2C2C2; stroke-width:0; stroke-opacity:1; 
stroke-linecap:round; stroke-linejoin:round;">
<circle cx="49629.1" cy="41752" r="135" /> 
</g>
<g style="fill:#C2C2C2; fill-opacity:1.0; 
stroke:#C2C2C2; stroke-width:39.3701; stroke-opacity:1; 
stroke-linecap:round; stroke-linejoin:round;">
</g>
<g style="fill:#840000; fill-opacity:1.0; 
stroke:#840000; stroke-width:39.3701; stroke-opacity:1; 
stroke-linecap:round; stroke-linejoin:round;">
</g>
<g style="fill:#840000; fill-opacity:1.0; 
stroke:#840000; stroke-width:200; stroke-opacity:1; 
stroke-linecap:round; stroke-linejoin:round;">
</g>
<g style="fill:#840000; fill-opacity:0.0; 
stroke:#840000; stroke-width:200; stroke-opacity:1; 
stroke-linecap:round; stroke-linejoin:round;">
<path d="M49173 42500
L49173 42346
" />
<path d="M49173 40925
L49173 41262
" />
<path d="M49004 41262
L49173 41262
" />
<path d="M48737 41529
L49004 41262
" />
<path d="M48737 42346
L48737 41529
" />
<path d="M49173 42346
L48737 42346
" />
<path d="M41657 44228
L41657 44437
" />
<path d="M43539 42346
L41657 44228
" />
<path d="M48737 42346
L43539 42346
" />
<path d="M50511 42500
L50055 42500
" />
<path d="M50511 40925
L50511 41262
" />
<path d="M50055 41550
L50055 42500
" />
<path d="M50342 41262
L50055 41550
" />
<path d="M50511 41262
L50342 41262
" />
<path d="M41994 44259
L41994 44565
" />
<path d="M43456 42797
L41994 44259
" />
<path d="M49757 42797
L43456 42797
" />
<path d="M50055 42500
L49757 42797
" />
</g>
<g style="fill:#840000; fill-opacity:0.0; 
stroke:#840000; stroke-width:118.031; stroke-opacity:1; 
stroke-linecap:round; stroke-linejoin:round;">
<path d="M41942 44617
L41942 44697
" />
<path d="M41994 44565
L41942 44617
" />
</g>
<g style="fill:#840000; fill-opacity:0.0; 
stroke:#840000; stroke-width:200; stroke-opacity:1; 
stroke-linecap:round; stroke-linejoin:round;">
<path d="M41751 44697
L41657 44791
" />
<path d="M41942 44697
L41751 44697
" />
<path d="M57405 45145
L57048 45145
" />
<path d="M54783 45145
L54425 45145
" />
<path d="M60031 45145
L59674 45145
" />
<path d="M57048 45405
L57048 45145
" />
<path d="M55043 45405
L57048 45405
" />
<path d="M54783 45145
L55043 45405
" />
<path d="M59413 45405
L59674 45145
" />
<path d="M57048 45405
L59413 45405
" />
<path d="M52157 45145
L51800 45145
" />
<path d="M52417 45405
L52157 45145
" />
<path d="M54165 45405
L52417 45405
" />
<path d="M54425 45145
L54165 45405
" />
<path d="M49531 45145
L49174 45145
" />
<path d="M49804 45418
L49531 45145
" />
<path d="M51527 45418
L49804 45418
" />
<path d="M51800 45145
L51527 45418
" />
<path d="M51850 40925
L51850 41751
" />
<path d="M51850 41751
L51850 42089
" />
<path d="M44722 45423
L44415 45116
" />
<path d="M46274 45423
L44722 45423
" />
<path d="M46551 45145
L46274 45423
" />
<path d="M46909 45145
L46551 45145
" />
<path d="M48913 45406
L49174 45145
" />
<path d="M47170 45406
L48913 45406
" />
<path d="M46909 45145
L47170 45406
" />
<path d="M51549 42089
L51850 42089
" />
<path d="M50158 43480
L51549 42089
" />
<path d="M46953 43480
L50158 43480
" />
<path d="M46693 43740
L46953 43480
" />
<path d="M45164 43740
L46693 43740
" />
<path d="M44622 44282
L45164 43740
" />
<path d="M44622 44908
L44622 44282
" />
<path d="M44415 45116
L44622 44908
" />
<path d="M44385 45145
L44283 45145
" />
<path d="M44415 45116
L44385 45145
" />
<path d="M41929 45417
L41657 45145
" />
<path d="M43654 45417
L41929 45417
" />
<path d="M43925 45145
L43654 45417
" />
<path d="M44283 45145
L43925 45145
" />
<path d="M53188 42620
L53188 42837
" />
<path d="M53188 42620
L53188 42500
" />
<path d="M53020 41262
L53188 41262
" />
<path d="M52772 41510
L53020 41262
" />
<path d="M52772 41957
L52772 41510
" />
<path d="M52977 42162
L52772 41957
" />
<path d="M53188 42162
L52977 42162
" />
<path d="M53188 42500
L53188 42162
" />
<path d="M53188 40925
L53188 41262
" />
<path d="M57852 44176
L57740 44289
" />
<path d="M60275 44176
L57852 44176
" />
<path d="M60366 44267
L60275 44176
" />
<path d="M60366 44899
L60366 44267
" />
<path d="M60612 45145
L60366 44899
" />
<path d="M60700 45145
L60612 45145
" />
<path d="M57981 45145
L58074 45145
" />
<path d="M57740 44903
L57981 45145
" />
<path d="M57740 44289
L57740 44903
" />
<path d="M55192 44176
L55135 44234
" />
<path d="M57627 44176
L55192 44176
" />
<path d="M57740 44289
L57627 44176
" />
<path d="M55359 45145
L55452 45145
" />
<path d="M55135 44920
L55359 45145
" />
<path d="M55135 44234
L55135 44920
" />
<path d="M53188 44157
L53188 42837
" />
<path d="M55058 44157
L53188 44157
" />
<path d="M55135 44234
L55058 44157
" />
<path d="M52624 44157
L52509 44272
" />
<path d="M53188 44157
L52624 44157
" />
<path d="M52509 44920
L52509 44272
" />
<path d="M52733 45145
L52509 44920
" />
<path d="M52826 45145
L52733 45145
" />
<path d="M49951 44176
L49866 44262
" />
<path d="M52413 44176
L49951 44176
" />
<path d="M52509 44272
L52413 44176
" />
<path d="M50107 45145
L50200 45145
" />
<path d="M49866 44903
L50107 45145
" />
<path d="M49866 44262
L49866 44903
" />
<path d="M47349 44176
L47272 44253
" />
<path d="M49779 44176
L47349 44176
" />
<path d="M49866 44262
L49779 44176
" />
<path d="M47485 45145
L47578 45145
" />
<path d="M47244 44903
L47485 45145
" />
<path d="M47244 44281
L47244 44903
" />
<path d="M47272 44253
L47244 44281
" />
<path d="M47272 44253
L47249 44230
" />
<path d="M42725 45104
L42684 45145
" />
<path d="M42882 45104
L42725 45104
" />
<path d="M42326 45145
L42684 45145
" />
<path d="M44952 45145
L45310 45145
" />
<path d="M45348 45107
L45310 45145
" />
<path d="M45470 45107
L45348 45107
" />
<path d="M43925 44791
L42684 44791
" />
<path d="M44283 44791
L43925 44791
" />
<path d="M42326 44791
L42684 44791
" />
<path d="M44283 44437
L42326 44437
" />
<path d="M46909 44791
L44952 44791
" />
<path d="M46909 44437
L44952 44437
" />
<path d="M49531 44791
L47578 44791
" />
<path d="M49531 44437
L47578 44437
" />
<path d="M52157 44791
L50200 44791
" />
<path d="M52157 44437
L50200 44437
" />
<path d="M54783 44791
L52826 44791
" />
<path d="M54783 44437
L52826 44437
" />
<path d="M57405 44791
L55452 44791
" />
<path d="M57405 44437
L55452 44437
" />
<path d="M60031 44791
L58074 44791
" />
<path d="M60031 44437
L58074 44437
" />
<path d="M53188 40177
L53188 39839
" />
<path d="M42541 41808
L43307 41043
" />
<path d="M40002 41808
L42541 41808
" />
<path d="M39549 41355
L40002 41808
" />
<path d="M39549 40729
L39549 41355
" />
<path d="M40699 39579
L39549 40729
" />
<path d="M52928 39579
L40699 39579
" />
<path d="M53188 39839
L52928 39579
" />
<path d="M42857 40492
L42307 41043
" />
<path d="M51078 40492
L42857 40492
" />
<path d="M51394 40177
L51078 40492
" />
<path d="M51850 40177
L51394 40177
" />
<path d="M40801 41548
L41307 41043
" />
<path d="M40110 41548
L40801 41548
" />
<path d="M39809 41247
L40110 41548
" />
<path d="M39809 40837
L39809 41247
" />
<path d="M40781 39865
L39809 40837
" />
<path d="M49744 39865
L40781 39865
" />
<path d="M50055 40177
L49744 39865
" />
<path d="M50511 40177
L50055 40177
" />
<path d="M41173 40177
L40307 41043
" />
<path d="M49173 40177
L41173 40177
" />
<path d="M57666 41751
L58374 41043
" />
<path d="M53188 41751
L57666 41751
" />
<path d="M58909 41043
L58374 41043
" />
<path d="M52251 42500
L52302 42449
" />
<path d="M51850 42500
L52251 42500
" />
<path d="M60414 40548
L60909 41043
" />
<path d="M51606 40548
L60414 40548
" />
<path d="M50511 41642
L51606 40548
" />
<path d="M50511 41751
L50511 41642
" />
<path d="M49173 41751
L49629 41751
" />
</g>
<g style="fill:#840000; fill-opacity:1.0; 
stroke:#840000; stroke-width:100; stroke-opacity:1; 
stroke-linecap:round; stroke-linejoin:round;">
<polyline style="fill-rule:evenodd;"
points="62712,45389
61061,45389
61093,45343
61113,45244
61113,45047
61095,44954
61092,44950
61093,44949
61113,44850
61113,44732
61095,44639
61092,44635
61093,44634
61113,44535
61113,44338
61095,44245
61040,44160
60957,44103
60858,44083
60656,44083
60613,44019
60523,43929
60490,43907
60409,43853
60275,43826
57852,43826
57740,43849
57627,43826
55192,43826
55174,43830
55058,43807
53538,43807
53538,42874
53622,42820
53679,42736
53699,42637
53699,42362
53682,42269
53627,42184
53544,42127
53538,42126
53576,42101
57666,42101
57800,42075
57913,41999
58378,41534
58392,41555
58475,41612
58574,41632
59244,41632
59336,41615
59421,41560
59478,41477
59487,41434
59607,41543
59768,41610
59859,41563
59859,41093
59851,41093
59851,40993
59859,40993
59859,40985
59959,40985
59959,40993
59967,40993
59967,41093
59959,41093
59959,41563
60049,41610
60211,41543
60379,41390
60406,41334
60496,41468
60685,41594
60909,41639
61133,41594
61322,41468
61409,41338
61496,41468
61685,41594
61909,41639
62133,41594
62322,41468
62449,41278
62494,41054
62494,41031
62449,40808
62322,40618
62133,40491
61909,40447
61685,40491
61496,40618
61409,40748
61322,40618
61133,40491
60909,40447
60825,40463
60662,40301
60548,40225
60414,40198
53699,40198
53699,40039
53682,39946
53627,39861
53544,39804
53531,39802
53512,39705
53475,39649
62712,39649
62712,45389
" /> 
<polyline style="fill-rule:evenodd;"
points="52678,41062
52685,41102
52525,41262
52449,41376
52422,41510
52422,41957
52449,42091
52506,42176
52525,42204
52678,42358
52678,42362
52678,42637
52695,42730
52750,42815
52833,42872
52838,42873
52838,43807
52624,43807
52490,43834
52480,43840
52413,43826
50177,43826
50292,43803
50406,43728
51374,42759
51382,42779
51452,42849
51544,42887
51737,42887
51800,42825
51800,42550
51900,42550
51900,42825
51962,42887
52156,42887
52247,42849
52318,42779
52356,42687
52356,42612
52293,42550
51900,42550
51800,42550
51792,42550
51792,42450
51800,42450
51800,42442
51900,42442
51900,42450
52293,42450
52356,42387
52356,42312
52318,42220
52247,42150
52194,42128
52198,42127
52284,42072
52341,41988
52361,41889
52361,41614
52343,41521
52289,41436
52205,41379
52200,41378
52200,41299
52284,41245
52341,41162
52361,41062
52361,40898
52678,40898
52678,41062
" /> 
</g>
<g style="fill:#FFFFFF; fill-opacity:1.0; 
stroke:#FFFFFF; stroke-width:100; stroke-opacity:1; 
stroke-linecap:round; stroke-linejoin:round;">
</g>
<g style="fill:#FFFFFF; fill-opacity:1.0; 
stroke:#FFFFFF; stroke-width:0; stroke-opacity:1; 
stroke-linecap:round; stroke-linejoin:round;">
<circle cx="47249.6" cy="44230.9" r="65" /> 
</g>
<g style="fill:#FFFFFF; fill-opacity:1.0; 
stroke:#FFFFFF; stroke-width:39.3701; stroke-opacity:1; 
stroke-linecap:round; stroke-linejoin:round;">
</g>
<g style="fill:#FFFFFF; fill-opacity:1.0; 
stroke:#FFFFFF; stroke-width:0; stroke-opacity:1; 
stroke-linecap:round; stroke-linejoin:round;">
<circle cx="42882.6" cy="45104.3" r="65" /> 
</g>
<g style="fill:#FFFFFF; fill-opacity:1.0; 
stroke:#FFFFFF; stroke-width:39.3701; stroke-opacity:1; 
stroke-linecap:round; stroke-linejoin:round;">
</g>
<g style="fill:#FFFFFF; fill-opacity:1.0; 
stroke:#FFFFFF; stroke-width:0; stroke-opacity:1; 
stroke-linecap:round; stroke-linejoin:round;">
<circle cx="45470.4" cy="45107.2" r="65" /> 
</g>
<g style="fill:#FFFFFF; fill-opacity:1.0; 
stroke:#FFFFFF; stroke-width:39.3701; stroke-opacity:1; 
stroke-linecap:round; stroke-linejoin:round;">
</g>
<g style="fill:#FFFFFF; fill-opacity:1.0; 
stroke:#FFFFFF; stroke-width:0; stroke-opacity:1; 
stroke-linecap:round; stroke-linejoin:round;">
<circle cx="52302.2" cy="42449" r="65" /> 
</g>
<g style="fill:#FFFFFF; fill-opacity:1.0; 
stroke:#FFFFFF; stroke-width:39.3701; stroke-opacity:1; 
stroke-linecap:round; stroke-linejoin:round;">
</g>
<g style="fill:#FFFFFF; fill-opacity:1.0; 
stroke:#FFFFFF; stroke-width:0; stroke-opacity:1; 
stroke-linecap:round; stroke-linejoin:round;">
<circle cx="49629.1" cy="41752" r="65" /> 
</g>
<g style="fill:#FFFFFF; fill-opacity:1.0; 
stroke:#FFFFFF; stroke-width:39.3701; stroke-opacity:1; 
stroke-linecap:round; stroke-linejoin:round;">
</g>
<g style="fill:#FFFFFF; fill-opacity:1.0; 
stroke:#FFFFFF; stroke-width:0; stroke-opacity:1; 
stroke-linecap:round; stroke-linejoin:round;">
<circle cx="43307.1" cy="41043.3" r="196.85" /> 
</g>
<g style="fill:#FFFFFF; fill-opacity:1.0; 
stroke:#FFFFFF; stroke-width:39.3701; stroke-opacity:1; 
stroke-linecap:round; stroke-linejoin:round;">
</g>
<g style="fill:#FFFFFF; fill-opacity:1.0; 
stroke:#FFFFFF; stroke-width:0; stroke-opacity:1; 
stroke-linecap:round; stroke-linejoin:round;">
<circle cx="42307.1" cy="41043.3" r="196.85" /> 
</g>
<g style="fill:#FFFFFF; fill-opacity:1.0; 
stroke:#FFFFFF; stroke-width:39.3701; stroke-opacity:1; 
stroke-linecap:round; stroke-linejoin:round;">
</g>
<g style="fill:#FFFFFF; fill-opacity:1.0; 
stroke:#FFFFFF; stroke-width:0; stroke-opacity:1; 
stroke-linecap:round; stroke-linejoin:round;">
<circle cx="41307.1" cy="41043.3" r="196.85" /> 
</g>
<g style="fill:#FFFFFF; fill-opacity:1.0; 
stroke:#FFFFFF; stroke-width:39.3701; stroke-opacity:1; 
stroke-linecap:round; stroke-linejoin:round;">
</g>
<g style="fill:#FFFFFF; fill-opacity:1.0; 
stroke:#FFFFFF; stroke-width:0; stroke-opacity:1; 
stroke-linecap:round; stroke-linejoin:round;">
<circle cx="40307.1" cy="41043.3" r="196.85" /> 
</g>
<g style="fill:#FFFFFF; fill-opacity:1.0; 
stroke:#FFFFFF; stroke-width:39.3701; stroke-opacity:1; 
stroke-linecap:round; stroke-linejoin:round;">
</g>
<g style="fill:#FFFFFF; fill-opacity:1.0; 
stroke:#FFFFFF; stroke-width:0; stroke-opacity:1; 
stroke-linecap:round; stroke-linejoin:round;">
<circle cx="58909.4" cy="41043.3" r="196.85" /> 
</g>
<g style="fill:#FFFFFF; fill-opacity:1.0; 
stroke:#FFFFFF; stroke-width:39.3701; stroke-opacity:1; 
stroke-linecap:round; stroke-linejoin:round;">
</g>
<g style="fill:#FFFFFF; fill-opacity:1.0; 
stroke:#FFFFFF; stroke-width:0; stroke-opacity:1; 
stroke-linecap:round; stroke-linejoin:round;">
<circle cx="59909.4" cy="41043.3" r="196.85" /> 
</g>
<g style="fill:#FFFFFF; fill-opacity:1.0; 
stroke:#FFFFFF; stroke-width:39.3701; stroke-opacity:1; 
stroke-linecap:round; stroke-linejoin:round;">
</g>
<g style="fill:#FFFFFF; fill-opacity:1.0; 
stroke:#FFFFFF; stroke-width:0; stroke-opacity:1; 
stroke-linecap:round; stroke-linejoin:round;">
<circle cx="60909.4" cy="41043.3" r="196.85" /> 
</g>
<g style="fill:#FFFFFF; fill-opacity:1.0; 
stroke:#FFFFFF; stroke-width:39.3701; stroke-opacity:1; 
stroke-linecap:round; stroke-linejoin:round;">
</g>
<g style="fill:#FFFFFF; fill-opacity:1.0; 
stroke:#FFFFFF; stroke-width:0; stroke-opacity:1; 
stroke-linecap:round; stroke-linejoin:round;">
<circle cx="61909.4" cy="41043.3" r="196.85" /> 
</g>
<g style="fill:#FFFFFF; fill-opacity:1.0; 
stroke:#FFFFFF; stroke-width:39.3701; stroke-opacity:1; 
stroke-linecap:round; stroke-linejoin:round;">
</g>
<g style="fill:#000000; fill-opacity:1.0; 
stroke:#000000; stroke-width:39.3701; stroke-opacity:1; 
stroke-linecap:round; stroke-linejoin:round;">
</g> 
</svg>
