G04 #@! TF.FileFunction,Legend,Top*
%FSLAX46Y46*%
G04 Gerber Fmt 4.6, Leading zero omitted, Abs format (unit mm)*
G04 Created by KiCad (PCBNEW 4.0.6) date Thu Jun 20 17:11:49 2019*
%MOMM*%
%LPD*%
G01*
G04 APERTURE LIST*
%ADD10C,0.100000*%
%ADD11C,0.300000*%
%ADD12C,0.350000*%
%ADD13C,0.150000*%
%ADD14C,0.120000*%
%ADD15C,0.074930*%
G04 APERTURE END LIST*
D10*
D11*
X138191429Y-106208571D02*
X138191429Y-107280000D01*
X138120001Y-107494286D01*
X137977144Y-107637143D01*
X137762858Y-107708571D01*
X137620001Y-107708571D01*
X138834286Y-106351429D02*
X138905715Y-106280000D01*
X139048572Y-106208571D01*
X139405715Y-106208571D01*
X139548572Y-106280000D01*
X139620001Y-106351429D01*
X139691429Y-106494286D01*
X139691429Y-106637143D01*
X139620001Y-106851429D01*
X138762858Y-107708571D01*
X139691429Y-107708571D01*
X139977143Y-107851429D02*
X141120000Y-107851429D01*
X141477143Y-106922857D02*
X141977143Y-106922857D01*
X142191429Y-107708571D02*
X141477143Y-107708571D01*
X141477143Y-106208571D01*
X142191429Y-106208571D01*
X142834286Y-107708571D02*
X142834286Y-106208571D01*
X143691429Y-107708571D01*
X143691429Y-106208571D01*
X144334286Y-107280000D02*
X145048572Y-107280000D01*
X144191429Y-107708571D02*
X144691429Y-106208571D01*
X145191429Y-107708571D01*
X138081429Y-102198571D02*
X138081429Y-103270000D01*
X138010001Y-103484286D01*
X137867144Y-103627143D01*
X137652858Y-103698571D01*
X137510001Y-103698571D01*
X139581429Y-103698571D02*
X138724286Y-103698571D01*
X139152858Y-103698571D02*
X139152858Y-102198571D01*
X139010001Y-102412857D01*
X138867143Y-102555714D01*
X138724286Y-102627143D01*
X139867143Y-103841429D02*
X141010000Y-103841429D01*
X141367143Y-102912857D02*
X141867143Y-102912857D01*
X142081429Y-103698571D02*
X141367143Y-103698571D01*
X141367143Y-102198571D01*
X142081429Y-102198571D01*
X142724286Y-103698571D02*
X142724286Y-102198571D01*
X143581429Y-103698571D01*
X143581429Y-102198571D01*
X144224286Y-103270000D02*
X144938572Y-103270000D01*
X144081429Y-103698571D02*
X144581429Y-102198571D01*
X145081429Y-103698571D01*
D12*
X107560000Y-113370000D02*
X106860000Y-113370000D01*
X106860000Y-113370000D02*
X106860000Y-112870000D01*
D13*
X105660000Y-112770000D02*
X107660000Y-112770000D01*
X107660000Y-112770000D02*
X107660000Y-114770000D01*
X107660000Y-114770000D02*
X105660000Y-114770000D01*
X105660000Y-114770000D02*
X105660000Y-112770000D01*
D12*
X114230000Y-113370000D02*
X113530000Y-113370000D01*
X113530000Y-113370000D02*
X113530000Y-112870000D01*
D13*
X112330000Y-112770000D02*
X114330000Y-112770000D01*
X114330000Y-112770000D02*
X114330000Y-114770000D01*
X114330000Y-114770000D02*
X112330000Y-114770000D01*
X112330000Y-114770000D02*
X112330000Y-112770000D01*
D12*
X120900000Y-113370000D02*
X120200000Y-113370000D01*
X120200000Y-113370000D02*
X120200000Y-112870000D01*
D13*
X119000000Y-112770000D02*
X121000000Y-112770000D01*
X121000000Y-112770000D02*
X121000000Y-114770000D01*
X121000000Y-114770000D02*
X119000000Y-114770000D01*
X119000000Y-114770000D02*
X119000000Y-112770000D01*
D12*
X127560000Y-113370000D02*
X126860000Y-113370000D01*
X126860000Y-113370000D02*
X126860000Y-112870000D01*
D13*
X125660000Y-112770000D02*
X127660000Y-112770000D01*
X127660000Y-112770000D02*
X127660000Y-114770000D01*
X127660000Y-114770000D02*
X125660000Y-114770000D01*
X125660000Y-114770000D02*
X125660000Y-112770000D01*
D12*
X134230000Y-113370000D02*
X133530000Y-113370000D01*
X133530000Y-113370000D02*
X133530000Y-112870000D01*
D13*
X132330000Y-112770000D02*
X134330000Y-112770000D01*
X134330000Y-112770000D02*
X134330000Y-114770000D01*
X134330000Y-114770000D02*
X132330000Y-114770000D01*
X132330000Y-114770000D02*
X132330000Y-112770000D01*
D12*
X140900000Y-113370000D02*
X140200000Y-113370000D01*
X140200000Y-113370000D02*
X140200000Y-112870000D01*
D13*
X139000000Y-112770000D02*
X141000000Y-112770000D01*
X141000000Y-112770000D02*
X141000000Y-114770000D01*
X141000000Y-114770000D02*
X139000000Y-114770000D01*
X139000000Y-114770000D02*
X139000000Y-112770000D01*
D12*
X147560000Y-113370000D02*
X146860000Y-113370000D01*
X146860000Y-113370000D02*
X146860000Y-112870000D01*
D13*
X145660000Y-112770000D02*
X147660000Y-112770000D01*
X147660000Y-112770000D02*
X147660000Y-114770000D01*
X147660000Y-114770000D02*
X145660000Y-114770000D01*
X145660000Y-114770000D02*
X145660000Y-112770000D01*
D12*
X154230000Y-113370000D02*
X153530000Y-113370000D01*
X153530000Y-113370000D02*
X153530000Y-112870000D01*
D13*
X152330000Y-112770000D02*
X154330000Y-112770000D01*
X154330000Y-112770000D02*
X154330000Y-114770000D01*
X154330000Y-114770000D02*
X152330000Y-114770000D01*
X152330000Y-114770000D02*
X152330000Y-112770000D01*
D14*
X150900000Y-105640000D02*
X158640000Y-105640000D01*
X158640000Y-105640000D02*
X158640000Y-102860000D01*
X158640000Y-102860000D02*
X150900000Y-102860000D01*
X150900000Y-102860000D02*
X150900000Y-105640000D01*
X149630000Y-105640000D02*
X148240000Y-105640000D01*
X148240000Y-105640000D02*
X148240000Y-104250000D01*
X125780000Y-102400000D02*
X125780000Y-103600000D01*
X124020000Y-103600000D02*
X124020000Y-102400000D01*
X129180000Y-102400000D02*
X129180000Y-103600000D01*
X127420000Y-103600000D02*
X127420000Y-102400000D01*
X132580000Y-102400000D02*
X132580000Y-103600000D01*
X130820000Y-103600000D02*
X130820000Y-102400000D01*
X135980000Y-102400000D02*
X135980000Y-103600000D01*
X134220000Y-103600000D02*
X134220000Y-102400000D01*
X124020000Y-107600000D02*
X124020000Y-106400000D01*
X125780000Y-106400000D02*
X125780000Y-107600000D01*
X127420000Y-107600000D02*
X127420000Y-106400000D01*
X129180000Y-106400000D02*
X129180000Y-107600000D01*
X132580000Y-106400000D02*
X132580000Y-107600000D01*
X130820000Y-107600000D02*
X130820000Y-106400000D01*
X134220000Y-107600000D02*
X134220000Y-106400000D01*
X135980000Y-106400000D02*
X135980000Y-107600000D01*
D15*
X106438778Y-114396362D02*
X106438778Y-113895982D01*
X106510140Y-113895982D01*
X106552957Y-113919810D01*
X106581502Y-113967465D01*
X106595774Y-114015120D01*
X106610046Y-114110431D01*
X106610046Y-114181914D01*
X106595774Y-114277224D01*
X106581502Y-114324880D01*
X106552957Y-114372535D01*
X106510140Y-114396362D01*
X106438778Y-114396362D01*
X106895494Y-114396362D02*
X106724226Y-114396362D01*
X106809860Y-114396362D02*
X106809860Y-113895982D01*
X106781315Y-113967465D01*
X106752770Y-114015120D01*
X106724226Y-114038948D01*
X113108778Y-114396362D02*
X113108778Y-113895982D01*
X113180140Y-113895982D01*
X113222957Y-113919810D01*
X113251502Y-113967465D01*
X113265774Y-114015120D01*
X113280046Y-114110431D01*
X113280046Y-114181914D01*
X113265774Y-114277224D01*
X113251502Y-114324880D01*
X113222957Y-114372535D01*
X113180140Y-114396362D01*
X113108778Y-114396362D01*
X113394226Y-113943638D02*
X113408498Y-113919810D01*
X113437043Y-113895982D01*
X113508405Y-113895982D01*
X113536949Y-113919810D01*
X113551222Y-113943638D01*
X113565494Y-113991293D01*
X113565494Y-114038948D01*
X113551222Y-114110431D01*
X113379953Y-114396362D01*
X113565494Y-114396362D01*
X119778778Y-114396362D02*
X119778778Y-113895982D01*
X119850140Y-113895982D01*
X119892957Y-113919810D01*
X119921502Y-113967465D01*
X119935774Y-114015120D01*
X119950046Y-114110431D01*
X119950046Y-114181914D01*
X119935774Y-114277224D01*
X119921502Y-114324880D01*
X119892957Y-114372535D01*
X119850140Y-114396362D01*
X119778778Y-114396362D01*
X120049953Y-113895982D02*
X120235494Y-113895982D01*
X120135587Y-114086603D01*
X120178405Y-114086603D01*
X120206949Y-114110431D01*
X120221222Y-114134259D01*
X120235494Y-114181914D01*
X120235494Y-114301052D01*
X120221222Y-114348707D01*
X120206949Y-114372535D01*
X120178405Y-114396362D01*
X120092770Y-114396362D01*
X120064226Y-114372535D01*
X120049953Y-114348707D01*
X126438778Y-114396362D02*
X126438778Y-113895982D01*
X126510140Y-113895982D01*
X126552957Y-113919810D01*
X126581502Y-113967465D01*
X126595774Y-114015120D01*
X126610046Y-114110431D01*
X126610046Y-114181914D01*
X126595774Y-114277224D01*
X126581502Y-114324880D01*
X126552957Y-114372535D01*
X126510140Y-114396362D01*
X126438778Y-114396362D01*
X126866949Y-114062776D02*
X126866949Y-114396362D01*
X126795587Y-113872155D02*
X126724226Y-114229569D01*
X126909766Y-114229569D01*
X133108778Y-114396362D02*
X133108778Y-113895982D01*
X133180140Y-113895982D01*
X133222957Y-113919810D01*
X133251502Y-113967465D01*
X133265774Y-114015120D01*
X133280046Y-114110431D01*
X133280046Y-114181914D01*
X133265774Y-114277224D01*
X133251502Y-114324880D01*
X133222957Y-114372535D01*
X133180140Y-114396362D01*
X133108778Y-114396362D01*
X133551222Y-113895982D02*
X133408498Y-113895982D01*
X133394226Y-114134259D01*
X133408498Y-114110431D01*
X133437043Y-114086603D01*
X133508405Y-114086603D01*
X133536949Y-114110431D01*
X133551222Y-114134259D01*
X133565494Y-114181914D01*
X133565494Y-114301052D01*
X133551222Y-114348707D01*
X133536949Y-114372535D01*
X133508405Y-114396362D01*
X133437043Y-114396362D01*
X133408498Y-114372535D01*
X133394226Y-114348707D01*
X139778778Y-114396362D02*
X139778778Y-113895982D01*
X139850140Y-113895982D01*
X139892957Y-113919810D01*
X139921502Y-113967465D01*
X139935774Y-114015120D01*
X139950046Y-114110431D01*
X139950046Y-114181914D01*
X139935774Y-114277224D01*
X139921502Y-114324880D01*
X139892957Y-114372535D01*
X139850140Y-114396362D01*
X139778778Y-114396362D01*
X140206949Y-113895982D02*
X140149860Y-113895982D01*
X140121315Y-113919810D01*
X140107043Y-113943638D01*
X140078498Y-114015120D01*
X140064226Y-114110431D01*
X140064226Y-114301052D01*
X140078498Y-114348707D01*
X140092770Y-114372535D01*
X140121315Y-114396362D01*
X140178405Y-114396362D01*
X140206949Y-114372535D01*
X140221222Y-114348707D01*
X140235494Y-114301052D01*
X140235494Y-114181914D01*
X140221222Y-114134259D01*
X140206949Y-114110431D01*
X140178405Y-114086603D01*
X140121315Y-114086603D01*
X140092770Y-114110431D01*
X140078498Y-114134259D01*
X140064226Y-114181914D01*
X146438778Y-114396362D02*
X146438778Y-113895982D01*
X146510140Y-113895982D01*
X146552957Y-113919810D01*
X146581502Y-113967465D01*
X146595774Y-114015120D01*
X146610046Y-114110431D01*
X146610046Y-114181914D01*
X146595774Y-114277224D01*
X146581502Y-114324880D01*
X146552957Y-114372535D01*
X146510140Y-114396362D01*
X146438778Y-114396362D01*
X146709953Y-113895982D02*
X146909766Y-113895982D01*
X146781315Y-114396362D01*
X153108778Y-114396362D02*
X153108778Y-113895982D01*
X153180140Y-113895982D01*
X153222957Y-113919810D01*
X153251502Y-113967465D01*
X153265774Y-114015120D01*
X153280046Y-114110431D01*
X153280046Y-114181914D01*
X153265774Y-114277224D01*
X153251502Y-114324880D01*
X153222957Y-114372535D01*
X153180140Y-114396362D01*
X153108778Y-114396362D01*
X153451315Y-114110431D02*
X153422770Y-114086603D01*
X153408498Y-114062776D01*
X153394226Y-114015120D01*
X153394226Y-113991293D01*
X153408498Y-113943638D01*
X153422770Y-113919810D01*
X153451315Y-113895982D01*
X153508405Y-113895982D01*
X153536949Y-113919810D01*
X153551222Y-113943638D01*
X153565494Y-113991293D01*
X153565494Y-114015120D01*
X153551222Y-114062776D01*
X153536949Y-114086603D01*
X153508405Y-114110431D01*
X153451315Y-114110431D01*
X153422770Y-114134259D01*
X153408498Y-114158086D01*
X153394226Y-114205741D01*
X153394226Y-114301052D01*
X153408498Y-114348707D01*
X153422770Y-114372535D01*
X153451315Y-114396362D01*
X153508405Y-114396362D01*
X153536949Y-114372535D01*
X153551222Y-114348707D01*
X153565494Y-114301052D01*
X153565494Y-114205741D01*
X153551222Y-114158086D01*
X153536949Y-114134259D01*
X153508405Y-114110431D01*
D13*
X146692381Y-104583333D02*
X147406667Y-104583333D01*
X147549524Y-104630953D01*
X147644762Y-104726191D01*
X147692381Y-104869048D01*
X147692381Y-104964286D01*
X146787619Y-104154762D02*
X146740000Y-104107143D01*
X146692381Y-104011905D01*
X146692381Y-103773809D01*
X146740000Y-103678571D01*
X146787619Y-103630952D01*
X146882857Y-103583333D01*
X146978095Y-103583333D01*
X147120952Y-103630952D01*
X147692381Y-104202381D01*
X147692381Y-103583333D01*
X124713334Y-101282381D02*
X124380000Y-100806190D01*
X124141905Y-101282381D02*
X124141905Y-100282381D01*
X124522858Y-100282381D01*
X124618096Y-100330000D01*
X124665715Y-100377619D01*
X124713334Y-100472857D01*
X124713334Y-100615714D01*
X124665715Y-100710952D01*
X124618096Y-100758571D01*
X124522858Y-100806190D01*
X124141905Y-100806190D01*
X125665715Y-101282381D02*
X125094286Y-101282381D01*
X125380000Y-101282381D02*
X125380000Y-100282381D01*
X125284762Y-100425238D01*
X125189524Y-100520476D01*
X125094286Y-100568095D01*
X128063334Y-101282381D02*
X127730000Y-100806190D01*
X127491905Y-101282381D02*
X127491905Y-100282381D01*
X127872858Y-100282381D01*
X127968096Y-100330000D01*
X128015715Y-100377619D01*
X128063334Y-100472857D01*
X128063334Y-100615714D01*
X128015715Y-100710952D01*
X127968096Y-100758571D01*
X127872858Y-100806190D01*
X127491905Y-100806190D01*
X128444286Y-100377619D02*
X128491905Y-100330000D01*
X128587143Y-100282381D01*
X128825239Y-100282381D01*
X128920477Y-100330000D01*
X128968096Y-100377619D01*
X129015715Y-100472857D01*
X129015715Y-100568095D01*
X128968096Y-100710952D01*
X128396667Y-101282381D01*
X129015715Y-101282381D01*
X131533334Y-101302381D02*
X131200000Y-100826190D01*
X130961905Y-101302381D02*
X130961905Y-100302381D01*
X131342858Y-100302381D01*
X131438096Y-100350000D01*
X131485715Y-100397619D01*
X131533334Y-100492857D01*
X131533334Y-100635714D01*
X131485715Y-100730952D01*
X131438096Y-100778571D01*
X131342858Y-100826190D01*
X130961905Y-100826190D01*
X131866667Y-100302381D02*
X132485715Y-100302381D01*
X132152381Y-100683333D01*
X132295239Y-100683333D01*
X132390477Y-100730952D01*
X132438096Y-100778571D01*
X132485715Y-100873810D01*
X132485715Y-101111905D01*
X132438096Y-101207143D01*
X132390477Y-101254762D01*
X132295239Y-101302381D01*
X132009524Y-101302381D01*
X131914286Y-101254762D01*
X131866667Y-101207143D01*
X134873334Y-101302381D02*
X134540000Y-100826190D01*
X134301905Y-101302381D02*
X134301905Y-100302381D01*
X134682858Y-100302381D01*
X134778096Y-100350000D01*
X134825715Y-100397619D01*
X134873334Y-100492857D01*
X134873334Y-100635714D01*
X134825715Y-100730952D01*
X134778096Y-100778571D01*
X134682858Y-100826190D01*
X134301905Y-100826190D01*
X135730477Y-100635714D02*
X135730477Y-101302381D01*
X135492381Y-100254762D02*
X135254286Y-100969048D01*
X135873334Y-100969048D01*
X124733334Y-109802381D02*
X124400000Y-109326190D01*
X124161905Y-109802381D02*
X124161905Y-108802381D01*
X124542858Y-108802381D01*
X124638096Y-108850000D01*
X124685715Y-108897619D01*
X124733334Y-108992857D01*
X124733334Y-109135714D01*
X124685715Y-109230952D01*
X124638096Y-109278571D01*
X124542858Y-109326190D01*
X124161905Y-109326190D01*
X125638096Y-108802381D02*
X125161905Y-108802381D01*
X125114286Y-109278571D01*
X125161905Y-109230952D01*
X125257143Y-109183333D01*
X125495239Y-109183333D01*
X125590477Y-109230952D01*
X125638096Y-109278571D01*
X125685715Y-109373810D01*
X125685715Y-109611905D01*
X125638096Y-109707143D01*
X125590477Y-109754762D01*
X125495239Y-109802381D01*
X125257143Y-109802381D01*
X125161905Y-109754762D01*
X125114286Y-109707143D01*
X128143334Y-109782381D02*
X127810000Y-109306190D01*
X127571905Y-109782381D02*
X127571905Y-108782381D01*
X127952858Y-108782381D01*
X128048096Y-108830000D01*
X128095715Y-108877619D01*
X128143334Y-108972857D01*
X128143334Y-109115714D01*
X128095715Y-109210952D01*
X128048096Y-109258571D01*
X127952858Y-109306190D01*
X127571905Y-109306190D01*
X129000477Y-108782381D02*
X128810000Y-108782381D01*
X128714762Y-108830000D01*
X128667143Y-108877619D01*
X128571905Y-109020476D01*
X128524286Y-109210952D01*
X128524286Y-109591905D01*
X128571905Y-109687143D01*
X128619524Y-109734762D01*
X128714762Y-109782381D01*
X128905239Y-109782381D01*
X129000477Y-109734762D01*
X129048096Y-109687143D01*
X129095715Y-109591905D01*
X129095715Y-109353810D01*
X129048096Y-109258571D01*
X129000477Y-109210952D01*
X128905239Y-109163333D01*
X128714762Y-109163333D01*
X128619524Y-109210952D01*
X128571905Y-109258571D01*
X128524286Y-109353810D01*
X131533334Y-109782381D02*
X131200000Y-109306190D01*
X130961905Y-109782381D02*
X130961905Y-108782381D01*
X131342858Y-108782381D01*
X131438096Y-108830000D01*
X131485715Y-108877619D01*
X131533334Y-108972857D01*
X131533334Y-109115714D01*
X131485715Y-109210952D01*
X131438096Y-109258571D01*
X131342858Y-109306190D01*
X130961905Y-109306190D01*
X131866667Y-108782381D02*
X132533334Y-108782381D01*
X132104762Y-109782381D01*
X134943334Y-109772381D02*
X134610000Y-109296190D01*
X134371905Y-109772381D02*
X134371905Y-108772381D01*
X134752858Y-108772381D01*
X134848096Y-108820000D01*
X134895715Y-108867619D01*
X134943334Y-108962857D01*
X134943334Y-109105714D01*
X134895715Y-109200952D01*
X134848096Y-109248571D01*
X134752858Y-109296190D01*
X134371905Y-109296190D01*
X135514762Y-109200952D02*
X135419524Y-109153333D01*
X135371905Y-109105714D01*
X135324286Y-109010476D01*
X135324286Y-108962857D01*
X135371905Y-108867619D01*
X135419524Y-108820000D01*
X135514762Y-108772381D01*
X135705239Y-108772381D01*
X135800477Y-108820000D01*
X135848096Y-108867619D01*
X135895715Y-108962857D01*
X135895715Y-109010476D01*
X135848096Y-109105714D01*
X135800477Y-109153333D01*
X135705239Y-109200952D01*
X135514762Y-109200952D01*
X135419524Y-109248571D01*
X135371905Y-109296190D01*
X135324286Y-109391429D01*
X135324286Y-109581905D01*
X135371905Y-109677143D01*
X135419524Y-109724762D01*
X135514762Y-109772381D01*
X135705239Y-109772381D01*
X135800477Y-109724762D01*
X135848096Y-109677143D01*
X135895715Y-109581905D01*
X135895715Y-109391429D01*
X135848096Y-109296190D01*
X135800477Y-109248571D01*
X135705239Y-109200952D01*
M02*
