M48
;DRILL file {KiCad 4.0.6} date Thu Jun 20 17:06:54 2019
;FORMAT={-:-/ absolute / metric / decimal}
FMAT,2
METRIC,TZ
T1C0.330
T2C1.000
T3C1.016
T4C1.200
T5C3.200
%
G90
G05
M71
T1
X109.146Y-73.971
X116.895Y-65.625
X139.81Y-73.7
T2
X102.38Y-91.5
X104.92Y-91.5
X107.46Y-91.5
X110.Y-91.5
X150.38Y-91.5
X151.06Y-69.2
X151.06Y-71.74
X152.92Y-91.5
X153.6Y-69.2
X153.6Y-71.74
X155.46Y-91.5
X158.Y-91.5
T3
X106.44Y-62.
X106.44Y-84.86
X108.98Y-62.
X108.98Y-84.86
X111.52Y-62.
X111.52Y-84.86
X114.06Y-62.
X114.06Y-84.86
X116.6Y-62.
X116.6Y-84.86
X119.14Y-62.
X119.14Y-84.86
X121.68Y-62.
X121.68Y-84.86
X124.22Y-62.
X124.22Y-84.86
X126.76Y-62.
X126.76Y-84.86
X129.3Y-62.
X129.3Y-84.86
X131.84Y-62.
X131.84Y-84.86
X134.38Y-62.
X134.38Y-84.86
X136.92Y-62.
X136.92Y-84.86
X139.46Y-62.
X139.46Y-84.86
X142.Y-62.
X142.Y-84.86
T4
X155.2Y-78.3
X155.2Y-81.8
T5
X103.Y-58.
X130.Y-90.
X157.Y-58.
T0
M30
