G04 #@! TF.FileFunction,Paste,Top*
%FSLAX46Y46*%
G04 Gerber Fmt 4.6, Leading zero omitted, Abs format (unit mm)*
G04 Created by KiCad (PCBNEW 4.0.6) date Thu Jun 20 17:07:18 2019*
%MOMM*%
%LPD*%
G01*
G04 APERTURE LIST*
%ADD10C,0.100000*%
%ADD11R,0.700000X1.300000*%
%ADD12R,2.000000X3.800000*%
%ADD13R,2.000000X1.500000*%
%ADD14R,0.508000X1.143000*%
G04 APERTURE END LIST*
D10*
D11*
X122550000Y-66200000D03*
X120650000Y-66200000D03*
X122550000Y-69800000D03*
X120650000Y-69800000D03*
X122550000Y-73400000D03*
X120650000Y-73400000D03*
X122550000Y-76900000D03*
X120650000Y-76900000D03*
X122550000Y-80500000D03*
X120650000Y-80500000D03*
D12*
X139850000Y-69700000D03*
D13*
X146150000Y-69700000D03*
X146150000Y-67400000D03*
X146150000Y-72000000D03*
D14*
X106490000Y-81402000D03*
X107760000Y-81402000D03*
X109030000Y-81402000D03*
X110300000Y-81402000D03*
X111570000Y-81402000D03*
X112840000Y-81402000D03*
X114110000Y-81402000D03*
X114110000Y-75052000D03*
X112840000Y-75052000D03*
X110300000Y-75052000D03*
X109030000Y-75052000D03*
X107760000Y-75052000D03*
X106490000Y-75052000D03*
X111570000Y-75052000D03*
X106355000Y-65625000D03*
X108895000Y-65625000D03*
X110165000Y-65625000D03*
X111435000Y-65625000D03*
X112705000Y-65625000D03*
X113975000Y-65625000D03*
X115245000Y-65625000D03*
X115245000Y-71975000D03*
X113975000Y-71975000D03*
X112705000Y-71975000D03*
X111435000Y-71975000D03*
X110165000Y-71975000D03*
X108895000Y-71975000D03*
X107625000Y-71975000D03*
X106355000Y-71975000D03*
X107625000Y-65625000D03*
M02*
