G04 #@! TF.FileFunction,Copper,L1,Top,Mixed*
%FSLAX46Y46*%
G04 Gerber Fmt 4.6, Leading zero omitted, Abs format (unit mm)*
G04 Created by KiCad (PCBNEW 4.0.6) date Thu Jun 20 17:07:18 2019*
%MOMM*%
%LPD*%
G01*
G04 APERTURE LIST*
%ADD10C,0.100000*%
%ADD11O,1.727200X2.032000*%
%ADD12C,2.400000*%
%ADD13R,2.400000X2.400000*%
%ADD14R,1.700000X1.700000*%
%ADD15O,1.700000X1.700000*%
%ADD16R,0.700000X1.300000*%
%ADD17R,2.440000X1.120000*%
%ADD18R,2.000000X3.800000*%
%ADD19R,2.000000X1.500000*%
%ADD20R,0.508000X1.143000*%
%ADD21C,0.685800*%
%ADD22C,0.508000*%
%ADD23C,0.152400*%
%ADD24C,0.254000*%
G04 APERTURE END LIST*
D10*
D11*
X142000000Y-62000000D03*
X139460000Y-62000000D03*
X136920000Y-62000000D03*
X134380000Y-62000000D03*
X131840000Y-62000000D03*
X129300000Y-62000000D03*
X126760000Y-62000000D03*
X124220000Y-62000000D03*
X121680000Y-62000000D03*
X119140000Y-62000000D03*
X116600000Y-62000000D03*
X114060000Y-62000000D03*
X111520000Y-62000000D03*
X108980000Y-62000000D03*
X106440000Y-62000000D03*
X142000000Y-84860000D03*
X111520000Y-84860000D03*
X108980000Y-84860000D03*
X114060000Y-84860000D03*
X129300000Y-84860000D03*
X131840000Y-84860000D03*
X126760000Y-84860000D03*
X106440000Y-84860000D03*
X121680000Y-84860000D03*
X124220000Y-84860000D03*
X119140000Y-84860000D03*
X116600000Y-84860000D03*
X136920000Y-84860000D03*
X134380000Y-84860000D03*
X139460000Y-84860000D03*
D12*
X155200000Y-78300000D03*
D13*
X155200000Y-81800000D03*
D14*
X153600000Y-69200000D03*
D15*
X153600000Y-71740000D03*
X151060000Y-69200000D03*
X151060000Y-71740000D03*
D14*
X110000000Y-91500000D03*
D15*
X107460000Y-91500000D03*
X104920000Y-91500000D03*
X102380000Y-91500000D03*
D14*
X158000000Y-91500000D03*
D15*
X155460000Y-91500000D03*
X152920000Y-91500000D03*
X150380000Y-91500000D03*
D16*
X122550000Y-66200000D03*
X120650000Y-66200000D03*
X122550000Y-69800000D03*
X120650000Y-69800000D03*
X122550000Y-73400000D03*
X120650000Y-73400000D03*
X122550000Y-76900000D03*
X120650000Y-76900000D03*
X122550000Y-80500000D03*
X120650000Y-80500000D03*
D17*
X126695000Y-68320000D03*
X135305000Y-78480000D03*
X126695000Y-70860000D03*
X135305000Y-75940000D03*
X126695000Y-73400000D03*
X135305000Y-73400000D03*
X126695000Y-75940000D03*
X135305000Y-70860000D03*
X126695000Y-78480000D03*
X135305000Y-68320000D03*
D18*
X139850000Y-69700000D03*
D19*
X146150000Y-69700000D03*
X146150000Y-67400000D03*
X146150000Y-72000000D03*
D20*
X106490000Y-81402000D03*
X107760000Y-81402000D03*
X109030000Y-81402000D03*
X110300000Y-81402000D03*
X111570000Y-81402000D03*
X112840000Y-81402000D03*
X114110000Y-81402000D03*
X114110000Y-75052000D03*
X112840000Y-75052000D03*
X110300000Y-75052000D03*
X109030000Y-75052000D03*
X107760000Y-75052000D03*
X106490000Y-75052000D03*
X111570000Y-75052000D03*
X106355000Y-65625000D03*
X108895000Y-65625000D03*
X110165000Y-65625000D03*
X111435000Y-65625000D03*
X112705000Y-65625000D03*
X113975000Y-65625000D03*
X115245000Y-65625000D03*
X115245000Y-71975000D03*
X113975000Y-71975000D03*
X112705000Y-71975000D03*
X111435000Y-71975000D03*
X110165000Y-71975000D03*
X108895000Y-71975000D03*
X107625000Y-71975000D03*
X106355000Y-71975000D03*
X107625000Y-65625000D03*
D21*
X139810000Y-73700000D03*
X109145900Y-73971200D03*
X116895000Y-65625000D03*
D22*
X153600000Y-69200000D02*
X153600000Y-69210000D01*
X153600000Y-69210000D02*
X152340000Y-70470000D01*
X147910000Y-72000000D02*
X146150000Y-72000000D01*
X149440000Y-70470000D02*
X147910000Y-72000000D01*
X152340000Y-70470000D02*
X149440000Y-70470000D01*
X139850000Y-73660000D02*
X139850000Y-69700000D01*
X139810000Y-73700000D02*
X139850000Y-73660000D01*
X107625000Y-66603200D02*
X110165000Y-66603200D01*
X107625000Y-65625000D02*
X107625000Y-66603200D01*
X110165000Y-65625000D02*
X110165000Y-66603200D01*
X152920000Y-91500000D02*
X155460000Y-91500000D01*
X114110000Y-81402000D02*
X114110000Y-80539500D01*
X139850000Y-69700000D02*
X139850000Y-68963100D01*
X144006400Y-68963100D02*
X144743300Y-69700000D01*
X139850000Y-68963100D02*
X144006400Y-68963100D01*
X146150000Y-69700000D02*
X144743300Y-69700000D01*
X152920000Y-91500000D02*
X150380000Y-91500000D01*
X110300000Y-81402000D02*
X110300000Y-80423800D01*
X106490000Y-81402000D02*
X106490000Y-80423800D01*
X110300000Y-80423800D02*
X106490000Y-80423800D01*
X120650000Y-76900000D02*
X120650000Y-77956700D01*
X120650000Y-80500000D02*
X121028300Y-80500000D01*
X121028300Y-78335000D02*
X121028300Y-80500000D01*
X120650000Y-77956700D02*
X121028300Y-78335000D01*
X121028300Y-80601400D02*
X121028300Y-80500000D01*
X121983700Y-81556800D02*
X121028300Y-80601400D01*
X125979100Y-81556800D02*
X121983700Y-81556800D01*
X125979100Y-82656400D02*
X126760000Y-83437300D01*
X125979100Y-81556800D02*
X125979100Y-82656400D01*
X126760000Y-84860000D02*
X126760000Y-83437300D01*
X111570000Y-75052000D02*
X111570000Y-76030200D01*
X107760000Y-75052000D02*
X107760000Y-76030200D01*
X113625900Y-80055400D02*
X110668400Y-80055400D01*
X114110000Y-80539500D02*
X113625900Y-80055400D01*
X110668400Y-80055400D02*
X110300000Y-80423800D01*
X110668400Y-76030200D02*
X110668400Y-80055400D01*
X111570000Y-76030200D02*
X110668400Y-76030200D01*
X110668400Y-76030200D02*
X107760000Y-76030200D01*
X113975000Y-65625000D02*
X113975000Y-65135900D01*
X110165000Y-65625000D02*
X110165000Y-65421700D01*
X112705000Y-65380400D02*
X111435000Y-65380400D01*
X111435000Y-65625000D02*
X111435000Y-65380400D01*
X111435000Y-65380400D02*
X111435000Y-64646800D01*
X112705000Y-65625000D02*
X112705000Y-65380400D01*
X112705000Y-65380400D02*
X112705000Y-65135900D01*
X108980000Y-62000000D02*
X108980000Y-63422700D01*
X110572000Y-65014700D02*
X108980000Y-63422700D01*
X110165000Y-65421700D02*
X110572000Y-65014700D01*
X110939900Y-64646800D02*
X111435000Y-64646800D01*
X110572000Y-65014700D02*
X110939900Y-64646800D01*
X106500200Y-82380200D02*
X106490000Y-82380200D01*
X108980000Y-84860000D02*
X106500200Y-82380200D01*
X106490000Y-81402000D02*
X106490000Y-82380200D01*
X128344100Y-79191800D02*
X128344100Y-72433400D01*
X125979100Y-81556800D02*
X128344100Y-79191800D01*
X118468300Y-71975000D02*
X119893300Y-73400000D01*
X115245000Y-71975000D02*
X118468300Y-71975000D01*
X120650000Y-73400000D02*
X119893300Y-73400000D01*
X120650000Y-69800000D02*
X120650000Y-68743300D01*
X121406700Y-72927100D02*
X121406700Y-73400000D01*
X122021300Y-72312500D02*
X121406700Y-72927100D01*
X128223200Y-72312500D02*
X122021300Y-72312500D01*
X128344100Y-72433400D02*
X128223200Y-72312500D01*
X128344100Y-72433400D02*
X129529400Y-71248100D01*
X138232600Y-67345700D02*
X139850000Y-68963100D01*
X133431800Y-67345700D02*
X138232600Y-67345700D01*
X129529400Y-71248100D02*
X133431800Y-67345700D01*
X120650000Y-73400000D02*
X121406700Y-73400000D01*
X127568100Y-69286800D02*
X129529400Y-71248100D01*
X125306600Y-69286800D02*
X127568100Y-69286800D01*
X124763100Y-68743300D02*
X125306600Y-69286800D01*
X120650000Y-68743300D02*
X124763100Y-68743300D01*
X113975000Y-65135900D02*
X112705000Y-65135900D01*
X120650000Y-68743300D02*
X120650000Y-66200000D01*
X114517600Y-64593300D02*
X119135800Y-64593300D01*
X113975000Y-65135900D02*
X114517600Y-64593300D01*
X119893300Y-65350800D02*
X119135800Y-64593300D01*
X119893300Y-66200000D02*
X119893300Y-65350800D01*
X119135800Y-63426900D02*
X119140000Y-63422700D01*
X119135800Y-64593300D02*
X119135800Y-63426900D01*
X119140000Y-62000000D02*
X119140000Y-63422700D01*
X120650000Y-66200000D02*
X119893300Y-66200000D01*
X135308800Y-74209600D02*
X135308800Y-75940000D01*
X136118400Y-73400000D02*
X135308800Y-74209600D01*
X135308800Y-75940000D02*
X135305000Y-75940000D01*
X136931700Y-77562900D02*
X136931700Y-78480000D01*
X135308800Y-75940000D02*
X136931700Y-77562900D01*
X135305000Y-78480000D02*
X136931700Y-78480000D01*
X158000000Y-91500000D02*
X156743300Y-91500000D01*
X137602600Y-78480000D02*
X136931700Y-78480000D01*
X143289400Y-84166800D02*
X137602600Y-78480000D01*
X143289400Y-85701100D02*
X143289400Y-84166800D01*
X142039500Y-86951000D02*
X143289400Y-85701100D01*
X129732800Y-86951000D02*
X142039500Y-86951000D01*
X125183800Y-91500000D02*
X129732800Y-86951000D01*
X110000000Y-91500000D02*
X125183800Y-91500000D01*
X108743300Y-92049900D02*
X108743300Y-91500000D01*
X108036500Y-92756700D02*
X108743300Y-92049900D01*
X101794400Y-92756700D02*
X108036500Y-92756700D01*
X101086800Y-92049100D02*
X101794400Y-92756700D01*
X101086800Y-81433400D02*
X101086800Y-92049100D01*
X106490000Y-76030200D02*
X101086800Y-81433400D01*
X106490000Y-75052000D02*
X106490000Y-76030200D01*
X110000000Y-91500000D02*
X108743300Y-91500000D01*
X135305000Y-73400000D02*
X135711700Y-73400000D01*
X135711700Y-73400000D02*
X136118400Y-73400000D01*
X136931700Y-72180000D02*
X136931700Y-70860000D01*
X135711700Y-73400000D02*
X136931700Y-72180000D01*
X135305000Y-70860000D02*
X136931700Y-70860000D01*
X136931700Y-68320000D02*
X136931700Y-70860000D01*
X135305000Y-68320000D02*
X136931700Y-68320000D01*
X151060000Y-85701100D02*
X151060000Y-72996700D01*
X143289400Y-85701100D02*
X151060000Y-85701100D01*
X156743300Y-90950200D02*
X156743300Y-91500000D01*
X151494200Y-85701100D02*
X156743300Y-90950200D01*
X151060000Y-85701100D02*
X151494200Y-85701100D01*
X151060000Y-71740000D02*
X151060000Y-72368300D01*
X151060000Y-72368300D02*
X151060000Y-72996700D01*
X151715000Y-72368300D02*
X152343300Y-71740000D01*
X151060000Y-72368300D02*
X151715000Y-72368300D01*
X153600000Y-71740000D02*
X152343300Y-71740000D01*
X106490000Y-75052000D02*
X106490000Y-74073800D01*
X106440000Y-62000000D02*
X106440000Y-63422700D01*
X106355000Y-63507700D02*
X106440000Y-63422700D01*
X106355000Y-65625000D02*
X106355000Y-63507700D01*
X105694300Y-73278100D02*
X106490000Y-74073800D01*
X105694300Y-67263900D02*
X105694300Y-73278100D01*
X106355000Y-66603200D02*
X105694300Y-67263900D01*
X106355000Y-65625000D02*
X106355000Y-66603200D01*
X151060000Y-69200000D02*
X151060000Y-68940000D01*
X151060000Y-68940000D02*
X149520000Y-67400000D01*
X149520000Y-67400000D02*
X146150000Y-67400000D01*
D23*
X112840000Y-81402000D02*
X112840000Y-82202400D01*
X104920000Y-91500000D02*
X105998900Y-91500000D01*
X105998900Y-91388200D02*
X105998900Y-91500000D01*
X110593200Y-86793900D02*
X105998900Y-91388200D01*
X119390500Y-86793900D02*
X110593200Y-86793900D01*
X120543000Y-85641400D02*
X119390500Y-86793900D01*
X120543000Y-84117900D02*
X120543000Y-85641400D01*
X119115100Y-82690000D02*
X120543000Y-84117900D01*
X113327600Y-82690000D02*
X119115100Y-82690000D01*
X112840000Y-82202400D02*
X113327600Y-82690000D01*
X109030000Y-81402000D02*
X109030000Y-82202400D01*
X102380000Y-91500000D02*
X103458900Y-91500000D01*
X103458900Y-91388200D02*
X103458900Y-91500000D01*
X108466300Y-86380800D02*
X103458900Y-91388200D01*
X119372000Y-86380800D02*
X108466300Y-86380800D01*
X120237900Y-85514900D02*
X119372000Y-86380800D01*
X120237900Y-84244500D02*
X120237900Y-85514900D01*
X118988500Y-82995100D02*
X120237900Y-84244500D01*
X109822700Y-82995100D02*
X118988500Y-82995100D01*
X109030000Y-82202400D02*
X109822700Y-82995100D01*
X123128900Y-66202800D02*
X123128900Y-66200000D01*
X125246100Y-68320000D02*
X123128900Y-66202800D01*
X126695000Y-68320000D02*
X125246100Y-68320000D01*
X122550000Y-66200000D02*
X123128900Y-66200000D01*
X121971100Y-65621100D02*
X121971100Y-66200000D01*
X120376300Y-64026300D02*
X121971100Y-65621100D01*
X120376300Y-61530200D02*
X120376300Y-64026300D01*
X119545200Y-60699100D02*
X120376300Y-61530200D01*
X108572000Y-60699100D02*
X119545200Y-60699100D01*
X107861100Y-61410000D02*
X108572000Y-60699100D01*
X107861100Y-63790700D02*
X107861100Y-61410000D01*
X108895000Y-64824600D02*
X107861100Y-63790700D01*
X108895000Y-65625000D02*
X108895000Y-64824600D01*
X122550000Y-66200000D02*
X121971100Y-66200000D01*
X124186100Y-69800000D02*
X125246100Y-70860000D01*
X122550000Y-69800000D02*
X124186100Y-69800000D01*
X126695000Y-70860000D02*
X125246100Y-70860000D01*
X121971100Y-69872400D02*
X121971100Y-69800000D01*
X121149200Y-70694300D02*
X121971100Y-69872400D01*
X117870700Y-70694300D02*
X121149200Y-70694300D01*
X117720200Y-70543800D02*
X117870700Y-70694300D01*
X109525800Y-70543800D02*
X117720200Y-70543800D01*
X108895000Y-71174600D02*
X109525800Y-70543800D01*
X108895000Y-71975000D02*
X108895000Y-71174600D01*
X122550000Y-69800000D02*
X121971100Y-69800000D01*
X126695000Y-73400000D02*
X122550000Y-73400000D01*
X121971100Y-73544700D02*
X121971100Y-73400000D01*
X121188200Y-74327600D02*
X121971100Y-73544700D01*
X116380800Y-74327600D02*
X121188200Y-74327600D01*
X114458000Y-72404800D02*
X116380800Y-74327600D01*
X114458000Y-71292400D02*
X114458000Y-72404800D01*
X114014600Y-70849000D02*
X114458000Y-71292400D01*
X110490600Y-70849000D02*
X114014600Y-70849000D01*
X110165000Y-71174600D02*
X110490600Y-70849000D01*
X110165000Y-71975000D02*
X110165000Y-71174600D01*
X122550000Y-73400000D02*
X121971100Y-73400000D01*
X124286100Y-76900000D02*
X125246100Y-75940000D01*
X122550000Y-76900000D02*
X124286100Y-76900000D01*
X126695000Y-75940000D02*
X125246100Y-75940000D01*
X121971100Y-76393500D02*
X121971100Y-76900000D01*
X121055300Y-75477700D02*
X121971100Y-76393500D01*
X116283600Y-75477700D02*
X121055300Y-75477700D01*
X113232000Y-72426100D02*
X116283600Y-75477700D01*
X113232000Y-71337600D02*
X113232000Y-72426100D01*
X113069000Y-71174600D02*
X113232000Y-71337600D01*
X111435000Y-71174600D02*
X113069000Y-71174600D01*
X111435000Y-71975000D02*
X111435000Y-71174600D01*
X122550000Y-76900000D02*
X121971100Y-76900000D01*
X126695000Y-78480000D02*
X125970600Y-78480000D01*
X112705000Y-71975000D02*
X112705000Y-72775400D01*
X122550000Y-80500000D02*
X122550000Y-79621100D01*
X122806300Y-79364800D02*
X122806300Y-78480000D01*
X122550000Y-79621100D02*
X122806300Y-79364800D01*
X125970600Y-78480000D02*
X122806300Y-78480000D01*
X121569300Y-77243000D02*
X122806300Y-78480000D01*
X121569300Y-76481800D02*
X121569300Y-77243000D01*
X121016400Y-75928900D02*
X121569300Y-76481800D01*
X116287100Y-75928900D02*
X121016400Y-75928900D01*
X113133600Y-72775400D02*
X116287100Y-75928900D01*
X112705000Y-72775400D02*
X113133600Y-72775400D01*
X109145900Y-74135700D02*
X109145900Y-73971200D01*
X109030000Y-74251600D02*
X109145900Y-74135700D01*
X109030000Y-75052000D02*
X109030000Y-74251600D01*
X123127500Y-84609900D02*
X123127500Y-84860000D01*
X120720100Y-82202500D02*
X123127500Y-84609900D01*
X113741900Y-82202500D02*
X120720100Y-82202500D01*
X113323000Y-81783600D02*
X113741900Y-82202500D01*
X113323000Y-80720500D02*
X113323000Y-81783600D01*
X113204100Y-80601600D02*
X113323000Y-80720500D01*
X111570000Y-80601600D02*
X113204100Y-80601600D01*
X111570000Y-81402000D02*
X111570000Y-80601600D01*
X124220000Y-84860000D02*
X123127500Y-84860000D01*
X107760000Y-81402000D02*
X107760000Y-82202400D01*
X119140000Y-84860000D02*
X118047500Y-84860000D01*
X118047500Y-84557500D02*
X118047500Y-84860000D01*
X117095300Y-83605300D02*
X118047500Y-84557500D01*
X109162900Y-83605300D02*
X117095300Y-83605300D01*
X107760000Y-82202400D02*
X109162900Y-83605300D01*
X115245000Y-65625000D02*
X116895000Y-65625000D01*
X138367500Y-85162500D02*
X138367500Y-84860000D01*
X137397500Y-86132500D02*
X138367500Y-85162500D01*
X126276100Y-86132500D02*
X137397500Y-86132500D01*
X125490000Y-85346400D02*
X126276100Y-86132500D01*
X125490000Y-84432400D02*
X125490000Y-85346400D01*
X123777000Y-82719400D02*
X125490000Y-84432400D01*
X121668700Y-82719400D02*
X123777000Y-82719400D01*
X120328300Y-81379000D02*
X121668700Y-82719400D01*
X118366600Y-81379000D02*
X120328300Y-81379000D01*
X112840000Y-75852400D02*
X118366600Y-81379000D01*
X112840000Y-75052000D02*
X112840000Y-75852400D01*
X139460000Y-84860000D02*
X138367500Y-84860000D01*
X113309600Y-74251600D02*
X114110000Y-74251600D01*
X111833400Y-72775400D02*
X113309600Y-74251600D01*
X108541800Y-72775400D02*
X111833400Y-72775400D01*
X108260000Y-72493600D02*
X108541800Y-72775400D01*
X108260000Y-71445600D02*
X108260000Y-72493600D01*
X107989000Y-71174600D02*
X108260000Y-71445600D01*
X106355000Y-71174600D02*
X107989000Y-71174600D01*
X106355000Y-71975000D02*
X106355000Y-71174600D01*
X114110000Y-75052000D02*
X114110000Y-74251600D01*
X107625000Y-71975000D02*
X107625000Y-72775400D01*
X110300000Y-75052000D02*
X110300000Y-74251600D01*
X109438400Y-73390000D02*
X110300000Y-74251600D01*
X108239600Y-73390000D02*
X109438400Y-73390000D01*
X107625000Y-72775400D02*
X108239600Y-73390000D01*
D24*
G36*
X154743383Y-90207519D02*
X154693076Y-90228355D01*
X154264817Y-90618642D01*
X154190000Y-90777954D01*
X154115183Y-90618642D01*
X153686924Y-90228355D01*
X153276890Y-90058524D01*
X153047000Y-90179845D01*
X153047000Y-91373000D01*
X155333000Y-91373000D01*
X155333000Y-91353000D01*
X155587000Y-91353000D01*
X155587000Y-91373000D01*
X155607000Y-91373000D01*
X155607000Y-91627000D01*
X155587000Y-91627000D01*
X155587000Y-92820155D01*
X155816890Y-92941476D01*
X156226924Y-92771645D01*
X156529937Y-92495499D01*
X156546838Y-92585317D01*
X156685910Y-92801441D01*
X156898110Y-92946431D01*
X157150000Y-92997440D01*
X158850000Y-92997440D01*
X159085317Y-92953162D01*
X159290000Y-92821452D01*
X159290000Y-99290000D01*
X145710000Y-99290000D01*
X145710000Y-94000000D01*
X145655954Y-93728295D01*
X145502046Y-93497954D01*
X145271705Y-93344046D01*
X145000000Y-93290000D01*
X115000000Y-93290000D01*
X114728295Y-93344046D01*
X114497954Y-93497954D01*
X114344046Y-93728295D01*
X114290000Y-94000000D01*
X114290000Y-99290000D01*
X100710000Y-99290000D01*
X100710000Y-92929536D01*
X101165782Y-93385318D01*
X101454195Y-93578030D01*
X101794400Y-93645700D01*
X108036500Y-93645700D01*
X108376706Y-93578029D01*
X108665118Y-93385318D01*
X109069332Y-92981104D01*
X109150000Y-92997440D01*
X110850000Y-92997440D01*
X111085317Y-92953162D01*
X111301441Y-92814090D01*
X111446431Y-92601890D01*
X111489542Y-92389000D01*
X125183800Y-92389000D01*
X125524006Y-92321329D01*
X125812418Y-92128618D01*
X127764846Y-90176190D01*
X127764613Y-90442619D01*
X128104155Y-91264372D01*
X128732321Y-91893636D01*
X129553481Y-92234611D01*
X130442619Y-92235387D01*
X131264372Y-91895845D01*
X131303393Y-91856892D01*
X148938514Y-91856892D01*
X149184817Y-92381358D01*
X149613076Y-92771645D01*
X150023110Y-92941476D01*
X150253000Y-92820155D01*
X150253000Y-91627000D01*
X150507000Y-91627000D01*
X150507000Y-92820155D01*
X150736890Y-92941476D01*
X151146924Y-92771645D01*
X151575183Y-92381358D01*
X151650000Y-92222046D01*
X151724817Y-92381358D01*
X152153076Y-92771645D01*
X152563110Y-92941476D01*
X152793000Y-92820155D01*
X152793000Y-91627000D01*
X153047000Y-91627000D01*
X153047000Y-92820155D01*
X153276890Y-92941476D01*
X153686924Y-92771645D01*
X154115183Y-92381358D01*
X154190000Y-92222046D01*
X154264817Y-92381358D01*
X154693076Y-92771645D01*
X155103110Y-92941476D01*
X155333000Y-92820155D01*
X155333000Y-91627000D01*
X153047000Y-91627000D01*
X152793000Y-91627000D01*
X150507000Y-91627000D01*
X150253000Y-91627000D01*
X149059181Y-91627000D01*
X148938514Y-91856892D01*
X131303393Y-91856892D01*
X131893636Y-91267679D01*
X131945362Y-91143108D01*
X148938514Y-91143108D01*
X149059181Y-91373000D01*
X150253000Y-91373000D01*
X150253000Y-90179845D01*
X150507000Y-90179845D01*
X150507000Y-91373000D01*
X152793000Y-91373000D01*
X152793000Y-90179845D01*
X152563110Y-90058524D01*
X152153076Y-90228355D01*
X151724817Y-90618642D01*
X151650000Y-90777954D01*
X151575183Y-90618642D01*
X151146924Y-90228355D01*
X150736890Y-90058524D01*
X150507000Y-90179845D01*
X150253000Y-90179845D01*
X150023110Y-90058524D01*
X149613076Y-90228355D01*
X149184817Y-90618642D01*
X148938514Y-91143108D01*
X131945362Y-91143108D01*
X132234611Y-90446519D01*
X132235387Y-89557381D01*
X131895845Y-88735628D01*
X131267679Y-88106364D01*
X130626202Y-87840000D01*
X142039500Y-87840000D01*
X142379706Y-87772329D01*
X142668118Y-87579618D01*
X143657636Y-86590100D01*
X151125964Y-86590100D01*
X154743383Y-90207519D01*
X154743383Y-90207519D01*
G37*
X154743383Y-90207519D02*
X154693076Y-90228355D01*
X154264817Y-90618642D01*
X154190000Y-90777954D01*
X154115183Y-90618642D01*
X153686924Y-90228355D01*
X153276890Y-90058524D01*
X153047000Y-90179845D01*
X153047000Y-91373000D01*
X155333000Y-91373000D01*
X155333000Y-91353000D01*
X155587000Y-91353000D01*
X155587000Y-91373000D01*
X155607000Y-91373000D01*
X155607000Y-91627000D01*
X155587000Y-91627000D01*
X155587000Y-92820155D01*
X155816890Y-92941476D01*
X156226924Y-92771645D01*
X156529937Y-92495499D01*
X156546838Y-92585317D01*
X156685910Y-92801441D01*
X156898110Y-92946431D01*
X157150000Y-92997440D01*
X158850000Y-92997440D01*
X159085317Y-92953162D01*
X159290000Y-92821452D01*
X159290000Y-99290000D01*
X145710000Y-99290000D01*
X145710000Y-94000000D01*
X145655954Y-93728295D01*
X145502046Y-93497954D01*
X145271705Y-93344046D01*
X145000000Y-93290000D01*
X115000000Y-93290000D01*
X114728295Y-93344046D01*
X114497954Y-93497954D01*
X114344046Y-93728295D01*
X114290000Y-94000000D01*
X114290000Y-99290000D01*
X100710000Y-99290000D01*
X100710000Y-92929536D01*
X101165782Y-93385318D01*
X101454195Y-93578030D01*
X101794400Y-93645700D01*
X108036500Y-93645700D01*
X108376706Y-93578029D01*
X108665118Y-93385318D01*
X109069332Y-92981104D01*
X109150000Y-92997440D01*
X110850000Y-92997440D01*
X111085317Y-92953162D01*
X111301441Y-92814090D01*
X111446431Y-92601890D01*
X111489542Y-92389000D01*
X125183800Y-92389000D01*
X125524006Y-92321329D01*
X125812418Y-92128618D01*
X127764846Y-90176190D01*
X127764613Y-90442619D01*
X128104155Y-91264372D01*
X128732321Y-91893636D01*
X129553481Y-92234611D01*
X130442619Y-92235387D01*
X131264372Y-91895845D01*
X131303393Y-91856892D01*
X148938514Y-91856892D01*
X149184817Y-92381358D01*
X149613076Y-92771645D01*
X150023110Y-92941476D01*
X150253000Y-92820155D01*
X150253000Y-91627000D01*
X150507000Y-91627000D01*
X150507000Y-92820155D01*
X150736890Y-92941476D01*
X151146924Y-92771645D01*
X151575183Y-92381358D01*
X151650000Y-92222046D01*
X151724817Y-92381358D01*
X152153076Y-92771645D01*
X152563110Y-92941476D01*
X152793000Y-92820155D01*
X152793000Y-91627000D01*
X153047000Y-91627000D01*
X153047000Y-92820155D01*
X153276890Y-92941476D01*
X153686924Y-92771645D01*
X154115183Y-92381358D01*
X154190000Y-92222046D01*
X154264817Y-92381358D01*
X154693076Y-92771645D01*
X155103110Y-92941476D01*
X155333000Y-92820155D01*
X155333000Y-91627000D01*
X153047000Y-91627000D01*
X152793000Y-91627000D01*
X150507000Y-91627000D01*
X150253000Y-91627000D01*
X149059181Y-91627000D01*
X148938514Y-91856892D01*
X131303393Y-91856892D01*
X131893636Y-91267679D01*
X131945362Y-91143108D01*
X148938514Y-91143108D01*
X149059181Y-91373000D01*
X150253000Y-91373000D01*
X150253000Y-90179845D01*
X150507000Y-90179845D01*
X150507000Y-91373000D01*
X152793000Y-91373000D01*
X152793000Y-90179845D01*
X152563110Y-90058524D01*
X152153076Y-90228355D01*
X151724817Y-90618642D01*
X151650000Y-90777954D01*
X151575183Y-90618642D01*
X151146924Y-90228355D01*
X150736890Y-90058524D01*
X150507000Y-90179845D01*
X150253000Y-90179845D01*
X150023110Y-90058524D01*
X149613076Y-90228355D01*
X149184817Y-90618642D01*
X148938514Y-91143108D01*
X131945362Y-91143108D01*
X132234611Y-90446519D01*
X132235387Y-89557381D01*
X131895845Y-88735628D01*
X131267679Y-88106364D01*
X130626202Y-87840000D01*
X142039500Y-87840000D01*
X142379706Y-87772329D01*
X142668118Y-87579618D01*
X143657636Y-86590100D01*
X151125964Y-86590100D01*
X154743383Y-90207519D01*
G36*
X107587000Y-91373000D02*
X107607000Y-91373000D01*
X107607000Y-91627000D01*
X107587000Y-91627000D01*
X107587000Y-91647000D01*
X107333000Y-91647000D01*
X107333000Y-91627000D01*
X107313000Y-91627000D01*
X107313000Y-91373000D01*
X107333000Y-91373000D01*
X107333000Y-91353000D01*
X107587000Y-91353000D01*
X107587000Y-91373000D01*
X107587000Y-91373000D01*
G37*
X107587000Y-91373000D02*
X107607000Y-91373000D01*
X107607000Y-91627000D01*
X107587000Y-91627000D01*
X107587000Y-91647000D01*
X107333000Y-91647000D01*
X107333000Y-91627000D01*
X107313000Y-91627000D01*
X107313000Y-91373000D01*
X107333000Y-91373000D01*
X107333000Y-91353000D01*
X107587000Y-91353000D01*
X107587000Y-91373000D01*
G36*
X111897712Y-73845500D02*
X111855750Y-73845500D01*
X111697000Y-74004250D01*
X111697000Y-74925000D01*
X111717000Y-74925000D01*
X111717000Y-75179000D01*
X111697000Y-75179000D01*
X111697000Y-76099750D01*
X111855750Y-76258500D01*
X111950309Y-76258500D01*
X112183698Y-76161827D01*
X112198167Y-76147358D01*
X112337106Y-76355294D01*
X117473111Y-81491300D01*
X114036488Y-81491300D01*
X114034200Y-81489012D01*
X114034200Y-80720500D01*
X114005976Y-80578610D01*
X113983000Y-80463100D01*
X113983000Y-80354250D01*
X114237000Y-80354250D01*
X114237000Y-81275000D01*
X114840250Y-81275000D01*
X114999000Y-81116250D01*
X114999000Y-80704190D01*
X114902327Y-80470801D01*
X114723698Y-80292173D01*
X114490309Y-80195500D01*
X114395750Y-80195500D01*
X114237000Y-80354250D01*
X113983000Y-80354250D01*
X113824250Y-80195500D01*
X113803788Y-80195500D01*
X113706994Y-80098706D01*
X113476265Y-79944537D01*
X113204100Y-79890400D01*
X111570000Y-79890400D01*
X111297836Y-79944537D01*
X111067106Y-80098706D01*
X110928167Y-80306642D01*
X110913698Y-80292173D01*
X110680309Y-80195500D01*
X110585750Y-80195500D01*
X110427000Y-80354250D01*
X110427000Y-81275000D01*
X110447000Y-81275000D01*
X110447000Y-81529000D01*
X110427000Y-81529000D01*
X110427000Y-81549000D01*
X110173000Y-81549000D01*
X110173000Y-81529000D01*
X110153000Y-81529000D01*
X110153000Y-81275000D01*
X110173000Y-81275000D01*
X110173000Y-80354250D01*
X110014250Y-80195500D01*
X109919691Y-80195500D01*
X109686302Y-80292173D01*
X109659765Y-80318709D01*
X109535890Y-80234069D01*
X109284000Y-80183060D01*
X108776000Y-80183060D01*
X108540683Y-80227338D01*
X108394093Y-80321666D01*
X108265890Y-80234069D01*
X108014000Y-80183060D01*
X107506000Y-80183060D01*
X107270683Y-80227338D01*
X107129629Y-80318104D01*
X107103698Y-80292173D01*
X106870309Y-80195500D01*
X106775750Y-80195500D01*
X106617000Y-80354250D01*
X106617000Y-81275000D01*
X106637000Y-81275000D01*
X106637000Y-81529000D01*
X106617000Y-81529000D01*
X106617000Y-82449750D01*
X106775750Y-82608500D01*
X106870309Y-82608500D01*
X107103698Y-82511827D01*
X107118167Y-82497358D01*
X107257106Y-82705294D01*
X108069997Y-83518185D01*
X107706461Y-83925069D01*
X107499670Y-83615585D01*
X107013489Y-83290729D01*
X106440000Y-83176655D01*
X105866511Y-83290729D01*
X105380330Y-83615585D01*
X105055474Y-84101766D01*
X104941400Y-84675255D01*
X104941400Y-85044745D01*
X105055474Y-85618234D01*
X105380330Y-86104415D01*
X105866511Y-86429271D01*
X106440000Y-86543345D01*
X107013489Y-86429271D01*
X107499670Y-86104415D01*
X107706461Y-85794931D01*
X107866858Y-85974454D01*
X103424302Y-90417010D01*
X102948285Y-90098946D01*
X102380000Y-89985907D01*
X101975800Y-90066307D01*
X101975800Y-81801636D01*
X102089686Y-81687750D01*
X105601000Y-81687750D01*
X105601000Y-82099810D01*
X105697673Y-82333199D01*
X105876302Y-82511827D01*
X106109691Y-82608500D01*
X106204250Y-82608500D01*
X106363000Y-82449750D01*
X106363000Y-81529000D01*
X105759750Y-81529000D01*
X105601000Y-81687750D01*
X102089686Y-81687750D01*
X103073246Y-80704190D01*
X105601000Y-80704190D01*
X105601000Y-81116250D01*
X105759750Y-81275000D01*
X106363000Y-81275000D01*
X106363000Y-80354250D01*
X106204250Y-80195500D01*
X106109691Y-80195500D01*
X105876302Y-80292173D01*
X105697673Y-80470801D01*
X105601000Y-80704190D01*
X103073246Y-80704190D01*
X107118618Y-76658818D01*
X107131126Y-76640099D01*
X107311329Y-76370406D01*
X107337098Y-76240857D01*
X107379691Y-76258500D01*
X107474250Y-76258500D01*
X107633000Y-76099750D01*
X107633000Y-75179000D01*
X107613000Y-75179000D01*
X107613000Y-74925000D01*
X107633000Y-74925000D01*
X107633000Y-74905000D01*
X107887000Y-74905000D01*
X107887000Y-74925000D01*
X107907000Y-74925000D01*
X107907000Y-75179000D01*
X107887000Y-75179000D01*
X107887000Y-76099750D01*
X108045750Y-76258500D01*
X108140309Y-76258500D01*
X108373698Y-76161827D01*
X108400235Y-76135291D01*
X108524110Y-76219931D01*
X108776000Y-76270940D01*
X109284000Y-76270940D01*
X109519317Y-76226662D01*
X109665907Y-76132334D01*
X109794110Y-76219931D01*
X110046000Y-76270940D01*
X110554000Y-76270940D01*
X110789317Y-76226662D01*
X110930371Y-76135896D01*
X110956302Y-76161827D01*
X111189691Y-76258500D01*
X111284250Y-76258500D01*
X111443000Y-76099750D01*
X111443000Y-75179000D01*
X111423000Y-75179000D01*
X111423000Y-74925000D01*
X111443000Y-74925000D01*
X111443000Y-74004250D01*
X111284250Y-73845500D01*
X111189691Y-73845500D01*
X110956302Y-73942173D01*
X110941833Y-73956642D01*
X110853676Y-73824706D01*
X110802894Y-73748705D01*
X110540789Y-73486600D01*
X111538812Y-73486600D01*
X111897712Y-73845500D01*
X111897712Y-73845500D01*
G37*
X111897712Y-73845500D02*
X111855750Y-73845500D01*
X111697000Y-74004250D01*
X111697000Y-74925000D01*
X111717000Y-74925000D01*
X111717000Y-75179000D01*
X111697000Y-75179000D01*
X111697000Y-76099750D01*
X111855750Y-76258500D01*
X111950309Y-76258500D01*
X112183698Y-76161827D01*
X112198167Y-76147358D01*
X112337106Y-76355294D01*
X117473111Y-81491300D01*
X114036488Y-81491300D01*
X114034200Y-81489012D01*
X114034200Y-80720500D01*
X114005976Y-80578610D01*
X113983000Y-80463100D01*
X113983000Y-80354250D01*
X114237000Y-80354250D01*
X114237000Y-81275000D01*
X114840250Y-81275000D01*
X114999000Y-81116250D01*
X114999000Y-80704190D01*
X114902327Y-80470801D01*
X114723698Y-80292173D01*
X114490309Y-80195500D01*
X114395750Y-80195500D01*
X114237000Y-80354250D01*
X113983000Y-80354250D01*
X113824250Y-80195500D01*
X113803788Y-80195500D01*
X113706994Y-80098706D01*
X113476265Y-79944537D01*
X113204100Y-79890400D01*
X111570000Y-79890400D01*
X111297836Y-79944537D01*
X111067106Y-80098706D01*
X110928167Y-80306642D01*
X110913698Y-80292173D01*
X110680309Y-80195500D01*
X110585750Y-80195500D01*
X110427000Y-80354250D01*
X110427000Y-81275000D01*
X110447000Y-81275000D01*
X110447000Y-81529000D01*
X110427000Y-81529000D01*
X110427000Y-81549000D01*
X110173000Y-81549000D01*
X110173000Y-81529000D01*
X110153000Y-81529000D01*
X110153000Y-81275000D01*
X110173000Y-81275000D01*
X110173000Y-80354250D01*
X110014250Y-80195500D01*
X109919691Y-80195500D01*
X109686302Y-80292173D01*
X109659765Y-80318709D01*
X109535890Y-80234069D01*
X109284000Y-80183060D01*
X108776000Y-80183060D01*
X108540683Y-80227338D01*
X108394093Y-80321666D01*
X108265890Y-80234069D01*
X108014000Y-80183060D01*
X107506000Y-80183060D01*
X107270683Y-80227338D01*
X107129629Y-80318104D01*
X107103698Y-80292173D01*
X106870309Y-80195500D01*
X106775750Y-80195500D01*
X106617000Y-80354250D01*
X106617000Y-81275000D01*
X106637000Y-81275000D01*
X106637000Y-81529000D01*
X106617000Y-81529000D01*
X106617000Y-82449750D01*
X106775750Y-82608500D01*
X106870309Y-82608500D01*
X107103698Y-82511827D01*
X107118167Y-82497358D01*
X107257106Y-82705294D01*
X108069997Y-83518185D01*
X107706461Y-83925069D01*
X107499670Y-83615585D01*
X107013489Y-83290729D01*
X106440000Y-83176655D01*
X105866511Y-83290729D01*
X105380330Y-83615585D01*
X105055474Y-84101766D01*
X104941400Y-84675255D01*
X104941400Y-85044745D01*
X105055474Y-85618234D01*
X105380330Y-86104415D01*
X105866511Y-86429271D01*
X106440000Y-86543345D01*
X107013489Y-86429271D01*
X107499670Y-86104415D01*
X107706461Y-85794931D01*
X107866858Y-85974454D01*
X103424302Y-90417010D01*
X102948285Y-90098946D01*
X102380000Y-89985907D01*
X101975800Y-90066307D01*
X101975800Y-81801636D01*
X102089686Y-81687750D01*
X105601000Y-81687750D01*
X105601000Y-82099810D01*
X105697673Y-82333199D01*
X105876302Y-82511827D01*
X106109691Y-82608500D01*
X106204250Y-82608500D01*
X106363000Y-82449750D01*
X106363000Y-81529000D01*
X105759750Y-81529000D01*
X105601000Y-81687750D01*
X102089686Y-81687750D01*
X103073246Y-80704190D01*
X105601000Y-80704190D01*
X105601000Y-81116250D01*
X105759750Y-81275000D01*
X106363000Y-81275000D01*
X106363000Y-80354250D01*
X106204250Y-80195500D01*
X106109691Y-80195500D01*
X105876302Y-80292173D01*
X105697673Y-80470801D01*
X105601000Y-80704190D01*
X103073246Y-80704190D01*
X107118618Y-76658818D01*
X107131126Y-76640099D01*
X107311329Y-76370406D01*
X107337098Y-76240857D01*
X107379691Y-76258500D01*
X107474250Y-76258500D01*
X107633000Y-76099750D01*
X107633000Y-75179000D01*
X107613000Y-75179000D01*
X107613000Y-74925000D01*
X107633000Y-74925000D01*
X107633000Y-74905000D01*
X107887000Y-74905000D01*
X107887000Y-74925000D01*
X107907000Y-74925000D01*
X107907000Y-75179000D01*
X107887000Y-75179000D01*
X107887000Y-76099750D01*
X108045750Y-76258500D01*
X108140309Y-76258500D01*
X108373698Y-76161827D01*
X108400235Y-76135291D01*
X108524110Y-76219931D01*
X108776000Y-76270940D01*
X109284000Y-76270940D01*
X109519317Y-76226662D01*
X109665907Y-76132334D01*
X109794110Y-76219931D01*
X110046000Y-76270940D01*
X110554000Y-76270940D01*
X110789317Y-76226662D01*
X110930371Y-76135896D01*
X110956302Y-76161827D01*
X111189691Y-76258500D01*
X111284250Y-76258500D01*
X111443000Y-76099750D01*
X111443000Y-75179000D01*
X111423000Y-75179000D01*
X111423000Y-74925000D01*
X111443000Y-74925000D01*
X111443000Y-74004250D01*
X111284250Y-73845500D01*
X111189691Y-73845500D01*
X110956302Y-73942173D01*
X110941833Y-73956642D01*
X110853676Y-73824706D01*
X110802894Y-73748705D01*
X110540789Y-73486600D01*
X111538812Y-73486600D01*
X111897712Y-73845500D01*
G36*
X159290000Y-90182099D02*
X159101890Y-90053569D01*
X158850000Y-90002560D01*
X157150000Y-90002560D01*
X157068274Y-90017938D01*
X152122818Y-85072482D01*
X151994885Y-84987000D01*
X151949000Y-84956340D01*
X151949000Y-82085750D01*
X153365000Y-82085750D01*
X153365000Y-83126309D01*
X153461673Y-83359698D01*
X153640301Y-83538327D01*
X153873690Y-83635000D01*
X154914250Y-83635000D01*
X155073000Y-83476250D01*
X155073000Y-81927000D01*
X155327000Y-81927000D01*
X155327000Y-83476250D01*
X155485750Y-83635000D01*
X156526310Y-83635000D01*
X156759699Y-83538327D01*
X156938327Y-83359698D01*
X157035000Y-83126309D01*
X157035000Y-82085750D01*
X156876250Y-81927000D01*
X155327000Y-81927000D01*
X155073000Y-81927000D01*
X153523750Y-81927000D01*
X153365000Y-82085750D01*
X151949000Y-82085750D01*
X151949000Y-78663403D01*
X153364682Y-78663403D01*
X153643455Y-79338086D01*
X154159199Y-79854730D01*
X154424758Y-79965000D01*
X153873690Y-79965000D01*
X153640301Y-80061673D01*
X153461673Y-80240302D01*
X153365000Y-80473691D01*
X153365000Y-81514250D01*
X153523750Y-81673000D01*
X155073000Y-81673000D01*
X155073000Y-81653000D01*
X155327000Y-81653000D01*
X155327000Y-81673000D01*
X156876250Y-81673000D01*
X157035000Y-81514250D01*
X157035000Y-80473691D01*
X156938327Y-80240302D01*
X156759699Y-80061673D01*
X156526310Y-79965000D01*
X155975605Y-79965000D01*
X156238086Y-79856545D01*
X156754730Y-79340801D01*
X157034681Y-78666605D01*
X157035318Y-77936597D01*
X156756545Y-77261914D01*
X156240801Y-76745270D01*
X155566605Y-76465319D01*
X154836597Y-76464682D01*
X154161914Y-76743455D01*
X153645270Y-77259199D01*
X153365319Y-77933395D01*
X153364682Y-78663403D01*
X151949000Y-78663403D01*
X151949000Y-73210755D01*
X152055206Y-73189629D01*
X152343618Y-72996918D01*
X152538508Y-72802028D01*
X152549946Y-72819147D01*
X153031715Y-73141054D01*
X153600000Y-73254093D01*
X154168285Y-73141054D01*
X154650054Y-72819147D01*
X154971961Y-72337378D01*
X155085000Y-71769093D01*
X155085000Y-71710907D01*
X154971961Y-71142622D01*
X154650054Y-70660853D01*
X154648821Y-70660029D01*
X154685317Y-70653162D01*
X154901441Y-70514090D01*
X155046431Y-70301890D01*
X155097440Y-70050000D01*
X155097440Y-68350000D01*
X155053162Y-68114683D01*
X154914090Y-67898559D01*
X154701890Y-67753569D01*
X154450000Y-67702560D01*
X152750000Y-67702560D01*
X152514683Y-67746838D01*
X152298559Y-67885910D01*
X152153569Y-68098110D01*
X152139914Y-68165541D01*
X152110054Y-68120853D01*
X151628285Y-67798946D01*
X151063923Y-67686687D01*
X150148618Y-66771382D01*
X149860206Y-66578671D01*
X149520000Y-66511000D01*
X147771285Y-66511000D01*
X147753162Y-66414683D01*
X147614090Y-66198559D01*
X147401890Y-66053569D01*
X147150000Y-66002560D01*
X145150000Y-66002560D01*
X144914683Y-66046838D01*
X144698559Y-66185910D01*
X144553569Y-66398110D01*
X144502560Y-66650000D01*
X144502560Y-68150000D01*
X144546838Y-68385317D01*
X144652482Y-68549492D01*
X144611673Y-68590301D01*
X144515000Y-68823690D01*
X144515000Y-69414250D01*
X144673750Y-69573000D01*
X146023000Y-69573000D01*
X146023000Y-69553000D01*
X146277000Y-69553000D01*
X146277000Y-69573000D01*
X147626250Y-69573000D01*
X147785000Y-69414250D01*
X147785000Y-68823690D01*
X147688327Y-68590301D01*
X147646366Y-68548340D01*
X147746431Y-68401890D01*
X147769292Y-68289000D01*
X149151764Y-68289000D01*
X149651098Y-68788334D01*
X149575000Y-69170907D01*
X149575000Y-69229093D01*
X149644999Y-69581000D01*
X149440000Y-69581000D01*
X149099794Y-69648671D01*
X148832906Y-69827000D01*
X148811382Y-69841382D01*
X147708104Y-70944660D01*
X147647518Y-70850508D01*
X147688327Y-70809699D01*
X147785000Y-70576310D01*
X147785000Y-69985750D01*
X147626250Y-69827000D01*
X146277000Y-69827000D01*
X146277000Y-69847000D01*
X146023000Y-69847000D01*
X146023000Y-69827000D01*
X144673750Y-69827000D01*
X144515000Y-69985750D01*
X144515000Y-70576310D01*
X144611673Y-70809699D01*
X144653634Y-70851660D01*
X144553569Y-70998110D01*
X144502560Y-71250000D01*
X144502560Y-72750000D01*
X144546838Y-72985317D01*
X144685910Y-73201441D01*
X144898110Y-73346431D01*
X145150000Y-73397440D01*
X147150000Y-73397440D01*
X147385317Y-73353162D01*
X147601441Y-73214090D01*
X147746431Y-73001890D01*
X147769292Y-72889000D01*
X147910000Y-72889000D01*
X148250206Y-72821329D01*
X148538618Y-72628618D01*
X149604466Y-71562770D01*
X149575000Y-71710907D01*
X149575000Y-71769093D01*
X149688039Y-72337378D01*
X150009946Y-72819147D01*
X150171000Y-72926760D01*
X150171000Y-84812100D01*
X144178400Y-84812100D01*
X144178400Y-84166800D01*
X144110729Y-83826594D01*
X143918018Y-83538182D01*
X138231218Y-77851382D01*
X138073344Y-77745894D01*
X137942806Y-77658671D01*
X137820700Y-77634383D01*
X137820700Y-77562900D01*
X137753029Y-77222694D01*
X137560318Y-76934282D01*
X137164625Y-76538589D01*
X137172440Y-76500000D01*
X137172440Y-75380000D01*
X137128162Y-75144683D01*
X136989090Y-74928559D01*
X136776890Y-74783569D01*
X136525000Y-74732560D01*
X136197800Y-74732560D01*
X136197800Y-74607440D01*
X136525000Y-74607440D01*
X136760317Y-74563162D01*
X136976441Y-74424090D01*
X137121431Y-74211890D01*
X137172440Y-73960000D01*
X137172440Y-73196496D01*
X137560318Y-72808618D01*
X137753030Y-72520205D01*
X137820700Y-72180000D01*
X137820700Y-69985750D01*
X138215000Y-69985750D01*
X138215000Y-71726310D01*
X138311673Y-71959699D01*
X138490302Y-72138327D01*
X138723691Y-72235000D01*
X139564250Y-72235000D01*
X139723000Y-72076250D01*
X139723000Y-69827000D01*
X139977000Y-69827000D01*
X139977000Y-72076250D01*
X140135750Y-72235000D01*
X140976309Y-72235000D01*
X141209698Y-72138327D01*
X141388327Y-71959699D01*
X141485000Y-71726310D01*
X141485000Y-69985750D01*
X141326250Y-69827000D01*
X139977000Y-69827000D01*
X139723000Y-69827000D01*
X138373750Y-69827000D01*
X138215000Y-69985750D01*
X137820700Y-69985750D01*
X137820700Y-68320000D01*
X137753029Y-67979794D01*
X137560318Y-67691382D01*
X137533841Y-67673690D01*
X138215000Y-67673690D01*
X138215000Y-69414250D01*
X138373750Y-69573000D01*
X139723000Y-69573000D01*
X139723000Y-67323750D01*
X139977000Y-67323750D01*
X139977000Y-69573000D01*
X141326250Y-69573000D01*
X141485000Y-69414250D01*
X141485000Y-67673690D01*
X141388327Y-67440301D01*
X141209698Y-67261673D01*
X140976309Y-67165000D01*
X140135750Y-67165000D01*
X139977000Y-67323750D01*
X139723000Y-67323750D01*
X139564250Y-67165000D01*
X138723691Y-67165000D01*
X138490302Y-67261673D01*
X138311673Y-67440301D01*
X138215000Y-67673690D01*
X137533841Y-67673690D01*
X137271906Y-67498671D01*
X137087867Y-67462064D01*
X136989090Y-67308559D01*
X136776890Y-67163569D01*
X136525000Y-67112560D01*
X134085000Y-67112560D01*
X133849683Y-67156838D01*
X133633559Y-67295910D01*
X133488569Y-67508110D01*
X133437560Y-67760000D01*
X133437560Y-68880000D01*
X133481838Y-69115317D01*
X133620910Y-69331441D01*
X133833110Y-69476431D01*
X134085000Y-69527440D01*
X136042700Y-69527440D01*
X136042700Y-69652560D01*
X134085000Y-69652560D01*
X133849683Y-69696838D01*
X133633559Y-69835910D01*
X133488569Y-70048110D01*
X133437560Y-70300000D01*
X133437560Y-71420000D01*
X133481838Y-71655317D01*
X133620910Y-71871441D01*
X133833110Y-72016431D01*
X134085000Y-72067440D01*
X135787024Y-72067440D01*
X135661904Y-72192560D01*
X134085000Y-72192560D01*
X133849683Y-72236838D01*
X133633559Y-72375910D01*
X133488569Y-72588110D01*
X133437560Y-72840000D01*
X133437560Y-73960000D01*
X133481838Y-74195317D01*
X133620910Y-74411441D01*
X133833110Y-74556431D01*
X134085000Y-74607440D01*
X134419800Y-74607440D01*
X134419800Y-74732560D01*
X134085000Y-74732560D01*
X133849683Y-74776838D01*
X133633559Y-74915910D01*
X133488569Y-75128110D01*
X133437560Y-75380000D01*
X133437560Y-76500000D01*
X133481838Y-76735317D01*
X133620910Y-76951441D01*
X133833110Y-77096431D01*
X134085000Y-77147440D01*
X135259004Y-77147440D01*
X135384124Y-77272560D01*
X134085000Y-77272560D01*
X133849683Y-77316838D01*
X133633559Y-77455910D01*
X133488569Y-77668110D01*
X133437560Y-77920000D01*
X133437560Y-79040000D01*
X133481838Y-79275317D01*
X133620910Y-79491441D01*
X133833110Y-79636431D01*
X134085000Y-79687440D01*
X136525000Y-79687440D01*
X136760317Y-79643162D01*
X136976441Y-79504090D01*
X137068744Y-79369000D01*
X137234364Y-79369000D01*
X141264407Y-83399043D01*
X140940330Y-83615585D01*
X140730000Y-83930366D01*
X140519670Y-83615585D01*
X140033489Y-83290729D01*
X139460000Y-83176655D01*
X138886511Y-83290729D01*
X138400330Y-83615585D01*
X138190000Y-83930366D01*
X137979670Y-83615585D01*
X137493489Y-83290729D01*
X136920000Y-83176655D01*
X136346511Y-83290729D01*
X135860330Y-83615585D01*
X135650000Y-83930366D01*
X135439670Y-83615585D01*
X134953489Y-83290729D01*
X134380000Y-83176655D01*
X133806511Y-83290729D01*
X133320330Y-83615585D01*
X133110000Y-83930366D01*
X132899670Y-83615585D01*
X132413489Y-83290729D01*
X131840000Y-83176655D01*
X131266511Y-83290729D01*
X130780330Y-83615585D01*
X130570000Y-83930366D01*
X130359670Y-83615585D01*
X129873489Y-83290729D01*
X129300000Y-83176655D01*
X128726511Y-83290729D01*
X128240330Y-83615585D01*
X128033539Y-83925069D01*
X127662036Y-83509268D01*
X127134791Y-83255291D01*
X127119026Y-83252642D01*
X126887000Y-83373783D01*
X126887000Y-84733000D01*
X126907000Y-84733000D01*
X126907000Y-84987000D01*
X126887000Y-84987000D01*
X126887000Y-85007000D01*
X126633000Y-85007000D01*
X126633000Y-84987000D01*
X126613000Y-84987000D01*
X126613000Y-84733000D01*
X126633000Y-84733000D01*
X126633000Y-83373783D01*
X126400974Y-83252642D01*
X126385209Y-83255291D01*
X125857964Y-83509268D01*
X125723337Y-83659949D01*
X124279894Y-82216506D01*
X124049165Y-82062337D01*
X123777000Y-82008200D01*
X121963288Y-82008200D01*
X121501557Y-81546469D01*
X121538327Y-81509699D01*
X121594654Y-81373713D01*
X121596838Y-81385317D01*
X121735910Y-81601441D01*
X121948110Y-81746431D01*
X122200000Y-81797440D01*
X122900000Y-81797440D01*
X123135317Y-81753162D01*
X123351441Y-81614090D01*
X123496431Y-81401890D01*
X123547440Y-81150000D01*
X123547440Y-79850000D01*
X123503162Y-79614683D01*
X123476146Y-79572699D01*
X123517500Y-79364800D01*
X123517500Y-79191200D01*
X124856010Y-79191200D01*
X124871838Y-79275317D01*
X125010910Y-79491441D01*
X125223110Y-79636431D01*
X125475000Y-79687440D01*
X127915000Y-79687440D01*
X128150317Y-79643162D01*
X128366441Y-79504090D01*
X128511431Y-79291890D01*
X128562440Y-79040000D01*
X128562440Y-77920000D01*
X128518162Y-77684683D01*
X128379090Y-77468559D01*
X128166890Y-77323569D01*
X127915000Y-77272560D01*
X125475000Y-77272560D01*
X125239683Y-77316838D01*
X125023559Y-77455910D01*
X124878569Y-77668110D01*
X124858179Y-77768800D01*
X123503132Y-77768800D01*
X123535047Y-77611200D01*
X124286100Y-77611200D01*
X124558265Y-77557063D01*
X124788994Y-77402894D01*
X125147274Y-77044614D01*
X125223110Y-77096431D01*
X125475000Y-77147440D01*
X127915000Y-77147440D01*
X128150317Y-77103162D01*
X128366441Y-76964090D01*
X128511431Y-76751890D01*
X128562440Y-76500000D01*
X128562440Y-75380000D01*
X128518162Y-75144683D01*
X128379090Y-74928559D01*
X128166890Y-74783569D01*
X127915000Y-74732560D01*
X125475000Y-74732560D01*
X125239683Y-74776838D01*
X125023559Y-74915910D01*
X124878569Y-75128110D01*
X124827560Y-75380000D01*
X124827560Y-75380742D01*
X124743206Y-75437106D01*
X123991512Y-76188800D01*
X123535924Y-76188800D01*
X123503162Y-76014683D01*
X123364090Y-75798559D01*
X123151890Y-75653569D01*
X122900000Y-75602560D01*
X122200000Y-75602560D01*
X122188173Y-75604785D01*
X121558194Y-74974806D01*
X121516655Y-74947051D01*
X121691094Y-74830494D01*
X121904770Y-74616818D01*
X121948110Y-74646431D01*
X122200000Y-74697440D01*
X122900000Y-74697440D01*
X123135317Y-74653162D01*
X123351441Y-74514090D01*
X123496431Y-74301890D01*
X123535047Y-74111200D01*
X124856010Y-74111200D01*
X124871838Y-74195317D01*
X125010910Y-74411441D01*
X125223110Y-74556431D01*
X125475000Y-74607440D01*
X127915000Y-74607440D01*
X128150317Y-74563162D01*
X128366441Y-74424090D01*
X128511431Y-74211890D01*
X128562440Y-73960000D01*
X128562440Y-72840000D01*
X128518162Y-72604683D01*
X128379090Y-72388559D01*
X128166890Y-72243569D01*
X127915000Y-72192560D01*
X125475000Y-72192560D01*
X125239683Y-72236838D01*
X125023559Y-72375910D01*
X124878569Y-72588110D01*
X124858179Y-72688800D01*
X123535924Y-72688800D01*
X123503162Y-72514683D01*
X123364090Y-72298559D01*
X123151890Y-72153569D01*
X122900000Y-72102560D01*
X122200000Y-72102560D01*
X121964683Y-72146838D01*
X121748559Y-72285910D01*
X121603569Y-72498110D01*
X121596809Y-72531490D01*
X121538327Y-72390301D01*
X121359698Y-72211673D01*
X121126309Y-72115000D01*
X120935750Y-72115000D01*
X120777000Y-72273750D01*
X120777000Y-73273000D01*
X120797000Y-73273000D01*
X120797000Y-73527000D01*
X120777000Y-73527000D01*
X120777000Y-73547000D01*
X120523000Y-73547000D01*
X120523000Y-73527000D01*
X119823750Y-73527000D01*
X119734350Y-73616400D01*
X116675388Y-73616400D01*
X116001257Y-72942269D01*
X116037327Y-72906199D01*
X116134000Y-72672810D01*
X116134000Y-72623690D01*
X119665000Y-72623690D01*
X119665000Y-73114250D01*
X119823750Y-73273000D01*
X120523000Y-73273000D01*
X120523000Y-72273750D01*
X120364250Y-72115000D01*
X120173691Y-72115000D01*
X119940302Y-72211673D01*
X119761673Y-72390301D01*
X119665000Y-72623690D01*
X116134000Y-72623690D01*
X116134000Y-72260750D01*
X115975250Y-72102000D01*
X115372000Y-72102000D01*
X115372000Y-72122000D01*
X115180988Y-72122000D01*
X115169200Y-72110212D01*
X115169200Y-71828000D01*
X115372000Y-71828000D01*
X115372000Y-71848000D01*
X115975250Y-71848000D01*
X116134000Y-71689250D01*
X116134000Y-71277190D01*
X116124809Y-71255000D01*
X117454318Y-71255000D01*
X117598535Y-71351363D01*
X117643690Y-71360345D01*
X117870700Y-71405500D01*
X121149200Y-71405500D01*
X121421365Y-71351363D01*
X121652094Y-71197194D01*
X121861818Y-70987470D01*
X121948110Y-71046431D01*
X122200000Y-71097440D01*
X122900000Y-71097440D01*
X123135317Y-71053162D01*
X123351441Y-70914090D01*
X123496431Y-70701890D01*
X123535047Y-70511200D01*
X123891512Y-70511200D01*
X124743205Y-71362894D01*
X124806970Y-71405500D01*
X124827560Y-71419258D01*
X124827560Y-71420000D01*
X124871838Y-71655317D01*
X125010910Y-71871441D01*
X125223110Y-72016431D01*
X125475000Y-72067440D01*
X127915000Y-72067440D01*
X128150317Y-72023162D01*
X128366441Y-71884090D01*
X128511431Y-71671890D01*
X128562440Y-71420000D01*
X128562440Y-70300000D01*
X128518162Y-70064683D01*
X128379090Y-69848559D01*
X128166890Y-69703569D01*
X127915000Y-69652560D01*
X125475000Y-69652560D01*
X125239683Y-69696838D01*
X125147831Y-69755943D01*
X124688994Y-69297106D01*
X124458265Y-69142937D01*
X124186100Y-69088800D01*
X123535924Y-69088800D01*
X123503162Y-68914683D01*
X123364090Y-68698559D01*
X123151890Y-68553569D01*
X122900000Y-68502560D01*
X122200000Y-68502560D01*
X121964683Y-68546838D01*
X121748559Y-68685910D01*
X121603569Y-68898110D01*
X121596809Y-68931490D01*
X121538327Y-68790301D01*
X121359698Y-68611673D01*
X121126309Y-68515000D01*
X120935750Y-68515000D01*
X120777000Y-68673750D01*
X120777000Y-69673000D01*
X120797000Y-69673000D01*
X120797000Y-69927000D01*
X120777000Y-69927000D01*
X120777000Y-69947000D01*
X120523000Y-69947000D01*
X120523000Y-69927000D01*
X119823750Y-69927000D01*
X119767650Y-69983100D01*
X118136582Y-69983100D01*
X117992365Y-69886737D01*
X117720200Y-69832600D01*
X109525800Y-69832600D01*
X109253635Y-69886737D01*
X109022906Y-70040906D01*
X108432076Y-70631736D01*
X108261165Y-70517537D01*
X107989000Y-70463400D01*
X106583300Y-70463400D01*
X106583300Y-69023690D01*
X119665000Y-69023690D01*
X119665000Y-69514250D01*
X119823750Y-69673000D01*
X120523000Y-69673000D01*
X120523000Y-68673750D01*
X120364250Y-68515000D01*
X120173691Y-68515000D01*
X119940302Y-68611673D01*
X119761673Y-68790301D01*
X119665000Y-69023690D01*
X106583300Y-69023690D01*
X106583300Y-67632136D01*
X106983618Y-67231818D01*
X107028264Y-67165000D01*
X107176329Y-66943406D01*
X107202098Y-66813857D01*
X107244691Y-66831500D01*
X107339250Y-66831500D01*
X107498000Y-66672750D01*
X107498000Y-65752000D01*
X107478000Y-65752000D01*
X107478000Y-65498000D01*
X107498000Y-65498000D01*
X107498000Y-65478000D01*
X107752000Y-65478000D01*
X107752000Y-65498000D01*
X107772000Y-65498000D01*
X107772000Y-65752000D01*
X107752000Y-65752000D01*
X107752000Y-66672750D01*
X107910750Y-66831500D01*
X108005309Y-66831500D01*
X108238698Y-66734827D01*
X108265235Y-66708291D01*
X108389110Y-66792931D01*
X108641000Y-66843940D01*
X109149000Y-66843940D01*
X109384317Y-66799662D01*
X109525371Y-66708896D01*
X109551302Y-66734827D01*
X109784691Y-66831500D01*
X109879250Y-66831500D01*
X110038000Y-66672750D01*
X110038000Y-65752000D01*
X110292000Y-65752000D01*
X110292000Y-66672750D01*
X110450750Y-66831500D01*
X110545309Y-66831500D01*
X110778698Y-66734827D01*
X110800000Y-66713525D01*
X110821302Y-66734827D01*
X111054691Y-66831500D01*
X111149250Y-66831500D01*
X111308000Y-66672750D01*
X111308000Y-65752000D01*
X111562000Y-65752000D01*
X111562000Y-66672750D01*
X111720750Y-66831500D01*
X111815309Y-66831500D01*
X112048698Y-66734827D01*
X112070000Y-66713525D01*
X112091302Y-66734827D01*
X112324691Y-66831500D01*
X112419250Y-66831500D01*
X112578000Y-66672750D01*
X112578000Y-65752000D01*
X112832000Y-65752000D01*
X112832000Y-66672750D01*
X112990750Y-66831500D01*
X113085309Y-66831500D01*
X113318698Y-66734827D01*
X113340000Y-66713525D01*
X113361302Y-66734827D01*
X113594691Y-66831500D01*
X113689250Y-66831500D01*
X113848000Y-66672750D01*
X113848000Y-65752000D01*
X112832000Y-65752000D01*
X112578000Y-65752000D01*
X111562000Y-65752000D01*
X111308000Y-65752000D01*
X110292000Y-65752000D01*
X110038000Y-65752000D01*
X110018000Y-65752000D01*
X110018000Y-65498000D01*
X110038000Y-65498000D01*
X110038000Y-64577250D01*
X110292000Y-64577250D01*
X110292000Y-65498000D01*
X111308000Y-65498000D01*
X111308000Y-64577250D01*
X111562000Y-64577250D01*
X111562000Y-65498000D01*
X112578000Y-65498000D01*
X112578000Y-64577250D01*
X112832000Y-64577250D01*
X112832000Y-65498000D01*
X113848000Y-65498000D01*
X113848000Y-64577250D01*
X114102000Y-64577250D01*
X114102000Y-65498000D01*
X114122000Y-65498000D01*
X114122000Y-65752000D01*
X114102000Y-65752000D01*
X114102000Y-66672750D01*
X114260750Y-66831500D01*
X114355309Y-66831500D01*
X114588698Y-66734827D01*
X114615235Y-66708291D01*
X114739110Y-66792931D01*
X114991000Y-66843940D01*
X115499000Y-66843940D01*
X115734317Y-66799662D01*
X115950441Y-66660590D01*
X116095431Y-66448390D01*
X116118150Y-66336200D01*
X116223206Y-66336200D01*
X116340341Y-66453540D01*
X116699630Y-66602730D01*
X117088663Y-66603069D01*
X117372597Y-66485750D01*
X119665000Y-66485750D01*
X119665000Y-66976310D01*
X119761673Y-67209699D01*
X119940302Y-67388327D01*
X120173691Y-67485000D01*
X120364250Y-67485000D01*
X120523000Y-67326250D01*
X120523000Y-66327000D01*
X119823750Y-66327000D01*
X119665000Y-66485750D01*
X117372597Y-66485750D01*
X117448212Y-66454507D01*
X117723540Y-66179659D01*
X117872730Y-65820370D01*
X117873069Y-65431337D01*
X117724507Y-65071788D01*
X117449659Y-64796460D01*
X117090370Y-64647270D01*
X116701337Y-64646931D01*
X116341788Y-64795493D01*
X116223274Y-64913800D01*
X116120154Y-64913800D01*
X116102162Y-64818183D01*
X115963090Y-64602059D01*
X115750890Y-64457069D01*
X115499000Y-64406060D01*
X114991000Y-64406060D01*
X114755683Y-64450338D01*
X114614629Y-64541104D01*
X114588698Y-64515173D01*
X114355309Y-64418500D01*
X114260750Y-64418500D01*
X114102000Y-64577250D01*
X113848000Y-64577250D01*
X113689250Y-64418500D01*
X113594691Y-64418500D01*
X113361302Y-64515173D01*
X113340000Y-64536475D01*
X113318698Y-64515173D01*
X113085309Y-64418500D01*
X112990750Y-64418500D01*
X112832000Y-64577250D01*
X112578000Y-64577250D01*
X112419250Y-64418500D01*
X112324691Y-64418500D01*
X112091302Y-64515173D01*
X112070000Y-64536475D01*
X112048698Y-64515173D01*
X111815309Y-64418500D01*
X111720750Y-64418500D01*
X111562000Y-64577250D01*
X111308000Y-64577250D01*
X111149250Y-64418500D01*
X111054691Y-64418500D01*
X110821302Y-64515173D01*
X110800000Y-64536475D01*
X110778698Y-64515173D01*
X110545309Y-64418500D01*
X110450750Y-64418500D01*
X110292000Y-64577250D01*
X110038000Y-64577250D01*
X109879250Y-64418500D01*
X109784691Y-64418500D01*
X109551302Y-64515173D01*
X109536833Y-64529642D01*
X109454258Y-64406060D01*
X109397894Y-64321705D01*
X108662083Y-63585895D01*
X108853000Y-63486217D01*
X108853000Y-62127000D01*
X108833000Y-62127000D01*
X108833000Y-61873000D01*
X108853000Y-61873000D01*
X108853000Y-61853000D01*
X109107000Y-61853000D01*
X109107000Y-61873000D01*
X109127000Y-61873000D01*
X109127000Y-62127000D01*
X109107000Y-62127000D01*
X109107000Y-63486217D01*
X109339026Y-63607358D01*
X109354791Y-63604709D01*
X109882036Y-63350732D01*
X110253539Y-62934931D01*
X110460330Y-63244415D01*
X110946511Y-63569271D01*
X111520000Y-63683345D01*
X112093489Y-63569271D01*
X112579670Y-63244415D01*
X112790000Y-62929634D01*
X113000330Y-63244415D01*
X113486511Y-63569271D01*
X114060000Y-63683345D01*
X114633489Y-63569271D01*
X115119670Y-63244415D01*
X115330000Y-62929634D01*
X115540330Y-63244415D01*
X116026511Y-63569271D01*
X116600000Y-63683345D01*
X117173489Y-63569271D01*
X117659670Y-63244415D01*
X117866461Y-62934931D01*
X118237964Y-63350732D01*
X118765209Y-63604709D01*
X118780974Y-63607358D01*
X119013000Y-63486217D01*
X119013000Y-62127000D01*
X118993000Y-62127000D01*
X118993000Y-61873000D01*
X119013000Y-61873000D01*
X119013000Y-61853000D01*
X119267000Y-61853000D01*
X119267000Y-61873000D01*
X119287000Y-61873000D01*
X119287000Y-62127000D01*
X119267000Y-62127000D01*
X119267000Y-63486217D01*
X119499026Y-63607358D01*
X119514791Y-63604709D01*
X119665100Y-63532304D01*
X119665100Y-64026300D01*
X119719237Y-64298465D01*
X119873406Y-64529194D01*
X120259212Y-64915000D01*
X120173691Y-64915000D01*
X119940302Y-65011673D01*
X119761673Y-65190301D01*
X119665000Y-65423690D01*
X119665000Y-65914250D01*
X119823750Y-66073000D01*
X120523000Y-66073000D01*
X120523000Y-66053000D01*
X120777000Y-66053000D01*
X120777000Y-66073000D01*
X120797000Y-66073000D01*
X120797000Y-66327000D01*
X120777000Y-66327000D01*
X120777000Y-67326250D01*
X120935750Y-67485000D01*
X121126309Y-67485000D01*
X121359698Y-67388327D01*
X121538327Y-67209699D01*
X121594654Y-67073713D01*
X121596838Y-67085317D01*
X121735910Y-67301441D01*
X121948110Y-67446431D01*
X122200000Y-67497440D01*
X122900000Y-67497440D01*
X123135317Y-67453162D01*
X123280227Y-67359915D01*
X124743206Y-68822894D01*
X124827560Y-68879258D01*
X124827560Y-68880000D01*
X124871838Y-69115317D01*
X125010910Y-69331441D01*
X125223110Y-69476431D01*
X125475000Y-69527440D01*
X127915000Y-69527440D01*
X128150317Y-69483162D01*
X128366441Y-69344090D01*
X128511431Y-69131890D01*
X128562440Y-68880000D01*
X128562440Y-67760000D01*
X128518162Y-67524683D01*
X128379090Y-67308559D01*
X128166890Y-67163569D01*
X127915000Y-67112560D01*
X125475000Y-67112560D01*
X125239683Y-67156838D01*
X125147831Y-67215943D01*
X123637432Y-65705544D01*
X123631794Y-65697106D01*
X123547440Y-65640742D01*
X123547440Y-65550000D01*
X123503162Y-65314683D01*
X123364090Y-65098559D01*
X123151890Y-64953569D01*
X122900000Y-64902560D01*
X122258348Y-64902560D01*
X121087500Y-63731712D01*
X121087500Y-63556568D01*
X121106511Y-63569271D01*
X121680000Y-63683345D01*
X122253489Y-63569271D01*
X122739670Y-63244415D01*
X122950000Y-62929634D01*
X123160330Y-63244415D01*
X123646511Y-63569271D01*
X124220000Y-63683345D01*
X124793489Y-63569271D01*
X125279670Y-63244415D01*
X125490000Y-62929634D01*
X125700330Y-63244415D01*
X126186511Y-63569271D01*
X126760000Y-63683345D01*
X127333489Y-63569271D01*
X127819670Y-63244415D01*
X128030000Y-62929634D01*
X128240330Y-63244415D01*
X128726511Y-63569271D01*
X129300000Y-63683345D01*
X129873489Y-63569271D01*
X130359670Y-63244415D01*
X130570000Y-62929634D01*
X130780330Y-63244415D01*
X131266511Y-63569271D01*
X131840000Y-63683345D01*
X132413489Y-63569271D01*
X132899670Y-63244415D01*
X133110000Y-62929634D01*
X133320330Y-63244415D01*
X133806511Y-63569271D01*
X134380000Y-63683345D01*
X134953489Y-63569271D01*
X135439670Y-63244415D01*
X135650000Y-62929634D01*
X135860330Y-63244415D01*
X136346511Y-63569271D01*
X136920000Y-63683345D01*
X137493489Y-63569271D01*
X137979670Y-63244415D01*
X138190000Y-62929634D01*
X138400330Y-63244415D01*
X138886511Y-63569271D01*
X139460000Y-63683345D01*
X140033489Y-63569271D01*
X140519670Y-63244415D01*
X140730000Y-62929634D01*
X140940330Y-63244415D01*
X141426511Y-63569271D01*
X142000000Y-63683345D01*
X142573489Y-63569271D01*
X143059670Y-63244415D01*
X143384526Y-62758234D01*
X143498600Y-62184745D01*
X143498600Y-61815255D01*
X143384526Y-61241766D01*
X143059670Y-60755585D01*
X142573489Y-60430729D01*
X142000000Y-60316655D01*
X141426511Y-60430729D01*
X140940330Y-60755585D01*
X140730000Y-61070366D01*
X140519670Y-60755585D01*
X140033489Y-60430729D01*
X139460000Y-60316655D01*
X138886511Y-60430729D01*
X138400330Y-60755585D01*
X138190000Y-61070366D01*
X137979670Y-60755585D01*
X137493489Y-60430729D01*
X136920000Y-60316655D01*
X136346511Y-60430729D01*
X135860330Y-60755585D01*
X135650000Y-61070366D01*
X135439670Y-60755585D01*
X134953489Y-60430729D01*
X134380000Y-60316655D01*
X133806511Y-60430729D01*
X133320330Y-60755585D01*
X133110000Y-61070366D01*
X132899670Y-60755585D01*
X132413489Y-60430729D01*
X131840000Y-60316655D01*
X131266511Y-60430729D01*
X130780330Y-60755585D01*
X130570000Y-61070366D01*
X130359670Y-60755585D01*
X129873489Y-60430729D01*
X129300000Y-60316655D01*
X128726511Y-60430729D01*
X128240330Y-60755585D01*
X128030000Y-61070366D01*
X127819670Y-60755585D01*
X127333489Y-60430729D01*
X126760000Y-60316655D01*
X126186511Y-60430729D01*
X125700330Y-60755585D01*
X125490000Y-61070366D01*
X125279670Y-60755585D01*
X124793489Y-60430729D01*
X124220000Y-60316655D01*
X123646511Y-60430729D01*
X123160330Y-60755585D01*
X122950000Y-61070366D01*
X122739670Y-60755585D01*
X122253489Y-60430729D01*
X121680000Y-60316655D01*
X121106511Y-60430729D01*
X120620330Y-60755585D01*
X120615180Y-60763292D01*
X120048094Y-60196206D01*
X119817365Y-60042037D01*
X119545200Y-59987900D01*
X108572000Y-59987900D01*
X108299836Y-60042037D01*
X108299834Y-60042038D01*
X108299835Y-60042038D01*
X108069105Y-60196206D01*
X107503698Y-60761614D01*
X107499670Y-60755585D01*
X107013489Y-60430729D01*
X106440000Y-60316655D01*
X105866511Y-60430729D01*
X105380330Y-60755585D01*
X105055474Y-61241766D01*
X104941400Y-61815255D01*
X104941400Y-62184745D01*
X105055474Y-62758234D01*
X105380330Y-63244415D01*
X105502176Y-63325830D01*
X105466000Y-63507700D01*
X105466000Y-64992069D01*
X105453560Y-65053500D01*
X105453560Y-66196500D01*
X105461621Y-66239343D01*
X105065682Y-66635282D01*
X104872971Y-66923694D01*
X104805300Y-67263900D01*
X104805300Y-73278100D01*
X104872971Y-73618306D01*
X105036829Y-73863536D01*
X105065682Y-73906718D01*
X105597132Y-74438168D01*
X105588560Y-74480500D01*
X105588560Y-75623500D01*
X105596621Y-75666343D01*
X100710000Y-80552964D01*
X100710000Y-58442619D01*
X100764613Y-58442619D01*
X101104155Y-59264372D01*
X101732321Y-59893636D01*
X102553481Y-60234611D01*
X103442619Y-60235387D01*
X104264372Y-59895845D01*
X104893636Y-59267679D01*
X105234611Y-58446519D01*
X105234614Y-58442619D01*
X154764613Y-58442619D01*
X155104155Y-59264372D01*
X155732321Y-59893636D01*
X156553481Y-60234611D01*
X157442619Y-60235387D01*
X158264372Y-59895845D01*
X158893636Y-59267679D01*
X159234611Y-58446519D01*
X159235387Y-57557381D01*
X158895845Y-56735628D01*
X158267679Y-56106364D01*
X157446519Y-55765389D01*
X156557381Y-55764613D01*
X155735628Y-56104155D01*
X155106364Y-56732321D01*
X154765389Y-57553481D01*
X154764613Y-58442619D01*
X105234614Y-58442619D01*
X105235387Y-57557381D01*
X104895845Y-56735628D01*
X104267679Y-56106364D01*
X103446519Y-55765389D01*
X102557381Y-55764613D01*
X101735628Y-56104155D01*
X101106364Y-56732321D01*
X100765389Y-57553481D01*
X100764613Y-58442619D01*
X100710000Y-58442619D01*
X100710000Y-55710000D01*
X159290000Y-55710000D01*
X159290000Y-90182099D01*
X159290000Y-90182099D01*
G37*
X159290000Y-90182099D02*
X159101890Y-90053569D01*
X158850000Y-90002560D01*
X157150000Y-90002560D01*
X157068274Y-90017938D01*
X152122818Y-85072482D01*
X151994885Y-84987000D01*
X151949000Y-84956340D01*
X151949000Y-82085750D01*
X153365000Y-82085750D01*
X153365000Y-83126309D01*
X153461673Y-83359698D01*
X153640301Y-83538327D01*
X153873690Y-83635000D01*
X154914250Y-83635000D01*
X155073000Y-83476250D01*
X155073000Y-81927000D01*
X155327000Y-81927000D01*
X155327000Y-83476250D01*
X155485750Y-83635000D01*
X156526310Y-83635000D01*
X156759699Y-83538327D01*
X156938327Y-83359698D01*
X157035000Y-83126309D01*
X157035000Y-82085750D01*
X156876250Y-81927000D01*
X155327000Y-81927000D01*
X155073000Y-81927000D01*
X153523750Y-81927000D01*
X153365000Y-82085750D01*
X151949000Y-82085750D01*
X151949000Y-78663403D01*
X153364682Y-78663403D01*
X153643455Y-79338086D01*
X154159199Y-79854730D01*
X154424758Y-79965000D01*
X153873690Y-79965000D01*
X153640301Y-80061673D01*
X153461673Y-80240302D01*
X153365000Y-80473691D01*
X153365000Y-81514250D01*
X153523750Y-81673000D01*
X155073000Y-81673000D01*
X155073000Y-81653000D01*
X155327000Y-81653000D01*
X155327000Y-81673000D01*
X156876250Y-81673000D01*
X157035000Y-81514250D01*
X157035000Y-80473691D01*
X156938327Y-80240302D01*
X156759699Y-80061673D01*
X156526310Y-79965000D01*
X155975605Y-79965000D01*
X156238086Y-79856545D01*
X156754730Y-79340801D01*
X157034681Y-78666605D01*
X157035318Y-77936597D01*
X156756545Y-77261914D01*
X156240801Y-76745270D01*
X155566605Y-76465319D01*
X154836597Y-76464682D01*
X154161914Y-76743455D01*
X153645270Y-77259199D01*
X153365319Y-77933395D01*
X153364682Y-78663403D01*
X151949000Y-78663403D01*
X151949000Y-73210755D01*
X152055206Y-73189629D01*
X152343618Y-72996918D01*
X152538508Y-72802028D01*
X152549946Y-72819147D01*
X153031715Y-73141054D01*
X153600000Y-73254093D01*
X154168285Y-73141054D01*
X154650054Y-72819147D01*
X154971961Y-72337378D01*
X155085000Y-71769093D01*
X155085000Y-71710907D01*
X154971961Y-71142622D01*
X154650054Y-70660853D01*
X154648821Y-70660029D01*
X154685317Y-70653162D01*
X154901441Y-70514090D01*
X155046431Y-70301890D01*
X155097440Y-70050000D01*
X155097440Y-68350000D01*
X155053162Y-68114683D01*
X154914090Y-67898559D01*
X154701890Y-67753569D01*
X154450000Y-67702560D01*
X152750000Y-67702560D01*
X152514683Y-67746838D01*
X152298559Y-67885910D01*
X152153569Y-68098110D01*
X152139914Y-68165541D01*
X152110054Y-68120853D01*
X151628285Y-67798946D01*
X151063923Y-67686687D01*
X150148618Y-66771382D01*
X149860206Y-66578671D01*
X149520000Y-66511000D01*
X147771285Y-66511000D01*
X147753162Y-66414683D01*
X147614090Y-66198559D01*
X147401890Y-66053569D01*
X147150000Y-66002560D01*
X145150000Y-66002560D01*
X144914683Y-66046838D01*
X144698559Y-66185910D01*
X144553569Y-66398110D01*
X144502560Y-66650000D01*
X144502560Y-68150000D01*
X144546838Y-68385317D01*
X144652482Y-68549492D01*
X144611673Y-68590301D01*
X144515000Y-68823690D01*
X144515000Y-69414250D01*
X144673750Y-69573000D01*
X146023000Y-69573000D01*
X146023000Y-69553000D01*
X146277000Y-69553000D01*
X146277000Y-69573000D01*
X147626250Y-69573000D01*
X147785000Y-69414250D01*
X147785000Y-68823690D01*
X147688327Y-68590301D01*
X147646366Y-68548340D01*
X147746431Y-68401890D01*
X147769292Y-68289000D01*
X149151764Y-68289000D01*
X149651098Y-68788334D01*
X149575000Y-69170907D01*
X149575000Y-69229093D01*
X149644999Y-69581000D01*
X149440000Y-69581000D01*
X149099794Y-69648671D01*
X148832906Y-69827000D01*
X148811382Y-69841382D01*
X147708104Y-70944660D01*
X147647518Y-70850508D01*
X147688327Y-70809699D01*
X147785000Y-70576310D01*
X147785000Y-69985750D01*
X147626250Y-69827000D01*
X146277000Y-69827000D01*
X146277000Y-69847000D01*
X146023000Y-69847000D01*
X146023000Y-69827000D01*
X144673750Y-69827000D01*
X144515000Y-69985750D01*
X144515000Y-70576310D01*
X144611673Y-70809699D01*
X144653634Y-70851660D01*
X144553569Y-70998110D01*
X144502560Y-71250000D01*
X144502560Y-72750000D01*
X144546838Y-72985317D01*
X144685910Y-73201441D01*
X144898110Y-73346431D01*
X145150000Y-73397440D01*
X147150000Y-73397440D01*
X147385317Y-73353162D01*
X147601441Y-73214090D01*
X147746431Y-73001890D01*
X147769292Y-72889000D01*
X147910000Y-72889000D01*
X148250206Y-72821329D01*
X148538618Y-72628618D01*
X149604466Y-71562770D01*
X149575000Y-71710907D01*
X149575000Y-71769093D01*
X149688039Y-72337378D01*
X150009946Y-72819147D01*
X150171000Y-72926760D01*
X150171000Y-84812100D01*
X144178400Y-84812100D01*
X144178400Y-84166800D01*
X144110729Y-83826594D01*
X143918018Y-83538182D01*
X138231218Y-77851382D01*
X138073344Y-77745894D01*
X137942806Y-77658671D01*
X137820700Y-77634383D01*
X137820700Y-77562900D01*
X137753029Y-77222694D01*
X137560318Y-76934282D01*
X137164625Y-76538589D01*
X137172440Y-76500000D01*
X137172440Y-75380000D01*
X137128162Y-75144683D01*
X136989090Y-74928559D01*
X136776890Y-74783569D01*
X136525000Y-74732560D01*
X136197800Y-74732560D01*
X136197800Y-74607440D01*
X136525000Y-74607440D01*
X136760317Y-74563162D01*
X136976441Y-74424090D01*
X137121431Y-74211890D01*
X137172440Y-73960000D01*
X137172440Y-73196496D01*
X137560318Y-72808618D01*
X137753030Y-72520205D01*
X137820700Y-72180000D01*
X137820700Y-69985750D01*
X138215000Y-69985750D01*
X138215000Y-71726310D01*
X138311673Y-71959699D01*
X138490302Y-72138327D01*
X138723691Y-72235000D01*
X139564250Y-72235000D01*
X139723000Y-72076250D01*
X139723000Y-69827000D01*
X139977000Y-69827000D01*
X139977000Y-72076250D01*
X140135750Y-72235000D01*
X140976309Y-72235000D01*
X141209698Y-72138327D01*
X141388327Y-71959699D01*
X141485000Y-71726310D01*
X141485000Y-69985750D01*
X141326250Y-69827000D01*
X139977000Y-69827000D01*
X139723000Y-69827000D01*
X138373750Y-69827000D01*
X138215000Y-69985750D01*
X137820700Y-69985750D01*
X137820700Y-68320000D01*
X137753029Y-67979794D01*
X137560318Y-67691382D01*
X137533841Y-67673690D01*
X138215000Y-67673690D01*
X138215000Y-69414250D01*
X138373750Y-69573000D01*
X139723000Y-69573000D01*
X139723000Y-67323750D01*
X139977000Y-67323750D01*
X139977000Y-69573000D01*
X141326250Y-69573000D01*
X141485000Y-69414250D01*
X141485000Y-67673690D01*
X141388327Y-67440301D01*
X141209698Y-67261673D01*
X140976309Y-67165000D01*
X140135750Y-67165000D01*
X139977000Y-67323750D01*
X139723000Y-67323750D01*
X139564250Y-67165000D01*
X138723691Y-67165000D01*
X138490302Y-67261673D01*
X138311673Y-67440301D01*
X138215000Y-67673690D01*
X137533841Y-67673690D01*
X137271906Y-67498671D01*
X137087867Y-67462064D01*
X136989090Y-67308559D01*
X136776890Y-67163569D01*
X136525000Y-67112560D01*
X134085000Y-67112560D01*
X133849683Y-67156838D01*
X133633559Y-67295910D01*
X133488569Y-67508110D01*
X133437560Y-67760000D01*
X133437560Y-68880000D01*
X133481838Y-69115317D01*
X133620910Y-69331441D01*
X133833110Y-69476431D01*
X134085000Y-69527440D01*
X136042700Y-69527440D01*
X136042700Y-69652560D01*
X134085000Y-69652560D01*
X133849683Y-69696838D01*
X133633559Y-69835910D01*
X133488569Y-70048110D01*
X133437560Y-70300000D01*
X133437560Y-71420000D01*
X133481838Y-71655317D01*
X133620910Y-71871441D01*
X133833110Y-72016431D01*
X134085000Y-72067440D01*
X135787024Y-72067440D01*
X135661904Y-72192560D01*
X134085000Y-72192560D01*
X133849683Y-72236838D01*
X133633559Y-72375910D01*
X133488569Y-72588110D01*
X133437560Y-72840000D01*
X133437560Y-73960000D01*
X133481838Y-74195317D01*
X133620910Y-74411441D01*
X133833110Y-74556431D01*
X134085000Y-74607440D01*
X134419800Y-74607440D01*
X134419800Y-74732560D01*
X134085000Y-74732560D01*
X133849683Y-74776838D01*
X133633559Y-74915910D01*
X133488569Y-75128110D01*
X133437560Y-75380000D01*
X133437560Y-76500000D01*
X133481838Y-76735317D01*
X133620910Y-76951441D01*
X133833110Y-77096431D01*
X134085000Y-77147440D01*
X135259004Y-77147440D01*
X135384124Y-77272560D01*
X134085000Y-77272560D01*
X133849683Y-77316838D01*
X133633559Y-77455910D01*
X133488569Y-77668110D01*
X133437560Y-77920000D01*
X133437560Y-79040000D01*
X133481838Y-79275317D01*
X133620910Y-79491441D01*
X133833110Y-79636431D01*
X134085000Y-79687440D01*
X136525000Y-79687440D01*
X136760317Y-79643162D01*
X136976441Y-79504090D01*
X137068744Y-79369000D01*
X137234364Y-79369000D01*
X141264407Y-83399043D01*
X140940330Y-83615585D01*
X140730000Y-83930366D01*
X140519670Y-83615585D01*
X140033489Y-83290729D01*
X139460000Y-83176655D01*
X138886511Y-83290729D01*
X138400330Y-83615585D01*
X138190000Y-83930366D01*
X137979670Y-83615585D01*
X137493489Y-83290729D01*
X136920000Y-83176655D01*
X136346511Y-83290729D01*
X135860330Y-83615585D01*
X135650000Y-83930366D01*
X135439670Y-83615585D01*
X134953489Y-83290729D01*
X134380000Y-83176655D01*
X133806511Y-83290729D01*
X133320330Y-83615585D01*
X133110000Y-83930366D01*
X132899670Y-83615585D01*
X132413489Y-83290729D01*
X131840000Y-83176655D01*
X131266511Y-83290729D01*
X130780330Y-83615585D01*
X130570000Y-83930366D01*
X130359670Y-83615585D01*
X129873489Y-83290729D01*
X129300000Y-83176655D01*
X128726511Y-83290729D01*
X128240330Y-83615585D01*
X128033539Y-83925069D01*
X127662036Y-83509268D01*
X127134791Y-83255291D01*
X127119026Y-83252642D01*
X126887000Y-83373783D01*
X126887000Y-84733000D01*
X126907000Y-84733000D01*
X126907000Y-84987000D01*
X126887000Y-84987000D01*
X126887000Y-85007000D01*
X126633000Y-85007000D01*
X126633000Y-84987000D01*
X126613000Y-84987000D01*
X126613000Y-84733000D01*
X126633000Y-84733000D01*
X126633000Y-83373783D01*
X126400974Y-83252642D01*
X126385209Y-83255291D01*
X125857964Y-83509268D01*
X125723337Y-83659949D01*
X124279894Y-82216506D01*
X124049165Y-82062337D01*
X123777000Y-82008200D01*
X121963288Y-82008200D01*
X121501557Y-81546469D01*
X121538327Y-81509699D01*
X121594654Y-81373713D01*
X121596838Y-81385317D01*
X121735910Y-81601441D01*
X121948110Y-81746431D01*
X122200000Y-81797440D01*
X122900000Y-81797440D01*
X123135317Y-81753162D01*
X123351441Y-81614090D01*
X123496431Y-81401890D01*
X123547440Y-81150000D01*
X123547440Y-79850000D01*
X123503162Y-79614683D01*
X123476146Y-79572699D01*
X123517500Y-79364800D01*
X123517500Y-79191200D01*
X124856010Y-79191200D01*
X124871838Y-79275317D01*
X125010910Y-79491441D01*
X125223110Y-79636431D01*
X125475000Y-79687440D01*
X127915000Y-79687440D01*
X128150317Y-79643162D01*
X128366441Y-79504090D01*
X128511431Y-79291890D01*
X128562440Y-79040000D01*
X128562440Y-77920000D01*
X128518162Y-77684683D01*
X128379090Y-77468559D01*
X128166890Y-77323569D01*
X127915000Y-77272560D01*
X125475000Y-77272560D01*
X125239683Y-77316838D01*
X125023559Y-77455910D01*
X124878569Y-77668110D01*
X124858179Y-77768800D01*
X123503132Y-77768800D01*
X123535047Y-77611200D01*
X124286100Y-77611200D01*
X124558265Y-77557063D01*
X124788994Y-77402894D01*
X125147274Y-77044614D01*
X125223110Y-77096431D01*
X125475000Y-77147440D01*
X127915000Y-77147440D01*
X128150317Y-77103162D01*
X128366441Y-76964090D01*
X128511431Y-76751890D01*
X128562440Y-76500000D01*
X128562440Y-75380000D01*
X128518162Y-75144683D01*
X128379090Y-74928559D01*
X128166890Y-74783569D01*
X127915000Y-74732560D01*
X125475000Y-74732560D01*
X125239683Y-74776838D01*
X125023559Y-74915910D01*
X124878569Y-75128110D01*
X124827560Y-75380000D01*
X124827560Y-75380742D01*
X124743206Y-75437106D01*
X123991512Y-76188800D01*
X123535924Y-76188800D01*
X123503162Y-76014683D01*
X123364090Y-75798559D01*
X123151890Y-75653569D01*
X122900000Y-75602560D01*
X122200000Y-75602560D01*
X122188173Y-75604785D01*
X121558194Y-74974806D01*
X121516655Y-74947051D01*
X121691094Y-74830494D01*
X121904770Y-74616818D01*
X121948110Y-74646431D01*
X122200000Y-74697440D01*
X122900000Y-74697440D01*
X123135317Y-74653162D01*
X123351441Y-74514090D01*
X123496431Y-74301890D01*
X123535047Y-74111200D01*
X124856010Y-74111200D01*
X124871838Y-74195317D01*
X125010910Y-74411441D01*
X125223110Y-74556431D01*
X125475000Y-74607440D01*
X127915000Y-74607440D01*
X128150317Y-74563162D01*
X128366441Y-74424090D01*
X128511431Y-74211890D01*
X128562440Y-73960000D01*
X128562440Y-72840000D01*
X128518162Y-72604683D01*
X128379090Y-72388559D01*
X128166890Y-72243569D01*
X127915000Y-72192560D01*
X125475000Y-72192560D01*
X125239683Y-72236838D01*
X125023559Y-72375910D01*
X124878569Y-72588110D01*
X124858179Y-72688800D01*
X123535924Y-72688800D01*
X123503162Y-72514683D01*
X123364090Y-72298559D01*
X123151890Y-72153569D01*
X122900000Y-72102560D01*
X122200000Y-72102560D01*
X121964683Y-72146838D01*
X121748559Y-72285910D01*
X121603569Y-72498110D01*
X121596809Y-72531490D01*
X121538327Y-72390301D01*
X121359698Y-72211673D01*
X121126309Y-72115000D01*
X120935750Y-72115000D01*
X120777000Y-72273750D01*
X120777000Y-73273000D01*
X120797000Y-73273000D01*
X120797000Y-73527000D01*
X120777000Y-73527000D01*
X120777000Y-73547000D01*
X120523000Y-73547000D01*
X120523000Y-73527000D01*
X119823750Y-73527000D01*
X119734350Y-73616400D01*
X116675388Y-73616400D01*
X116001257Y-72942269D01*
X116037327Y-72906199D01*
X116134000Y-72672810D01*
X116134000Y-72623690D01*
X119665000Y-72623690D01*
X119665000Y-73114250D01*
X119823750Y-73273000D01*
X120523000Y-73273000D01*
X120523000Y-72273750D01*
X120364250Y-72115000D01*
X120173691Y-72115000D01*
X119940302Y-72211673D01*
X119761673Y-72390301D01*
X119665000Y-72623690D01*
X116134000Y-72623690D01*
X116134000Y-72260750D01*
X115975250Y-72102000D01*
X115372000Y-72102000D01*
X115372000Y-72122000D01*
X115180988Y-72122000D01*
X115169200Y-72110212D01*
X115169200Y-71828000D01*
X115372000Y-71828000D01*
X115372000Y-71848000D01*
X115975250Y-71848000D01*
X116134000Y-71689250D01*
X116134000Y-71277190D01*
X116124809Y-71255000D01*
X117454318Y-71255000D01*
X117598535Y-71351363D01*
X117643690Y-71360345D01*
X117870700Y-71405500D01*
X121149200Y-71405500D01*
X121421365Y-71351363D01*
X121652094Y-71197194D01*
X121861818Y-70987470D01*
X121948110Y-71046431D01*
X122200000Y-71097440D01*
X122900000Y-71097440D01*
X123135317Y-71053162D01*
X123351441Y-70914090D01*
X123496431Y-70701890D01*
X123535047Y-70511200D01*
X123891512Y-70511200D01*
X124743205Y-71362894D01*
X124806970Y-71405500D01*
X124827560Y-71419258D01*
X124827560Y-71420000D01*
X124871838Y-71655317D01*
X125010910Y-71871441D01*
X125223110Y-72016431D01*
X125475000Y-72067440D01*
X127915000Y-72067440D01*
X128150317Y-72023162D01*
X128366441Y-71884090D01*
X128511431Y-71671890D01*
X128562440Y-71420000D01*
X128562440Y-70300000D01*
X128518162Y-70064683D01*
X128379090Y-69848559D01*
X128166890Y-69703569D01*
X127915000Y-69652560D01*
X125475000Y-69652560D01*
X125239683Y-69696838D01*
X125147831Y-69755943D01*
X124688994Y-69297106D01*
X124458265Y-69142937D01*
X124186100Y-69088800D01*
X123535924Y-69088800D01*
X123503162Y-68914683D01*
X123364090Y-68698559D01*
X123151890Y-68553569D01*
X122900000Y-68502560D01*
X122200000Y-68502560D01*
X121964683Y-68546838D01*
X121748559Y-68685910D01*
X121603569Y-68898110D01*
X121596809Y-68931490D01*
X121538327Y-68790301D01*
X121359698Y-68611673D01*
X121126309Y-68515000D01*
X120935750Y-68515000D01*
X120777000Y-68673750D01*
X120777000Y-69673000D01*
X120797000Y-69673000D01*
X120797000Y-69927000D01*
X120777000Y-69927000D01*
X120777000Y-69947000D01*
X120523000Y-69947000D01*
X120523000Y-69927000D01*
X119823750Y-69927000D01*
X119767650Y-69983100D01*
X118136582Y-69983100D01*
X117992365Y-69886737D01*
X117720200Y-69832600D01*
X109525800Y-69832600D01*
X109253635Y-69886737D01*
X109022906Y-70040906D01*
X108432076Y-70631736D01*
X108261165Y-70517537D01*
X107989000Y-70463400D01*
X106583300Y-70463400D01*
X106583300Y-69023690D01*
X119665000Y-69023690D01*
X119665000Y-69514250D01*
X119823750Y-69673000D01*
X120523000Y-69673000D01*
X120523000Y-68673750D01*
X120364250Y-68515000D01*
X120173691Y-68515000D01*
X119940302Y-68611673D01*
X119761673Y-68790301D01*
X119665000Y-69023690D01*
X106583300Y-69023690D01*
X106583300Y-67632136D01*
X106983618Y-67231818D01*
X107028264Y-67165000D01*
X107176329Y-66943406D01*
X107202098Y-66813857D01*
X107244691Y-66831500D01*
X107339250Y-66831500D01*
X107498000Y-66672750D01*
X107498000Y-65752000D01*
X107478000Y-65752000D01*
X107478000Y-65498000D01*
X107498000Y-65498000D01*
X107498000Y-65478000D01*
X107752000Y-65478000D01*
X107752000Y-65498000D01*
X107772000Y-65498000D01*
X107772000Y-65752000D01*
X107752000Y-65752000D01*
X107752000Y-66672750D01*
X107910750Y-66831500D01*
X108005309Y-66831500D01*
X108238698Y-66734827D01*
X108265235Y-66708291D01*
X108389110Y-66792931D01*
X108641000Y-66843940D01*
X109149000Y-66843940D01*
X109384317Y-66799662D01*
X109525371Y-66708896D01*
X109551302Y-66734827D01*
X109784691Y-66831500D01*
X109879250Y-66831500D01*
X110038000Y-66672750D01*
X110038000Y-65752000D01*
X110292000Y-65752000D01*
X110292000Y-66672750D01*
X110450750Y-66831500D01*
X110545309Y-66831500D01*
X110778698Y-66734827D01*
X110800000Y-66713525D01*
X110821302Y-66734827D01*
X111054691Y-66831500D01*
X111149250Y-66831500D01*
X111308000Y-66672750D01*
X111308000Y-65752000D01*
X111562000Y-65752000D01*
X111562000Y-66672750D01*
X111720750Y-66831500D01*
X111815309Y-66831500D01*
X112048698Y-66734827D01*
X112070000Y-66713525D01*
X112091302Y-66734827D01*
X112324691Y-66831500D01*
X112419250Y-66831500D01*
X112578000Y-66672750D01*
X112578000Y-65752000D01*
X112832000Y-65752000D01*
X112832000Y-66672750D01*
X112990750Y-66831500D01*
X113085309Y-66831500D01*
X113318698Y-66734827D01*
X113340000Y-66713525D01*
X113361302Y-66734827D01*
X113594691Y-66831500D01*
X113689250Y-66831500D01*
X113848000Y-66672750D01*
X113848000Y-65752000D01*
X112832000Y-65752000D01*
X112578000Y-65752000D01*
X111562000Y-65752000D01*
X111308000Y-65752000D01*
X110292000Y-65752000D01*
X110038000Y-65752000D01*
X110018000Y-65752000D01*
X110018000Y-65498000D01*
X110038000Y-65498000D01*
X110038000Y-64577250D01*
X110292000Y-64577250D01*
X110292000Y-65498000D01*
X111308000Y-65498000D01*
X111308000Y-64577250D01*
X111562000Y-64577250D01*
X111562000Y-65498000D01*
X112578000Y-65498000D01*
X112578000Y-64577250D01*
X112832000Y-64577250D01*
X112832000Y-65498000D01*
X113848000Y-65498000D01*
X113848000Y-64577250D01*
X114102000Y-64577250D01*
X114102000Y-65498000D01*
X114122000Y-65498000D01*
X114122000Y-65752000D01*
X114102000Y-65752000D01*
X114102000Y-66672750D01*
X114260750Y-66831500D01*
X114355309Y-66831500D01*
X114588698Y-66734827D01*
X114615235Y-66708291D01*
X114739110Y-66792931D01*
X114991000Y-66843940D01*
X115499000Y-66843940D01*
X115734317Y-66799662D01*
X115950441Y-66660590D01*
X116095431Y-66448390D01*
X116118150Y-66336200D01*
X116223206Y-66336200D01*
X116340341Y-66453540D01*
X116699630Y-66602730D01*
X117088663Y-66603069D01*
X117372597Y-66485750D01*
X119665000Y-66485750D01*
X119665000Y-66976310D01*
X119761673Y-67209699D01*
X119940302Y-67388327D01*
X120173691Y-67485000D01*
X120364250Y-67485000D01*
X120523000Y-67326250D01*
X120523000Y-66327000D01*
X119823750Y-66327000D01*
X119665000Y-66485750D01*
X117372597Y-66485750D01*
X117448212Y-66454507D01*
X117723540Y-66179659D01*
X117872730Y-65820370D01*
X117873069Y-65431337D01*
X117724507Y-65071788D01*
X117449659Y-64796460D01*
X117090370Y-64647270D01*
X116701337Y-64646931D01*
X116341788Y-64795493D01*
X116223274Y-64913800D01*
X116120154Y-64913800D01*
X116102162Y-64818183D01*
X115963090Y-64602059D01*
X115750890Y-64457069D01*
X115499000Y-64406060D01*
X114991000Y-64406060D01*
X114755683Y-64450338D01*
X114614629Y-64541104D01*
X114588698Y-64515173D01*
X114355309Y-64418500D01*
X114260750Y-64418500D01*
X114102000Y-64577250D01*
X113848000Y-64577250D01*
X113689250Y-64418500D01*
X113594691Y-64418500D01*
X113361302Y-64515173D01*
X113340000Y-64536475D01*
X113318698Y-64515173D01*
X113085309Y-64418500D01*
X112990750Y-64418500D01*
X112832000Y-64577250D01*
X112578000Y-64577250D01*
X112419250Y-64418500D01*
X112324691Y-64418500D01*
X112091302Y-64515173D01*
X112070000Y-64536475D01*
X112048698Y-64515173D01*
X111815309Y-64418500D01*
X111720750Y-64418500D01*
X111562000Y-64577250D01*
X111308000Y-64577250D01*
X111149250Y-64418500D01*
X111054691Y-64418500D01*
X110821302Y-64515173D01*
X110800000Y-64536475D01*
X110778698Y-64515173D01*
X110545309Y-64418500D01*
X110450750Y-64418500D01*
X110292000Y-64577250D01*
X110038000Y-64577250D01*
X109879250Y-64418500D01*
X109784691Y-64418500D01*
X109551302Y-64515173D01*
X109536833Y-64529642D01*
X109454258Y-64406060D01*
X109397894Y-64321705D01*
X108662083Y-63585895D01*
X108853000Y-63486217D01*
X108853000Y-62127000D01*
X108833000Y-62127000D01*
X108833000Y-61873000D01*
X108853000Y-61873000D01*
X108853000Y-61853000D01*
X109107000Y-61853000D01*
X109107000Y-61873000D01*
X109127000Y-61873000D01*
X109127000Y-62127000D01*
X109107000Y-62127000D01*
X109107000Y-63486217D01*
X109339026Y-63607358D01*
X109354791Y-63604709D01*
X109882036Y-63350732D01*
X110253539Y-62934931D01*
X110460330Y-63244415D01*
X110946511Y-63569271D01*
X111520000Y-63683345D01*
X112093489Y-63569271D01*
X112579670Y-63244415D01*
X112790000Y-62929634D01*
X113000330Y-63244415D01*
X113486511Y-63569271D01*
X114060000Y-63683345D01*
X114633489Y-63569271D01*
X115119670Y-63244415D01*
X115330000Y-62929634D01*
X115540330Y-63244415D01*
X116026511Y-63569271D01*
X116600000Y-63683345D01*
X117173489Y-63569271D01*
X117659670Y-63244415D01*
X117866461Y-62934931D01*
X118237964Y-63350732D01*
X118765209Y-63604709D01*
X118780974Y-63607358D01*
X119013000Y-63486217D01*
X119013000Y-62127000D01*
X118993000Y-62127000D01*
X118993000Y-61873000D01*
X119013000Y-61873000D01*
X119013000Y-61853000D01*
X119267000Y-61853000D01*
X119267000Y-61873000D01*
X119287000Y-61873000D01*
X119287000Y-62127000D01*
X119267000Y-62127000D01*
X119267000Y-63486217D01*
X119499026Y-63607358D01*
X119514791Y-63604709D01*
X119665100Y-63532304D01*
X119665100Y-64026300D01*
X119719237Y-64298465D01*
X119873406Y-64529194D01*
X120259212Y-64915000D01*
X120173691Y-64915000D01*
X119940302Y-65011673D01*
X119761673Y-65190301D01*
X119665000Y-65423690D01*
X119665000Y-65914250D01*
X119823750Y-66073000D01*
X120523000Y-66073000D01*
X120523000Y-66053000D01*
X120777000Y-66053000D01*
X120777000Y-66073000D01*
X120797000Y-66073000D01*
X120797000Y-66327000D01*
X120777000Y-66327000D01*
X120777000Y-67326250D01*
X120935750Y-67485000D01*
X121126309Y-67485000D01*
X121359698Y-67388327D01*
X121538327Y-67209699D01*
X121594654Y-67073713D01*
X121596838Y-67085317D01*
X121735910Y-67301441D01*
X121948110Y-67446431D01*
X122200000Y-67497440D01*
X122900000Y-67497440D01*
X123135317Y-67453162D01*
X123280227Y-67359915D01*
X124743206Y-68822894D01*
X124827560Y-68879258D01*
X124827560Y-68880000D01*
X124871838Y-69115317D01*
X125010910Y-69331441D01*
X125223110Y-69476431D01*
X125475000Y-69527440D01*
X127915000Y-69527440D01*
X128150317Y-69483162D01*
X128366441Y-69344090D01*
X128511431Y-69131890D01*
X128562440Y-68880000D01*
X128562440Y-67760000D01*
X128518162Y-67524683D01*
X128379090Y-67308559D01*
X128166890Y-67163569D01*
X127915000Y-67112560D01*
X125475000Y-67112560D01*
X125239683Y-67156838D01*
X125147831Y-67215943D01*
X123637432Y-65705544D01*
X123631794Y-65697106D01*
X123547440Y-65640742D01*
X123547440Y-65550000D01*
X123503162Y-65314683D01*
X123364090Y-65098559D01*
X123151890Y-64953569D01*
X122900000Y-64902560D01*
X122258348Y-64902560D01*
X121087500Y-63731712D01*
X121087500Y-63556568D01*
X121106511Y-63569271D01*
X121680000Y-63683345D01*
X122253489Y-63569271D01*
X122739670Y-63244415D01*
X122950000Y-62929634D01*
X123160330Y-63244415D01*
X123646511Y-63569271D01*
X124220000Y-63683345D01*
X124793489Y-63569271D01*
X125279670Y-63244415D01*
X125490000Y-62929634D01*
X125700330Y-63244415D01*
X126186511Y-63569271D01*
X126760000Y-63683345D01*
X127333489Y-63569271D01*
X127819670Y-63244415D01*
X128030000Y-62929634D01*
X128240330Y-63244415D01*
X128726511Y-63569271D01*
X129300000Y-63683345D01*
X129873489Y-63569271D01*
X130359670Y-63244415D01*
X130570000Y-62929634D01*
X130780330Y-63244415D01*
X131266511Y-63569271D01*
X131840000Y-63683345D01*
X132413489Y-63569271D01*
X132899670Y-63244415D01*
X133110000Y-62929634D01*
X133320330Y-63244415D01*
X133806511Y-63569271D01*
X134380000Y-63683345D01*
X134953489Y-63569271D01*
X135439670Y-63244415D01*
X135650000Y-62929634D01*
X135860330Y-63244415D01*
X136346511Y-63569271D01*
X136920000Y-63683345D01*
X137493489Y-63569271D01*
X137979670Y-63244415D01*
X138190000Y-62929634D01*
X138400330Y-63244415D01*
X138886511Y-63569271D01*
X139460000Y-63683345D01*
X140033489Y-63569271D01*
X140519670Y-63244415D01*
X140730000Y-62929634D01*
X140940330Y-63244415D01*
X141426511Y-63569271D01*
X142000000Y-63683345D01*
X142573489Y-63569271D01*
X143059670Y-63244415D01*
X143384526Y-62758234D01*
X143498600Y-62184745D01*
X143498600Y-61815255D01*
X143384526Y-61241766D01*
X143059670Y-60755585D01*
X142573489Y-60430729D01*
X142000000Y-60316655D01*
X141426511Y-60430729D01*
X140940330Y-60755585D01*
X140730000Y-61070366D01*
X140519670Y-60755585D01*
X140033489Y-60430729D01*
X139460000Y-60316655D01*
X138886511Y-60430729D01*
X138400330Y-60755585D01*
X138190000Y-61070366D01*
X137979670Y-60755585D01*
X137493489Y-60430729D01*
X136920000Y-60316655D01*
X136346511Y-60430729D01*
X135860330Y-60755585D01*
X135650000Y-61070366D01*
X135439670Y-60755585D01*
X134953489Y-60430729D01*
X134380000Y-60316655D01*
X133806511Y-60430729D01*
X133320330Y-60755585D01*
X133110000Y-61070366D01*
X132899670Y-60755585D01*
X132413489Y-60430729D01*
X131840000Y-60316655D01*
X131266511Y-60430729D01*
X130780330Y-60755585D01*
X130570000Y-61070366D01*
X130359670Y-60755585D01*
X129873489Y-60430729D01*
X129300000Y-60316655D01*
X128726511Y-60430729D01*
X128240330Y-60755585D01*
X128030000Y-61070366D01*
X127819670Y-60755585D01*
X127333489Y-60430729D01*
X126760000Y-60316655D01*
X126186511Y-60430729D01*
X125700330Y-60755585D01*
X125490000Y-61070366D01*
X125279670Y-60755585D01*
X124793489Y-60430729D01*
X124220000Y-60316655D01*
X123646511Y-60430729D01*
X123160330Y-60755585D01*
X122950000Y-61070366D01*
X122739670Y-60755585D01*
X122253489Y-60430729D01*
X121680000Y-60316655D01*
X121106511Y-60430729D01*
X120620330Y-60755585D01*
X120615180Y-60763292D01*
X120048094Y-60196206D01*
X119817365Y-60042037D01*
X119545200Y-59987900D01*
X108572000Y-59987900D01*
X108299836Y-60042037D01*
X108299834Y-60042038D01*
X108299835Y-60042038D01*
X108069105Y-60196206D01*
X107503698Y-60761614D01*
X107499670Y-60755585D01*
X107013489Y-60430729D01*
X106440000Y-60316655D01*
X105866511Y-60430729D01*
X105380330Y-60755585D01*
X105055474Y-61241766D01*
X104941400Y-61815255D01*
X104941400Y-62184745D01*
X105055474Y-62758234D01*
X105380330Y-63244415D01*
X105502176Y-63325830D01*
X105466000Y-63507700D01*
X105466000Y-64992069D01*
X105453560Y-65053500D01*
X105453560Y-66196500D01*
X105461621Y-66239343D01*
X105065682Y-66635282D01*
X104872971Y-66923694D01*
X104805300Y-67263900D01*
X104805300Y-73278100D01*
X104872971Y-73618306D01*
X105036829Y-73863536D01*
X105065682Y-73906718D01*
X105597132Y-74438168D01*
X105588560Y-74480500D01*
X105588560Y-75623500D01*
X105596621Y-75666343D01*
X100710000Y-80552964D01*
X100710000Y-58442619D01*
X100764613Y-58442619D01*
X101104155Y-59264372D01*
X101732321Y-59893636D01*
X102553481Y-60234611D01*
X103442619Y-60235387D01*
X104264372Y-59895845D01*
X104893636Y-59267679D01*
X105234611Y-58446519D01*
X105234614Y-58442619D01*
X154764613Y-58442619D01*
X155104155Y-59264372D01*
X155732321Y-59893636D01*
X156553481Y-60234611D01*
X157442619Y-60235387D01*
X158264372Y-59895845D01*
X158893636Y-59267679D01*
X159234611Y-58446519D01*
X159235387Y-57557381D01*
X158895845Y-56735628D01*
X158267679Y-56106364D01*
X157446519Y-55765389D01*
X156557381Y-55764613D01*
X155735628Y-56104155D01*
X155106364Y-56732321D01*
X154765389Y-57553481D01*
X154764613Y-58442619D01*
X105234614Y-58442619D01*
X105235387Y-57557381D01*
X104895845Y-56735628D01*
X104267679Y-56106364D01*
X103446519Y-55765389D01*
X102557381Y-55764613D01*
X101735628Y-56104155D01*
X101106364Y-56732321D01*
X100765389Y-57553481D01*
X100764613Y-58442619D01*
X100710000Y-58442619D01*
X100710000Y-55710000D01*
X159290000Y-55710000D01*
X159290000Y-90182099D01*
G36*
X109107000Y-84733000D02*
X109127000Y-84733000D01*
X109127000Y-84987000D01*
X109107000Y-84987000D01*
X109107000Y-85007000D01*
X108853000Y-85007000D01*
X108853000Y-84987000D01*
X108833000Y-84987000D01*
X108833000Y-84733000D01*
X108853000Y-84733000D01*
X108853000Y-84713000D01*
X109107000Y-84713000D01*
X109107000Y-84733000D01*
X109107000Y-84733000D01*
G37*
X109107000Y-84733000D02*
X109127000Y-84733000D01*
X109127000Y-84987000D01*
X109107000Y-84987000D01*
X109107000Y-85007000D01*
X108853000Y-85007000D01*
X108853000Y-84987000D01*
X108833000Y-84987000D01*
X108833000Y-84733000D01*
X108853000Y-84733000D01*
X108853000Y-84713000D01*
X109107000Y-84713000D01*
X109107000Y-84733000D01*
G36*
X115784205Y-76431794D02*
X115859045Y-76481800D01*
X116014936Y-76585963D01*
X116287100Y-76640100D01*
X119690850Y-76640100D01*
X119823750Y-76773000D01*
X120523000Y-76773000D01*
X120523000Y-76753000D01*
X120777000Y-76753000D01*
X120777000Y-76773000D01*
X120797000Y-76773000D01*
X120797000Y-77027000D01*
X120777000Y-77027000D01*
X120777000Y-78026250D01*
X120935750Y-78185000D01*
X121126309Y-78185000D01*
X121359698Y-78088327D01*
X121384269Y-78063757D01*
X122095100Y-78774588D01*
X122095100Y-79070212D01*
X122047106Y-79118206D01*
X121958496Y-79250819D01*
X121748559Y-79385910D01*
X121603569Y-79598110D01*
X121596809Y-79631490D01*
X121538327Y-79490301D01*
X121359698Y-79311673D01*
X121126309Y-79215000D01*
X120935750Y-79215000D01*
X120777000Y-79373750D01*
X120777000Y-80373000D01*
X120797000Y-80373000D01*
X120797000Y-80627000D01*
X120777000Y-80627000D01*
X120777000Y-80647000D01*
X120523000Y-80647000D01*
X120523000Y-80627000D01*
X119823750Y-80627000D01*
X119782950Y-80667800D01*
X118661189Y-80667800D01*
X117717079Y-79723690D01*
X119665000Y-79723690D01*
X119665000Y-80214250D01*
X119823750Y-80373000D01*
X120523000Y-80373000D01*
X120523000Y-79373750D01*
X120364250Y-79215000D01*
X120173691Y-79215000D01*
X119940302Y-79311673D01*
X119761673Y-79490301D01*
X119665000Y-79723690D01*
X117717079Y-79723690D01*
X115179139Y-77185750D01*
X119665000Y-77185750D01*
X119665000Y-77676310D01*
X119761673Y-77909699D01*
X119940302Y-78088327D01*
X120173691Y-78185000D01*
X120364250Y-78185000D01*
X120523000Y-78026250D01*
X120523000Y-77027000D01*
X119823750Y-77027000D01*
X119665000Y-77185750D01*
X115179139Y-77185750D01*
X114264328Y-76270940D01*
X114364000Y-76270940D01*
X114599317Y-76226662D01*
X114815441Y-76087590D01*
X114960431Y-75875390D01*
X115005457Y-75653046D01*
X115784205Y-76431794D01*
X115784205Y-76431794D01*
G37*
X115784205Y-76431794D02*
X115859045Y-76481800D01*
X116014936Y-76585963D01*
X116287100Y-76640100D01*
X119690850Y-76640100D01*
X119823750Y-76773000D01*
X120523000Y-76773000D01*
X120523000Y-76753000D01*
X120777000Y-76753000D01*
X120777000Y-76773000D01*
X120797000Y-76773000D01*
X120797000Y-77027000D01*
X120777000Y-77027000D01*
X120777000Y-78026250D01*
X120935750Y-78185000D01*
X121126309Y-78185000D01*
X121359698Y-78088327D01*
X121384269Y-78063757D01*
X122095100Y-78774588D01*
X122095100Y-79070212D01*
X122047106Y-79118206D01*
X121958496Y-79250819D01*
X121748559Y-79385910D01*
X121603569Y-79598110D01*
X121596809Y-79631490D01*
X121538327Y-79490301D01*
X121359698Y-79311673D01*
X121126309Y-79215000D01*
X120935750Y-79215000D01*
X120777000Y-79373750D01*
X120777000Y-80373000D01*
X120797000Y-80373000D01*
X120797000Y-80627000D01*
X120777000Y-80627000D01*
X120777000Y-80647000D01*
X120523000Y-80647000D01*
X120523000Y-80627000D01*
X119823750Y-80627000D01*
X119782950Y-80667800D01*
X118661189Y-80667800D01*
X117717079Y-79723690D01*
X119665000Y-79723690D01*
X119665000Y-80214250D01*
X119823750Y-80373000D01*
X120523000Y-80373000D01*
X120523000Y-79373750D01*
X120364250Y-79215000D01*
X120173691Y-79215000D01*
X119940302Y-79311673D01*
X119761673Y-79490301D01*
X119665000Y-79723690D01*
X117717079Y-79723690D01*
X115179139Y-77185750D01*
X119665000Y-77185750D01*
X119665000Y-77676310D01*
X119761673Y-77909699D01*
X119940302Y-78088327D01*
X120173691Y-78185000D01*
X120364250Y-78185000D01*
X120523000Y-78026250D01*
X120523000Y-77027000D01*
X119823750Y-77027000D01*
X119665000Y-77185750D01*
X115179139Y-77185750D01*
X114264328Y-76270940D01*
X114364000Y-76270940D01*
X114599317Y-76226662D01*
X114815441Y-76087590D01*
X114960431Y-75875390D01*
X115005457Y-75653046D01*
X115784205Y-76431794D01*
M02*
