G04 #@! TF.FileFunction,Soldermask,Top*
%FSLAX46Y46*%
G04 Gerber Fmt 4.6, Leading zero omitted, Abs format (unit mm)*
G04 Created by KiCad (PCBNEW 4.0.6) date Thu Jun 20 17:07:18 2019*
%MOMM*%
%LPD*%
G01*
G04 APERTURE LIST*
%ADD10C,0.100000*%
%ADD11C,3.301600*%
%ADD12O,1.828800X2.133600*%
%ADD13C,2.501600*%
%ADD14R,2.501600X2.501600*%
%ADD15R,1.801600X1.801600*%
%ADD16O,1.801600X1.801600*%
%ADD17R,0.801600X1.401600*%
%ADD18R,2.541600X1.221600*%
%ADD19R,2.101600X3.901600*%
%ADD20R,2.101600X1.601600*%
%ADD21R,0.609600X1.244600*%
G04 APERTURE END LIST*
D10*
D11*
X130000000Y-90000000D03*
D12*
X142000000Y-62000000D03*
X139460000Y-62000000D03*
X136920000Y-62000000D03*
X134380000Y-62000000D03*
X131840000Y-62000000D03*
X129300000Y-62000000D03*
X126760000Y-62000000D03*
X124220000Y-62000000D03*
X121680000Y-62000000D03*
X119140000Y-62000000D03*
X116600000Y-62000000D03*
X114060000Y-62000000D03*
X111520000Y-62000000D03*
X108980000Y-62000000D03*
X106440000Y-62000000D03*
X142000000Y-84860000D03*
X111520000Y-84860000D03*
X108980000Y-84860000D03*
X114060000Y-84860000D03*
X129300000Y-84860000D03*
X131840000Y-84860000D03*
X126760000Y-84860000D03*
X106440000Y-84860000D03*
X121680000Y-84860000D03*
X124220000Y-84860000D03*
X119140000Y-84860000D03*
X116600000Y-84860000D03*
X136920000Y-84860000D03*
X134380000Y-84860000D03*
X139460000Y-84860000D03*
D11*
X157000000Y-58000000D03*
D13*
X155200000Y-78300000D03*
D14*
X155200000Y-81800000D03*
D15*
X153600000Y-69200000D03*
D16*
X153600000Y-71740000D03*
X151060000Y-69200000D03*
X151060000Y-71740000D03*
D15*
X110000000Y-91500000D03*
D16*
X107460000Y-91500000D03*
X104920000Y-91500000D03*
X102380000Y-91500000D03*
D15*
X158000000Y-91500000D03*
D16*
X155460000Y-91500000D03*
X152920000Y-91500000D03*
X150380000Y-91500000D03*
D17*
X122550000Y-66200000D03*
X120650000Y-66200000D03*
X122550000Y-69800000D03*
X120650000Y-69800000D03*
X122550000Y-73400000D03*
X120650000Y-73400000D03*
X122550000Y-76900000D03*
X120650000Y-76900000D03*
X122550000Y-80500000D03*
X120650000Y-80500000D03*
D18*
X126695000Y-68320000D03*
X135305000Y-78480000D03*
X126695000Y-70860000D03*
X135305000Y-75940000D03*
X126695000Y-73400000D03*
X135305000Y-73400000D03*
X126695000Y-75940000D03*
X135305000Y-70860000D03*
X126695000Y-78480000D03*
X135305000Y-68320000D03*
D19*
X139850000Y-69700000D03*
D20*
X146150000Y-69700000D03*
X146150000Y-67400000D03*
X146150000Y-72000000D03*
D21*
X106490000Y-81402000D03*
X107760000Y-81402000D03*
X109030000Y-81402000D03*
X110300000Y-81402000D03*
X111570000Y-81402000D03*
X112840000Y-81402000D03*
X114110000Y-81402000D03*
X114110000Y-75052000D03*
X112840000Y-75052000D03*
X110300000Y-75052000D03*
X109030000Y-75052000D03*
X107760000Y-75052000D03*
X106490000Y-75052000D03*
X111570000Y-75052000D03*
X106355000Y-65625000D03*
X108895000Y-65625000D03*
X110165000Y-65625000D03*
X111435000Y-65625000D03*
X112705000Y-65625000D03*
X113975000Y-65625000D03*
X115245000Y-65625000D03*
X115245000Y-71975000D03*
X113975000Y-71975000D03*
X112705000Y-71975000D03*
X111435000Y-71975000D03*
X110165000Y-71975000D03*
X108895000Y-71975000D03*
X107625000Y-71975000D03*
X106355000Y-71975000D03*
X107625000Y-65625000D03*
D11*
X103000000Y-58000000D03*
M02*
