G04 #@! TF.FileFunction,Soldermask,Bot*
%FSLAX46Y46*%
G04 Gerber Fmt 4.6, Leading zero omitted, Abs format (unit mm)*
G04 Created by KiCad (PCBNEW 4.0.6) date Thu Jun 20 17:07:18 2019*
%MOMM*%
%LPD*%
G01*
G04 APERTURE LIST*
%ADD10C,0.100000*%
%ADD11C,3.301600*%
%ADD12O,1.828800X2.133600*%
%ADD13C,2.501600*%
%ADD14R,2.501600X2.501600*%
%ADD15R,1.801600X1.801600*%
%ADD16O,1.801600X1.801600*%
G04 APERTURE END LIST*
D10*
D11*
X130000000Y-90000000D03*
D12*
X142000000Y-62000000D03*
X139460000Y-62000000D03*
X136920000Y-62000000D03*
X134380000Y-62000000D03*
X131840000Y-62000000D03*
X129300000Y-62000000D03*
X126760000Y-62000000D03*
X124220000Y-62000000D03*
X121680000Y-62000000D03*
X119140000Y-62000000D03*
X116600000Y-62000000D03*
X114060000Y-62000000D03*
X111520000Y-62000000D03*
X108980000Y-62000000D03*
X106440000Y-62000000D03*
X142000000Y-84860000D03*
X111520000Y-84860000D03*
X108980000Y-84860000D03*
X114060000Y-84860000D03*
X129300000Y-84860000D03*
X131840000Y-84860000D03*
X126760000Y-84860000D03*
X106440000Y-84860000D03*
X121680000Y-84860000D03*
X124220000Y-84860000D03*
X119140000Y-84860000D03*
X116600000Y-84860000D03*
X136920000Y-84860000D03*
X134380000Y-84860000D03*
X139460000Y-84860000D03*
D11*
X157000000Y-58000000D03*
D13*
X155200000Y-78300000D03*
D14*
X155200000Y-81800000D03*
D15*
X153600000Y-69200000D03*
D16*
X153600000Y-71740000D03*
X151060000Y-69200000D03*
X151060000Y-71740000D03*
D15*
X110000000Y-91500000D03*
D16*
X107460000Y-91500000D03*
X104920000Y-91500000D03*
X102380000Y-91500000D03*
D15*
X158000000Y-91500000D03*
D16*
X155460000Y-91500000D03*
X152920000Y-91500000D03*
X150380000Y-91500000D03*
D11*
X103000000Y-58000000D03*
M02*
